<svg width="406" height="307" viewBox="0 0 406 307" fill="none" xmlns="http://www.w3.org/2000/svg">
<path d="M231.136 256.166C228.583 256.195 226.039 255.853 223.584 255.151C217.109 253.202 211.313 247.772 207.699 240.271C204.462 233.552 203.162 226.153 201.914 218.956C201.901 218.892 201.901 218.826 201.915 218.762C201.928 218.698 201.955 218.637 201.993 218.584C202.031 218.53 202.08 218.486 202.136 218.452C202.192 218.418 202.255 218.396 202.32 218.388C202.383 218.376 202.448 218.377 202.511 218.391C202.574 218.405 202.634 218.43 202.687 218.467C202.74 218.504 202.785 218.551 202.819 218.605C202.854 218.66 202.877 218.72 202.888 218.784C204.127 225.889 205.406 233.217 208.583 239.815C212.084 247.072 217.657 252.299 223.868 254.177C228.385 255.527 233.308 255.192 237.957 254.644C247.914 253.466 253.983 250.381 256.531 245.225C256.622 245.022 256.714 244.839 256.775 244.666C255.181 245.113 253.608 245.681 252.065 246.26C250.786 246.727 249.467 247.204 248.147 247.62C241.725 249.635 234.913 250.081 228.284 248.919C225.086 248.351 223.138 246.808 223.067 244.798C222.996 242.789 224.731 241.185 227.827 240.292C236.309 237.826 245.295 237.662 253.862 239.815C256.298 240.424 257.637 241.439 257.922 242.91C257.952 243.071 257.972 243.234 257.983 243.398C258.368 243.306 258.754 243.225 259.15 243.154C263.271 242.423 267.574 242.839 271.736 243.235C277.643 243.804 283.226 244.342 288.26 241.865C288.379 241.809 288.514 241.802 288.638 241.846C288.761 241.89 288.863 241.98 288.92 242.098C288.949 242.156 288.967 242.219 288.971 242.284C288.976 242.349 288.968 242.414 288.947 242.475C288.926 242.537 288.893 242.593 288.85 242.642C288.807 242.691 288.755 242.73 288.696 242.758C283.408 245.346 277.43 244.788 271.644 244.22C267.584 243.824 263.311 243.418 259.322 244.128C258.835 244.21 258.307 244.321 257.871 244.433C257.752 244.882 257.585 245.318 257.374 245.732C254.674 251.213 248.34 254.471 238.038 255.699C235.748 255.992 233.444 256.148 231.136 256.166ZM241.722 239.277C237.113 239.278 232.527 239.931 228.101 241.215C226.863 241.571 223.98 242.646 224.041 244.748C224.102 246.849 227.421 247.793 228.436 247.924C234.904 249.079 241.555 248.668 247.833 246.727C249.132 246.321 250.441 245.844 251.7 245.387C253.435 244.748 255.201 244.098 257.018 243.621C257.039 243.449 257.039 243.275 257.018 243.103C256.785 242.027 255.679 241.266 253.638 240.748C249.742 239.768 245.74 239.274 241.722 239.277Z" fill="#E6E7E8"/>
<path d="M350.672 100.831H284.606C281.938 100.831 279.775 102.994 279.775 105.662V246.95C279.775 249.619 281.938 251.782 284.606 251.782H350.672C353.341 251.782 355.504 249.619 355.504 246.95V105.662C355.504 102.994 353.341 100.831 350.672 100.831Z" fill="white"/>
<path d="M350.672 252.269H284.606C283.196 252.266 281.845 251.705 280.848 250.708C279.851 249.711 279.29 248.36 279.287 246.95V105.652C279.29 104.242 279.851 102.891 280.848 101.894C281.845 100.897 283.196 100.336 284.606 100.333H350.672C352.084 100.333 353.438 100.894 354.437 101.891C355.436 102.888 355.998 104.241 356.001 105.652V246.95C355.998 248.362 355.436 249.715 354.437 250.712C353.438 251.709 352.084 252.269 350.672 252.269ZM284.606 101.318C283.457 101.318 282.354 101.775 281.541 102.587C280.729 103.4 280.272 104.503 280.272 105.652V246.95C280.272 248.1 280.729 249.202 281.541 250.015C282.354 250.828 283.457 251.284 284.606 251.284H350.672C351.822 251.284 352.924 250.828 353.737 250.015C354.55 249.202 355.006 248.1 355.006 246.95V105.652C355.006 104.503 354.55 103.4 353.737 102.587C352.924 101.775 351.822 101.318 350.672 101.318H284.606Z" fill="#231F20"/>
<path d="M351.525 114.482H283.753V230.649H351.525V114.482Z" fill="#ED1E79"/>
<path d="M324.089 236.303H311.189C309.552 236.303 308.225 237.63 308.225 239.267V244.21C308.225 245.846 309.552 247.173 311.189 247.173H324.089C325.726 247.173 327.053 245.846 327.053 244.21V239.267C327.053 237.63 325.726 236.303 324.089 236.303Z" fill="white"/>
<path d="M324.079 247.661H311.199C310.281 247.661 309.401 247.296 308.752 246.647C308.102 245.998 307.738 245.118 307.738 244.2V239.277C307.738 238.359 308.102 237.479 308.752 236.829C309.401 236.18 310.281 235.816 311.199 235.816H324.079C324.535 235.814 324.986 235.903 325.407 236.076C325.828 236.25 326.211 236.504 326.533 236.826C326.856 237.147 327.112 237.529 327.286 237.95C327.461 238.371 327.551 238.821 327.551 239.277V244.2C327.548 245.118 327.181 245.999 326.53 246.648C325.88 247.296 324.998 247.661 324.079 247.661ZM311.199 236.8C310.542 236.8 309.912 237.061 309.448 237.526C308.983 237.99 308.722 238.62 308.722 239.277V244.2C308.722 244.856 308.983 245.486 309.448 245.951C309.912 246.415 310.542 246.676 311.199 246.676H324.079C324.736 246.676 325.366 246.415 325.831 245.951C326.295 245.486 326.556 244.856 326.556 244.2V239.277C326.556 238.62 326.295 237.99 325.831 237.526C325.366 237.061 324.736 236.8 324.079 236.8H311.199Z" fill="#E6E7E8"/>
<path d="M324.485 107.834H305.2C305.136 107.836 305.071 107.824 305.011 107.8C304.95 107.776 304.896 107.74 304.849 107.695C304.803 107.65 304.766 107.596 304.741 107.536C304.716 107.476 304.703 107.412 304.703 107.347C304.703 107.215 304.755 107.089 304.849 106.995C304.942 106.902 305.068 106.85 305.2 106.85H324.485C324.55 106.85 324.614 106.863 324.674 106.888C324.734 106.913 324.788 106.95 324.833 106.996C324.879 107.042 324.915 107.097 324.938 107.157C324.962 107.218 324.974 107.282 324.973 107.347C324.974 107.411 324.962 107.475 324.938 107.535C324.914 107.595 324.878 107.649 324.833 107.695C324.787 107.74 324.733 107.776 324.673 107.8C324.614 107.824 324.55 107.836 324.485 107.834Z" fill="#E6E7E8"/>
<path d="M329.773 107.834H327.185C327.056 107.834 326.932 107.783 326.841 107.691C326.749 107.6 326.698 107.476 326.698 107.347C326.698 107.217 326.749 107.092 326.84 106.999C326.931 106.906 327.055 106.852 327.185 106.85H329.773C329.905 106.85 330.032 106.902 330.125 106.995C330.218 107.089 330.271 107.215 330.271 107.347C330.271 107.412 330.258 107.476 330.233 107.536C330.208 107.596 330.171 107.65 330.125 107.695C330.078 107.74 330.023 107.776 329.963 107.8C329.903 107.824 329.838 107.836 329.773 107.834Z" fill="#E6E7E8"/>
<path d="M342.918 187.471H292.32C291.313 187.471 290.348 187.071 289.636 186.359C288.924 185.648 288.524 184.682 288.524 183.675V158.686C288.523 158.187 288.62 157.692 288.81 157.23C289 156.768 289.28 156.349 289.632 155.995C289.985 155.641 290.404 155.361 290.865 155.17C291.326 154.978 291.821 154.88 292.32 154.88H342.877C343.887 154.88 344.855 155.281 345.569 155.994C346.282 156.708 346.683 157.676 346.683 158.686V183.675C346.681 184.676 346.284 185.635 345.579 186.346C344.875 187.056 343.918 187.461 342.918 187.471ZM292.32 155.874C291.574 155.874 290.859 156.171 290.332 156.698C289.805 157.225 289.508 157.94 289.508 158.686V183.675C289.508 184.421 289.805 185.136 290.332 185.663C290.859 186.191 291.574 186.487 292.32 186.487H342.877C343.623 186.487 344.338 186.191 344.865 185.663C345.392 185.136 345.689 184.421 345.689 183.675V158.686C345.689 157.94 345.392 157.225 344.865 156.698C344.338 156.171 343.623 155.874 342.877 155.874H292.32Z" fill="white"/>
<path d="M289.052 184.599C288.95 184.597 288.851 184.564 288.769 184.504C288.686 184.444 288.624 184.36 288.591 184.264C288.558 184.167 288.555 184.063 288.583 183.965C288.611 183.867 288.668 183.78 288.747 183.716L313.797 163.893C313.894 163.819 314.015 163.783 314.137 163.792C314.259 163.802 314.373 163.856 314.457 163.943L329.408 179.453C329.5 179.546 329.552 179.672 329.552 179.803C329.552 179.934 329.5 180.06 329.408 180.153C329.363 180.198 329.309 180.234 329.25 180.259C329.191 180.284 329.127 180.296 329.063 180.296C328.999 180.296 328.935 180.284 328.876 180.259C328.817 180.234 328.763 180.198 328.718 180.153L314.082 164.928L289.377 184.477C289.287 184.557 289.171 184.6 289.052 184.599Z" fill="white"/>
<path d="M346.227 179.625C346.157 179.624 346.088 179.608 346.025 179.579C345.962 179.549 345.906 179.506 345.861 179.453L337.559 170.044L328.068 177.971C327.969 178.054 327.84 178.095 327.711 178.083C327.581 178.072 327.462 178.009 327.378 177.91C327.295 177.81 327.254 177.682 327.266 177.552C327.277 177.423 327.339 177.303 327.439 177.22L337.295 168.978C337.386 168.889 337.508 168.84 337.635 168.84C337.762 168.84 337.884 168.889 337.975 168.978L346.592 178.752C346.637 178.798 346.674 178.851 346.698 178.911C346.723 178.97 346.735 179.033 346.735 179.097C346.735 179.162 346.723 179.225 346.698 179.284C346.674 179.343 346.637 179.397 346.592 179.443C346.55 179.5 346.495 179.546 346.431 179.578C346.368 179.61 346.298 179.626 346.227 179.625Z" fill="white"/>
<path d="M329.053 168.125C328.291 168.127 327.546 167.903 326.912 167.481C326.278 167.059 325.783 166.459 325.491 165.755C325.198 165.052 325.121 164.278 325.269 163.53C325.417 162.783 325.784 162.097 326.323 161.558C326.861 161.02 327.548 160.653 328.295 160.505C329.042 160.357 329.816 160.434 330.52 160.726C331.223 161.019 331.824 161.513 332.245 162.148C332.667 162.782 332.892 163.527 332.89 164.289C332.887 165.305 332.482 166.28 331.763 166.999C331.044 167.718 330.07 168.123 329.053 168.125ZM329.053 161.426C328.486 161.424 327.932 161.59 327.46 161.904C326.988 162.217 326.619 162.663 326.401 163.186C326.183 163.709 326.125 164.285 326.234 164.841C326.343 165.397 326.615 165.908 327.015 166.309C327.415 166.71 327.925 166.984 328.481 167.095C329.036 167.206 329.612 167.15 330.136 166.934C330.659 166.718 331.107 166.351 331.422 165.88C331.737 165.409 331.905 164.855 331.905 164.289C331.905 163.531 331.605 162.805 331.07 162.268C330.536 161.732 329.81 161.429 329.053 161.426Z" fill="white"/>
<path d="M296.258 211.74H293.528C291.611 211.74 290.057 213.294 290.057 215.211V219.474C290.057 221.391 291.611 222.945 293.528 222.945H296.258C298.175 222.945 299.729 221.391 299.729 219.474V215.211C299.729 213.294 298.175 211.74 296.258 211.74Z" fill="white"/>
<path d="M311.422 211.74H308.692C306.775 211.74 305.221 213.294 305.221 215.211V219.474C305.221 221.391 306.775 222.945 308.692 222.945H311.422C313.339 222.945 314.894 221.391 314.894 219.474V215.211C314.894 213.294 313.339 211.74 311.422 211.74Z" fill="white"/>
<path d="M326.586 211.74H323.856C321.939 211.74 320.385 213.294 320.385 215.211V219.474C320.385 221.391 321.939 222.945 323.856 222.945H326.586C328.504 222.945 330.058 221.391 330.058 219.474V215.211C330.058 213.294 328.504 211.74 326.586 211.74Z" fill="white"/>
<path d="M341.751 211.74H339.02C337.103 211.74 335.549 213.294 335.549 215.211V219.474C335.549 221.391 337.103 222.945 339.02 222.945H341.751C343.668 222.945 345.222 221.391 345.222 219.474V215.211C345.222 213.294 343.668 211.74 341.751 211.74Z" fill="white"/>
<path d="M345.506 124.166H289.772C289.708 124.167 289.643 124.155 289.583 124.132C289.523 124.108 289.468 124.072 289.421 124.027C289.375 123.981 289.338 123.927 289.313 123.867C289.288 123.808 289.275 123.743 289.275 123.679C289.275 123.547 289.327 123.42 289.421 123.327C289.514 123.234 289.64 123.181 289.772 123.181H345.506C345.638 123.181 345.764 123.234 345.858 123.327C345.951 123.42 346.003 123.547 346.003 123.679C346.003 123.743 345.99 123.808 345.965 123.867C345.94 123.927 345.903 123.981 345.857 124.027C345.811 124.072 345.756 124.108 345.696 124.132C345.635 124.155 345.571 124.167 345.506 124.166Z" fill="white"/>
<path d="M345.506 132.022H289.772C289.638 132.022 289.509 131.968 289.413 131.873C289.318 131.778 289.265 131.649 289.265 131.514C289.265 131.38 289.318 131.251 289.413 131.155C289.509 131.06 289.638 131.007 289.772 131.007H345.506C345.641 131.007 345.77 131.06 345.865 131.155C345.96 131.251 346.013 131.38 346.013 131.514C346.013 131.649 345.96 131.778 345.865 131.873C345.77 131.968 345.641 132.022 345.506 132.022Z" fill="white"/>
<path d="M345.506 139.878H289.772C289.64 139.878 289.514 139.825 289.421 139.732C289.327 139.639 289.275 139.512 289.275 139.38C289.275 139.316 289.288 139.251 289.313 139.192C289.338 139.132 289.375 139.078 289.421 139.032C289.468 138.987 289.523 138.951 289.583 138.927C289.643 138.903 289.708 138.892 289.772 138.893H345.506C345.571 138.892 345.635 138.903 345.696 138.927C345.756 138.951 345.811 138.987 345.857 139.032C345.903 139.078 345.94 139.132 345.965 139.192C345.99 139.251 346.003 139.316 346.003 139.38C346.003 139.512 345.951 139.639 345.858 139.732C345.764 139.825 345.638 139.878 345.506 139.878Z" fill="white"/>
<path d="M345.506 147.734H289.772C289.638 147.734 289.509 147.681 289.413 147.585C289.318 147.49 289.265 147.361 289.265 147.226C289.265 147.092 289.318 146.963 289.413 146.868C289.509 146.772 289.638 146.719 289.772 146.719H345.506C345.641 146.719 345.77 146.772 345.865 146.868C345.96 146.963 346.013 147.092 346.013 147.226C346.013 147.361 345.96 147.49 345.865 147.585C345.77 147.681 345.641 147.734 345.506 147.734Z" fill="white"/>
<path d="M345.506 196.393H289.772C289.638 196.393 289.509 196.339 289.413 196.244C289.318 196.149 289.265 196.02 289.265 195.885C289.265 195.751 289.318 195.622 289.413 195.527C289.509 195.431 289.638 195.378 289.772 195.378H345.506C345.641 195.378 345.77 195.431 345.865 195.527C345.96 195.622 346.013 195.751 346.013 195.885C346.013 196.02 345.96 196.149 345.865 196.244C345.77 196.339 345.641 196.393 345.506 196.393Z" fill="white"/>
<path d="M345.506 204.259H289.772C289.708 204.261 289.643 204.249 289.583 204.225C289.523 204.201 289.468 204.166 289.421 204.12C289.375 204.075 289.338 204.021 289.313 203.961C289.288 203.901 289.275 203.837 289.275 203.772C289.275 203.64 289.327 203.514 289.421 203.42C289.514 203.327 289.64 203.275 289.772 203.275H345.506C345.638 203.275 345.764 203.327 345.858 203.42C345.951 203.514 346.003 203.64 346.003 203.772C346.003 203.837 345.99 203.901 345.965 203.961C345.94 204.021 345.903 204.075 345.857 204.12C345.811 204.166 345.756 204.201 345.696 204.225C345.635 204.249 345.571 204.261 345.506 204.259Z" fill="white"/>
<path d="M335.123 47.797C335.123 47.797 336.371 42.4784 335.214 39.4537C334.873 38.6007 334.272 37.8773 333.495 37.3869C332.718 36.8965 331.807 36.6642 330.89 36.7233C330.89 36.7233 322.486 34.8557 320.06 32.6633L321.156 36.5406C319.694 36.4379 318.266 36.0482 316.954 35.3937C316.785 36.0565 316.796 36.7526 316.987 37.4096C317.178 38.0665 317.542 38.6602 318.04 39.1289C317.435 39.4188 316.772 39.5694 316.101 39.5694C315.43 39.5694 314.768 39.4188 314.163 39.1289C314.163 39.1289 316.467 44.7824 321.826 44.2039C325.318 43.6862 331.499 48.9642 335.123 47.797Z" fill="white"/>
<path d="M333.935 48.467C332.017 48.467 329.773 47.452 327.581 46.437C325.389 45.422 323.328 44.407 321.857 44.6202C316.183 45.2799 313.737 39.3523 313.676 39.2914C313.639 39.1957 313.633 39.0912 313.659 38.992C313.684 38.8929 313.739 38.8039 313.817 38.7373C313.895 38.6707 313.991 38.6297 314.093 38.6199C314.195 38.6101 314.297 38.6319 314.386 38.6824C315.231 39.1233 316.214 39.2179 317.127 38.9463C316.756 38.4224 316.504 37.8245 316.386 37.1938C316.269 36.563 316.29 35.9144 316.447 35.2923C316.463 35.2229 316.495 35.1583 316.541 35.1037C316.587 35.049 316.645 35.0059 316.71 34.9777C316.776 34.95 316.847 34.9358 316.919 34.9358C316.99 34.9358 317.061 34.95 317.127 34.9777C318.185 35.4648 319.305 35.8063 320.456 35.9927L319.552 32.8056C319.524 32.7019 319.53 32.592 319.568 32.4917C319.606 32.3914 319.676 32.3058 319.766 32.2473C319.857 32.1914 319.964 32.1671 320.07 32.1781C320.177 32.1891 320.276 32.2348 320.354 32.3082C322.547 34.3382 330.088 36.0536 330.9 36.2464C331.916 36.18 332.926 36.4395 333.784 36.9871C334.642 37.5348 335.303 38.3421 335.671 39.2914C336.878 42.4176 335.671 47.6956 335.6 47.9189C335.584 48.0008 335.546 48.077 335.491 48.1395C335.435 48.202 335.364 48.2485 335.285 48.2742C334.848 48.4105 334.392 48.4756 333.935 48.467ZM322.202 43.5747C323.866 43.5747 325.876 44.5187 327.997 45.5032C330.423 46.64 332.93 47.8073 334.706 47.4013C334.94 46.2848 335.721 42.0928 334.757 39.6365C334.453 38.8741 333.915 38.2282 333.22 37.7921C332.525 37.356 331.709 37.1524 330.89 37.2107H330.738C330.433 37.1396 324.11 35.7288 320.862 33.851L321.582 36.3987C321.603 36.4728 321.606 36.5506 321.592 36.6262C321.578 36.7018 321.547 36.7733 321.501 36.8351C321.455 36.8955 321.394 36.9443 321.326 36.9777C321.257 37.0112 321.182 37.0284 321.105 37.028C319.787 36.9495 318.494 36.6331 317.289 36.0942C317.23 36.5849 317.292 37.0826 317.469 37.5442C317.646 38.0057 317.933 38.4173 318.304 38.7433C318.365 38.7973 318.413 38.865 318.443 38.9409C318.473 39.0167 318.484 39.0986 318.477 39.1798C318.468 39.2623 318.439 39.3413 318.391 39.409C318.343 39.4766 318.278 39.5306 318.203 39.5655C317.249 39.995 316.19 40.1362 315.158 39.9715C316.091 41.494 318.202 44.0315 321.745 43.6153C321.896 43.5913 322.049 43.5778 322.202 43.5747Z" fill="#231F20"/>
<path d="M342.217 92.3048C342.217 92.3048 349.546 76.2779 348.653 65.7727C347.759 55.2674 340.878 54.6077 338.502 54.4757C336.127 54.3438 323.47 52.6386 318.852 58.2921C314.234 63.9457 315.432 91.1781 315.432 91.1781L342.217 92.3048Z" fill="#ED1E79"/>
<path d="M314.894 85.7884C309.504 88.2538 304.356 91.217 299.516 94.6392C295.233 97.5421 292.807 128.185 292.807 128.185C292.807 128.185 293.69 133.108 299.384 132.336L314.376 98.2018C314.376 98.2018 319.725 85.6564 314.894 85.7884Z" fill="#231F20"/>
<path d="M298.217 132.884C296.846 132.919 295.506 132.474 294.429 131.625C293.352 130.776 292.606 129.577 292.32 128.236C292.315 128.195 292.315 128.154 292.32 128.114C292.574 124.947 294.898 97.1564 299.242 94.2027C304.117 90.775 309.299 87.8053 314.721 85.3316C314.778 85.3165 314.837 85.3165 314.894 85.3316C315.273 85.3029 315.654 85.3739 315.997 85.5377C316.341 85.7016 316.636 85.9524 316.853 86.2654C318.751 89.0567 315.249 97.4304 314.823 98.4454L299.831 132.59C299.797 132.667 299.743 132.733 299.675 132.783C299.608 132.833 299.529 132.864 299.445 132.874C299.037 132.906 298.626 132.909 298.217 132.884ZM293.335 128.134C293.447 128.662 294.421 132.346 299.08 131.859L313.96 97.9887C314.975 95.5527 317.411 88.7725 316.061 86.8237C315.949 86.6597 315.797 86.5271 315.619 86.4383C315.442 86.3495 315.244 86.3074 315.046 86.3162C309.723 88.7784 304.628 91.7063 299.821 95.0655C296.451 97.2883 293.985 119.608 293.335 128.134Z" fill="#231F20"/>
<path d="M342.816 88.935C342.816 88.935 321.288 89.5542 316.223 88.8132C316.223 88.8132 315.939 88.8741 312.224 95.7152C308.509 102.556 313.848 133.828 313.848 133.828C313.848 133.828 318.74 139.005 322.608 138.264L327.185 102.607C327.185 102.607 334.991 102.841 339.365 99.7346C342.37 97.5524 342.238 92.8935 342.816 88.935Z" fill="#231F20"/>
<path d="M321.816 138.832C317.939 138.832 313.696 134.366 313.483 134.163C313.416 134.094 313.374 134.005 313.361 133.91C313.138 132.631 308.032 102.445 311.788 95.4817C315.543 88.5188 315.848 88.3767 316.122 88.3767H316.294C321.258 89.1177 342.593 88.5087 342.806 88.4985C342.879 88.494 342.952 88.5063 343.019 88.5344C343.086 88.5625 343.146 88.6056 343.194 88.6605C343.242 88.7154 343.277 88.7806 343.296 88.851C343.315 88.9215 343.318 88.9953 343.303 89.0669C343.202 89.7977 343.111 90.559 343.029 91.3202C342.654 94.7509 342.268 98.2933 339.609 100.201C335.752 102.962 329.378 103.165 327.622 103.165L323.095 138.284C323.082 138.388 323.037 138.485 322.966 138.561C322.895 138.638 322.801 138.69 322.699 138.711C322.409 138.777 322.113 138.818 321.816 138.832ZM314.305 133.595C314.985 134.285 318.954 138.122 322.161 137.828L326.698 102.546C326.711 102.423 326.771 102.31 326.866 102.23C326.96 102.151 327.082 102.111 327.206 102.12C327.287 102.12 334.889 102.303 339.04 99.3387C341.334 97.6843 341.7 94.3652 342.085 91.1477C342.146 90.5793 342.207 90.0007 342.278 89.4425C338.807 89.5338 321.501 89.9601 316.467 89.3308C316.172 89.7571 315.269 91.1883 312.681 95.9486C309.189 102.333 313.909 131.23 314.305 133.595Z" fill="#231F20"/>
<path d="M318.842 58.2922C318.842 58.2922 315.432 64.8593 313.422 68.2291C311.5 71.1203 309.366 73.865 307.038 76.4404C307.038 76.4404 291.559 81.9417 291.467 82.2361C291.376 82.5304 292.929 87.7374 292.929 87.7374C292.929 87.7374 309.169 86.5701 311.849 85.3014C314.528 84.0326 319.969 77.7904 319.969 77.7904L318.842 58.2922Z" fill="#ED1E79"/>
<path d="M325.145 54.77L326.069 60.3728C326.646 61.2044 327.506 61.7972 328.489 62.0401C329.472 62.283 330.51 62.1593 331.408 61.6923C334.95 60.1292 334.95 57.4496 334.95 57.4496L333.062 47.0966C333.062 47.0966 329.794 45.8278 328.099 39.4536C328.099 39.4536 319.979 40.0728 320.537 43.1076C320.537 43.1076 320.436 48.8221 321.298 51.6032C321.608 52.4205 322.126 53.1427 322.801 53.6982C323.475 54.2537 324.284 54.6232 325.145 54.77Z" fill="white"/>
<path d="M329.418 62.6465C328.676 62.6231 327.95 62.4275 327.296 62.0752C326.643 61.7229 326.08 61.2235 325.653 60.6165C325.62 60.5594 325.596 60.4978 325.582 60.4338L324.709 55.1457C323.818 54.9676 322.989 54.559 322.305 53.9606C321.621 53.3622 321.106 52.5949 320.811 51.7353C319.928 48.9034 320.019 43.3108 320.019 43.0773C319.981 42.7984 320 42.5146 320.077 42.2437C320.154 41.9729 320.286 41.721 320.466 41.5041C322.06 39.4741 327.429 38.9869 328.038 38.9463C328.153 38.9375 328.268 38.9692 328.362 39.0359C328.457 39.1025 328.525 39.2001 328.556 39.3117C330.149 45.3103 333.194 46.6095 333.224 46.6197C333.302 46.6495 333.371 46.6987 333.424 46.7627C333.478 46.8266 333.514 46.9032 333.529 46.9851L335.417 57.3381C335.417 57.5512 335.417 60.4744 331.611 62.1289C330.924 62.4522 330.177 62.6285 329.418 62.6465ZM326.536 60.1801C327.058 60.8891 327.818 61.3867 328.677 61.5824C329.536 61.778 330.437 61.6585 331.215 61.2458C334.361 59.8654 334.442 57.5411 334.442 57.4396L332.605 47.4317C331.773 46.9952 329.215 45.2393 327.713 39.9816C325.947 40.1643 322.283 40.7936 321.237 42.1334C321.135 42.254 321.062 42.3959 321.021 42.5486C320.981 42.7013 320.975 42.8611 321.004 43.0164C321.004 43.1687 320.923 48.7816 321.755 51.4612C322.023 52.1923 322.481 52.8386 323.082 53.3329C323.684 53.8273 324.406 54.1518 325.176 54.2728L325.379 54.3337C325.444 54.3708 325.501 54.4219 325.545 54.4832C325.589 54.5446 325.618 54.6148 325.632 54.6889L326.536 60.1801Z" fill="#231F20"/>
<path d="M330.89 47.2996C330.93 46.7753 331.136 46.2774 331.479 45.8786C331.815 45.5201 332.21 45.2214 332.646 44.9955C332.874 44.851 333.13 44.7576 333.397 44.7215C333.588 44.7198 333.777 44.7542 333.955 44.823C334.371 44.9528 334.729 45.2216 334.97 45.5842C335.128 45.8989 335.209 46.2471 335.204 46.5992C335.232 46.9902 335.205 47.3833 335.123 47.7665C335.035 48.1473 334.872 48.5067 334.643 48.8239C334.415 49.141 334.126 49.4096 333.793 49.6138C333.119 50.0171 332.315 50.1443 331.55 49.969" fill="white"/>
<path d="M332.24 50.5782C331.966 50.575 331.694 50.541 331.428 50.4767C331.3 50.4454 331.19 50.3649 331.122 50.2526C331.053 50.1404 331.032 50.0057 331.063 49.8778C331.078 49.8148 331.106 49.7555 331.144 49.7034C331.183 49.6513 331.232 49.6074 331.287 49.5743C331.343 49.5412 331.405 49.5196 331.469 49.5107C331.533 49.5018 331.599 49.5059 331.661 49.5226C332.302 49.6672 332.974 49.5619 333.539 49.2282C334.095 48.8781 334.492 48.3244 334.646 47.6854C334.713 47.3515 334.737 47.0104 334.717 46.6704C334.726 46.3898 334.666 46.1111 334.544 45.8584C334.357 45.5867 334.08 45.3891 333.762 45.3002C333.644 45.2625 333.521 45.2386 333.397 45.2291C333.204 45.2644 333.021 45.3406 332.859 45.4524C332.48 45.6459 332.136 45.9034 331.844 46.2137C331.567 46.5303 331.402 46.9302 331.377 47.3505C331.367 47.4815 331.306 47.6034 331.208 47.6905C331.109 47.7775 330.981 47.823 330.849 47.8174C330.784 47.8135 330.721 47.7967 330.663 47.768C330.604 47.7392 330.552 47.699 330.51 47.6498C330.467 47.6006 330.435 47.5434 330.415 47.4815C330.395 47.4197 330.387 47.3544 330.393 47.2896C330.437 46.6576 330.682 46.0565 331.093 45.5742C331.462 45.1609 331.902 44.8171 332.392 44.5592C332.7 44.3687 333.047 44.2506 333.407 44.2141C333.663 44.2135 333.918 44.2581 334.158 44.3461C334.706 44.5104 335.172 44.8721 335.468 45.3611C335.671 45.7529 335.775 46.1884 335.772 46.6298C335.798 47.065 335.767 47.5017 335.681 47.929C335.501 48.6878 335.07 49.3639 334.459 49.8482C333.848 50.3325 333.091 50.5968 332.311 50.5985L332.24 50.5782Z" fill="#231F20"/>
<path d="M325.754 45.7974C325.754 45.7974 324.232 48.9642 324.739 49.4006C325.247 49.8371 326.515 49.3194 326.515 49.3194" fill="white"/>
<path d="M325.389 50.0606C325.054 50.0774 324.724 49.9769 324.455 49.7764C324.242 49.6038 323.623 49.0963 325.318 45.5844C325.375 45.469 325.474 45.3802 325.595 45.3367C325.716 45.2931 325.85 45.2983 325.967 45.351C326.027 45.3782 326.08 45.417 326.124 45.4652C326.168 45.5134 326.202 45.5699 326.224 45.6314C326.245 45.693 326.255 45.7583 326.251 45.8234C326.247 45.8886 326.23 45.9523 326.201 46.0107C325.707 46.9673 325.365 47.9945 325.186 49.0557C325.595 49.1048 326.01 49.038 326.383 48.8629C326.505 48.8149 326.64 48.8155 326.761 48.8646C326.882 48.9138 326.979 49.0077 327.033 49.1268C327.058 49.1874 327.07 49.2524 327.07 49.3179C327.07 49.3834 327.056 49.4482 327.031 49.5085C327.006 49.5689 326.968 49.6236 326.922 49.6696C326.875 49.7156 326.82 49.7519 326.759 49.7764C326.323 49.9528 325.859 50.0491 325.389 50.0606Z" fill="#231F20"/>
<path d="M328.259 45.666C328.527 45.6388 328.713 45.3138 328.675 44.9402C328.637 44.5665 328.389 44.2856 328.122 44.3128C327.854 44.34 327.668 44.665 327.706 45.0386C327.744 45.4123 327.991 45.6932 328.259 45.666Z" fill="#231F20"/>
<path d="M324.149 46.39C324.417 46.3647 324.606 46.041 324.57 45.6671C324.535 45.2932 324.289 45.0106 324.021 45.0359C323.753 45.0613 323.565 45.3849 323.6 45.7588C323.636 46.1327 323.881 46.4153 324.149 46.39Z" fill="#231F20"/>
<path d="M326.201 52.5473C325.271 52.5277 324.352 52.3385 323.491 51.9891C323.431 51.9638 323.377 51.9267 323.331 51.8801C323.286 51.8335 323.251 51.7783 323.227 51.7178C323.203 51.6572 323.192 51.5926 323.194 51.5276C323.195 51.4627 323.21 51.3987 323.237 51.3395C323.292 51.2222 323.39 51.1306 323.511 51.0834C323.632 51.0362 323.766 51.037 323.886 51.0858C323.886 51.0858 326.191 52.1008 327.743 51.2177C328.15 50.9538 328.49 50.5993 328.737 50.1819C328.983 49.7645 329.13 49.2957 329.164 48.8121C329.186 48.6776 329.26 48.557 329.371 48.4771C329.481 48.3971 329.619 48.3643 329.753 48.3859C329.888 48.4074 330.008 48.4815 330.088 48.5919C330.168 48.7023 330.201 48.84 330.179 48.9745C330.123 49.607 329.92 50.2174 329.585 50.7569C329.25 51.2963 328.793 51.7496 328.251 52.0805C327.62 52.4134 326.913 52.5745 326.201 52.5473Z" fill="#231F20"/>
<path d="M325.145 54.77C325.145 54.77 328.758 54.9933 330.626 53.481C330.626 53.481 329.124 58.556 325.785 58.556L325.145 54.77Z" fill="#231F20"/>
<path d="M325.815 59.1144C325.698 59.1153 325.585 59.0735 325.498 58.9968C325.41 58.9201 325.353 58.8139 325.338 58.6982L324.699 54.8615C324.684 54.7875 324.688 54.7111 324.709 54.6388C324.731 54.5665 324.769 54.5002 324.82 54.4454C324.87 54.39 324.931 54.3465 324.999 54.3184C325.068 54.2902 325.142 54.2781 325.216 54.283C325.216 54.283 328.667 54.4758 330.352 53.1056C330.435 53.0422 330.535 53.0065 330.64 53.0034C330.744 53.0003 330.846 53.03 330.933 53.0884C331.019 53.1467 331.085 53.2307 331.121 53.3285C331.157 53.4263 331.161 53.5329 331.134 53.6334C331.073 53.8465 329.499 59.0535 325.825 59.1144H325.815ZM325.815 55.2878L326.282 58.0892C328.007 57.7949 329.154 55.907 329.753 54.6078C328.462 55.0741 327.096 55.3011 325.724 55.2777L325.815 55.2878Z" fill="#231F20"/>
<path d="M345.222 57.0842C348.115 57.5917 359.817 84.6516 355.808 87.7372C349.556 92.5585 327.794 87.7372 327.794 87.7372L329.571 79.3432C329.571 79.3432 343.557 79.739 343.781 76.8666C344.004 73.9941 335.66 60.6976 336.736 58.7082C337.812 56.7188 345.222 57.0842 345.222 57.0842Z" fill="#ED1E79"/>
<path d="M331.073 82.0635C328.75 82.2114 326.418 82.0991 324.12 81.7286C322.419 81.3153 320.673 81.1142 318.923 81.1297C316.617 81.2396 314.349 81.7585 312.224 82.6624C312.134 82.6908 312.053 82.7435 311.991 82.8146C311.788 83.0988 312.275 83.383 312.63 83.3932C313.552 83.4111 314.472 83.2949 315.361 83.0481C313.161 83.8607 311.082 84.967 309.179 86.3367C308.956 86.4889 308.722 86.7325 308.824 86.9761C308.925 87.2197 309.372 87.1791 309.656 87.0472L314.65 84.7634C313.354 85.2828 312.154 86.0133 311.097 86.9254C310.955 87.0573 310.783 87.2299 310.834 87.4227C310.884 87.6156 311.402 87.6968 311.717 87.5445C313.238 86.7837 314.691 85.894 316.061 84.8852L313.016 87.2603C313.016 87.5039 313.249 87.7171 313.503 87.7272C313.757 87.7112 314.003 87.6271 314.214 87.4836L317.654 85.4536L315.513 86.9558C315.168 87.1893 314.782 87.575 314.954 87.9708C315.127 88.3667 315.807 88.2753 316.254 88.0825C318.019 87.3172 319.864 86.752 321.755 86.3976C322.414 86.1828 323.095 86.0432 323.785 85.9814C324.848 86.1218 325.897 86.3527 326.921 86.6716C328.484 87.0167 330.037 87.372 331.59 87.6866" fill="white"/>
<path d="M315.452 88.7319C315.303 88.7348 315.155 88.7108 315.015 88.6609C314.901 88.6189 314.796 88.5541 314.707 88.4703C314.618 88.3866 314.547 88.2857 314.498 88.1737C314.453 88.0747 314.429 87.9676 314.427 87.859C314.147 88.0562 313.815 88.1658 313.473 88.1737C313.335 88.1666 313.2 88.1315 313.076 88.0704C312.952 88.0093 312.842 87.9236 312.752 87.8184C312.695 87.7505 312.647 87.6754 312.61 87.5951C312.397 87.7169 312.173 87.8286 311.95 87.9402C311.781 88.0335 311.593 88.089 311.401 88.103C311.208 88.117 311.015 88.0892 310.834 88.0214C310.73 87.9729 310.64 87.9008 310.569 87.8109C310.499 87.721 310.45 87.6158 310.428 87.5038C310.407 87.4033 310.407 87.2998 310.428 87.1993L309.879 87.453C309.567 87.6173 309.203 87.6537 308.864 87.5545C308.769 87.5201 308.682 87.4662 308.609 87.3964C308.535 87.3265 308.477 87.2421 308.438 87.1485C308.347 86.9557 308.235 86.4583 308.936 85.961C310.055 85.1534 311.236 84.4339 312.468 83.8092C312.288 83.7889 312.115 83.7281 311.962 83.6314C311.809 83.5347 311.68 83.4046 311.585 83.2509C311.529 83.1382 311.506 83.0124 311.516 82.8872C311.527 82.762 311.572 82.6421 311.646 82.5404C311.753 82.4019 311.897 82.2964 312.062 82.2359C314.237 81.3101 316.561 80.7807 318.923 80.6728C320.49 80.6359 322.056 80.7996 323.582 81.16L324.221 81.2717C326.489 81.6369 328.79 81.7492 331.083 81.6066C331.201 81.6065 331.314 81.6518 331.399 81.7332C331.484 81.8145 331.534 81.9255 331.54 82.0431C331.54 82.1618 331.495 82.2762 331.414 82.3629C331.333 82.4496 331.222 82.5022 331.103 82.51C328.746 82.6482 326.381 82.5325 324.049 82.1649L323.399 82.0431C321.943 81.7019 320.449 81.5417 318.954 81.566C316.819 81.6739 314.717 82.1334 312.732 82.9261C313.582 82.9445 314.431 82.835 315.249 82.6013C315.362 82.5636 315.485 82.5724 315.592 82.6257C315.698 82.679 315.78 82.7725 315.817 82.8855C315.855 82.9986 315.846 83.122 315.793 83.2286C315.74 83.3352 315.646 83.4162 315.533 83.4539C313.42 84.2331 311.417 85.284 309.575 86.5801L313.3 84.8749C313.686 84.6821 314.071 84.4994 314.467 84.3471C314.576 84.3 314.7 84.2982 314.81 84.3419C314.92 84.3857 315.009 84.4716 315.056 84.5806C315.103 84.6896 315.105 84.8129 315.061 84.9233C315.017 85.0337 314.932 85.1222 314.823 85.1693L313.696 85.6869C312.938 86.082 312.224 86.5548 311.564 87.0978C313.049 86.3546 314.466 85.4817 315.797 84.4892C315.844 84.4535 315.898 84.4275 315.955 84.4128C316.012 84.398 316.072 84.3948 316.131 84.4033C316.189 84.4118 316.246 84.4319 316.296 84.4623C316.347 84.4927 316.391 84.5329 316.426 84.5806C316.462 84.6271 316.489 84.6804 316.505 84.7373C316.52 84.7942 316.524 84.8536 316.517 84.9122C316.509 84.9707 316.49 85.0271 316.461 85.0782C316.431 85.1293 316.392 85.1741 316.345 85.2099L313.889 87.0775H313.95L317.39 85.0475C317.49 85.0024 317.603 84.9948 317.708 85.0261C317.813 85.0573 317.904 85.1253 317.963 85.2177C318.022 85.31 318.046 85.4205 318.03 85.5291C318.015 85.6376 317.96 85.7368 317.878 85.8087L315.726 87.3109C315.381 87.5545 315.31 87.7372 315.32 87.7575C315.564 87.8052 315.816 87.7619 316.03 87.6357C317.831 86.8535 319.714 86.2748 321.643 85.9102L322.293 85.7377C322.775 85.5825 323.278 85.5037 323.785 85.5042C324.561 85.5651 325.327 85.7149 326.069 85.9508C326.394 86.0422 326.708 86.1335 327.013 86.1944L331.682 87.2703C331.739 87.2837 331.793 87.3081 331.841 87.3424C331.889 87.3766 331.929 87.42 331.961 87.4699C331.992 87.5199 332.013 87.5755 332.022 87.6335C332.032 87.6916 332.03 87.751 332.017 87.8083C332.003 87.8656 331.979 87.9197 331.945 87.9676C331.91 88.0154 331.867 88.0561 331.817 88.0872C331.767 88.1183 331.711 88.1392 331.653 88.1489C331.595 88.1585 331.536 88.1566 331.479 88.1432C329.926 87.788 328.373 87.4226 326.81 87.1282C326.495 87.0572 326.17 86.9658 325.795 86.8745C325.135 86.6629 324.454 86.5234 323.765 86.4583C323.343 86.4652 322.924 86.5406 322.526 86.6816C322.293 86.7425 322.059 86.8136 321.816 86.8542C319.952 87.2182 318.135 87.7867 316.396 88.5492C316.096 88.6715 315.775 88.7335 315.452 88.7319Z" fill="#231F20"/>
<path d="M320.344 60.6672C319.573 61.4488 317.634 73.7506 316.924 79.5564L320.344 60.6672Z" fill="white"/>
<path d="M316.924 80.0131H316.863C316.746 79.9979 316.64 79.9371 316.567 79.8439C316.495 79.7508 316.463 79.6328 316.477 79.5158C316.913 75.9024 319.004 61.398 320.029 60.3526C320.116 60.2851 320.225 60.2513 320.335 60.2573C320.444 60.2633 320.548 60.3087 320.627 60.3853C320.706 60.4618 320.755 60.5643 320.765 60.6739C320.774 60.7835 320.744 60.8929 320.679 60.9819C320.019 61.8852 318.152 73.2228 317.37 79.6274C317.353 79.7342 317.299 79.8315 317.218 79.9021C317.136 79.9727 317.032 80.012 316.924 80.0131Z" fill="#231F20"/>
<path d="M291.153 91.1375L291.498 93.4415L323.349 98.0902L322.811 95.7151L291.153 91.1375Z" fill="white"/>
<path d="M323.349 98.5876H323.278L291.427 93.9288C291.322 93.9127 291.225 93.8637 291.151 93.7889C291.076 93.714 291.027 93.6172 291.011 93.5126L290.666 91.2086C290.651 91.1321 290.656 91.0533 290.679 90.979C290.702 90.9047 290.742 90.8372 290.798 90.7823C290.854 90.7292 290.922 90.6891 290.995 90.6646C291.069 90.64 291.147 90.6317 291.224 90.6402L322.882 95.228C322.979 95.242 323.071 95.2855 323.143 95.3525C323.216 95.4196 323.266 95.5071 323.288 95.6035L323.785 97.9888C323.806 98.065 323.806 98.1452 323.787 98.2217C323.767 98.2982 323.728 98.3683 323.673 98.4252C323.59 98.5192 323.474 98.5774 323.349 98.5876ZM291.884 93.0051L322.669 97.5016L322.364 96.1516L291.691 91.7161L291.884 93.0051Z" fill="#231F20"/>
<path d="M291.153 91.1376C291.153 91.1376 298.4 84.9156 298.643 84.9765C298.887 85.0374 331.458 88.935 331.458 88.935L322.77 95.7152L291.153 91.1376Z" fill="white"/>
<path d="M322.77 96.2126L291.082 91.5943C290.987 91.5793 290.899 91.5379 290.828 91.4751C290.756 91.4123 290.703 91.3305 290.676 91.2391C290.648 91.1489 290.648 91.0526 290.675 90.9622C290.702 90.8719 290.755 90.7916 290.828 90.7316C298.278 84.3371 298.44 84.3878 298.755 84.4589C299.242 84.5401 320.405 87.0776 331.519 88.4072C331.617 88.42 331.709 88.4616 331.783 88.5266C331.857 88.5917 331.91 88.6773 331.935 88.7726C331.965 88.8661 331.964 88.9664 331.933 89.0593C331.902 89.1522 331.842 89.233 331.763 89.2903L323.115 96.0705C323.07 96.1157 323.016 96.1515 322.957 96.1759C322.897 96.2003 322.834 96.2127 322.77 96.2126ZM292.32 90.8026L322.689 95.1976L330.24 89.2801C320.435 88.1027 300.947 85.7682 298.775 85.484C298.045 85.9408 294.746 88.7117 292.32 90.8026Z" fill="#231F20"/>
<path d="M323.349 98.0904L331.661 91.1376L331.458 88.9351L322.811 95.7153L323.349 98.0904Z" fill="white"/>
<path d="M323.349 98.5875C323.298 98.5971 323.247 98.5971 323.196 98.5875C323.115 98.5634 323.042 98.5176 322.985 98.455C322.927 98.3924 322.888 98.3154 322.872 98.2323L322.334 95.8572C322.31 95.7665 322.314 95.671 322.345 95.5825C322.376 95.4941 322.432 95.4166 322.506 95.3598L331.154 88.5492C331.224 88.4941 331.308 88.459 331.397 88.4475C331.485 88.436 331.575 88.4486 331.657 88.4839C331.739 88.5192 331.81 88.5759 331.863 88.6481C331.915 88.7203 331.947 88.8053 331.956 88.8943L332.149 91.0968C332.157 91.1766 332.146 91.2572 332.116 91.3316C332.086 91.406 332.038 91.4718 331.976 91.5231L323.663 98.486C323.572 98.5533 323.462 98.589 323.349 98.5875ZM323.349 95.9079L323.643 97.197L331.134 90.9243L331.042 89.9093L323.349 95.9079Z" fill="#231F20"/>
<path d="M291.153 91.1374L285.032 70.6243L318.609 76.3489L322.811 95.7151L291.153 91.1374Z" fill="white"/>
<path d="M322.77 96.2125L291.082 91.5942C290.987 91.5816 290.897 91.5411 290.825 91.4779C290.753 91.4147 290.701 91.3316 290.676 91.239L284.586 70.736C284.562 70.6553 284.56 70.57 284.578 70.4881C284.597 70.4061 284.636 70.3302 284.691 70.2674C284.747 70.2046 284.818 70.1569 284.897 70.1288C284.976 70.1007 285.061 70.0931 285.144 70.1067L318.71 75.8617C318.806 75.8777 318.895 75.922 318.965 75.9889C319.036 76.0558 319.085 76.1423 319.106 76.2373L323.288 95.6542C323.306 95.7313 323.305 95.8118 323.283 95.8882C323.262 95.9646 323.222 96.0342 323.166 96.0907C323.113 96.1388 323.05 96.1747 322.981 96.1957C322.913 96.2168 322.841 96.2225 322.77 96.2125ZM291.488 90.6909L322.141 95.1264L318.192 76.7752L285.712 71.2435L291.488 90.6909Z" fill="#231F20"/>
<path d="M338.381 90.6605H338.299L331.509 89.4933C331.396 89.4727 331.293 89.4143 331.218 89.3276C331.142 89.2409 331.098 89.1312 331.093 89.0162L330.88 80.8962C330.874 80.7714 330.918 80.6493 331.001 80.5563C331.085 80.4633 331.202 80.4068 331.326 80.3989L343.334 79.1606L337.995 60.7992C337.96 60.6741 337.976 60.5403 338.038 60.4265C338.101 60.3127 338.206 60.2279 338.33 60.1902C338.393 60.1715 338.458 60.1654 338.523 60.1721C338.588 60.1788 338.651 60.1982 338.709 60.2293C338.766 60.2604 338.817 60.3026 338.858 60.3534C338.9 60.4041 338.93 60.4625 338.949 60.5252L344.44 79.4143C344.461 79.4823 344.466 79.554 344.456 79.6242C344.445 79.6945 344.419 79.7615 344.379 79.8203C344.339 79.8803 344.287 79.9311 344.225 79.9696C344.164 80.0081 344.096 80.0333 344.024 80.0436L331.844 81.2921L332.047 88.5696L338.442 89.6658C338.508 89.6718 338.573 89.6909 338.632 89.722C338.692 89.753 338.744 89.7954 338.787 89.8468C338.83 89.8982 338.862 89.9575 338.882 90.0213C338.902 90.0852 338.909 90.1524 338.903 90.219C338.897 90.2857 338.878 90.3505 338.847 90.4098C338.816 90.469 338.774 90.5216 338.722 90.5645C338.671 90.6074 338.612 90.6397 338.548 90.6597C338.484 90.6797 338.417 90.6868 338.35 90.6808L338.381 90.6605Z" fill="#231F20"/>
<path d="M293.832 122.714C293.273 122.197 292.687 121.709 292.076 121.253C290.757 120.238 287.925 118.806 287.113 121.141C286.606 122.582 287.387 124.501 287.925 125.83C288.988 128.373 290.607 130.645 292.665 132.478C294.462 134.102 300.186 136.447 299.77 131.92C299.66 131.101 299.398 130.309 298.999 129.586C297.707 127.001 295.957 124.673 293.832 122.714Z" fill="white"/>
<path d="M297.659 135.006C295.71 134.848 293.86 134.081 292.371 132.813C290.261 130.935 288.6 128.608 287.509 126.003C286.961 124.643 286.129 122.602 286.687 120.989C286.786 120.65 286.967 120.341 287.213 120.089C287.459 119.836 287.762 119.646 288.098 119.537C289.752 119.04 291.934 120.552 292.35 120.897C292.971 121.36 293.567 121.855 294.137 122.379C296.308 124.373 298.097 126.746 299.415 129.383C299.838 130.157 300.114 131.004 300.227 131.88C300.389 133.646 299.658 134.407 299.009 134.722C298.588 134.923 298.125 135.02 297.659 135.006ZM288.808 120.339C288.657 120.337 288.507 120.358 288.362 120.4C288.16 120.467 287.978 120.584 287.835 120.74C287.691 120.896 287.589 121.087 287.539 121.293C287.093 122.572 287.844 124.429 288.341 125.658C289.379 128.139 290.961 130.355 292.97 132.143C294.249 133.311 297.253 134.6 298.613 133.92C299.192 133.625 299.425 132.986 299.334 131.961C299.223 131.199 298.975 130.463 298.603 129.789C297.343 127.247 295.623 124.962 293.528 123.049C292.98 122.542 292.401 122.034 291.812 121.618C290.954 120.913 289.911 120.469 288.808 120.339Z" fill="#231F20"/>
<path d="M313.168 125.241C312.777 124.968 312.305 124.835 311.828 124.866C311.53 124.937 311.256 125.088 311.037 125.302C310.628 125.724 310.319 126.232 310.132 126.789C309.946 127.346 309.887 127.937 309.961 128.52C310.107 129.683 310.468 130.808 311.026 131.839C312.579 135.067 314.68 138.193 317.797 139.959C318.356 140.291 318.966 140.528 319.603 140.659C325.145 141.674 322.851 136.173 321.491 133.686C319.563 130.147 316.679 127.221 313.168 125.241Z" fill="white"/>
<path d="M320.791 141.207C320.365 141.203 319.941 141.163 319.522 141.086C318.838 140.945 318.183 140.691 317.583 140.335C314.843 138.792 312.569 136.082 310.62 132.042C310.043 130.957 309.665 129.778 309.504 128.561C309.423 127.909 309.492 127.248 309.705 126.627C309.918 126.007 310.269 125.442 310.732 124.978C311.01 124.701 311.363 124.51 311.747 124.429C312.324 124.375 312.901 124.522 313.381 124.846C316.96 126.866 319.905 129.843 321.887 133.443C322.902 135.249 324.353 138.518 323.135 140.233C322.855 140.576 322.494 140.844 322.085 141.014C321.676 141.184 321.232 141.251 320.791 141.207ZM312.021 125.302H311.899C311.687 125.358 311.494 125.47 311.341 125.627C310.98 125.999 310.709 126.448 310.547 126.941C310.385 127.433 310.337 127.956 310.407 128.469C310.545 129.579 310.889 130.653 311.422 131.636C313.28 135.513 315.482 138.091 317.999 139.533C318.513 139.843 319.076 140.063 319.664 140.182C321.055 140.436 321.968 140.263 322.374 139.695C323.166 138.589 322.222 135.96 321.075 133.869C319.187 130.42 316.375 127.566 312.955 125.627C312.674 125.446 312.354 125.334 312.021 125.302Z" fill="#231F20"/>
<path d="M310.945 107.834C310.823 107.835 310.705 107.789 310.614 107.706C310.524 107.623 310.468 107.51 310.458 107.388C310.458 107.164 309.9 101.714 310.834 98.6079C310.852 98.5459 310.882 98.488 310.922 98.4377C310.962 98.3873 311.012 98.3454 311.069 98.3143C311.125 98.2831 311.187 98.2635 311.252 98.2564C311.316 98.2493 311.381 98.2549 311.443 98.2729C311.505 98.2909 311.562 98.3209 311.613 98.3613C311.663 98.4016 311.705 98.4515 311.736 98.508C311.767 98.5646 311.787 98.6267 311.794 98.6909C311.801 98.755 311.796 98.8199 311.778 98.8819C310.905 101.805 311.422 107.246 311.432 107.296C311.444 107.427 311.403 107.556 311.32 107.657C311.236 107.758 311.116 107.821 310.986 107.834H310.945Z" fill="white"/>
<path d="M251.497 69.5789H49.8568C45.6245 69.5789 42.1935 73.0098 42.1935 77.2421V215.597C42.1935 219.829 45.6245 223.26 49.8568 223.26H251.497C255.729 223.26 259.16 219.829 259.16 215.597V77.2421C259.16 73.0098 255.729 69.5789 251.497 69.5789Z" fill="white"/>
<path d="M251.497 223.757H49.8568C47.7074 223.744 45.6497 222.884 44.1298 221.364C42.6099 219.844 41.7501 217.787 41.7368 215.637V77.2421C41.7368 75.0885 42.5923 73.0232 44.1151 71.5004C45.6379 69.9776 47.7033 69.1221 49.8568 69.1221H251.497C253.65 69.1221 255.716 69.9776 257.238 71.5004C258.761 73.0232 259.617 75.0885 259.617 77.2421V215.607C259.621 216.676 259.414 217.735 259.007 218.724C258.601 219.712 258.004 220.611 257.249 221.368C256.495 222.126 255.598 222.726 254.611 223.136C253.624 223.546 252.566 223.757 251.497 223.757ZM49.8568 70.0762C47.9554 70.0762 46.1316 70.8308 44.7862 72.1744C43.4407 73.518 42.6835 75.3406 42.6808 77.2421V215.607C42.6835 217.508 43.4407 219.331 44.7862 220.675C46.1316 222.018 47.9554 222.773 49.8568 222.773H251.497C253.396 222.77 255.218 222.014 256.561 220.671C257.904 219.328 258.66 217.507 258.663 215.607V77.2421C258.66 75.3424 257.904 73.5213 256.561 72.178C255.218 70.8347 253.396 70.0789 251.497 70.0762H49.8568Z" fill="#231F20"/>
<path d="M251.131 89.4526H50.212V215.181H251.131V89.4526Z" fill="#231F20"/>
<path d="M251.131 215.688H50.212C50.0774 215.688 49.9483 215.635 49.8532 215.539C49.758 215.444 49.7045 215.315 49.7045 215.181V89.4526C49.7045 89.318 49.758 89.1889 49.8532 89.0937C49.9483 88.9985 50.0774 88.9451 50.212 88.9451H251.182C251.317 88.9451 251.446 88.9985 251.541 89.0937C251.636 89.1889 251.69 89.318 251.69 89.4526V215.181C251.69 215.252 251.675 215.322 251.647 215.387C251.618 215.452 251.576 215.511 251.523 215.559C251.471 215.607 251.409 215.643 251.341 215.665C251.274 215.687 251.202 215.695 251.131 215.688ZM50.75 214.673H250.705V89.9601H50.75V214.673Z" fill="#231F20"/>
<path d="M251.131 77.6582H50.212V89.4525H251.131V77.6582Z" fill="#ED1E79"/>
<path d="M251.131 89.9602H50.212C50.0774 89.9602 49.9483 89.9067 49.8532 89.8115C49.758 89.7164 49.7045 89.5873 49.7045 89.4527V77.6584C49.7045 77.5238 49.758 77.3947 49.8532 77.2995C49.9483 77.2043 50.0774 77.1509 50.212 77.1509H251.182C251.317 77.1509 251.446 77.2043 251.541 77.2995C251.636 77.3947 251.69 77.5238 251.69 77.6584V89.4527C251.69 89.5238 251.675 89.5942 251.647 89.6594C251.618 89.7245 251.576 89.7829 251.523 89.8307C251.471 89.8786 251.409 89.9149 251.341 89.9372C251.274 89.9594 251.202 89.9673 251.131 89.9602ZM50.75 88.9452H250.705V78.1659H50.75V88.9452Z" fill="#ED1E79"/>
<path d="M90.4974 101.967H73.2424C73.1776 101.969 73.1131 101.957 73.0528 101.933C72.9926 101.909 72.9376 101.874 72.8913 101.828C72.845 101.783 72.8082 101.729 72.7831 101.669C72.758 101.609 72.745 101.545 72.7451 101.48C72.7451 101.348 72.7975 101.222 72.8907 101.129C72.984 101.035 73.1105 100.983 73.2424 100.983H90.4974C90.5623 100.983 90.6264 100.996 90.6862 101.021C90.746 101.046 90.8002 101.083 90.8456 101.129C90.8909 101.175 90.9266 101.23 90.9505 101.291C90.9744 101.351 90.986 101.415 90.9846 101.48C90.986 101.545 90.9743 101.609 90.9503 101.668C90.9263 101.728 90.8905 101.782 90.845 101.828C90.7995 101.873 90.7452 101.909 90.6855 101.933C90.6257 101.957 90.5618 101.969 90.4974 101.967Z" fill="white"/>
<path d="M129.423 101.967H94.9127C94.8483 101.969 94.7843 101.957 94.7246 101.933C94.6649 101.909 94.6106 101.873 94.5651 101.828C94.5196 101.782 94.4837 101.728 94.4597 101.668C94.4357 101.609 94.4241 101.545 94.4255 101.48C94.4241 101.415 94.4357 101.351 94.4596 101.291C94.4835 101.23 94.5192 101.175 94.5645 101.129C94.6099 101.083 94.6641 101.046 94.7238 101.021C94.7836 100.996 94.8478 100.983 94.9127 100.983H129.423C129.555 100.983 129.681 101.035 129.774 101.129C129.868 101.222 129.92 101.348 129.92 101.48C129.92 101.545 129.907 101.609 129.882 101.669C129.857 101.729 129.82 101.783 129.774 101.828C129.727 101.874 129.673 101.909 129.612 101.933C129.552 101.957 129.487 101.969 129.423 101.967Z" fill="#ED1E79"/>
<path d="M141.349 109.194H106.839C106.704 109.194 106.575 109.141 106.48 109.046C106.385 108.951 106.331 108.822 106.331 108.687C106.331 108.552 106.385 108.423 106.48 108.328C106.575 108.233 106.704 108.179 106.839 108.179H141.349C141.484 108.179 141.613 108.233 141.708 108.328C141.803 108.423 141.856 108.552 141.856 108.687C141.856 108.822 141.803 108.951 141.708 109.046C141.613 109.141 141.484 109.194 141.349 109.194Z" fill="#ED1E79"/>
<path d="M94.5472 109.194H77.2922C77.1576 109.194 77.0285 109.141 76.9334 109.046C76.8382 108.951 76.7847 108.822 76.7847 108.687C76.7847 108.552 76.8382 108.423 76.9334 108.328C77.0285 108.233 77.1576 108.179 77.2922 108.179H94.5472C94.6818 108.179 94.8109 108.233 94.9061 108.328C95.0013 108.423 95.0547 108.552 95.0547 108.687C95.0547 108.822 95.0013 108.951 94.9061 109.046C94.8109 109.141 94.6818 109.194 94.5472 109.194Z" fill="white"/>
<path d="M98.6073 116.411H81.3523C81.2204 116.411 81.0939 116.359 81.0006 116.265C80.9073 116.172 80.8549 116.045 80.8549 115.914C80.8549 115.849 80.8678 115.785 80.8929 115.725C80.9181 115.665 80.9549 115.611 81.0012 115.565C81.0475 115.52 81.1024 115.484 81.1627 115.461C81.223 115.437 81.2874 115.425 81.3523 115.426H98.6073C98.6716 115.425 98.7356 115.437 98.7953 115.461C98.8551 115.485 98.9093 115.52 98.9548 115.566C99.0004 115.612 99.0362 115.666 99.0602 115.726C99.0842 115.785 99.0958 115.849 99.0945 115.914C99.0958 115.978 99.0842 116.043 99.0603 116.103C99.0365 116.163 99.0008 116.218 98.9554 116.265C98.91 116.311 98.8559 116.348 98.7961 116.373C98.7363 116.398 98.6721 116.411 98.6073 116.411Z" fill="white"/>
<path d="M147.51 116.411H104.362C104.297 116.411 104.233 116.398 104.173 116.373C104.114 116.348 104.06 116.311 104.014 116.265C103.969 116.218 103.933 116.163 103.909 116.103C103.885 116.043 103.874 115.978 103.875 115.914C103.874 115.849 103.885 115.785 103.909 115.726C103.933 115.666 103.969 115.612 104.015 115.566C104.06 115.52 104.115 115.485 104.174 115.461C104.234 115.437 104.298 115.425 104.362 115.426H147.51C147.575 115.425 147.639 115.437 147.7 115.461C147.76 115.484 147.815 115.52 147.861 115.565C147.907 115.611 147.944 115.665 147.969 115.725C147.994 115.785 148.007 115.849 148.007 115.914C148.007 116.045 147.955 116.172 147.862 116.265C147.768 116.359 147.642 116.411 147.51 116.411Z" fill="#ED1E79"/>
<path d="M102.657 123.628H85.4021C85.272 123.625 85.1481 123.572 85.057 123.479C84.9659 123.386 84.9149 123.261 84.9149 123.13C84.9149 123.001 84.9662 122.877 85.0576 122.786C85.149 122.695 85.2729 122.643 85.4021 122.643H102.657C102.722 122.642 102.786 122.653 102.847 122.677C102.907 122.701 102.962 122.737 103.008 122.782C103.055 122.828 103.091 122.882 103.116 122.942C103.142 123.001 103.154 123.066 103.154 123.13C103.154 123.262 103.102 123.389 103.009 123.482C102.916 123.575 102.789 123.628 102.657 123.628Z" fill="white"/>
<path d="M156.432 123.628H105.134C105.002 123.628 104.875 123.575 104.782 123.482C104.689 123.389 104.636 123.262 104.636 123.13C104.636 123.066 104.649 123.001 104.674 122.942C104.7 122.882 104.736 122.828 104.783 122.782C104.829 122.737 104.884 122.701 104.944 122.677C105.004 122.653 105.069 122.642 105.134 122.643H156.432C156.497 122.642 156.561 122.653 156.621 122.677C156.682 122.701 156.737 122.737 156.783 122.782C156.829 122.828 156.866 122.882 156.891 122.942C156.916 123.001 156.929 123.066 156.929 123.13C156.929 123.262 156.877 123.389 156.783 123.482C156.69 123.575 156.564 123.628 156.432 123.628Z" fill="#ED1E79"/>
<path d="M98.0795 130.844H80.8245C80.6899 130.844 80.5608 130.791 80.4656 130.696C80.3704 130.601 80.317 130.471 80.317 130.337C80.317 130.202 80.3704 130.073 80.4656 129.978C80.5608 129.883 80.6899 129.829 80.8245 129.829H98.0795C98.2141 129.829 98.3431 129.883 98.4383 129.978C98.5335 130.073 98.587 130.202 98.587 130.337C98.587 130.471 98.5335 130.601 98.4383 130.696C98.3431 130.791 98.2141 130.844 98.0795 130.844Z" fill="white"/>
<path d="M129.423 130.844H101.601C101.467 130.844 101.338 130.791 101.243 130.696C101.147 130.601 101.094 130.471 101.094 130.337C101.094 130.202 101.147 130.073 101.243 129.978C101.338 129.883 101.467 129.829 101.601 129.829H129.423C129.557 129.829 129.686 129.883 129.782 129.978C129.877 130.073 129.93 130.202 129.93 130.337C129.93 130.471 129.877 130.601 129.782 130.696C129.686 130.791 129.557 130.844 129.423 130.844Z" fill="#ED1E79"/>
<path d="M167.871 130.844H140.07C139.935 130.844 139.806 130.791 139.711 130.696C139.616 130.601 139.562 130.471 139.562 130.337C139.562 130.202 139.616 130.073 139.711 129.978C139.806 129.883 139.935 129.829 140.07 129.829H167.891C168.026 129.829 168.155 129.883 168.25 129.978C168.345 130.073 168.399 130.202 168.399 130.337C168.399 130.471 168.345 130.601 168.25 130.696C168.155 130.791 168.026 130.844 167.891 130.844H167.871Z" fill="#ED1E79"/>
<path d="M98.0795 138.061H80.8245C80.6899 138.061 80.5608 138.007 80.4656 137.912C80.3704 137.817 80.317 137.688 80.317 137.553C80.317 137.419 80.3704 137.29 80.4656 137.195C80.5608 137.099 80.6899 137.046 80.8245 137.046H98.0795C98.2141 137.046 98.3431 137.099 98.4383 137.195C98.5335 137.29 98.587 137.419 98.587 137.553C98.587 137.688 98.5335 137.817 98.4383 137.912C98.3431 138.007 98.2141 138.061 98.0795 138.061Z" fill="white"/>
<path d="M129.423 138.061H105.134C104.999 138.061 104.87 138.007 104.775 137.912C104.68 137.817 104.626 137.688 104.626 137.553C104.626 137.419 104.68 137.29 104.775 137.195C104.87 137.099 104.999 137.046 105.134 137.046H129.423C129.557 137.046 129.686 137.099 129.782 137.195C129.877 137.29 129.93 137.419 129.93 137.553C129.93 137.688 129.877 137.817 129.782 137.912C129.686 138.007 129.557 138.061 129.423 138.061Z" fill="#ED1E79"/>
<path d="M143.45 138.061H133.523C133.389 138.061 133.26 138.007 133.164 137.912C133.069 137.817 133.016 137.688 133.016 137.553C133.016 137.419 133.069 137.29 133.164 137.195C133.26 137.099 133.389 137.046 133.523 137.046H143.45C143.585 137.046 143.714 137.099 143.809 137.195C143.904 137.29 143.957 137.419 143.957 137.553C143.957 137.688 143.904 137.817 143.809 137.912C143.714 138.007 143.585 138.061 143.45 138.061Z" fill="#ED1E79"/>
<path d="M98.0794 145.278H80.8244C80.7596 145.279 80.6952 145.267 80.6349 145.243C80.5746 145.22 80.5197 145.184 80.4734 145.138C80.427 145.093 80.3902 145.039 80.3651 144.979C80.34 144.919 80.3271 144.855 80.3271 144.79C80.3271 144.658 80.3795 144.532 80.4728 144.439C80.566 144.345 80.6925 144.293 80.8244 144.293H98.0794C98.1443 144.293 98.2085 144.306 98.2683 144.331C98.328 144.356 98.3822 144.393 98.4276 144.439C98.473 144.486 98.5086 144.54 98.5325 144.601C98.5564 144.661 98.568 144.725 98.5666 144.79C98.568 144.855 98.5564 144.919 98.5324 144.978C98.5084 145.038 98.4725 145.092 98.427 145.138C98.3815 145.183 98.3272 145.219 98.2675 145.243C98.2078 145.267 98.1438 145.279 98.0794 145.278Z" fill="white"/>
<path d="M138.141 145.278H102.616C102.487 145.278 102.363 145.226 102.272 145.135C102.181 145.043 102.129 144.92 102.129 144.79C102.129 144.66 102.18 144.535 102.271 144.442C102.362 144.349 102.486 144.296 102.616 144.293H138.141C138.273 144.293 138.4 144.345 138.493 144.439C138.586 144.532 138.639 144.658 138.639 144.79C138.639 144.855 138.626 144.919 138.601 144.979C138.576 145.039 138.539 145.093 138.493 145.138C138.446 145.184 138.391 145.22 138.331 145.243C138.271 145.267 138.206 145.279 138.141 145.278Z" fill="#ED1E79"/>
<path d="M159.599 145.278H142.344C142.279 145.279 142.214 145.267 142.154 145.243C142.094 145.22 142.039 145.184 141.993 145.138C141.946 145.093 141.909 145.039 141.884 144.979C141.859 144.919 141.846 144.855 141.846 144.79C141.846 144.658 141.899 144.532 141.992 144.439C142.085 144.345 142.212 144.293 142.344 144.293H159.599C159.729 144.296 159.853 144.349 159.944 144.442C160.035 144.535 160.086 144.66 160.086 144.79C160.086 144.92 160.034 145.043 159.943 145.135C159.852 145.226 159.728 145.278 159.599 145.278Z" fill="#ED1E79"/>
<path d="M85.9096 152.494H76.7746C76.64 152.494 76.5109 152.441 76.4157 152.346C76.3206 152.25 76.2671 152.121 76.2671 151.987C76.2671 151.852 76.3206 151.723 76.4157 151.628C76.5109 151.533 76.64 151.479 76.7746 151.479H85.9096C86.0442 151.479 86.1733 151.533 86.2684 151.628C86.3636 151.723 86.4171 151.852 86.4171 151.987C86.4171 152.121 86.3636 152.25 86.2684 152.346C86.1733 152.441 86.0442 152.494 85.9096 152.494Z" fill="white"/>
<path d="M133.523 152.494H93.4916C93.357 152.494 93.2279 152.441 93.1328 152.346C93.0376 152.25 92.9841 152.121 92.9841 151.987C92.9841 151.852 93.0376 151.723 93.1328 151.628C93.2279 151.533 93.357 151.479 93.4916 151.479H133.523C133.658 151.479 133.787 151.533 133.882 151.628C133.977 151.723 134.031 151.852 134.031 151.987C134.031 152.121 133.977 152.25 133.882 152.346C133.787 152.441 133.658 152.494 133.523 152.494Z" fill="#ED1E79"/>
<path d="M94.0195 159.721H76.7645C76.6299 159.721 76.5008 159.668 76.4056 159.572C76.3104 159.477 76.257 159.348 76.257 159.214C76.257 159.079 76.3104 158.95 76.4056 158.855C76.5008 158.76 76.6299 158.706 76.7645 158.706H94.0195C94.1541 158.706 94.2831 158.76 94.3783 158.855C94.4735 158.95 94.527 159.079 94.527 159.214C94.527 159.348 94.4735 159.477 94.3783 159.572C94.2831 159.668 94.1541 159.721 94.0195 159.721Z" fill="white"/>
<path d="M113.771 166.938H79.2614C79.1965 166.938 79.1323 166.925 79.0725 166.9C79.0128 166.875 78.9586 166.838 78.9132 166.792C78.8678 166.745 78.8322 166.69 78.8083 166.63C78.7844 166.57 78.7728 166.505 78.7742 166.44C78.7728 166.376 78.7844 166.312 78.8084 166.252C78.8324 166.193 78.8683 166.138 78.9138 166.093C78.9593 166.047 79.0136 166.012 79.0733 165.988C79.133 165.964 79.197 165.952 79.2614 165.953H113.771C113.836 165.952 113.901 165.963 113.961 165.987C114.021 166.011 114.076 166.047 114.122 166.092C114.169 166.138 114.206 166.192 114.231 166.252C114.256 166.311 114.269 166.376 114.269 166.44C114.269 166.572 114.216 166.699 114.123 166.792C114.03 166.885 113.903 166.938 113.771 166.938Z" fill="white"/>
<path d="M143.45 166.938H119.486C119.421 166.938 119.357 166.925 119.297 166.9C119.237 166.875 119.183 166.838 119.138 166.792C119.092 166.745 119.057 166.69 119.033 166.63C119.009 166.57 118.997 166.505 118.999 166.44C118.997 166.376 119.009 166.312 119.033 166.252C119.057 166.193 119.093 166.138 119.138 166.093C119.184 166.047 119.238 166.012 119.298 165.988C119.357 165.964 119.421 165.952 119.486 165.953H143.45C143.515 165.952 143.579 165.963 143.639 165.987C143.7 166.011 143.755 166.047 143.801 166.092C143.847 166.138 143.884 166.192 143.909 166.252C143.934 166.311 143.947 166.376 143.947 166.44C143.947 166.572 143.895 166.699 143.802 166.792C143.708 166.885 143.582 166.938 143.45 166.938Z" fill="#ED1E79"/>
<path d="M176.549 166.938H146.881C146.816 166.938 146.752 166.925 146.692 166.9C146.632 166.875 146.578 166.838 146.533 166.792C146.487 166.745 146.451 166.69 146.428 166.63C146.404 166.57 146.392 166.505 146.393 166.44C146.392 166.376 146.404 166.312 146.428 166.252C146.452 166.193 146.488 166.138 146.533 166.093C146.579 166.047 146.633 166.012 146.693 165.988C146.752 165.964 146.816 165.952 146.881 165.953H176.549C176.678 165.953 176.802 166.005 176.894 166.096C176.985 166.187 177.036 166.311 177.036 166.44C177.036 166.571 176.985 166.696 176.894 166.789C176.803 166.882 176.679 166.935 176.549 166.938Z" fill="#ED1E79"/>
<path d="M131.047 174.154H80.8042C80.6723 174.154 80.5458 174.102 80.4525 174.009C80.3592 173.915 80.3068 173.789 80.3068 173.657C80.3068 173.592 80.3197 173.528 80.3449 173.468C80.37 173.408 80.4068 173.354 80.4531 173.309C80.4994 173.263 80.5543 173.228 80.6146 173.204C80.6749 173.18 80.7393 173.168 80.8042 173.17H131.047C131.111 173.168 131.176 173.18 131.236 173.204C131.297 173.228 131.351 173.263 131.398 173.309C131.444 173.354 131.481 173.408 131.506 173.468C131.531 173.528 131.544 173.592 131.544 173.657C131.544 173.789 131.492 173.915 131.398 174.009C131.305 174.102 131.179 174.154 131.047 174.154Z" fill="white"/>
<path d="M157.081 174.154H134.477C134.345 174.154 134.219 174.102 134.126 174.009C134.032 173.915 133.98 173.789 133.98 173.657C133.98 173.592 133.993 173.528 134.018 173.468C134.043 173.408 134.08 173.354 134.126 173.309C134.173 173.263 134.227 173.228 134.288 173.204C134.348 173.18 134.413 173.168 134.477 173.17H157.081C157.146 173.168 157.21 173.18 157.269 173.204C157.329 173.228 157.383 173.264 157.429 173.309C157.474 173.355 157.51 173.409 157.534 173.469C157.558 173.529 157.57 173.593 157.569 173.657C157.57 173.722 157.558 173.786 157.534 173.847C157.511 173.907 157.475 173.962 157.43 174.008C157.384 174.054 157.33 174.091 157.27 174.116C157.21 174.141 157.146 174.154 157.081 174.154Z" fill="#ED1E79"/>
<path d="M228.121 174.154H160.908C160.778 174.152 160.654 174.098 160.563 174.005C160.472 173.912 160.421 173.787 160.421 173.657C160.421 173.528 160.472 173.404 160.563 173.312C160.655 173.221 160.779 173.17 160.908 173.17H228.121C228.186 173.168 228.251 173.18 228.311 173.204C228.371 173.228 228.426 173.263 228.472 173.309C228.519 173.354 228.555 173.408 228.581 173.468C228.606 173.528 228.619 173.592 228.619 173.657C228.619 173.789 228.566 173.915 228.473 174.009C228.38 174.102 228.253 174.154 228.121 174.154Z" fill="#ED1E79"/>
<path d="M104.362 181.371H80.6011C80.4665 181.371 80.3374 181.317 80.2423 181.222C80.1471 181.127 80.0936 180.998 80.0936 180.863C80.0936 180.729 80.1471 180.6 80.2423 180.505C80.3374 180.409 80.4665 180.356 80.6011 180.356H104.362C104.497 180.356 104.626 180.409 104.721 180.505C104.816 180.6 104.87 180.729 104.87 180.863C104.87 180.998 104.816 181.127 104.721 181.222C104.626 181.317 104.497 181.371 104.362 181.371Z" fill="white"/>
<path d="M126.591 181.371H109.092C108.958 181.371 108.829 181.317 108.733 181.222C108.638 181.127 108.585 180.998 108.585 180.863C108.585 180.729 108.638 180.6 108.733 180.505C108.829 180.409 108.958 180.356 109.092 180.356H126.591C126.725 180.356 126.854 180.409 126.95 180.505C127.045 180.6 127.098 180.729 127.098 180.863C127.098 180.998 127.045 181.127 126.95 181.222C126.854 181.317 126.725 181.371 126.591 181.371Z" fill="#ED1E79"/>
<path d="M148.799 181.371H131.3C131.166 181.371 131.037 181.317 130.942 181.222C130.846 181.127 130.793 180.998 130.793 180.863C130.793 180.729 130.846 180.6 130.942 180.505C131.037 180.409 131.166 180.356 131.3 180.356H148.799C148.934 180.356 149.063 180.409 149.158 180.505C149.253 180.6 149.307 180.729 149.307 180.863C149.307 180.998 149.253 181.127 149.158 181.222C149.063 181.317 148.934 181.371 148.799 181.371Z" fill="#ED1E79"/>
<path d="M122.612 188.588H80.6012C80.5363 188.589 80.4719 188.577 80.4116 188.553C80.3513 188.53 80.2964 188.494 80.2501 188.449C80.2038 188.403 80.167 188.349 80.1419 188.289C80.1167 188.229 80.1038 188.165 80.1038 188.1C80.1038 187.968 80.1562 187.842 80.2495 187.749C80.3428 187.655 80.4693 187.603 80.6012 187.603H122.612C122.744 187.603 122.87 187.655 122.964 187.749C123.057 187.842 123.109 187.968 123.109 188.1C123.109 188.165 123.096 188.229 123.071 188.289C123.046 188.349 123.009 188.403 122.963 188.449C122.917 188.494 122.862 188.53 122.802 188.553C122.741 188.577 122.677 188.589 122.612 188.588Z" fill="white"/>
<path d="M148.799 188.588H127.789C127.724 188.589 127.66 188.577 127.6 188.553C127.541 188.529 127.486 188.493 127.441 188.448C127.395 188.402 127.36 188.348 127.336 188.288C127.312 188.229 127.3 188.165 127.301 188.1C127.3 188.036 127.312 187.971 127.335 187.911C127.359 187.851 127.395 187.796 127.44 187.749C127.486 187.703 127.54 187.666 127.6 187.641C127.659 187.616 127.724 187.603 127.789 187.603H148.799C148.864 187.603 148.928 187.616 148.988 187.641C149.048 187.666 149.102 187.703 149.147 187.749C149.193 187.796 149.228 187.851 149.252 187.911C149.276 187.971 149.288 188.036 149.286 188.1C149.288 188.165 149.276 188.229 149.252 188.288C149.228 188.348 149.192 188.402 149.147 188.448C149.101 188.493 149.047 188.529 148.987 188.553C148.927 188.577 148.863 188.589 148.799 188.588Z" fill="#ED1E79"/>
<path d="M185.948 188.588H153.955C153.891 188.589 153.827 188.577 153.767 188.553C153.707 188.529 153.653 188.493 153.608 188.448C153.562 188.402 153.526 188.348 153.502 188.288C153.478 188.229 153.467 188.165 153.468 188.1C153.467 188.036 153.478 187.971 153.502 187.911C153.526 187.851 153.562 187.796 153.607 187.749C153.652 187.703 153.707 187.666 153.766 187.641C153.826 187.616 153.89 187.603 153.955 187.603H185.948C186.013 187.603 186.078 187.616 186.138 187.641C186.199 187.666 186.253 187.703 186.3 187.749C186.346 187.795 186.382 187.85 186.407 187.91C186.432 187.97 186.445 188.035 186.445 188.1C186.445 188.165 186.432 188.229 186.407 188.289C186.382 188.349 186.345 188.403 186.299 188.449C186.253 188.494 186.198 188.53 186.138 188.553C186.077 188.577 186.013 188.589 185.948 188.588Z" fill="#ED1E79"/>
<path d="M221.27 188.588H189.318C189.253 188.589 189.189 188.577 189.128 188.553C189.068 188.53 189.013 188.494 188.967 188.449C188.92 188.403 188.884 188.349 188.858 188.289C188.833 188.229 188.82 188.165 188.82 188.1C188.82 187.968 188.873 187.842 188.966 187.749C189.059 187.655 189.186 187.603 189.318 187.603H221.27C221.402 187.603 221.528 187.655 221.622 187.749C221.715 187.842 221.767 187.968 221.767 188.1C221.767 188.165 221.754 188.229 221.729 188.289C221.704 188.349 221.667 188.403 221.621 188.449C221.575 188.494 221.52 188.53 221.46 188.553C221.399 188.577 221.335 188.589 221.27 188.588Z" fill="#ED1E79"/>
<path d="M116.289 195.804H91.2282C91.1634 195.806 91.0989 195.794 91.0386 195.77C90.9783 195.746 90.9234 195.711 90.8771 195.665C90.8308 195.62 90.794 195.566 90.7689 195.506C90.7437 195.446 90.7308 195.382 90.7308 195.317C90.7308 195.252 90.7437 195.187 90.7687 195.127C90.7937 195.067 90.8303 195.012 90.8765 194.966C90.9227 194.919 90.9775 194.883 91.0379 194.858C91.0982 194.833 91.1629 194.82 91.2282 194.82H116.289C116.353 194.82 116.418 194.833 116.477 194.858C116.537 194.883 116.591 194.92 116.637 194.966C116.682 195.012 116.718 195.067 116.742 195.128C116.765 195.188 116.777 195.252 116.776 195.317C116.777 195.382 116.765 195.446 116.741 195.505C116.717 195.565 116.682 195.619 116.636 195.665C116.591 195.71 116.536 195.746 116.477 195.77C116.417 195.794 116.353 195.806 116.289 195.804Z" fill="white"/>
<path d="M146.048 195.804H120.988C120.924 195.806 120.86 195.794 120.8 195.77C120.74 195.746 120.686 195.71 120.64 195.665C120.595 195.619 120.559 195.565 120.535 195.505C120.511 195.446 120.499 195.382 120.501 195.317C120.499 195.252 120.511 195.188 120.535 195.128C120.559 195.067 120.594 195.012 120.64 194.966C120.685 194.92 120.739 194.883 120.799 194.858C120.859 194.833 120.923 194.82 120.988 194.82H146.048C146.114 194.82 146.178 194.833 146.239 194.858C146.299 194.883 146.354 194.919 146.4 194.966C146.446 195.012 146.483 195.067 146.508 195.127C146.533 195.187 146.546 195.252 146.546 195.317C146.546 195.382 146.533 195.446 146.508 195.506C146.483 195.566 146.446 195.62 146.399 195.665C146.353 195.711 146.298 195.746 146.238 195.77C146.178 195.794 146.113 195.806 146.048 195.804Z" fill="#ED1E79"/>
<path d="M176.021 195.804H150.961C150.896 195.806 150.832 195.794 150.771 195.77C150.711 195.746 150.656 195.711 150.61 195.665C150.564 195.62 150.527 195.566 150.502 195.506C150.477 195.446 150.464 195.382 150.464 195.317C150.464 195.252 150.476 195.187 150.501 195.127C150.526 195.067 150.563 195.012 150.609 194.966C150.655 194.919 150.71 194.883 150.771 194.858C150.831 194.833 150.896 194.82 150.961 194.82H176.021C176.086 194.82 176.15 194.833 176.21 194.858C176.27 194.883 176.324 194.92 176.369 194.966C176.415 195.012 176.451 195.067 176.474 195.128C176.498 195.188 176.51 195.252 176.509 195.317C176.51 195.382 176.498 195.446 176.474 195.505C176.45 195.565 176.414 195.619 176.369 195.665C176.323 195.71 176.269 195.746 176.209 195.77C176.15 195.794 176.086 195.806 176.021 195.804Z" fill="#ED1E79"/>
<path d="M207.06 196.616H181.989C181.855 196.616 181.726 196.563 181.631 196.468C181.535 196.372 181.482 196.243 181.482 196.109C181.482 195.974 181.535 195.845 181.631 195.75C181.726 195.655 181.855 195.601 181.989 195.601H207.06C207.195 195.601 207.324 195.655 207.419 195.75C207.514 195.845 207.567 195.974 207.567 196.109C207.567 196.243 207.514 196.372 207.419 196.468C207.324 196.563 207.195 196.616 207.06 196.616Z" fill="#ED1E79"/>
<path d="M112.229 203.021H94.9735C94.9092 203.022 94.8452 203.011 94.7855 202.987C94.7257 202.963 94.6715 202.927 94.6259 202.881C94.5804 202.836 94.5446 202.782 94.5206 202.722C94.4966 202.662 94.4849 202.598 94.4863 202.534C94.485 202.469 94.4966 202.404 94.5205 202.344C94.5443 202.284 94.58 202.229 94.6254 202.183C94.6708 202.136 94.7249 202.1 94.7847 202.074C94.8445 202.049 94.9087 202.036 94.9735 202.036H112.229C112.36 202.036 112.487 202.089 112.58 202.182C112.673 202.275 112.726 202.402 112.726 202.534C112.726 202.599 112.713 202.663 112.688 202.723C112.663 202.782 112.626 202.836 112.58 202.882C112.533 202.927 112.478 202.963 112.418 202.987C112.358 203.011 112.293 203.022 112.229 203.021Z" fill="white"/>
<path d="M133.564 203.021H116.309C116.244 203.022 116.18 203.011 116.119 202.987C116.059 202.963 116.004 202.927 115.958 202.882C115.911 202.836 115.875 202.782 115.85 202.723C115.824 202.663 115.812 202.599 115.812 202.534C115.812 202.402 115.864 202.275 115.957 202.182C116.05 202.089 116.177 202.036 116.309 202.036H133.564C133.629 202.036 133.693 202.049 133.753 202.074C133.812 202.1 133.867 202.136 133.912 202.183C133.957 202.229 133.993 202.284 134.017 202.344C134.041 202.404 134.052 202.469 134.051 202.534C134.052 202.598 134.041 202.662 134.017 202.722C133.993 202.782 133.957 202.836 133.911 202.881C133.866 202.927 133.812 202.963 133.752 202.987C133.692 203.011 133.628 203.022 133.564 203.021Z" fill="#ED1E79"/>
<path d="M173.453 203.752L137.786 203.021C137.721 203.021 137.657 203.008 137.597 202.983C137.538 202.958 137.484 202.921 137.438 202.875C137.393 202.828 137.357 202.773 137.333 202.713C137.309 202.653 137.298 202.588 137.299 202.524C137.298 202.457 137.31 202.392 137.335 202.331C137.36 202.269 137.398 202.214 137.446 202.168C137.493 202.123 137.55 202.087 137.612 202.064C137.674 202.042 137.741 202.032 137.807 202.036L173.474 202.767C173.608 202.767 173.737 202.821 173.833 202.916C173.928 203.011 173.981 203.14 173.981 203.275C173.981 203.409 173.928 203.538 173.833 203.634C173.737 203.729 173.608 203.782 173.474 203.782L173.453 203.752Z" fill="#ED1E79"/>
<path d="M186.76 123.628H163.415C163.35 123.628 163.286 123.615 163.226 123.59C163.166 123.565 163.112 123.528 163.067 123.481C163.021 123.435 162.986 123.38 162.962 123.32C162.938 123.26 162.926 123.195 162.928 123.13C162.926 123.066 162.938 123.002 162.962 122.942C162.986 122.883 163.022 122.828 163.067 122.783C163.113 122.737 163.167 122.701 163.227 122.677C163.287 122.653 163.351 122.642 163.415 122.643H186.76C186.825 122.642 186.889 122.653 186.95 122.677C187.01 122.701 187.065 122.737 187.111 122.782C187.157 122.828 187.194 122.882 187.219 122.942C187.244 123.001 187.257 123.066 187.257 123.13C187.257 123.262 187.205 123.389 187.112 123.482C187.018 123.575 186.892 123.628 186.76 123.628Z" fill="#ED1E79"/>
<path d="M204.015 123.699C199.447 123.699 196.057 123.699 195.895 123.597C195.833 123.58 195.775 123.551 195.724 123.511C195.674 123.471 195.631 123.422 195.6 123.366C195.536 123.253 195.52 123.119 195.555 122.993C195.59 122.868 195.673 122.762 195.787 122.698C195.9 122.635 196.034 122.618 196.159 122.653C197.052 122.765 212.46 122.704 222.65 122.653C222.715 122.652 222.78 122.664 222.84 122.687C222.9 122.711 222.955 122.747 223.001 122.792C223.048 122.838 223.085 122.892 223.11 122.952C223.135 123.012 223.148 123.076 223.148 123.141C223.148 123.272 223.095 123.399 223.002 123.492C222.909 123.586 222.782 123.638 222.65 123.638C217.21 123.658 209.699 123.699 204.015 123.699Z" fill="#ED1E79"/>
<path d="M183.035 109.194H149.134C148.999 109.194 148.87 109.141 148.775 109.046C148.68 108.951 148.626 108.822 148.626 108.687C148.626 108.552 148.68 108.423 148.775 108.328C148.87 108.233 148.999 108.179 149.134 108.179H183.035C183.17 108.179 183.299 108.233 183.394 108.328C183.489 108.423 183.542 108.552 183.542 108.687C183.542 108.822 183.489 108.951 183.394 109.046C183.299 109.141 183.17 109.194 183.035 109.194Z" fill="#ED1E79"/>
<path d="M223.584 109.194H189.805C189.67 109.194 189.541 109.141 189.446 109.046C189.351 108.951 189.297 108.822 189.297 108.687C189.297 108.552 189.351 108.423 189.446 108.328C189.541 108.233 189.67 108.179 189.805 108.179H223.544C223.678 108.179 223.807 108.233 223.902 108.328C223.998 108.423 224.051 108.552 224.051 108.687C224.051 108.822 223.998 108.951 223.902 109.046C223.807 109.141 223.678 109.194 223.544 109.194H223.584Z" fill="#ED1E79"/>
<path d="M151.235 102.008C144.972 102.008 140.202 102.008 140.009 102.008C139.88 101.986 139.765 101.914 139.69 101.807C139.614 101.701 139.582 101.569 139.603 101.44C139.623 101.314 139.692 101.201 139.794 101.125C139.897 101.049 140.025 101.016 140.151 101.034C141.014 101.095 166.044 101.034 179.178 101.034C179.31 101.034 179.436 101.086 179.53 101.179C179.623 101.273 179.675 101.399 179.675 101.531C179.675 101.596 179.662 101.66 179.637 101.72C179.612 101.78 179.575 101.834 179.529 101.879C179.483 101.925 179.428 101.96 179.368 101.984C179.307 102.008 179.243 102.02 179.178 102.018C173.666 101.988 160.715 102.008 151.235 102.008Z" fill="#ED1E79"/>
<path d="M188.323 101.998C188.232 101.996 188.144 101.968 188.069 101.918C187.993 101.868 187.933 101.797 187.897 101.714C187.847 101.588 187.847 101.448 187.896 101.322C187.945 101.196 188.039 101.093 188.161 101.034C188.557 100.841 196.443 100.821 211.587 101.034C211.716 101.039 211.839 101.093 211.929 101.186C212.02 101.278 212.072 101.402 212.074 101.531C212.074 101.596 212.061 101.66 212.036 101.72C212.011 101.78 211.974 101.834 211.928 101.879C211.882 101.925 211.827 101.96 211.766 101.984C211.706 102.008 211.642 102.02 211.577 102.018C202.756 101.927 189.348 101.846 188.516 102.018C188.451 102.03 188.384 102.023 188.323 101.998Z" fill="white"/>
<path d="M155.62 152.494H138.142C138.007 152.494 137.878 152.441 137.783 152.346C137.687 152.25 137.634 152.121 137.634 151.987C137.634 151.852 137.687 151.723 137.783 151.628C137.878 151.533 138.007 151.479 138.142 151.479H155.62C155.754 151.479 155.883 151.533 155.979 151.628C156.074 151.723 156.127 151.852 156.127 151.987C156.127 152.121 156.074 152.25 155.979 152.346C155.883 152.441 155.754 152.494 155.62 152.494Z" fill="#ED1E79"/>
<path d="M115.517 159.721H102.657C102.522 159.721 102.393 159.668 102.298 159.572C102.203 159.477 102.15 159.348 102.15 159.214C102.15 159.079 102.203 158.95 102.298 158.855C102.393 158.76 102.522 158.706 102.657 158.706H115.517C115.652 158.706 115.781 158.76 115.876 158.855C115.971 158.95 116.025 159.079 116.025 159.214C116.025 159.348 115.971 159.477 115.876 159.572C115.781 159.668 115.652 159.721 115.517 159.721Z" fill="#ED1E79"/>
<path d="M150.961 159.721H120.399C120.265 159.721 120.136 159.668 120.04 159.572C119.945 159.477 119.892 159.348 119.892 159.214C119.892 159.079 119.945 158.95 120.04 158.855C120.136 158.76 120.265 158.706 120.399 158.706H150.961C151.096 158.706 151.225 158.76 151.32 158.855C151.415 158.95 151.468 159.079 151.468 159.214C151.468 159.348 151.415 159.477 151.32 159.572C151.225 159.668 151.096 159.721 150.961 159.721Z" fill="white"/>
<path d="M216.286 159.721H157.081C156.947 159.721 156.818 159.668 156.723 159.572C156.627 159.477 156.574 159.348 156.574 159.214C156.574 159.079 156.627 158.95 156.723 158.855C156.818 158.76 156.947 158.706 157.081 158.706H216.286C216.421 158.706 216.55 158.76 216.645 158.855C216.74 158.95 216.794 159.079 216.794 159.214C216.794 159.348 216.74 159.477 216.645 159.572C216.55 159.668 216.421 159.721 216.286 159.721Z" fill="#ED1E79"/>
<path d="M57.855 85.2811C58.808 85.2811 59.5805 84.5086 59.5805 83.5556C59.5805 82.6026 58.808 81.8301 57.855 81.8301C56.9021 81.8301 56.1295 82.6026 56.1295 83.5556C56.1295 84.5086 56.9021 85.2811 57.855 85.2811Z" fill="#231F20"/>
<path d="M63.9044 85.2811C64.8574 85.2811 65.6299 84.5086 65.6299 83.5556C65.6299 82.6026 64.8574 81.8301 63.9044 81.8301C62.9514 81.8301 62.1789 82.6026 62.1789 83.5556C62.1789 84.5086 62.9514 85.2811 63.9044 85.2811Z" fill="white"/>
<path d="M69.9538 85.2811C70.9067 85.2811 71.6793 84.5086 71.6793 83.5556C71.6793 82.6026 70.9067 81.8301 69.9538 81.8301C69.0008 81.8301 68.2283 82.6026 68.2283 83.5556C68.2283 84.5086 69.0008 85.2811 69.9538 85.2811Z" fill="white"/>
<path d="M182.954 245.509H118.39L125.687 223.26H175.656L182.954 245.509Z" fill="white"/>
<path d="M182.954 246.016H118.39C118.309 246.019 118.229 246.002 118.156 245.967C118.083 245.932 118.02 245.88 117.972 245.815C117.924 245.75 117.893 245.674 117.881 245.594C117.869 245.514 117.876 245.433 117.902 245.357L125.2 223.108C125.233 223.004 125.298 222.914 125.385 222.85C125.473 222.786 125.579 222.752 125.687 222.752H175.656C175.764 222.752 175.87 222.786 175.958 222.85C176.046 222.914 176.111 223.004 176.143 223.108L183.441 245.357C183.467 245.433 183.475 245.514 183.463 245.594C183.45 245.674 183.419 245.75 183.371 245.815C183.323 245.88 183.26 245.932 183.187 245.967C183.115 246.002 183.034 246.019 182.954 246.016ZM119.09 245.001H182.253L175.291 223.767H126.053L119.09 245.001Z" fill="#231F20"/>
<path d="M188.282 245.509H113.061C111.329 245.509 109.924 246.911 109.924 248.64C109.924 250.369 111.329 251.771 113.061 251.771H188.282C190.015 251.771 191.419 250.369 191.419 248.64C191.419 246.911 190.015 245.509 188.282 245.509Z" fill="white"/>
<path d="M188.293 252.289H113.061C112.094 252.289 111.168 251.905 110.484 251.222C109.801 250.539 109.417 249.612 109.417 248.645C109.417 247.679 109.801 246.752 110.484 246.069C111.168 245.385 112.094 245.001 113.061 245.001H188.293C189.259 245.001 190.186 245.385 190.869 246.069C191.553 246.752 191.936 247.679 191.936 248.645C191.936 249.612 191.553 250.539 190.869 251.222C190.186 251.905 189.259 252.289 188.293 252.289ZM113.061 246.016C112.364 246.016 111.695 246.293 111.202 246.786C110.709 247.279 110.432 247.948 110.432 248.645C110.432 249.343 110.709 250.011 111.202 250.504C111.695 250.997 112.364 251.274 113.061 251.274H188.293C188.99 251.274 189.659 250.997 190.152 250.504C190.645 250.011 190.921 249.343 190.921 248.645C190.921 247.948 190.645 247.279 190.152 246.786C189.659 246.293 188.99 246.016 188.293 246.016H113.061Z" fill="#231F20"/>
<path d="M120.328 239.612C121.343 239.064 177.27 228.853 177.27 228.853L175.433 223.26H125.464L120.328 239.612Z" fill="#231F20"/>
<path d="M120.318 240.119C120.202 240.118 120.09 240.075 120.003 239.997C119.93 239.934 119.877 239.849 119.851 239.755C119.826 239.661 119.83 239.562 119.861 239.47L124.997 223.118C125.026 223.017 125.088 222.929 125.172 222.866C125.257 222.804 125.359 222.771 125.464 222.773H175.433C175.536 222.77 175.638 222.802 175.722 222.862C175.806 222.923 175.869 223.009 175.9 223.108L177.737 228.69C177.756 228.758 177.762 228.828 177.753 228.898C177.744 228.968 177.72 229.035 177.684 229.095C177.648 229.155 177.599 229.207 177.542 229.247C177.485 229.288 177.42 229.316 177.351 229.33C162.024 232.131 121.922 239.53 120.511 240.068C120.45 240.097 120.385 240.114 120.318 240.119ZM125.86 223.757L121.09 238.932C127.809 237.409 166.947 230.243 176.651 228.467L175.108 223.757H125.86Z" fill="#231F20"/>
</svg>
