<svg width="406" height="307" viewBox="0 0 406 307" fill="none" xmlns="http://www.w3.org/2000/svg">
<path d="M110.361 268.042C115.659 272.478 122.297 274.985 128.915 277.004C131.686 277.857 134.488 278.628 137.299 279.329H259.718C261.799 279.329 266.823 272.467 267.838 270.539C270.257 265.338 271.211 259.576 270.599 253.873C269.716 246.94 265.463 240.678 265.067 233.715C264.813 229.249 266.163 224.813 266.082 220.337C265.849 210.644 258.033 202.706 249.761 198.575C244.777 196.078 240.322 187.705 239.063 182.559C237.48 176.083 235.145 172.622 230.943 167.151C229.998 165.992 229.146 164.76 228.395 163.467C226.426 159.863 226.112 155.621 224.965 151.682C224.563 149.997 223.766 148.431 222.64 147.115C220.941 145.499 218.682 144.605 216.337 144.618C212.379 144.496 211.029 145.877 207.821 143.603C205.446 141.928 204.512 139.238 201.356 138.528C198.045 137.774 194.61 137.746 191.287 138.446C187.964 139.146 184.832 140.557 182.107 142.582C179.381 144.607 177.127 147.199 175.498 150.179C173.869 153.158 172.905 156.455 172.672 159.843C172.53 161.873 172.672 163.984 171.799 165.831C170.926 167.679 169.403 168.876 168.348 170.561C165.08 175.636 167.455 182.528 165.577 188.273C163.831 193.642 158.705 197.124 153.62 199.57C148.535 202.016 143.024 203.935 138.974 207.873C132.701 213.963 130.762 224.194 123.15 228.508C113.609 233.918 103.114 236.821 101.936 249.945C101.256 256.867 105.063 263.596 110.361 268.042Z" fill="white"/>
<path d="M259.718 279.836H137.177C134.244 279.095 131.412 278.314 128.763 277.502C122.602 275.614 115.568 273.066 110.036 268.438C104.027 263.363 100.779 256.481 101.368 249.944C102.383 238.729 109.996 234.811 118.055 230.659C119.628 229.858 121.252 229.015 122.835 228.122C127.098 225.706 129.504 221.433 132.052 216.957C133.919 213.658 135.837 210.248 138.568 207.599C141.816 204.432 146.018 202.524 150.078 200.707C151.174 200.22 152.26 199.692 153.336 199.205C159.812 196.089 163.638 192.495 165.039 188.212C165.698 185.721 165.975 183.144 165.861 180.569C165.861 177.047 165.912 173.403 167.891 170.419C168.35 169.735 168.855 169.084 169.403 168.47C170.159 167.654 170.801 166.739 171.312 165.75C171.85 164.303 172.108 162.767 172.073 161.223C172.073 160.797 172.073 160.361 172.134 159.934C172.46 155.96 173.746 152.123 175.882 148.755C178.017 145.387 180.939 142.588 184.395 140.599C189.582 137.717 195.647 136.843 201.437 138.142C203.238 138.645 204.818 139.739 205.923 141.248C206.564 142.005 207.29 142.686 208.085 143.278C208.795 143.828 209.621 144.211 210.499 144.397C211.378 144.584 212.288 144.569 213.16 144.354C214.227 144.214 215.302 144.156 216.378 144.181C218.856 144.155 221.245 145.107 223.026 146.831C224.211 148.203 225.049 149.838 225.472 151.601C225.858 152.931 226.152 154.301 226.436 155.661C226.879 158.314 227.696 160.891 228.862 163.314C229.601 164.581 230.435 165.789 231.359 166.928C235.419 172.145 237.936 175.789 239.581 182.528C240.778 187.4 245.183 195.794 250.025 198.21C257.881 202.138 266.366 210.035 266.62 220.418C266.621 222.58 266.451 224.738 266.113 226.874C265.736 229.154 265.576 231.465 265.636 233.776C265.839 237.409 267.158 240.941 268.427 244.362C269.699 247.427 270.615 250.629 271.157 253.903C271.784 259.704 270.812 265.566 268.346 270.853C267.361 272.579 262.164 279.836 259.718 279.836ZM137.36 278.821H259.718C261.373 278.821 266.265 272.498 267.361 270.305C269.738 265.197 270.675 259.536 270.071 253.933C269.532 250.74 268.633 247.617 267.392 244.626C266.092 241.134 264.753 237.521 264.539 233.745C264.481 231.367 264.644 228.988 265.027 226.64C265.36 224.556 265.526 222.448 265.524 220.337C265.28 210.41 257.079 202.818 249.487 199.022C244.311 196.424 239.784 187.857 238.515 182.67C236.972 176.347 234.77 173.028 230.476 167.445C229.518 166.262 228.653 165.006 227.888 163.69C226.668 161.184 225.82 158.513 225.371 155.763C225.086 154.453 224.792 153.093 224.417 151.804C224.031 150.201 223.277 148.71 222.214 147.45C220.615 145.92 218.479 145.081 216.266 145.115C215.248 145.093 214.23 145.15 213.221 145.288C212.235 145.51 211.211 145.513 210.224 145.295C209.236 145.078 208.308 144.645 207.507 144.029C206.643 143.387 205.86 142.644 205.172 141.817C204.199 140.47 202.807 139.485 201.214 139.015C195.668 137.78 189.862 138.618 184.892 141.37C181.583 143.278 178.785 145.96 176.74 149.186C174.695 152.412 173.462 156.087 173.149 159.894C173.149 160.31 173.098 160.736 173.088 161.162C173.114 162.836 172.824 164.499 172.235 166.065C171.699 167.136 171.016 168.126 170.205 169.008C169.693 169.596 169.216 170.213 168.774 170.856C166.988 173.637 166.967 176.946 166.937 180.508C167.05 183.186 166.756 185.866 166.064 188.456C164.572 193.013 160.573 196.809 153.884 200.047C152.798 200.565 151.702 201.062 150.596 201.559C146.607 203.356 142.476 205.213 139.37 208.248C136.751 210.796 134.863 214.145 133.036 217.383C130.529 221.829 127.961 226.417 123.434 228.975C121.841 229.878 120.206 230.72 118.623 231.532C110.818 235.592 103.398 239.348 102.485 250.005C101.936 256.095 105.113 262.876 110.787 267.626C116.167 272.143 123.099 274.65 129.169 276.507C131.676 277.339 134.467 278.101 137.36 278.821Z" fill="#231F20"/>
<path d="M202.584 123.922C199.681 123.597 196.778 123.151 193.865 122.968C189.003 122.684 186.222 120.035 185.613 115.427C184.679 108.322 181.553 102.161 177.828 96.1416C172.255 87.5548 170.299 77.114 172.388 67.0923C176.61 46.3254 194.88 35.5055 216.195 39.9918C247.66 46.6096 252.989 80.5106 233.815 101.511C228.639 107.185 223.665 112.676 220.925 120.014C219.392 124.074 216.083 125.617 211.729 124.968C208.704 124.521 205.639 124.267 202.584 123.922Z" fill="white"/>
<path d="M213.556 125.617C212.924 125.614 212.293 125.566 211.668 125.475C209.638 125.16 207.466 124.947 205.416 124.734L202.533 124.429L199.853 124.074C197.884 123.82 195.794 123.567 193.835 123.445C188.76 123.14 185.715 120.4 185.116 115.457C184.101 107.926 180.66 101.582 177.402 96.3647C171.781 87.6534 169.802 77.0846 171.89 66.9297C173.92 57.0741 179.056 49.2078 186.75 44.1633C194.87 38.8244 205.385 37.1598 216.307 39.4537C230.131 42.3667 239.885 50.6187 243.783 62.6972C247.985 75.7501 244.311 90.7315 234.201 101.805C229.278 107.205 224.183 112.777 221.412 120.156C220.884 121.803 219.828 123.229 218.408 124.216C216.988 125.203 215.283 125.695 213.556 125.617ZM202.645 123.414C203.599 123.526 204.563 123.628 205.517 123.719C207.547 123.932 209.719 124.155 211.82 124.47C216.094 125.099 219.078 123.455 220.458 119.842C223.3 112.28 228.456 106.647 233.45 101.166C243.316 90.3559 246.909 75.7907 242.818 63.0524C239.043 51.3292 229.552 43.3208 216.104 40.489C205.436 38.2458 195.215 39.8698 187.308 45.0463C179.838 49.9386 174.854 57.5917 172.875 67.1733C171.842 72.0734 171.785 77.1291 172.708 82.0511C173.631 86.973 175.516 91.6646 178.254 95.8572C181.583 101.166 185.116 107.631 186.121 115.355C186.699 119.801 189.318 122.196 193.895 122.46C195.925 122.582 197.955 122.836 199.985 123.09L202.645 123.404V123.414Z" fill="#231F20"/>
<path d="M214.267 125.26L190.783 122.639C188.677 122.404 186.78 123.92 186.545 126.026L186.409 127.237C186.174 129.342 187.691 131.24 189.797 131.475L213.28 134.097C215.386 134.332 217.284 132.815 217.519 130.71L217.654 129.499C217.889 127.393 216.372 125.496 214.267 125.26Z" fill="white"/>
<path d="M213.718 134.64C213.553 134.651 213.387 134.651 213.221 134.64L189.724 132.022C189.158 131.959 188.611 131.784 188.112 131.509C187.614 131.234 187.175 130.863 186.821 130.418C186.461 129.974 186.194 129.462 186.035 128.913C185.876 128.364 185.83 127.788 185.897 127.221L186.029 126.003C186.159 124.858 186.736 123.812 187.633 123.09C188.079 122.733 188.591 122.469 189.14 122.312C189.689 122.156 190.263 122.109 190.83 122.176L214.327 124.795C215.469 124.925 216.513 125.502 217.23 126.4C217.947 127.298 218.279 128.443 218.154 129.586L218.022 130.814C217.959 131.379 217.785 131.927 217.51 132.425C217.234 132.923 216.863 133.362 216.418 133.717C215.65 134.324 214.697 134.65 213.718 134.64ZM213.333 133.625C214.209 133.722 215.087 133.468 215.776 132.918C216.465 132.368 216.908 131.568 217.007 130.692L217.149 129.464C217.197 129.031 217.159 128.593 217.037 128.175C216.916 127.757 216.712 127.367 216.439 127.028C216.168 126.683 215.831 126.397 215.448 126.186C215.064 125.975 214.641 125.843 214.206 125.8L190.718 123.171C190.284 123.12 189.844 123.157 189.424 123.279C189.003 123.401 188.612 123.606 188.272 123.881C187.928 124.15 187.642 124.485 187.43 124.867C187.219 125.249 187.088 125.67 187.044 126.104L186.902 127.332C186.813 128.199 187.067 129.065 187.61 129.747C188.153 130.428 188.941 130.869 189.805 130.976L213.333 133.625Z" fill="#231F20"/>
<path d="M213.282 134.1L189.798 131.478C187.692 131.243 185.795 132.759 185.56 134.865L185.424 136.076C185.189 138.182 186.706 140.079 188.812 140.314L212.295 142.936C214.401 143.171 216.299 141.655 216.534 139.549L216.669 138.338C216.904 136.232 215.387 134.335 213.282 134.1Z" fill="white"/>
<path d="M212.724 143.481C212.561 143.491 212.399 143.491 212.237 143.481L188.79 140.832C187.646 140.702 186.599 140.125 185.877 139.228C185.521 138.782 185.257 138.27 185.101 137.721C184.944 137.172 184.897 136.598 184.963 136.031L185.095 134.813C185.223 133.685 185.788 132.652 186.668 131.935C187.548 131.218 188.674 130.874 189.805 130.976L213.302 133.605C214.446 133.733 215.492 134.309 216.211 135.207C216.931 136.105 217.264 137.252 217.139 138.396L216.997 139.624C216.875 140.682 216.37 141.659 215.577 142.369C214.784 143.08 213.758 143.476 212.693 143.481H212.724ZM189.379 131.971C188.561 131.969 187.772 132.269 187.162 132.815C186.553 133.36 186.168 134.112 186.08 134.925L185.948 136.143C185.851 137.019 186.105 137.897 186.655 138.586C187.205 139.275 188.006 139.718 188.881 139.817L212.379 142.446C213.255 142.543 214.133 142.288 214.822 141.739C215.511 141.189 215.953 140.388 216.053 139.512L216.195 138.284C216.246 137.85 216.21 137.41 216.09 136.99C215.969 136.57 215.767 136.177 215.494 135.836C215.222 135.494 214.884 135.21 214.501 134.999C214.117 134.789 213.696 134.657 213.262 134.61L189.764 131.991C189.627 131.972 189.487 131.965 189.348 131.971H189.379Z" fill="#231F20"/>
<path d="M212.612 142.984C212.237 146.313 206.522 148.414 199.874 147.673C193.226 146.932 188.11 143.613 188.475 140.284L212.612 142.984Z" fill="#231F20"/>
<path d="M202.574 148.333C201.651 148.333 200.729 148.279 199.813 148.17C196.787 147.894 193.863 146.94 191.256 145.379C188.942 143.867 187.775 142.04 187.978 140.233C187.993 140.1 188.061 139.979 188.165 139.895C188.27 139.811 188.403 139.772 188.536 139.787L212.663 142.476C212.73 142.483 212.796 142.504 212.855 142.537C212.915 142.57 212.967 142.615 213.008 142.669C213.05 142.721 213.08 142.782 213.098 142.846C213.115 142.911 213.119 142.979 213.109 143.045C212.764 146.212 208.329 148.333 202.574 148.333ZM188.973 140.852C189.084 142.111 190.069 143.39 191.815 144.527C194.289 146.005 197.064 146.907 199.935 147.166C205.842 147.825 211.15 146.151 212.013 143.43L188.973 140.852Z" fill="#231F20"/>
<path d="M210.47 120.583C210.339 120.583 210.213 120.532 210.119 120.441C210.024 120.351 209.968 120.227 209.963 120.096C209.596 112.46 210.159 104.809 211.638 97.3088C208.124 97.8523 204.54 97.7318 201.072 96.9536C201.072 104.059 199.671 111.164 198.301 118.106L198.138 118.969C198.109 119.1 198.03 119.214 197.918 119.288C197.807 119.361 197.671 119.389 197.539 119.365C197.473 119.353 197.41 119.327 197.355 119.291C197.299 119.254 197.251 119.206 197.214 119.15C197.177 119.094 197.151 119.031 197.139 118.965C197.127 118.899 197.129 118.831 197.143 118.766L197.306 117.903C198.686 110.961 200.097 103.825 200.057 96.71C195.708 95.5975 191.707 93.417 188.414 90.3662C186.438 88.6704 184.958 86.4713 184.131 84.0022C183.707 82.7301 183.617 81.3703 183.869 80.0533C184.121 78.7362 184.708 77.5061 185.572 76.481C186.311 75.7845 187.184 75.2473 188.139 74.9028C189.094 74.5583 190.109 74.414 191.122 74.4787C192.135 74.5434 193.124 74.8159 194.027 75.2791C194.93 75.7423 195.728 76.3864 196.372 77.1712C198.351 79.9828 199.782 84.4488 200.625 90.4576C200.881 92.2673 201.027 94.0909 201.061 95.9183C204.603 96.7462 208.275 96.8566 211.861 96.2431C211.922 95.969 211.983 95.695 212.054 95.4209L212.216 94.7003C213.505 89.1178 215.109 82.1752 219.616 78.2065C220.346 77.5671 222.924 75.5066 225.279 76.0446C225.84 76.1921 226.356 76.4759 226.781 76.8707C227.206 77.2656 227.527 77.7593 227.715 78.308C228.348 79.9976 228.572 81.8132 228.367 83.6059C228.163 85.3985 227.536 87.1171 226.538 88.6204C224.541 91.5616 221.74 93.866 218.469 95.2585C216.629 96.0986 214.697 96.722 212.714 97.116C211.192 104.662 210.609 112.366 210.978 120.055C210.981 120.189 210.932 120.319 210.841 120.417C210.75 120.516 210.624 120.575 210.491 120.583H210.47ZM224.488 76.9378C222.904 77.142 221.43 77.8543 220.285 78.9678C216.022 82.7131 214.459 89.4933 213.18 94.9337L213.018 95.6544C213.018 95.7762 212.957 95.9081 212.937 96.0299C214.685 95.6516 216.387 95.0832 218.012 94.3349C221.11 93.0279 223.764 90.8531 225.655 88.0723C226.566 86.7068 227.139 85.1444 227.328 83.5139C227.517 81.8833 227.316 80.2313 226.741 78.6937C226.615 78.2957 226.39 77.9356 226.089 77.6466C225.788 77.3576 225.418 77.1487 225.015 77.0393C224.842 77.0006 224.665 76.9802 224.488 76.9784V76.9378ZM190.597 75.4356C189.805 75.4115 189.017 75.5495 188.28 75.841C187.544 76.1324 186.874 76.5713 186.313 77.1306C185.578 78.0324 185.082 79.105 184.871 80.2493C184.66 81.3935 184.74 82.5726 185.106 83.6774C185.887 85.9681 187.268 88.0078 189.105 89.5847C192.201 92.4709 195.953 94.5609 200.036 95.6747C199.999 93.9762 199.86 92.2815 199.62 90.5997C198.798 84.7533 197.428 80.4497 195.56 77.7599C195.026 77.0768 194.348 76.5198 193.575 76.1286C192.801 75.7374 191.951 75.5215 191.084 75.4965L190.597 75.4356Z" fill="#D1D3D4"/>
<path d="M148.352 280.384H247.305C248.624 264.906 250.644 245.986 253.517 234.516L295.436 194.505L266.864 167.283C266.864 167.283 203.589 207.517 199.113 207.243C193.408 206.888 124.693 154.159 124.693 154.159L111.975 192.729L148.687 242.23C148.687 255.385 148.545 269.301 148.352 280.384Z" fill="#ED1E79"/>
<path d="M200.757 274.7C200.618 274.696 200.487 274.638 200.391 274.538C200.344 274.491 200.306 274.435 200.28 274.373C200.255 274.311 200.241 274.245 200.241 274.178C200.241 274.111 200.255 274.044 200.28 273.982C200.306 273.921 200.344 273.864 200.391 273.817C213.891 260.896 216.276 254.147 215.89 250.756C215.828 250.052 215.595 249.373 215.211 248.779C214.827 248.185 214.304 247.693 213.688 247.346C213.617 247.303 213.558 247.244 213.516 247.173C213.473 247.103 213.449 247.022 213.444 246.94C213.44 246.86 213.454 246.779 213.485 246.705C213.517 246.631 213.566 246.566 213.627 246.514C214.358 245.915 215.17 245.336 216.022 244.727C218.631 242.87 221.331 240.941 222.183 238.14C223.32 234.425 221.524 229.259 220.072 225.097C219.687 223.971 219.311 222.905 219.057 221.93C219.027 221.864 219.012 221.793 219.012 221.72C219.012 221.647 219.028 221.576 219.058 221.51C219.088 221.444 219.132 221.385 219.187 221.338C219.242 221.29 219.307 221.255 219.376 221.234C219.446 221.214 219.519 221.208 219.591 221.219C219.663 221.229 219.731 221.254 219.793 221.293C219.854 221.332 219.906 221.384 219.945 221.445C219.985 221.506 220.011 221.575 220.022 221.646C220.316 222.59 220.681 223.676 221.037 224.762C222.529 229.066 224.386 234.405 223.158 238.434C222.204 241.571 219.23 243.692 216.611 245.539C215.982 245.986 215.373 246.422 214.804 246.859C215.396 247.306 215.887 247.873 216.247 248.521C216.607 249.169 216.828 249.886 216.895 250.625C217.494 255.882 212.176 263.921 201.092 274.538C201.004 274.631 200.885 274.689 200.757 274.7Z" fill="#231F20"/>
<path d="M178.955 273.279C178.856 273.28 178.759 273.251 178.676 273.197C178.593 273.143 178.527 273.066 178.488 272.975C178.143 272.163 177.696 271.209 177.199 270.133C174.245 263.769 169.292 253.111 172.256 246.717C173.211 244.703 174.927 243.152 177.026 242.403C174.682 241.317 169.921 238.648 170.347 235.197C170.946 230.446 175.849 226.143 179.097 223.28L179.279 223.118C179.382 223.031 179.515 222.987 179.65 222.997C179.785 223.006 179.91 223.068 180 223.169C180.044 223.218 180.078 223.276 180.099 223.339C180.121 223.402 180.129 223.468 180.125 223.535C180.12 223.601 180.102 223.666 180.072 223.725C180.042 223.784 180 223.836 179.949 223.879L179.767 224.052C176.63 226.802 171.9 230.954 171.352 235.318C170.967 238.363 176.478 241.175 178.63 241.997C178.73 242.034 178.816 242.102 178.875 242.192C178.933 242.281 178.961 242.388 178.955 242.494C178.948 242.602 178.909 242.704 178.841 242.788C178.774 242.871 178.682 242.932 178.579 242.961C177.418 243.198 176.326 243.699 175.388 244.424C174.45 245.149 173.691 246.079 173.169 247.143C170.408 253.111 175.199 263.505 178.122 269.707C178.62 270.782 179.066 271.736 179.422 272.569C179.473 272.693 179.474 272.832 179.425 272.957C179.376 273.082 179.28 273.183 179.158 273.239C179.092 273.262 179.024 273.276 178.955 273.279Z" fill="#231F20"/>
<path d="M212.774 213.425L185.786 214.379L186.395 276.669L212.774 213.425Z" fill="#231F20"/>
<path d="M186.395 277.177H186.293C186.178 277.154 186.075 277.091 186.001 277.001C185.927 276.91 185.887 276.797 185.887 276.68L185.278 214.389C185.277 214.324 185.288 214.259 185.312 214.198C185.336 214.137 185.371 214.082 185.417 214.034C185.462 213.987 185.516 213.95 185.576 213.923C185.636 213.897 185.7 213.883 185.765 213.882L212.754 212.928C212.839 212.923 212.924 212.94 213 212.977C213.077 213.015 213.142 213.071 213.191 213.141C213.24 213.211 213.271 213.292 213.28 213.378C213.289 213.463 213.276 213.549 213.241 213.628L186.851 276.873C186.812 276.962 186.749 277.038 186.668 277.092C186.587 277.146 186.492 277.175 186.395 277.177ZM186.293 214.866L186.882 274.193L212.003 213.963L186.293 214.866Z" fill="#231F20"/>
<path d="M187.775 198.058L185.745 214.409C185.745 214.409 188.496 223.859 199.498 222.418C210.501 220.976 212.693 213.455 212.693 213.455L216.347 178.884C216.347 178.884 212.815 177.808 209.181 159.122C209.181 159.122 200.635 164.502 184.903 160.756C184.903 160.756 181.309 178.011 181.462 186.477C181.45 188.783 182.023 191.055 183.127 193.08C184.231 195.105 185.83 196.818 187.775 198.058Z" fill="white"/>
<path d="M197.336 223.037C194.686 223.071 192.094 222.265 189.93 220.735C187.765 219.206 186.141 217.03 185.288 214.521C185.278 214.454 185.278 214.385 185.288 214.318L187.196 198.301C185.266 196.992 183.688 195.227 182.601 193.163C181.514 191.099 180.952 188.799 180.964 186.466C180.812 178.042 184.375 160.807 184.415 160.635C184.426 160.567 184.452 160.503 184.49 160.447C184.529 160.391 184.58 160.344 184.639 160.31C184.696 160.275 184.759 160.251 184.825 160.241C184.892 160.23 184.959 160.233 185.024 160.249C200.341 163.883 208.846 158.726 208.928 158.666C208.998 158.623 209.078 158.599 209.16 158.593C209.242 158.588 209.324 158.602 209.399 158.635C209.475 158.668 209.541 158.718 209.593 158.782C209.645 158.845 209.682 158.92 209.699 159C213.14 176.733 216.499 178.367 216.53 178.387C216.639 178.42 216.733 178.492 216.793 178.589C216.852 178.686 216.875 178.802 216.855 178.915L213.292 213.476C213.17 213.882 210.815 221.423 199.61 222.885C198.857 222.989 198.097 223.039 197.336 223.037ZM186.293 214.328C186.628 215.343 189.5 223.179 199.488 221.88C210.003 220.499 212.206 213.567 212.297 213.273L215.819 179.128C214.744 178.357 211.82 174.926 208.836 159.843C206.593 160.99 198.534 164.329 185.298 161.315C184.71 164.228 181.847 178.915 181.979 186.405C181.964 188.604 182.499 190.771 183.534 192.71C184.569 194.649 186.072 196.299 187.907 197.51C187.976 197.554 188.041 197.605 188.1 197.662C188.154 197.715 188.196 197.781 188.22 197.853C188.245 197.925 188.252 198.002 188.242 198.078L186.293 214.328Z" fill="#231F20"/>
<path d="M212.135 179.443C213.048 176.956 215.322 175.454 217.778 174.652C218.578 174.347 219.435 174.222 220.289 174.283C221.143 174.344 221.973 174.591 222.721 175.007C223.64 175.686 224.337 176.622 224.722 177.698C225.107 178.773 225.163 179.939 224.883 181.046C224.551 182.729 223.774 184.293 222.634 185.574C221.493 186.856 220.031 187.809 218.398 188.334C216.19 188.926 213.837 188.624 211.851 187.492" fill="white"/>
<path d="M216.195 189.146C214.599 189.144 213.031 188.724 211.648 187.928C211.546 187.854 211.476 187.745 211.45 187.622C211.424 187.499 211.444 187.371 211.508 187.263C211.571 187.154 211.672 187.073 211.792 187.034C211.911 186.996 212.041 187.003 212.155 187.055C214.02 188.122 216.232 188.407 218.306 187.847C219.843 187.338 221.216 186.429 222.286 185.215C223.356 184 224.085 182.523 224.396 180.935C224.782 179.118 224.335 176.611 222.468 175.433C221.78 175.059 221.019 174.838 220.238 174.786C219.456 174.733 218.673 174.85 217.941 175.129C216.033 175.758 213.556 177.057 212.622 179.625C212.6 179.688 212.565 179.745 212.52 179.794C212.475 179.843 212.42 179.882 212.36 179.91C212.299 179.937 212.234 179.952 212.167 179.954C212.101 179.956 212.034 179.944 211.973 179.92C211.846 179.874 211.743 179.78 211.686 179.658C211.629 179.536 211.622 179.397 211.668 179.27C212.744 176.327 215.505 174.865 217.626 174.195C218.498 173.866 219.433 173.732 220.362 173.804C221.292 173.876 222.194 174.151 223.006 174.611C224.012 175.344 224.776 176.361 225.201 177.531C225.626 178.7 225.692 179.971 225.391 181.178C225.036 182.952 224.214 184.598 223.009 185.947C221.805 187.296 220.262 188.299 218.54 188.852C217.774 189.052 216.986 189.151 216.195 189.146Z" fill="#231F20"/>
<path d="M196.697 170.379C196.697 170.379 189.896 177.93 191.023 179.514C192.15 181.097 196.007 180.732 196.007 180.732" fill="white"/>
<path d="M194.88 181.351C193.54 181.351 191.47 181.127 190.607 179.859C189.389 178.072 194.2 172.398 196.321 170.033C196.365 169.98 196.418 169.935 196.48 169.903C196.541 169.87 196.608 169.851 196.677 169.845C196.746 169.84 196.815 169.849 196.881 169.871C196.946 169.893 197.006 169.929 197.058 169.975C197.109 170.021 197.15 170.078 197.179 170.141C197.208 170.204 197.223 170.272 197.224 170.341C197.226 170.41 197.213 170.479 197.187 170.543C197.161 170.607 197.122 170.665 197.072 170.714C193.591 174.581 190.982 178.58 191.439 179.28C192.221 180.417 194.961 180.386 195.946 180.295C196.012 180.285 196.08 180.289 196.145 180.306C196.209 180.324 196.27 180.355 196.322 180.397C196.375 180.438 196.418 180.491 196.449 180.55C196.481 180.61 196.499 180.675 196.504 180.742C196.518 180.875 196.479 181.008 196.396 181.113C196.312 181.217 196.19 181.285 196.057 181.3C195.895 181.3 195.479 181.351 194.88 181.351Z" fill="#231F20"/>
<path d="M196.169 189.146C190.962 189.146 186.202 185.238 186.019 185.086C185.968 185.044 185.925 184.992 185.894 184.933C185.863 184.874 185.844 184.81 185.839 184.744C185.833 184.677 185.841 184.611 185.861 184.547C185.882 184.484 185.915 184.426 185.958 184.375C186.043 184.272 186.166 184.207 186.299 184.194C186.432 184.181 186.565 184.22 186.669 184.304C186.73 184.304 192.596 189.176 198.057 187.969C200.787 187.37 202.98 185.34 204.594 181.939C204.657 181.828 204.76 181.745 204.883 181.706C205.005 181.668 205.138 181.677 205.253 181.732C205.369 181.788 205.46 181.885 205.507 182.004C205.554 182.124 205.554 182.256 205.507 182.376C203.761 186.07 201.325 188.293 198.27 188.963C197.579 189.102 196.874 189.163 196.169 189.146Z" fill="#231F20"/>
<path d="M186.395 168.521C186.395 168.521 186.658 165.354 189.44 164.989C192.221 164.624 191.642 168.521 191.642 168.521" fill="white"/>
<path d="M191.632 169.029H191.551C191.419 169.009 191.301 168.938 191.222 168.832C191.142 168.725 191.107 168.592 191.125 168.46C191.302 167.541 191.129 166.588 190.637 165.791C190.485 165.655 190.302 165.558 190.104 165.507C189.907 165.456 189.7 165.452 189.501 165.497C187.166 165.801 186.912 168.46 186.902 168.542C186.897 168.608 186.879 168.673 186.848 168.733C186.818 168.793 186.776 168.846 186.725 168.889C186.674 168.932 186.615 168.965 186.552 168.986C186.488 169.006 186.421 169.014 186.354 169.008C186.22 168.996 186.097 168.931 186.01 168.829C185.923 168.727 185.879 168.594 185.887 168.46C185.989 167.222 186.902 164.796 189.369 164.461C189.729 164.384 190.103 164.398 190.458 164.5C190.812 164.603 191.135 164.792 191.399 165.05C192.495 166.166 192.211 168.328 192.17 168.572C192.157 168.703 192.094 168.824 191.993 168.909C191.893 168.994 191.763 169.037 191.632 169.029Z" fill="#231F20"/>
<path d="M199.722 169.323C199.722 169.323 199.985 166.156 202.767 165.791C205.548 165.425 204.959 169.323 204.959 169.323" fill="white"/>
<path d="M204.959 169.83H204.888C204.821 169.822 204.757 169.8 204.699 169.766C204.641 169.732 204.591 169.686 204.551 169.632C204.511 169.578 204.483 169.517 204.467 169.451C204.452 169.386 204.45 169.318 204.462 169.252C204.631 168.334 204.454 167.387 203.964 166.593C203.813 166.455 203.63 166.356 203.432 166.305C203.234 166.253 203.027 166.251 202.827 166.298C200.503 166.603 200.239 169.252 200.229 169.343C200.217 169.478 200.152 169.602 200.048 169.689C199.944 169.775 199.81 169.817 199.676 169.805C199.541 169.793 199.417 169.728 199.33 169.624C199.244 169.52 199.202 169.387 199.214 169.252C199.316 168.014 200.178 165.588 202.695 165.253C203.057 165.181 203.431 165.197 203.784 165.302C204.138 165.406 204.461 165.595 204.725 165.852C205.812 166.968 205.527 169.13 205.487 169.374C205.476 169.504 205.415 169.625 205.316 169.71C205.218 169.796 205.089 169.839 204.959 169.83Z" fill="#231F20"/>
<path d="M187.775 198.058C187.775 198.058 197.641 201.62 204.015 198.91C204.015 198.91 195.753 211.811 186.405 209.243L187.775 198.058Z" fill="#231F20"/>
<path d="M188.932 210.096C188.03 210.096 187.133 209.977 186.263 209.74C186.144 209.707 186.041 209.633 185.972 209.531C185.903 209.428 185.873 209.305 185.887 209.182L187.227 198.017C187.236 197.941 187.261 197.868 187.301 197.803C187.342 197.738 187.396 197.683 187.46 197.642C187.53 197.609 187.606 197.592 187.684 197.592C187.761 197.592 187.837 197.609 187.907 197.642C187.998 197.642 197.671 201.103 203.802 198.504C203.902 198.463 204.013 198.455 204.119 198.48C204.225 198.506 204.32 198.564 204.391 198.646C204.454 198.733 204.488 198.838 204.488 198.946C204.488 199.054 204.454 199.158 204.391 199.245C204.116 199.672 197.336 210.096 188.932 210.096ZM186.953 208.857C193.956 210.42 200.381 202.96 202.675 199.905C197.184 201.387 190.241 199.408 188.161 198.738L186.953 208.857Z" fill="#231F20"/>
<path d="M148.403 276.03C148.336 276.027 148.271 276.012 148.21 275.984C148.15 275.956 148.095 275.916 148.05 275.867C148.005 275.818 147.97 275.761 147.947 275.698C147.924 275.635 147.913 275.569 147.916 275.502C148.302 265.078 148.16 256.877 148.028 248.94C147.936 243.266 147.845 237.907 147.936 231.817C147.936 231.75 147.949 231.685 147.975 231.624C148.001 231.563 148.038 231.508 148.085 231.461C148.133 231.415 148.189 231.378 148.25 231.354C148.312 231.33 148.378 231.318 148.444 231.319C148.578 231.319 148.707 231.373 148.803 231.468C148.898 231.563 148.951 231.692 148.951 231.827C148.86 237.917 148.951 243.256 149.043 248.919C149.175 256.867 149.317 265.088 148.931 275.543C148.928 275.609 148.913 275.675 148.885 275.735C148.857 275.796 148.817 275.851 148.768 275.896C148.719 275.941 148.662 275.976 148.599 275.999C148.536 276.022 148.47 276.033 148.403 276.03Z" fill="#231F20"/>
<path d="M266.864 167.242C259.596 158.202 252.339 149.155 245.092 140.101C241.485 135.608 237.882 131.105 234.282 126.592C232.894 124.622 231.335 122.777 229.623 121.08C228.05 119.78 226.921 118.022 226.391 116.05C225.862 114.079 225.959 111.991 226.67 110.078C227.451 108.458 227.956 106.718 228.162 104.932C228.233 101.541 225.584 98.4457 226 95.086C226.016 94.8363 226.096 94.5949 226.233 94.3857C226.721 93.7361 227.766 94.1218 228.395 94.6394C229.515 95.5616 230.414 96.7237 231.024 98.0397C234.601 94.5998 237.648 90.6492 240.068 86.3164C240.545 85.4537 241.255 84.4387 242.23 84.5808C243.204 84.7229 243.63 86.0728 243.519 87.1183C243.245 89.605 241.712 91.7365 240.352 93.8274C239.256 95.5123 239.012 107.571 239.987 108.616C242.686 111.549 284.647 146.374 295.436 159.863C309.575 177.585 303.099 192.546 295.436 194.465C287.773 196.383 266.864 167.242 266.864 167.242Z" fill="white"/>
<path d="M294.715 195.053C286.321 195.053 267.402 168.856 266.458 167.547C259.204 158.513 251.95 149.473 244.696 140.426C241.09 135.919 237.486 131.413 233.886 126.906C233.511 126.439 233.145 125.962 232.78 125.475C231.75 124.028 230.581 122.685 229.288 121.466C227.641 120.093 226.458 118.244 225.904 116.172C225.35 114.1 225.451 111.907 226.193 109.895L226.528 109.063C227.14 107.758 227.521 106.357 227.654 104.921C227.58 103.375 227.215 101.857 226.578 100.445C225.782 98.7536 225.409 96.8932 225.492 95.0251C225.519 94.6866 225.635 94.3611 225.827 94.0812C225.937 93.9318 226.077 93.8068 226.238 93.7142C226.399 93.6216 226.577 93.5634 226.761 93.5432C227.48 93.5176 228.181 93.7683 228.72 94.2436C229.716 95.0638 230.546 96.0662 231.166 97.1972C234.496 93.8917 237.342 90.133 239.621 86.0322C239.956 85.4232 240.859 83.8297 242.311 84.0022C243.762 84.1748 244.168 85.7379 244.026 87.0472C243.762 89.4325 242.433 91.4523 241.144 93.4113L240.768 93.9898C239.753 95.6037 239.672 107.185 240.362 108.2C241.052 109.215 244.767 112.168 249.873 116.594C264.083 128.946 287.976 149.622 295.832 159.467C306.388 172.662 304.571 182.894 303.292 186.659C301.841 190.953 298.948 194.028 295.558 194.871C295.286 194.969 295.003 195.03 294.715 195.053ZM226.964 94.5684H226.883C226.835 94.5703 226.788 94.5832 226.746 94.6061C226.704 94.629 226.667 94.6612 226.639 94.7003C226.56 94.84 226.515 94.9965 226.507 95.1571C226.44 96.8627 226.789 98.559 227.522 100.1C228.206 101.631 228.595 103.277 228.669 104.952C228.541 106.511 228.132 108.035 227.462 109.448L227.147 110.27C226.478 112.087 226.389 114.066 226.892 115.935C227.396 117.804 228.467 119.471 229.958 120.705C231.302 121.968 232.515 123.362 233.582 124.866L234.678 126.287C238.271 130.794 241.874 135.297 245.488 139.797C252.735 148.851 259.992 157.894 267.26 166.928C272.812 174.672 288.148 194.028 294.665 194.028C294.891 194.033 295.116 194.005 295.335 193.947C298.38 193.196 301.029 190.303 302.348 186.395C303.576 182.782 305.302 173.008 295.061 160.168C287.265 150.393 262.52 128.946 249.223 117.426C243.904 112.808 240.393 109.763 239.631 108.941C238.515 107.733 238.758 95.3499 239.946 93.5331L240.322 92.9647C241.54 91.0971 242.798 89.1787 243.032 87.0371C243.113 86.3063 242.9 85.1695 242.179 85.068C241.661 84.9969 241.164 85.4537 240.535 86.5499C238.091 90.9242 235.012 94.9124 231.4 98.3848C231.34 98.4395 231.269 98.4798 231.192 98.5027C231.114 98.5256 231.033 98.5304 230.953 98.5167C230.873 98.5043 230.798 98.4717 230.734 98.4219C230.67 98.3722 230.619 98.307 230.588 98.2325C230.008 96.9858 229.155 95.8859 228.091 95.015C227.774 94.7435 227.38 94.5799 226.964 94.5481V94.5684Z" fill="#231F20"/>
<path d="M143.43 167.242C150.697 158.202 157.954 149.155 165.201 140.101C168.815 135.608 172.418 131.105 176.011 126.591C177.4 124.621 178.959 122.777 180.67 121.08C183.847 118.299 184.649 114.675 183.806 110.433C183.218 107.469 181.776 104.343 182.862 101.572C183.39 100.273 184.415 99.2271 184.892 97.9177C185.369 96.6084 184.892 94.7509 183.563 94.487C183.091 94.4598 182.62 94.5604 182.2 94.7783C181.78 94.9963 181.427 95.3234 181.177 95.7253C180.579 96.5272 180.163 97.7553 179.229 98.1106C176.306 93.0356 174.438 87.7068 171.971 82.4187C171.706 81.7514 171.305 81.1465 170.794 80.6424C170.534 80.3815 170.204 80.2014 169.844 80.1239C169.483 80.0465 169.108 80.075 168.764 80.206C168.449 80.3764 168.188 80.6307 168.009 80.9406C167.829 81.2506 167.74 81.6041 167.749 81.9619C167.767 82.6776 167.907 83.3849 168.165 84.0528C169.297 88.0345 170.219 92.073 170.926 96.1516C171.474 98.7094 173.118 102.069 170.926 104.414C168.216 107.347 124.571 145.653 114.797 159.863C102.617 177.585 107.133 192.546 114.797 194.465C122.46 196.383 143.43 167.242 143.43 167.242Z" fill="white"/>
<path d="M115.578 195.053C115.294 195.056 115.011 195.022 114.736 194.952C111.823 194.231 109.376 191.744 108.016 188.141C105.083 180.366 107.478 169.688 114.441 159.579C122.023 148.556 149.905 123.09 163.303 110.859C167.191 107.306 170.012 104.769 170.611 104.079C172.154 102.404 171.515 100.12 170.885 97.9075C170.733 97.3391 170.571 96.7809 170.459 96.2632C170.236 95.1772 170.023 94.1013 169.81 93.0152C169.288 90.0464 168.589 87.1112 167.719 84.2253C167.434 83.5002 167.279 82.7306 167.262 81.9517C167.262 81.4959 167.389 81.0491 167.627 80.6605C167.865 80.2719 168.206 79.9565 168.612 79.7492C169.037 79.5874 169.5 79.5502 169.946 79.6419C170.391 79.7335 170.802 79.9503 171.129 80.2668C171.691 80.8205 172.133 81.4838 172.428 82.2156C173.281 84.0426 174.072 85.9102 174.844 87.7169C176.186 91.025 177.708 94.2574 179.401 97.4C179.733 97.06 180.013 96.6736 180.234 96.2531C180.406 95.9689 180.589 95.6745 180.772 95.4309C181.074 94.935 181.511 94.5359 182.033 94.2805C182.554 94.0251 183.138 93.9242 183.715 93.9896C184.032 94.0547 184.33 94.1883 184.59 94.3812C184.849 94.5741 185.064 94.8216 185.217 95.1061C185.457 95.5621 185.598 96.063 185.633 96.5768C185.668 97.0906 185.596 97.606 185.42 98.0902C185.136 98.8076 184.768 99.4889 184.324 100.12C183.959 100.643 183.646 101.201 183.39 101.785C182.609 103.713 183.177 105.845 183.786 108.047C183.989 108.798 184.202 109.58 184.354 110.351C185.288 115.071 184.212 118.715 181.056 121.516C179.766 122.738 178.597 124.08 177.564 125.526C177.199 126.013 176.833 126.541 176.458 126.957C172.865 131.463 169.261 135.97 165.648 140.477C158.401 149.524 151.147 158.564 143.886 167.597C142.892 168.856 123.972 195.053 115.578 195.053ZM169.373 80.5916C169.238 80.5887 169.103 80.6128 168.977 80.6627C168.75 80.7997 168.562 80.9933 168.433 81.2246C168.303 81.4559 168.235 81.7169 168.236 81.9822C168.257 82.6189 168.387 83.2473 168.622 83.8396C169.513 86.7853 170.228 89.7815 170.764 92.8122C170.977 93.8881 171.19 94.964 171.413 96.0399C171.525 96.5474 171.667 97.0549 171.829 97.6233C172.459 99.8665 173.24 102.698 171.312 104.728C170.682 105.419 168.003 107.865 163.943 111.569C150.575 123.749 122.754 149.195 115.223 160.127C108.453 169.962 106.088 180.295 108.92 187.755C110.158 191.034 112.35 193.297 114.928 193.937C120.947 195.449 137.208 174.946 142.963 166.917C150.23 157.884 157.487 148.84 164.735 139.786C168.334 135.293 171.938 130.79 175.544 126.277L176.64 124.856C177.71 123.354 178.924 121.96 180.264 120.694C183.126 118.197 184.101 114.868 183.238 110.544C183.096 109.813 182.883 109.052 182.68 108.311C182.061 106.017 181.421 103.652 182.324 101.399C182.606 100.757 182.946 100.142 183.339 99.562C183.749 99.0065 184.09 98.4033 184.354 97.7654C184.48 97.4202 184.534 97.0527 184.511 96.6859C184.488 96.3191 184.39 95.961 184.223 95.6339C184.143 95.476 184.028 95.3381 183.888 95.2309C183.747 95.1236 183.584 95.0497 183.41 95.0148C183.035 95.0063 182.664 95.0953 182.333 95.2732C182.002 95.4511 181.723 95.7118 181.523 96.0298C181.35 96.2675 181.19 96.5149 181.046 96.7707C180.682 97.5278 180.098 98.1575 179.371 98.5774C179.257 98.6263 179.128 98.6316 179.011 98.5923C178.893 98.5531 178.793 98.4719 178.731 98.3643C176.899 95.045 175.269 91.6182 173.849 88.1026C173.088 86.3061 172.296 84.4486 171.444 82.6318C171.221 82.0292 170.875 81.4796 170.429 81.0179C170.15 80.7627 169.791 80.6121 169.414 80.5916H169.373Z" fill="#231F20"/>
<path d="M96.0697 129.829C95.9733 129.83 95.8787 129.802 95.7976 129.75C95.7165 129.698 95.6524 129.623 95.613 129.535C95.5839 129.474 95.5671 129.409 95.5636 129.342C95.5601 129.274 95.57 129.207 95.5927 129.144C95.6153 129.081 95.6503 129.023 95.6956 128.973C95.7409 128.923 95.7957 128.883 95.8566 128.855L148.19 104.596C148.311 104.541 148.45 104.535 148.575 104.581C148.7 104.626 148.803 104.72 148.86 104.84C148.889 104.9 148.905 104.965 148.909 105.031C148.912 105.098 148.902 105.164 148.88 105.226C148.857 105.289 148.822 105.346 148.777 105.395C148.731 105.444 148.677 105.483 148.616 105.51L96.2829 129.779C96.216 129.81 96.1435 129.827 96.0697 129.829Z" fill="#D1D3D4"/>
<path d="M148.423 79.8204H148.363L82.3876 72.4617C82.2545 72.4464 82.1329 72.3791 82.0493 72.2745C81.9656 72.1699 81.9267 72.0366 81.941 71.9034C81.9458 71.8365 81.9644 71.7712 81.9957 71.7118C82.0269 71.6524 82.0701 71.6001 82.1225 71.5582C82.1749 71.5162 82.2355 71.4856 82.3003 71.4682C82.3651 71.4507 82.4328 71.4468 82.4992 71.4568L148.474 78.8054C148.541 78.8129 148.606 78.8337 148.664 78.8664C148.723 78.8992 148.775 78.9433 148.816 78.9962C148.858 79.0491 148.889 79.1097 148.907 79.1745C148.924 79.2393 148.929 79.3071 148.921 79.3738C148.908 79.4967 148.85 79.6106 148.758 79.6931C148.666 79.7757 148.547 79.8211 148.423 79.8204Z" fill="#D1D3D4"/>
<path d="M162.613 51.0452C162.539 51.0454 162.466 51.028 162.4 50.9944L129.555 34.6935C129.495 34.6643 129.441 34.6235 129.397 34.5735C129.352 34.5234 129.318 34.4651 129.297 34.402C129.275 34.3388 129.266 34.2719 129.27 34.2053C129.274 34.1386 129.292 34.0734 129.321 34.0135C129.384 33.8958 129.49 33.8069 129.616 33.7653C129.743 33.7237 129.881 33.7326 130.001 33.7902L162.847 50.0809C162.966 50.1418 163.057 50.2474 163.099 50.3749C163.14 50.5023 163.13 50.6411 163.07 50.761C163.027 50.8456 162.962 50.9169 162.881 50.9671C162.801 51.0172 162.708 51.0442 162.613 51.0452Z" fill="#D1D3D4"/>
<path d="M309.93 129.829C309.86 129.843 309.787 129.843 309.717 129.829L257.363 105.561C257.303 105.533 257.248 105.494 257.203 105.446C257.158 105.397 257.123 105.34 257.1 105.277C257.077 105.215 257.068 105.148 257.071 105.082C257.074 105.016 257.091 104.951 257.12 104.891C257.177 104.77 257.279 104.677 257.405 104.632C257.53 104.586 257.668 104.592 257.79 104.647L310.143 128.906C310.204 128.934 310.259 128.974 310.304 129.024C310.35 129.073 310.385 129.132 310.407 129.195C310.43 129.258 310.44 129.325 310.436 129.392C310.433 129.459 310.416 129.525 310.387 129.586C310.341 129.664 310.273 129.729 310.193 129.772C310.112 129.815 310.021 129.835 309.93 129.829Z" fill="#D1D3D4"/>
<path d="M257.577 76.1461C257.451 76.1465 257.331 76.0997 257.238 76.015C257.146 75.9304 257.089 75.8141 257.079 75.6893C257.065 75.5562 257.104 75.4228 257.188 75.3182C257.271 75.2136 257.393 75.1464 257.526 75.1311L323.501 67.7723C323.567 67.7653 323.635 67.7716 323.699 67.7908C323.763 67.81 323.823 67.8418 323.875 67.8842C323.927 67.9267 323.97 67.9791 324.002 68.0382C324.033 68.0974 324.053 68.1623 324.059 68.2291C324.073 68.3622 324.034 68.4956 323.951 68.6002C323.867 68.7047 323.745 68.772 323.612 68.7873L257.637 76.1359L257.577 76.1461Z" fill="#D1D3D4"/>
<path d="M251.294 54.3133C251.199 54.3112 251.107 54.2837 251.026 54.2337C250.946 54.1837 250.881 54.1131 250.837 54.0291C250.808 53.9691 250.79 53.9039 250.786 53.8373C250.782 53.7706 250.791 53.7038 250.812 53.6406C250.834 53.5774 250.868 53.5191 250.912 53.4691C250.957 53.4191 251.01 53.3783 251.07 53.349L283.906 37.109C283.966 37.0797 284.031 37.0625 284.097 37.0584C284.164 37.0542 284.231 37.0632 284.294 37.0849C284.357 37.1066 284.415 37.1405 284.465 37.1847C284.516 37.2289 284.556 37.2825 284.586 37.3425C284.615 37.4025 284.632 37.4676 284.636 37.5343C284.641 37.6009 284.631 37.6677 284.61 37.7309C284.588 37.794 284.554 37.8523 284.51 37.9023C284.466 37.9524 284.412 37.9932 284.352 38.0225L251.517 54.2625C251.448 54.2977 251.371 54.3152 251.294 54.3133Z" fill="#D1D3D4"/>
<path d="M115.416 93.3401L117.131 96.8215L120.968 97.3798L118.187 100.09L118.846 103.906L115.416 102.11L111.975 103.906L112.635 100.09L109.853 97.3798L113.7 96.8215L115.416 93.3401Z" fill="#D1D3D4"/>
<path d="M295.781 139.106L296.39 141.421L298.654 142.233L296.634 143.532L296.573 145.927L294.705 144.415L292.411 145.095L293.274 142.852L291.914 140.873L294.309 141.004L295.781 139.106Z" fill="#D1D3D4"/>
<path d="M111.975 47.6753L114.756 53.3085L120.968 54.2119L116.471 58.5967L117.537 64.778L111.975 61.8548L106.413 64.778L107.478 58.5967L102.982 54.2119L109.194 53.3085L111.975 47.6753Z" fill="#D1D3D4"/>
<path d="M283.753 50.9436L285.469 54.4251L289.316 54.9833L286.534 57.6934L287.184 61.5098L283.753 59.7132L280.323 61.5098L280.972 57.6934L278.201 54.9833L282.038 54.4251L283.753 50.9436Z" fill="#D1D3D4"/>
<path d="M91.3297 142.639L96.222 147.967L103.368 146.952L99.8252 153.245L102.992 159.741L95.9175 158.31L90.7207 163.335L89.8884 156.148L83.5142 152.768L90.0812 149.764L91.3297 142.639Z" fill="#D1D3D4"/>
<path d="M292.137 208.725L293.112 213.08L297.253 214.754L293.416 217.028L293.112 221.484L289.762 218.53L285.428 219.616L287.194 215.516L284.829 211.74L289.275 212.156L292.137 208.725Z" fill="#D1D3D4"/>
<path d="M170.824 33.6987L172.54 37.1802L176.377 37.7384L173.606 40.4485L174.255 44.275L170.824 42.4683L167.384 44.275L168.043 40.4485L165.262 37.7384L169.109 37.1802L170.824 33.6987Z" fill="#D1D3D4"/>
<path d="M299.344 83.647L300.186 93.3098L308.621 98.1006L299.689 101.887L297.75 111.397L291.386 104.069L281.744 105.155L286.748 96.842L282.728 88.0115L292.188 90.1937L299.344 83.647Z" fill="#D1D3D4"/>
<path d="M247.66 276.03H247.599C247.466 276.012 247.345 275.943 247.263 275.836C247.182 275.73 247.145 275.595 247.163 275.462L254.46 219.911C254.468 219.844 254.489 219.78 254.522 219.722C254.554 219.663 254.599 219.612 254.652 219.572C254.705 219.531 254.766 219.501 254.83 219.485C254.895 219.468 254.963 219.464 255.029 219.474C255.162 219.492 255.283 219.562 255.365 219.668C255.446 219.775 255.483 219.909 255.465 220.043L248.167 275.583C248.153 275.707 248.093 275.821 247.999 275.904C247.905 275.986 247.785 276.031 247.66 276.03Z" fill="#231F20"/>
</svg>
