<svg width="642" height="485" viewBox="0 0 642 485" fill="none" xmlns="http://www.w3.org/2000/svg">
<path d="M563.002 337.663H78.9981C78.7853 337.663 78.5811 337.578 78.4306 337.428C78.2802 337.277 78.1956 337.073 78.1956 336.86C78.1997 336.648 78.2856 336.447 78.4352 336.297C78.5848 336.147 78.7866 336.061 78.9981 336.057H563.002C563.213 336.061 563.415 336.147 563.565 336.297C563.714 336.447 563.8 336.648 563.804 336.86C563.804 337.073 563.72 337.277 563.569 337.428C563.419 337.578 563.215 337.663 563.002 337.663Z" fill="#D1D3D4"/>
<path d="M484.421 71.0498H147.804C141.6 71.0498 136.569 76.0812 136.569 82.2878V289.805C136.569 296.012 141.6 301.043 147.804 301.043H484.421C490.626 301.043 495.656 296.012 495.656 289.805V82.2878C495.656 76.0812 490.626 71.0498 484.421 71.0498Z" fill="white"/>
<path d="M484.405 301.91H147.804C144.612 301.91 141.55 300.641 139.293 298.383C137.035 296.125 135.767 293.063 135.767 289.869V82.3038C135.767 79.1089 137.035 76.0447 139.292 73.7841C141.549 71.5235 144.61 70.2513 147.804 70.2471H484.405C487.601 70.2513 490.664 71.5229 492.924 73.7831C495.183 76.0433 496.454 79.1075 496.459 82.3038V289.805C496.465 291.392 496.158 292.965 495.555 294.434C494.952 295.902 494.065 297.237 492.945 298.362C491.825 299.486 490.494 300.379 489.029 300.988C487.563 301.596 485.992 301.91 484.405 301.91ZM147.804 71.8525C145.036 71.8567 142.383 72.9597 140.427 74.9193C138.471 76.8788 137.372 79.5347 137.372 82.3038V289.805C137.372 292.573 138.471 295.227 140.428 297.184C142.384 299.141 145.038 300.24 147.804 300.24H484.405C487.173 300.24 489.829 299.141 491.788 297.185C493.747 295.228 494.849 292.574 494.854 289.805V82.3038C494.849 79.5333 493.747 76.8774 491.789 74.9183C489.83 72.9592 487.175 71.8567 484.405 71.8525H147.804Z" fill="#231F20"/>
<path d="M495.656 265.467H136.569C136.357 265.467 136.153 265.382 136.002 265.232C135.852 265.081 135.767 264.877 135.767 264.664C135.767 264.451 135.852 264.247 136.002 264.096C136.153 263.946 136.357 263.861 136.569 263.861H495.656C495.868 263.865 496.069 263.951 496.219 264.101C496.369 264.251 496.454 264.452 496.459 264.664C496.459 264.877 496.374 265.081 496.224 265.232C496.073 265.382 495.869 265.467 495.656 265.467Z" fill="#231F20"/>
<path d="M362.008 345.513H270.218L287.134 301.043H345.075L362.008 345.513Z" fill="white"/>
<path d="M362.008 346.316H270.218C270.087 346.317 269.958 346.286 269.842 346.225C269.726 346.165 269.626 346.077 269.552 345.97C269.478 345.862 269.431 345.738 269.415 345.608C269.4 345.478 269.416 345.346 269.463 345.224L286.38 300.77C286.438 300.616 286.541 300.483 286.676 300.389C286.81 300.294 286.97 300.243 287.134 300.24H345.075C345.24 300.24 345.401 300.291 345.536 300.386C345.671 300.481 345.773 300.615 345.829 300.77L362.73 345.256C362.789 345.37 362.82 345.497 362.82 345.626C362.82 345.754 362.789 345.881 362.73 345.995C362.649 346.107 362.539 346.196 362.412 346.253C362.285 346.309 362.146 346.331 362.008 346.316ZM271.373 344.71H360.836L344.529 301.91H287.696L271.373 344.71Z" fill="#231F20"/>
<path d="M372.761 342.896H259.432C256.463 342.896 254.055 345.304 254.055 348.275V349.511C254.055 352.481 256.463 354.889 259.432 354.889H372.761C375.731 354.889 378.138 352.481 378.138 349.511V348.275C378.138 345.304 375.731 342.896 372.761 342.896Z" fill="white"/>
<path d="M372.761 355.692H259.448C258.635 355.694 257.83 355.535 257.079 355.226C256.327 354.916 255.644 354.461 255.068 353.887C254.493 353.313 254.036 352.631 253.725 351.88C253.413 351.129 253.253 350.324 253.253 349.511V348.291C253.253 347.477 253.413 346.671 253.725 345.919C254.036 345.167 254.492 344.484 255.067 343.909C255.643 343.333 256.326 342.877 257.077 342.565C257.829 342.254 258.635 342.094 259.448 342.094H372.761C373.575 342.094 374.38 342.254 375.132 342.565C375.884 342.877 376.567 343.333 377.142 343.909C377.717 344.484 378.174 345.167 378.485 345.919C378.796 346.671 378.957 347.477 378.957 348.291V349.511C378.957 350.324 378.796 351.129 378.485 351.88C378.173 352.631 377.716 353.313 377.141 353.887C376.565 354.461 375.882 354.916 375.131 355.226C374.379 355.535 373.574 355.694 372.761 355.692ZM259.448 343.651C258.232 343.655 257.067 344.14 256.207 345C255.347 345.861 254.862 347.026 254.858 348.242V349.463C254.862 350.677 255.348 351.841 256.208 352.699C257.068 353.556 258.234 354.038 259.448 354.038H372.761C373.976 354.038 375.141 353.556 376.001 352.699C376.862 351.841 377.347 350.677 377.352 349.463V348.242C377.352 347.639 377.233 347.042 377.002 346.485C376.771 345.928 376.433 345.422 376.007 344.996C375.581 344.569 375.075 344.231 374.518 344C373.961 343.77 373.364 343.651 372.761 343.651H259.448Z" fill="#231F20"/>
<path d="M482.816 81.8864H149.377V250.584H482.816V81.8864Z" fill="#0D1950"/>
<path d="M187.785 169.173V163.169L212.245 146.473L216.402 154.034L198.041 166.171L216.402 178.372L212.245 185.87L187.785 169.173Z" fill="white"/>
<path d="M223.833 141.255H233.463V160.809H253.59V141.255H263.22V191.216H253.59V170.731H233.447V191.216H223.817L223.833 141.255Z" fill="white"/>
<path d="M284.823 150.904H269.159V141.271H310.118V150.904H294.453V191.216H284.823V150.904Z" fill="white"/>
<path d="M316.057 141.255H327.179L342.844 176.093H342.972L358.766 141.255H369.84V191.216H360.21V158.465H360.098L344.866 191.216H340.966L325.815 158.465H325.687V191.216H316.057V141.255Z" fill="white"/>
<path d="M378.619 141.255H388.249V181.583H411.153V191.216H378.619V141.255Z" fill="white"/>
<path d="M415.823 178.372L434.201 166.171L415.823 154.034L419.98 146.473L444.457 163.169V169.173L419.98 185.87L415.823 178.372Z" fill="white"/>
<path d="M278.756 321.352L347.097 308.075L344.433 301.043H286.492L278.756 321.352Z" fill="#231F20"/>
<path d="M278.756 322.154C278.64 322.154 278.524 322.129 278.419 322.079C278.313 322.029 278.22 321.956 278.146 321.865C278.054 321.756 277.993 321.624 277.967 321.483C277.942 321.342 277.954 321.197 278.002 321.063L285.69 300.77C285.746 300.615 285.849 300.481 285.984 300.386C286.119 300.291 286.279 300.24 286.444 300.24H344.385C344.549 300.243 344.709 300.294 344.844 300.389C344.978 300.483 345.081 300.616 345.139 300.77L347.803 307.786C347.845 307.895 347.863 308.012 347.855 308.129C347.847 308.246 347.814 308.359 347.757 308.462C347.7 308.564 347.622 308.653 347.528 308.722C347.433 308.791 347.324 308.839 347.21 308.861L278.869 322.138L278.756 322.154ZM287.038 301.91L280.024 320.356L346.006 307.513L343.871 301.894L287.038 301.91Z" fill="#231F20"/>
<path d="M509.62 400.595C509.62 400.595 516.04 398.043 516.377 386.339C516.714 374.636 504.082 362.354 495.977 356.35C487.872 350.346 472.737 350.956 467.488 356.944C462.24 362.932 457.008 373.448 470.49 388.747C483.972 404.047 501.675 405.235 509.62 400.595Z" fill="white"/>
<path d="M499.299 403.758C490.52 403.758 479.301 399.937 469.896 389.309C459.319 377.317 458.308 366.271 466.894 356.446C472.496 350.024 488.257 349.655 496.459 355.74C499.974 358.341 517.532 372.099 517.179 386.387C516.874 397.995 510.759 401.013 509.989 401.334C506.693 403.047 503.012 403.882 499.299 403.758ZM481.404 352.978C475.931 352.978 470.714 354.488 468.098 357.474C460.073 366.592 461.133 376.931 471.1 388.201C484.582 403.501 501.819 404.256 509.218 399.889H509.331C509.571 399.793 515.285 397.32 515.574 386.371C515.831 375.904 504.933 364.024 495.496 357.04C491.323 354.278 486.405 352.861 481.404 352.978Z" fill="#231F20"/>
<path d="M464.118 379.372C464.614 374.936 466.451 370.758 469.385 367.395C472.32 364.033 476.21 361.647 480.537 360.556C495.977 356.35 500.102 359.641 500.102 359.641" fill="white"/>
<path d="M464.134 380.174C463.924 380.158 463.729 380.059 463.59 379.9C463.452 379.741 463.382 379.534 463.396 379.323C463.903 374.724 465.794 370.387 468.817 366.884C471.84 363.382 475.854 360.879 480.328 359.705C495.993 355.451 500.423 358.806 500.599 358.951C500.768 359.083 500.876 359.276 500.902 359.488C500.928 359.701 500.868 359.914 500.736 360.082C500.604 360.251 500.411 360.36 500.198 360.385C499.986 360.411 499.773 360.351 499.604 360.219C499.604 360.219 495.399 357.281 480.746 361.262C476.59 362.328 472.855 364.627 470.03 367.856C467.206 371.086 465.424 375.094 464.92 379.356C464.925 379.462 464.908 379.567 464.87 379.667C464.832 379.766 464.775 379.856 464.702 379.933C464.628 380.009 464.54 380.07 464.442 380.112C464.345 380.153 464.24 380.174 464.134 380.174Z" fill="#231F20"/>
<path d="M442.739 415.301H189.486L219.083 363.992H413.127L442.739 415.301Z" fill="white"/>
<path d="M442.739 416.088H189.486C189.347 416.092 189.21 416.058 189.088 415.99C188.967 415.923 188.866 415.823 188.796 415.702C188.726 415.58 188.689 415.442 188.689 415.301C188.689 415.16 188.726 415.022 188.796 414.9L218.392 363.526C218.46 363.403 218.56 363.3 218.681 363.229C218.803 363.158 218.942 363.122 219.082 363.125H413.143C413.283 363.126 413.42 363.163 413.542 363.234C413.663 363.304 413.763 363.405 413.833 363.526L443.429 414.9C443.5 415.022 443.537 415.16 443.537 415.301C443.537 415.442 443.5 415.58 443.429 415.702C443.356 415.82 443.255 415.917 443.134 415.984C443.013 416.051 442.877 416.087 442.739 416.088ZM190.867 414.482H441.375L412.71 364.714H219.548L190.867 414.482Z" fill="#231F20"/>
<path d="M236.4 385.119H219.066C218.93 385.119 218.797 385.083 218.679 385.015C218.56 384.948 218.462 384.851 218.392 384.734C218.325 384.614 218.289 384.478 218.289 384.34C218.289 384.203 218.325 384.067 218.392 383.947L221.875 377.188C221.941 377.057 222.042 376.948 222.167 376.871C222.291 376.794 222.435 376.754 222.581 376.755H239.289C239.424 376.755 239.556 376.789 239.674 376.853C239.791 376.918 239.891 377.011 239.964 377.124C240.027 377.24 240.06 377.369 240.06 377.501C240.06 377.633 240.027 377.763 239.964 377.879L237.107 384.637C237.045 384.775 236.946 384.893 236.821 384.978C236.697 385.063 236.551 385.112 236.4 385.119ZM220.35 383.514H235.935L238.118 378.36H223.095L220.35 383.514Z" fill="#D1D3D4"/>
<path d="M261.615 385.119H244.329C244.198 385.118 244.07 385.088 243.953 385.029C243.836 384.971 243.734 384.886 243.655 384.782C243.583 384.674 243.538 384.551 243.524 384.422C243.51 384.294 243.528 384.164 243.575 384.043L246.143 377.285C246.201 377.131 246.304 376.998 246.438 376.903C246.573 376.809 246.733 376.757 246.897 376.755H263.605C263.73 376.756 263.852 376.786 263.963 376.841C264.074 376.897 264.172 376.977 264.247 377.076C264.319 377.177 264.367 377.293 264.39 377.415C264.412 377.537 264.407 377.662 264.376 377.782L262.417 384.541C262.373 384.716 262.268 384.87 262.121 384.976C261.974 385.082 261.795 385.132 261.615 385.119ZM245.453 383.514H261.021L262.514 378.36H247.411L245.453 383.514Z" fill="#D1D3D4"/>
<path d="M286.894 385.119H269.64C269.517 385.12 269.395 385.093 269.284 385.04C269.173 384.987 269.075 384.91 268.998 384.814C268.924 384.717 268.873 384.605 268.848 384.485C268.823 384.366 268.825 384.242 268.854 384.124L270.459 377.365C270.504 377.191 270.606 377.037 270.748 376.927C270.891 376.816 271.065 376.756 271.245 376.755H287.953C288.069 376.756 288.183 376.781 288.288 376.831C288.393 376.88 288.486 376.951 288.56 377.039C288.635 377.128 288.69 377.231 288.721 377.343C288.752 377.455 288.758 377.572 288.739 377.686L287.696 384.445C287.662 384.633 287.564 384.804 287.417 384.927C287.27 385.05 287.085 385.118 286.894 385.119ZM270.587 383.514H286.22L287.006 378.36H271.871L270.587 383.514Z" fill="#D1D3D4"/>
<path d="M312.156 385.119H294.822C294.709 385.119 294.596 385.096 294.492 385.052C294.387 385.008 294.292 384.944 294.213 384.862C294.139 384.777 294.084 384.677 294.051 384.569C294.018 384.461 294.007 384.348 294.02 384.236L294.79 377.477C294.806 377.28 294.896 377.096 295.042 376.962C295.188 376.828 295.379 376.754 295.577 376.755H312.285C312.502 376.755 312.71 376.842 312.863 376.996C312.94 377.07 313 377.16 313.039 377.26C313.077 377.36 313.094 377.467 313.087 377.574L312.959 384.332C312.955 384.542 312.868 384.743 312.718 384.89C312.568 385.037 312.367 385.119 312.156 385.119ZM295.721 383.514H311.37L311.466 378.36H296.299L295.721 383.514Z" fill="#D1D3D4"/>
<path d="M337.403 385.119H320.069C319.964 385.121 319.86 385.102 319.763 385.064C319.666 385.025 319.577 384.968 319.503 384.894C319.428 384.821 319.369 384.734 319.328 384.637C319.287 384.541 319.267 384.437 319.267 384.332L319.122 377.574C319.123 377.36 319.203 377.154 319.347 376.996C319.504 376.847 319.709 376.762 319.925 376.755H336.633C336.832 376.754 337.025 376.827 337.174 376.961C337.322 377.094 337.415 377.279 337.435 377.477L338.19 384.236C338.206 384.348 338.198 384.461 338.166 384.57C338.133 384.678 338.078 384.777 338.003 384.861C337.928 384.946 337.835 385.012 337.732 385.057C337.628 385.101 337.516 385.123 337.403 385.119ZM320.856 383.514H336.504L335.91 378.36H320.743L320.856 383.514Z" fill="#D1D3D4"/>
<path d="M362.73 385.119H345.396C345.205 385.121 345.021 385.054 344.876 384.93C344.731 384.806 344.637 384.633 344.61 384.445L343.47 377.686C343.457 377.571 343.467 377.455 343.501 377.344C343.535 377.234 343.591 377.132 343.667 377.044C343.742 376.957 343.835 376.886 343.939 376.836C344.044 376.786 344.157 376.758 344.272 376.755H360.981C361.159 376.754 361.333 376.814 361.473 376.925C361.613 377.036 361.711 377.191 361.751 377.365L363.356 384.124C363.389 384.242 363.392 384.366 363.367 384.486C363.342 384.606 363.289 384.719 363.211 384.814C363.095 384.972 362.923 385.081 362.73 385.119ZM346.086 383.514H361.703L360.435 378.36H345.284L346.086 383.514Z" fill="#D1D3D4"/>
<path d="M387.896 385.119H370.562C370.388 385.122 370.218 385.066 370.078 384.962C369.939 384.857 369.838 384.709 369.792 384.541L367.834 377.782C367.803 377.662 367.798 377.537 367.82 377.415C367.842 377.293 367.891 377.177 367.962 377.076C368.04 376.98 368.138 376.901 368.249 376.846C368.359 376.79 368.481 376.759 368.604 376.755H385.328C385.491 376.756 385.65 376.807 385.782 376.902C385.914 376.997 386.014 377.131 386.067 377.285L388.651 384.043C388.691 384.166 388.703 384.296 388.686 384.424C388.669 384.551 388.624 384.674 388.554 384.782C388.479 384.886 388.38 384.97 388.266 385.029C388.151 385.088 388.025 385.118 387.896 385.119ZM371.172 383.514H386.805L384.847 378.36H369.76L371.172 383.514Z" fill="#D1D3D4"/>
<path d="M413.143 385.119H395.809C395.653 385.118 395.5 385.071 395.37 384.986C395.239 384.901 395.135 384.78 395.071 384.637L392.214 377.879C392.151 377.763 392.117 377.633 392.117 377.501C392.117 377.369 392.151 377.24 392.214 377.124C392.288 377.013 392.389 376.921 392.506 376.857C392.623 376.793 392.754 376.758 392.888 376.755H409.596C409.744 376.756 409.889 376.798 410.016 376.874C410.143 376.95 410.247 377.058 410.318 377.188L413.785 383.947C413.853 384.067 413.888 384.203 413.888 384.34C413.888 384.478 413.853 384.614 413.785 384.734C413.716 384.844 413.622 384.937 413.511 385.004C413.399 385.071 413.273 385.111 413.143 385.119ZM396.339 383.514H411.827L409.179 378.36H394.156L396.339 383.514Z" fill="#D1D3D4"/>
<path d="M250.749 396.068H233.463C233.33 396.065 233.199 396.03 233.081 395.966C232.964 395.901 232.864 395.81 232.789 395.699C232.726 395.586 232.693 395.459 232.693 395.33C232.693 395.2 232.726 395.073 232.789 394.96L235.919 387.399C235.979 387.252 236.081 387.127 236.213 387.038C236.344 386.95 236.499 386.902 236.657 386.901H253.285C253.413 386.903 253.539 386.934 253.653 386.993C253.768 387.051 253.867 387.135 253.943 387.238C254.015 387.342 254.063 387.461 254.083 387.587C254.102 387.712 254.093 387.84 254.055 387.961L251.584 395.506C251.53 395.681 251.417 395.832 251.265 395.934C251.114 396.036 250.931 396.084 250.749 396.068ZM234.699 394.463H250.203L252.146 388.507H237.155L234.699 394.463Z" fill="#D1D3D4"/>
<path d="M227.91 396.068H213.465C213.327 396.069 213.19 396.034 213.069 395.966C212.948 395.899 212.847 395.801 212.775 395.683C212.707 395.563 212.672 395.427 212.672 395.289C212.672 395.152 212.707 395.016 212.775 394.896L216.659 387.351C216.727 387.217 216.83 387.104 216.957 387.025C217.084 386.945 217.231 386.903 217.381 386.901H231.329C231.46 386.904 231.589 386.939 231.704 387.004C231.819 387.068 231.916 387.16 231.987 387.27C232.054 387.388 232.09 387.52 232.09 387.656C232.09 387.791 232.054 387.924 231.987 388.041L228.648 395.586C228.586 395.73 228.482 395.852 228.351 395.938C228.22 396.023 228.067 396.069 227.91 396.068ZM214.733 394.463H227.38L230.013 388.507H217.782L214.733 394.463Z" fill="#D1D3D4"/>
<path d="M275.948 396.068H258.662C258.537 396.067 258.414 396.038 258.302 395.982C258.19 395.927 258.093 395.846 258.017 395.747C257.941 395.648 257.889 395.533 257.864 395.41C257.84 395.288 257.844 395.161 257.875 395.041L260.058 387.495C260.104 387.325 260.204 387.175 260.343 387.068C260.482 386.961 260.653 386.902 260.829 386.901H277.472C277.59 386.906 277.704 386.936 277.809 386.989C277.914 387.042 278.007 387.116 278.081 387.207C278.155 387.298 278.209 387.403 278.24 387.517C278.271 387.63 278.277 387.748 278.259 387.864L276.654 395.426C276.62 395.594 276.534 395.748 276.407 395.863C276.279 395.979 276.119 396.051 275.948 396.068ZM259.721 394.463H275.29L276.493 388.507H261.438L259.721 394.463Z" fill="#D1D3D4"/>
<path d="M301.13 396.068H283.844C283.728 396.068 283.612 396.042 283.507 395.992C283.401 395.942 283.308 395.87 283.234 395.779C283.16 395.692 283.105 395.589 283.075 395.478C283.044 395.367 283.038 395.25 283.058 395.137L284.278 387.575C284.308 387.388 284.404 387.218 284.548 387.094C284.691 386.971 284.874 386.902 285.064 386.901H301.74C301.849 386.901 301.957 386.923 302.056 386.968C302.156 387.012 302.245 387.077 302.318 387.158C302.396 387.238 302.456 387.334 302.495 387.439C302.533 387.544 302.55 387.656 302.543 387.768L301.965 395.314C301.952 395.524 301.858 395.72 301.702 395.862C301.546 396.003 301.34 396.077 301.13 396.068ZM284.791 394.463H300.392L300.841 388.507H285.69L284.791 394.463Z" fill="#D1D3D4"/>
<path d="M326.329 396.068H309.043C308.934 396.069 308.826 396.046 308.726 396.002C308.627 395.957 308.538 395.892 308.465 395.811C308.387 395.738 308.326 395.648 308.287 395.548C308.249 395.448 308.232 395.34 308.24 395.233L308.497 387.688C308.505 387.479 308.593 387.281 308.742 387.135C308.891 386.989 309.091 386.905 309.3 386.901H325.943C326.151 386.901 326.35 386.981 326.5 387.125C326.649 387.268 326.738 387.464 326.746 387.672L327.131 395.217C327.139 395.327 327.123 395.436 327.084 395.539C327.045 395.642 326.985 395.735 326.906 395.811C326.834 395.892 326.745 395.957 326.645 396.002C326.545 396.046 326.438 396.069 326.329 396.068ZM309.877 394.463H325.478L325.189 388.507H310.086L309.877 394.463Z" fill="#D1D3D4"/>
<path d="M351.495 396.068H334.225C334.025 396.068 333.832 395.992 333.685 395.855C333.539 395.718 333.451 395.53 333.439 395.329L332.749 387.784C332.734 387.673 332.745 387.56 332.781 387.454C332.817 387.349 332.878 387.252 332.957 387.174C333.029 387.087 333.12 387.017 333.223 386.97C333.326 386.923 333.438 386.899 333.551 386.901H350.179C350.368 386.902 350.551 386.971 350.695 387.094C350.839 387.218 350.935 387.388 350.965 387.575L352.314 395.121C352.337 395.237 352.333 395.356 352.302 395.47C352.271 395.585 352.215 395.69 352.137 395.779C352.06 395.874 351.962 395.949 351.85 395.999C351.739 396.05 351.617 396.073 351.495 396.068ZM334.931 394.463H350.532L349.473 388.506H334.386L334.931 394.463Z" fill="#D1D3D4"/>
<path d="M376.71 396.068H359.424C359.239 396.068 359.059 396.004 358.916 395.887C358.773 395.77 358.674 395.607 358.637 395.426L357.032 387.88C357.009 387.763 357.011 387.642 357.04 387.525C357.068 387.409 357.122 387.3 357.197 387.207C357.272 387.114 357.366 387.038 357.474 386.985C357.581 386.932 357.699 386.903 357.819 386.901H374.447C374.62 386.901 374.789 386.957 374.928 387.062C375.067 387.166 375.168 387.312 375.217 387.479L377.512 395.025C377.552 395.144 377.562 395.271 377.539 395.394C377.517 395.518 377.463 395.634 377.384 395.731C377.308 395.839 377.207 395.927 377.09 395.986C376.972 396.044 376.841 396.073 376.71 396.068ZM360.066 394.463H375.57L373.756 388.507H358.717L360.066 394.463Z" fill="#D1D3D4"/>
<path d="M401.908 396.068H384.606C384.44 396.065 384.279 396.01 384.144 395.913C384.009 395.815 383.907 395.679 383.852 395.522L381.268 387.977C381.223 387.855 381.208 387.724 381.225 387.596C381.242 387.467 381.29 387.344 381.364 387.238C381.44 387.135 381.54 387.051 381.654 386.993C381.768 386.934 381.894 386.903 382.022 386.901H398.666C398.823 386.901 398.976 386.948 399.105 387.037C399.234 387.126 399.333 387.252 399.388 387.399L402.598 394.944C402.652 395.067 402.674 395.2 402.662 395.333C402.651 395.467 402.607 395.595 402.533 395.706C402.46 395.818 402.36 395.909 402.242 395.973C402.125 396.036 401.993 396.069 401.86 396.068H401.908ZM385.184 394.463H400.688L398.136 388.507H383.146L385.184 394.463Z" fill="#D1D3D4"/>
<path d="M418.777 396.068H407.413C407.259 396.068 407.108 396.022 406.98 395.936C406.851 395.85 406.751 395.729 406.691 395.586L403.224 388.041C403.161 387.922 403.128 387.79 403.128 387.656C403.128 387.521 403.161 387.389 403.224 387.27C403.302 387.159 403.405 387.068 403.525 387.003C403.645 386.939 403.778 386.904 403.914 386.901H414.844C414.992 386.906 415.135 386.95 415.259 387.029C415.384 387.108 415.484 387.219 415.551 387.351L419.435 394.896C419.505 395.015 419.543 395.151 419.543 395.289C419.543 395.428 419.505 395.564 419.435 395.683C419.367 395.798 419.271 395.893 419.155 395.961C419.04 396.028 418.91 396.065 418.777 396.068ZM407.927 394.463H417.461L414.395 388.507H405.198L407.927 394.463Z" fill="#D1D3D4"/>
<path d="M257.41 375.759H241.873C241.743 375.761 241.614 375.73 241.499 375.668C241.384 375.606 241.286 375.516 241.215 375.406C241.152 375.291 241.119 375.161 241.119 375.029C241.119 374.897 241.152 374.767 241.215 374.652L243.751 368.535C243.812 368.388 243.914 368.263 244.045 368.174C244.177 368.086 244.331 368.038 244.49 368.037H259.496C259.623 368.038 259.747 368.069 259.859 368.128C259.97 368.186 260.066 368.271 260.138 368.374C260.214 368.474 260.264 368.59 260.284 368.714C260.303 368.837 260.292 368.963 260.251 369.081L258.244 375.198C258.193 375.374 258.081 375.527 257.929 375.629C257.776 375.732 257.593 375.778 257.41 375.759ZM243.077 374.154H256.8L258.277 369.643H244.907L243.077 374.154Z" fill="#D1D3D4"/>
<path d="M236.914 375.759H223.897C223.759 375.76 223.623 375.725 223.502 375.658C223.381 375.59 223.279 375.492 223.207 375.374C223.14 375.254 223.104 375.119 223.104 374.981C223.104 374.843 223.14 374.708 223.207 374.587L226.417 368.471C226.482 368.339 226.582 368.228 226.707 368.151C226.832 368.074 226.977 368.035 227.124 368.037H239.691C239.826 368.034 239.959 368.067 240.077 368.132C240.195 368.197 240.295 368.291 240.365 368.407C240.428 368.522 240.461 368.652 240.461 368.784C240.461 368.916 240.428 369.045 240.365 369.161L237.668 375.278C237.603 375.423 237.497 375.545 237.363 375.631C237.229 375.716 237.073 375.761 236.914 375.759ZM225.214 374.154H236.449L238.455 369.643H227.589L225.214 374.154Z" fill="#D1D3D4"/>
<path d="M280.04 375.759H264.504C264.38 375.757 264.258 375.727 264.147 375.671C264.036 375.616 263.938 375.536 263.862 375.438C263.79 375.337 263.742 375.221 263.72 375.099C263.698 374.977 263.702 374.852 263.734 374.732L265.499 368.615C265.548 368.449 265.649 368.302 265.788 368.198C265.927 368.094 266.096 368.037 266.269 368.037H281.26C281.379 368.038 281.496 368.064 281.604 368.114C281.712 368.164 281.808 368.236 281.886 368.326C281.963 368.419 282.017 368.528 282.045 368.645C282.072 368.762 282.073 368.883 282.047 369.001L280.875 375.117C280.834 375.305 280.727 375.473 280.575 375.59C280.422 375.708 280.233 375.768 280.04 375.759ZM265.595 374.154H279.414L280.313 369.643H266.895L265.595 374.154Z" fill="#D1D3D4"/>
<path d="M302.671 375.759H287.134C287.019 375.756 286.906 375.728 286.801 375.678C286.697 375.629 286.604 375.558 286.529 375.47C286.453 375.383 286.397 375.28 286.363 375.17C286.329 375.059 286.319 374.943 286.332 374.828L287.327 368.712C287.357 368.524 287.453 368.354 287.597 368.231C287.741 368.107 287.924 368.039 288.114 368.037H303.12C303.231 368.037 303.341 368.06 303.443 368.104C303.545 368.148 303.636 368.213 303.712 368.295C303.787 368.376 303.845 368.472 303.881 368.577C303.917 368.682 303.932 368.794 303.923 368.904L303.457 375.021C303.445 375.221 303.357 375.409 303.211 375.546C303.064 375.684 302.871 375.76 302.671 375.759ZM288.081 374.154H301.917L302.254 369.643H288.804L288.081 374.154Z" fill="#D1D3D4"/>
<path d="M325.285 375.759H309.765C309.548 375.759 309.34 375.672 309.187 375.519C309.109 375.442 309.048 375.349 309.009 375.246C308.971 375.144 308.955 375.034 308.963 374.925L309.171 368.808C309.179 368.601 309.268 368.405 309.417 368.261C309.567 368.117 309.766 368.037 309.974 368.037H324.98C325.184 368.041 325.379 368.12 325.528 368.259C325.676 368.399 325.767 368.589 325.783 368.792L326.088 374.909C326.095 375.017 326.08 375.125 326.044 375.227C326.008 375.329 325.952 375.423 325.879 375.503C325.802 375.583 325.71 375.647 325.608 375.691C325.506 375.735 325.396 375.758 325.285 375.759ZM310.584 374.154H324.451L324.21 369.643H310.744L310.584 374.154Z" fill="#D1D3D4"/>
<path d="M347.916 375.759H332.379C332.179 375.76 331.986 375.684 331.84 375.546C331.694 375.409 331.605 375.221 331.593 375.021L331.031 368.904C331.021 368.794 331.034 368.682 331.07 368.577C331.106 368.472 331.164 368.375 331.24 368.294C331.316 368.213 331.408 368.149 331.51 368.105C331.612 368.06 331.722 368.038 331.834 368.037H346.824C347.014 368.034 347.199 368.099 347.346 368.219C347.493 368.34 347.593 368.509 347.627 368.696L348.702 374.812C348.727 374.928 348.723 375.048 348.693 375.162C348.662 375.277 348.605 375.382 348.526 375.47C348.452 375.561 348.359 375.634 348.253 375.684C348.148 375.734 348.033 375.76 347.916 375.759ZM333.118 374.154H346.953L346.166 369.643H332.7L333.118 374.154Z" fill="#D1D3D4"/>
<path d="M370.546 375.759H355.01C354.826 375.757 354.648 375.692 354.505 375.575C354.362 375.459 354.263 375.297 354.224 375.117L352.907 369.017C352.877 368.901 352.875 368.78 352.9 368.662C352.925 368.545 352.977 368.436 353.052 368.342C353.127 368.249 353.223 368.173 353.331 368.12C353.439 368.067 353.557 368.039 353.678 368.037H368.685C368.856 368.036 369.024 368.09 369.162 368.191C369.301 368.293 369.403 368.436 369.455 368.599L371.317 374.716C371.348 374.839 371.353 374.966 371.331 375.091C371.309 375.216 371.26 375.334 371.188 375.438C371.113 375.537 371.016 375.617 370.904 375.673C370.793 375.729 370.671 375.758 370.546 375.759ZM355.652 374.154H369.455L368.091 369.643H354.705L355.652 374.154Z" fill="#D1D3D4"/>
<path d="M393.225 375.759H377.689C377.522 375.756 377.361 375.702 377.226 375.604C377.092 375.507 376.99 375.37 376.934 375.214L374.832 369.097C374.791 368.977 374.778 368.85 374.795 368.724C374.812 368.599 374.857 368.479 374.928 368.374C375.004 368.271 375.104 368.188 375.218 368.129C375.332 368.071 375.458 368.039 375.586 368.037H390.593C390.749 368.039 390.901 368.085 391.032 368.17C391.163 368.256 391.267 368.377 391.331 368.519L393.963 374.636C394.015 374.758 394.034 374.891 394.02 375.023C394.006 375.155 393.959 375.281 393.883 375.39C393.812 375.501 393.715 375.593 393.6 375.657C393.485 375.721 393.357 375.757 393.225 375.759ZM378.266 374.154H392.005L390.015 369.643H376.661L378.266 374.154Z" fill="#D1D3D4"/>
<path d="M408.328 375.76H398.12C397.966 375.759 397.815 375.716 397.684 375.633C397.553 375.551 397.449 375.433 397.382 375.294L394.589 369.177C394.533 369.055 394.508 368.921 394.517 368.787C394.526 368.653 394.568 368.524 394.64 368.41C394.712 368.297 394.811 368.203 394.928 368.138C395.045 368.073 395.177 368.038 395.312 368.037H405.166C405.315 368.036 405.461 368.075 405.589 368.152C405.716 368.228 405.82 368.339 405.888 368.471L409.098 374.588C409.166 374.708 409.201 374.843 409.201 374.981C409.201 375.119 409.166 375.254 409.098 375.374C409.021 375.506 408.908 375.613 408.771 375.682C408.634 375.75 408.48 375.777 408.328 375.76ZM398.698 374.154H407.076L404.749 369.643H396.628L398.698 374.154Z" fill="#D1D3D4"/>
<path d="M226.578 408.35H207.125C206.987 408.35 206.85 408.315 206.729 408.248C206.609 408.18 206.507 408.083 206.435 407.964C206.368 407.844 206.332 407.709 206.332 407.571C206.332 407.433 206.368 407.298 206.435 407.178L210.801 398.685C210.872 398.555 210.976 398.447 211.103 398.37C211.23 398.294 211.375 398.253 211.523 398.251H230.205C230.339 398.254 230.47 398.29 230.587 398.354C230.705 398.418 230.805 398.51 230.879 398.621C230.942 398.736 230.976 398.866 230.976 398.998C230.976 399.13 230.942 399.26 230.879 399.375L227.332 407.868C227.267 408.013 227.161 408.135 227.027 408.221C226.893 408.307 226.737 408.351 226.578 408.35ZM208.441 406.744H226.096L229.017 399.857H211.972L208.441 406.744Z" fill="#D1D3D4"/>
<path d="M254.938 408.35H235.47C235.339 408.349 235.212 408.316 235.097 408.254C234.982 408.193 234.884 408.104 234.812 407.996C234.74 407.889 234.695 407.766 234.681 407.637C234.667 407.508 234.684 407.378 234.731 407.258L237.941 398.765C238 398.613 238.104 398.482 238.238 398.391C238.373 398.299 238.533 398.25 238.696 398.251H257.378C257.502 398.253 257.625 398.282 257.736 398.338C257.847 398.394 257.944 398.474 258.02 398.573C258.098 398.67 258.151 398.786 258.173 398.91C258.196 399.033 258.187 399.16 258.148 399.279L255.693 407.772C255.645 407.936 255.546 408.08 255.41 408.184C255.274 408.288 255.109 408.346 254.938 408.35ZM236.641 406.744H254.296L256.286 399.857H239.257L236.641 406.744Z" fill="#D1D3D4"/>
<path d="M341.03 408.35H263.83C263.709 408.35 263.59 408.323 263.481 408.27C263.373 408.217 263.278 408.14 263.204 408.045C263.13 407.948 263.079 407.835 263.054 407.716C263.029 407.596 263.031 407.473 263.06 407.354L265.146 398.862C265.192 398.688 265.294 398.533 265.436 398.423C265.578 398.313 265.753 398.253 265.932 398.251H340.035C340.231 398.25 340.419 398.322 340.565 398.453C340.71 398.583 340.802 398.763 340.822 398.958L341.833 407.451C341.844 407.564 341.832 407.678 341.796 407.786C341.76 407.894 341.701 407.993 341.624 408.077C341.551 408.163 341.46 408.232 341.358 408.279C341.255 408.326 341.143 408.35 341.03 408.35ZM264.857 406.744H340.132L339.313 399.857H266.558L264.857 406.744Z" fill="#D1D3D4"/>
<path d="M368.38 408.35H348.911C348.721 408.348 348.538 408.28 348.394 408.156C348.25 408.033 348.155 407.863 348.124 407.675L346.808 399.183C346.789 399.069 346.795 398.953 346.825 398.842C346.856 398.731 346.91 398.628 346.985 398.54C347.06 398.452 347.154 398.38 347.259 398.33C347.364 398.28 347.478 398.253 347.595 398.251H366.277C366.457 398.253 366.631 398.313 366.774 398.423C366.916 398.533 367.018 398.688 367.063 398.862L369.15 407.354C369.183 407.472 369.186 407.597 369.161 407.717C369.136 407.837 369.083 407.949 369.006 408.045C368.932 408.14 368.837 408.217 368.728 408.27C368.62 408.323 368.5 408.35 368.38 408.35ZM349.601 406.744H367.352L365.651 399.841H348.542L349.601 406.744Z" fill="#D1D3D4"/>
<path d="M396.74 408.35H377.271C377.098 408.35 376.929 408.293 376.79 408.189C376.651 408.085 376.55 407.938 376.501 407.772L374.045 399.279C374.014 399.159 374.009 399.034 374.031 398.912C374.054 398.79 374.102 398.674 374.174 398.573C374.252 398.476 374.349 398.398 374.46 398.342C374.571 398.287 374.692 398.256 374.816 398.251H393.498C393.661 398.25 393.82 398.299 393.955 398.391C394.09 398.482 394.194 398.613 394.252 398.765L397.462 407.258C397.503 407.38 397.516 407.51 397.499 407.638C397.482 407.766 397.437 407.889 397.366 407.996C397.297 408.101 397.204 408.187 397.096 408.249C396.987 408.31 396.865 408.345 396.74 408.35ZM377.881 406.744H395.536L392.952 399.841H375.891L377.881 406.744Z" fill="#D1D3D4"/>
<path d="M425.1 408.35H405.632C405.475 408.348 405.323 408.302 405.192 408.217C405.061 408.131 404.958 408.01 404.893 407.868L401.25 399.375C401.199 399.253 401.179 399.12 401.193 398.988C401.207 398.856 401.254 398.73 401.33 398.621C401.401 398.51 401.498 398.418 401.613 398.354C401.728 398.29 401.857 398.254 401.988 398.251H420.687C420.832 398.256 420.973 398.298 421.097 398.374C421.221 398.45 421.323 398.557 421.393 398.685L425.758 407.178C425.826 407.298 425.861 407.433 425.861 407.571C425.861 407.709 425.826 407.844 425.758 407.964C425.687 408.076 425.59 408.169 425.476 408.236C425.361 408.304 425.233 408.342 425.1 408.35ZM406.161 406.744H423.816L420.237 399.841H403.256L406.161 406.744Z" fill="#D1D3D4"/>
<path d="M442.739 415.285H189.486V421.803H442.739V415.285Z" fill="#231F20"/>
<path d="M442.739 422.606H189.486C189.273 422.606 189.069 422.521 188.919 422.371C188.768 422.22 188.684 422.016 188.684 421.803V415.285C188.684 415.072 188.768 414.868 188.919 414.717C189.069 414.567 189.273 414.482 189.486 414.482H442.739C442.951 414.486 443.153 414.572 443.302 414.722C443.452 414.872 443.538 415.073 443.542 415.285V421.803C443.542 422.016 443.457 422.22 443.307 422.371C443.156 422.521 442.952 422.606 442.739 422.606ZM190.289 421H441.937V416.088H190.289V421Z" fill="#231F20"/>
<path d="M486.411 358.421C486.411 358.421 482.351 351.999 476.46 352.144L486.411 358.421Z" fill="white"/>
<path d="M486.411 359.223C486.277 359.225 486.144 359.191 486.026 359.127C485.908 359.062 485.809 358.968 485.737 358.854C485.737 358.854 481.869 352.946 476.573 352.946H476.476C476.264 352.946 476.059 352.862 475.909 352.711C475.758 352.561 475.674 352.356 475.674 352.144C475.672 352.039 475.691 351.935 475.729 351.838C475.768 351.74 475.825 351.652 475.898 351.577C475.972 351.502 476.059 351.443 476.156 351.402C476.252 351.362 476.356 351.341 476.46 351.341H476.573C482.752 351.341 486.909 357.763 487.085 357.987C487.2 358.166 487.239 358.383 487.194 358.591C487.149 358.799 487.023 358.98 486.845 359.095C486.714 359.176 486.565 359.221 486.411 359.223Z" fill="#231F20"/>
<path d="M222.886 213.178H67.3619V323.904H222.886V213.178Z" fill="white"/>
<path d="M222.87 324.707H67.41C67.1972 324.707 66.993 324.622 66.8426 324.472C66.6921 324.321 66.6075 324.117 66.6075 323.904V213.13C66.6075 212.917 66.6921 212.713 66.8426 212.562C66.993 212.412 67.1972 212.327 67.41 212.327H222.918C223.131 212.327 223.335 212.412 223.486 212.562C223.636 212.713 223.721 212.917 223.721 213.13V323.904C223.721 324.014 223.699 324.122 223.656 324.223C223.612 324.324 223.549 324.414 223.469 324.489C223.389 324.565 223.295 324.623 223.192 324.66C223.089 324.698 222.98 324.713 222.87 324.707ZM68.1644 323.101H222.068V213.933H68.1644V323.101Z" fill="#231F20"/>
<path d="M222.87 224.93H67.41C67.1972 224.93 66.993 224.845 66.8426 224.695C66.6921 224.544 66.6075 224.34 66.6075 224.127C66.6075 223.914 66.6921 223.71 66.8426 223.559C66.993 223.409 67.1972 223.324 67.41 223.324H222.918C223.131 223.324 223.335 223.409 223.486 223.559C223.636 223.71 223.721 223.914 223.721 224.127C223.721 224.237 223.699 224.345 223.656 224.446C223.612 224.546 223.549 224.637 223.469 224.712C223.389 224.788 223.295 224.846 223.192 224.883C223.089 224.92 222.98 224.936 222.87 224.93Z" fill="#231F20"/>
<path d="M99.9755 233.792H80.9883C80.7755 233.792 80.5713 233.707 80.4208 233.557C80.2703 233.406 80.1858 233.202 80.1858 232.989C80.1858 232.776 80.2703 232.572 80.4208 232.421C80.5713 232.271 80.7755 232.186 80.9883 232.186H99.9755C100.188 232.186 100.392 232.271 100.543 232.421C100.693 232.572 100.778 232.776 100.778 232.989C100.778 233.202 100.693 233.406 100.543 233.557C100.392 233.707 100.188 233.792 99.9755 233.792Z" fill="#D1D3D4"/>
<path d="M147.885 233.792H109.975C109.763 233.788 109.561 233.702 109.412 233.552C109.262 233.402 109.176 233.201 109.172 232.989C109.172 232.776 109.257 232.572 109.407 232.421C109.558 232.271 109.762 232.186 109.975 232.186H147.885C148.098 232.186 148.302 232.271 148.452 232.421C148.603 232.572 148.687 232.776 148.687 232.989C148.687 233.202 148.603 233.406 148.452 233.557C148.302 233.707 148.098 233.792 147.885 233.792Z" fill="#0D1950"/>
<path d="M159.296 243.633H121.386C121.173 243.633 120.969 243.548 120.819 243.398C120.668 243.247 120.584 243.043 120.584 242.83C120.588 242.619 120.674 242.417 120.823 242.267C120.973 242.118 121.175 242.032 121.386 242.028H159.296C159.509 242.028 159.713 242.112 159.864 242.263C160.014 242.413 160.099 242.617 160.099 242.83C160.099 243.043 160.014 243.247 159.864 243.398C159.713 243.548 159.509 243.633 159.296 243.633Z" fill="#0D1950"/>
<path d="M104.437 243.633H85.4342C85.2213 243.633 85.0172 243.548 84.8667 243.398C84.7162 243.247 84.6317 243.043 84.6317 242.83C84.6358 242.619 84.7216 242.417 84.8712 242.267C85.0209 242.118 85.2226 242.032 85.4342 242.028H104.437C104.65 242.028 104.854 242.112 105.005 242.263C105.155 242.413 105.24 242.617 105.24 242.83C105.24 243.043 105.155 243.247 105.005 243.398C104.854 243.548 104.65 243.633 104.437 243.633Z" fill="#D1D3D4"/>
<path d="M105.16 253.49H89.88C89.6672 253.49 89.463 253.406 89.3125 253.255C89.162 253.105 89.0775 252.9 89.0775 252.687C89.0816 252.476 89.1675 252.274 89.3171 252.124C89.4667 251.975 89.6684 251.889 89.88 251.885H105.144C105.356 251.885 105.561 251.969 105.711 252.12C105.862 252.27 105.946 252.475 105.946 252.687C105.946 252.898 105.864 253.099 105.717 253.249C105.57 253.4 105.37 253.486 105.16 253.49Z" fill="#D1D3D4"/>
<path d="M166.085 253.49H118.626C118.413 253.49 118.209 253.406 118.058 253.255C117.908 253.105 117.823 252.9 117.823 252.687C117.827 252.476 117.913 252.274 118.063 252.124C118.212 251.975 118.414 251.889 118.626 251.885H166.085C166.297 251.889 166.499 251.975 166.648 252.124C166.798 252.274 166.884 252.476 166.888 252.687C166.888 252.9 166.803 253.105 166.653 253.255C166.502 253.406 166.298 253.49 166.085 253.49Z" fill="#0D1950"/>
<path d="M113.361 263.38H94.358C94.1451 263.38 93.941 263.295 93.7905 263.144C93.64 262.994 93.5555 262.79 93.5555 262.577C93.5555 262.364 93.64 262.16 93.7905 262.009C93.941 261.859 94.1451 261.774 94.358 261.774H113.361C113.573 261.778 113.774 261.864 113.924 262.014C114.074 262.163 114.16 262.365 114.164 262.577C114.164 262.79 114.079 262.994 113.929 263.144C113.778 263.295 113.574 263.38 113.361 263.38Z" fill="#D1D3D4"/>
<path d="M175.892 263.38H119.476C119.263 263.38 119.059 263.295 118.909 263.144C118.758 262.994 118.674 262.79 118.674 262.577C118.674 262.364 118.758 262.16 118.909 262.009C119.059 261.859 119.263 261.774 119.476 261.774H175.892C176.105 261.774 176.309 261.859 176.459 262.009C176.61 262.16 176.694 262.364 176.694 262.577C176.694 262.79 176.61 262.994 176.459 263.144C176.309 263.295 176.105 263.38 175.892 263.38Z" fill="#0D1950"/>
<path d="M108.321 273.205H89.3183C89.1054 273.205 88.9013 273.12 88.7508 272.97C88.6003 272.819 88.5158 272.615 88.5158 272.402C88.5158 272.189 88.6003 271.985 88.7508 271.835C88.9013 271.684 89.1054 271.599 89.3183 271.599H108.321C108.534 271.599 108.738 271.684 108.889 271.835C109.039 271.985 109.124 272.189 109.124 272.402C109.124 272.615 109.039 272.819 108.889 272.97C108.738 273.12 108.534 273.205 108.321 273.205Z" fill="#D1D3D4"/>
<path d="M146.183 273.205H115.56C115.347 273.205 115.143 273.12 114.993 272.97C114.842 272.819 114.758 272.615 114.758 272.402C114.758 272.189 114.842 271.985 114.993 271.835C115.143 271.684 115.347 271.599 115.56 271.599H146.183C146.396 271.599 146.6 271.684 146.751 271.835C146.901 271.985 146.986 272.189 146.986 272.402C146.986 272.615 146.901 272.819 146.751 272.97C146.6 273.12 146.396 273.205 146.183 273.205Z" fill="#0D1950"/>
<path d="M188.459 273.205H157.868C157.655 273.205 157.451 273.12 157.3 272.97C157.15 272.819 157.065 272.615 157.065 272.402C157.065 272.189 157.15 271.985 157.3 271.835C157.451 271.684 157.655 271.599 157.868 271.599H188.459C188.672 271.599 188.876 271.684 189.027 271.835C189.177 271.985 189.262 272.189 189.262 272.402C189.262 272.615 189.177 272.819 189.027 272.97C188.876 273.12 188.672 273.205 188.459 273.205Z" fill="#0D1950"/>
<path d="M95.8667 283.062H89.3183C89.1054 283.062 88.9013 282.978 88.7508 282.827C88.6003 282.677 88.5158 282.472 88.5158 282.259C88.5158 282.047 88.6003 281.842 88.7508 281.692C88.9013 281.541 89.1054 281.457 89.3183 281.457H95.8667C96.0795 281.457 96.2836 281.541 96.4341 281.692C96.5846 281.842 96.6692 282.047 96.6692 282.259C96.6692 282.472 96.5846 282.677 96.4341 282.827C96.2836 282.978 96.0795 283.062 95.8667 283.062Z" fill="#D1D3D4"/>
<path d="M146.183 283.062H107.021C106.809 283.062 106.604 282.978 106.454 282.827C106.303 282.677 106.219 282.472 106.219 282.259C106.219 282.047 106.303 281.842 106.454 281.692C106.604 281.541 106.809 281.457 107.021 281.457H146.183C146.396 281.457 146.6 281.541 146.751 281.692C146.901 281.842 146.986 282.047 146.986 282.259C146.986 282.472 146.901 282.677 146.751 282.827C146.6 282.978 146.396 283.062 146.183 283.062Z" fill="#0D1950"/>
<path d="M161.623 283.062H150.693C150.481 283.062 150.276 282.978 150.126 282.827C149.975 282.677 149.891 282.472 149.891 282.259C149.891 282.047 149.975 281.842 150.126 281.692C150.276 281.541 150.481 281.457 150.693 281.457H161.623C161.836 281.457 162.04 281.541 162.191 281.692C162.341 281.842 162.426 282.047 162.426 282.259C162.426 282.472 162.341 282.677 162.191 282.827C162.04 282.978 161.836 283.062 161.623 283.062Z" fill="#0D1950"/>
<path d="M99.6063 292.92H89.3183C89.1067 292.915 88.905 292.83 88.7553 292.68C88.6057 292.53 88.5199 292.328 88.5158 292.117C88.5158 291.904 88.6003 291.7 88.7508 291.549C88.9013 291.399 89.1054 291.314 89.3183 291.314H99.6063C99.8191 291.314 100.023 291.399 100.174 291.549C100.324 291.7 100.409 291.904 100.409 292.117C100.405 292.328 100.319 292.53 100.169 292.68C100.02 292.83 99.8179 292.915 99.6063 292.92Z" fill="#D1D3D4"/>
<path d="M155.781 292.92H109.236C109.023 292.92 108.819 292.835 108.669 292.684C108.518 292.534 108.434 292.33 108.434 292.117C108.434 291.904 108.518 291.7 108.669 291.549C108.819 291.399 109.023 291.314 109.236 291.314H155.781C155.994 291.314 156.198 291.399 156.349 291.549C156.499 291.7 156.584 291.904 156.584 292.117C156.58 292.328 156.494 292.53 156.344 292.68C156.195 292.83 155.993 292.915 155.781 292.92Z" fill="#0D1950"/>
<path d="M179.375 292.92H160.372C160.159 292.92 159.955 292.835 159.804 292.684C159.654 292.534 159.569 292.33 159.569 292.117C159.569 291.904 159.654 291.7 159.804 291.549C159.955 291.399 160.159 291.314 160.372 291.314H179.375C179.588 291.314 179.792 291.399 179.942 291.549C180.093 291.7 180.177 291.904 180.177 292.117C180.173 292.328 180.087 292.53 179.938 292.68C179.788 292.83 179.586 292.915 179.375 292.92Z" fill="#0D1950"/>
<path d="M94.9358 302.777H84.8564C84.6448 302.773 84.4431 302.687 84.2935 302.537C84.1438 302.388 84.058 302.186 84.0539 301.974C84.0539 301.761 84.1384 301.557 84.2889 301.407C84.4394 301.256 84.6435 301.171 84.8564 301.171H94.9358C95.1486 301.171 95.3527 301.256 95.5032 301.407C95.6537 301.557 95.7383 301.761 95.7383 301.974C95.7383 302.187 95.6537 302.391 95.5032 302.542C95.3527 302.692 95.1486 302.777 94.9358 302.777Z" fill="#D1D3D4"/>
<path d="M150.693 302.777H106.684C106.472 302.777 106.267 302.692 106.117 302.542C105.966 302.391 105.882 302.187 105.882 301.974C105.882 301.761 105.966 301.557 106.117 301.407C106.267 301.256 106.472 301.171 106.684 301.171H150.693C150.906 301.171 151.11 301.256 151.261 301.407C151.411 301.557 151.496 301.761 151.496 301.974C151.496 302.187 151.411 302.391 151.261 302.542C151.11 302.692 150.906 302.777 150.693 302.777Z" fill="#0D1950"/>
<path d="M103.86 312.618H84.8564C84.6435 312.618 84.4394 312.534 84.2889 312.383C84.1384 312.232 84.0539 312.028 84.0539 311.815C84.058 311.604 84.1438 311.402 84.2935 311.252C84.4431 311.103 84.6448 311.017 84.8564 311.013H103.86C104.072 311.013 104.277 311.097 104.427 311.248C104.578 311.398 104.662 311.603 104.662 311.815C104.662 312.028 104.578 312.232 104.427 312.383C104.277 312.534 104.072 312.618 103.86 312.618Z" fill="#D1D3D4"/>
<path d="M209.244 263.38H183.564C183.351 263.38 183.147 263.295 182.996 263.144C182.846 262.994 182.761 262.79 182.761 262.577C182.761 262.364 182.846 262.16 182.996 262.009C183.147 261.859 183.351 261.774 183.564 261.774H209.244C209.457 261.774 209.661 261.859 209.811 262.009C209.962 262.16 210.046 262.364 210.046 262.577C210.046 262.79 209.962 262.994 209.811 263.144C209.661 263.295 209.457 263.38 209.244 263.38Z" fill="#0D1950"/>
<path d="M170.66 233.84C163.341 233.84 157.948 233.84 157.707 233.84C157.497 233.794 157.314 233.667 157.197 233.486C157.08 233.306 157.038 233.087 157.081 232.877C157.127 232.68 157.245 232.507 157.411 232.391C157.577 232.275 157.779 232.225 157.98 232.25C159.216 232.331 189.326 232.25 200.866 232.25C201.076 232.25 201.278 232.333 201.428 232.48C201.578 232.627 201.664 232.827 201.668 233.037C201.668 233.252 201.584 233.457 201.434 233.611C201.284 233.764 201.08 233.852 200.866 233.856L170.66 233.84Z" fill="#0D1950"/>
<path d="M174.945 302.777H155.685C155.472 302.777 155.268 302.692 155.118 302.542C154.967 302.391 154.883 302.187 154.883 301.974C154.883 301.761 154.967 301.557 155.118 301.407C155.268 301.256 155.472 301.171 155.685 301.171H174.945C175.158 301.171 175.362 301.256 175.512 301.407C175.663 301.557 175.748 301.761 175.748 301.974C175.748 302.187 175.663 302.391 175.512 302.542C175.362 302.692 175.158 302.777 174.945 302.777Z" fill="#0D1950"/>
<path d="M130.888 312.618H116.764C116.551 312.618 116.347 312.534 116.196 312.383C116.046 312.232 115.961 312.028 115.961 311.815C115.961 311.603 116.046 311.398 116.196 311.248C116.347 311.097 116.551 311.013 116.764 311.013H130.888C131.101 311.013 131.305 311.097 131.455 311.248C131.606 311.398 131.69 311.603 131.69 311.815C131.69 312.028 131.606 312.232 131.455 312.383C131.305 312.534 131.101 312.618 130.888 312.618Z" fill="#D1D3D4"/>
<path d="M169.873 312.618H136.265C136.052 312.618 135.848 312.534 135.697 312.383C135.547 312.232 135.462 312.028 135.462 311.815C135.462 311.603 135.547 311.398 135.697 311.248C135.848 311.097 136.052 311.013 136.265 311.013H169.873C170.085 311.017 170.286 311.103 170.436 311.252C170.586 311.402 170.672 311.604 170.676 311.815C170.676 312.028 170.591 312.232 170.441 312.383C170.29 312.534 170.086 312.618 169.873 312.618Z" fill="#0D1950"/>
<path d="M534.834 91.2621H468.05V150.904H534.834V91.2621Z" fill="white"/>
<path d="M534.834 151.706H468.05C467.837 151.706 467.633 151.622 467.483 151.471C467.332 151.321 467.248 151.116 467.248 150.904V91.2621C467.252 91.0505 467.338 90.8487 467.487 90.699C467.637 90.5493 467.839 90.4635 468.05 90.4594H534.834C535.047 90.4594 535.251 90.5439 535.402 90.6945C535.552 90.845 535.637 91.0492 535.637 91.2621V150.904C535.637 151.116 535.552 151.321 535.402 151.471C535.251 151.622 535.047 151.706 534.834 151.706ZM468.853 150.101H534.032V92.0648H468.853V150.101Z" fill="#231F20"/>
<path d="M534.834 100.092H468.05C467.839 100.088 467.637 100.002 467.487 99.8523C467.338 99.7026 467.252 99.5008 467.248 99.2892C467.248 99.0763 467.332 98.8722 467.483 98.7216C467.633 98.5711 467.837 98.4865 468.05 98.4865H534.834C535.047 98.4865 535.251 98.5711 535.402 98.7216C535.552 98.8722 535.637 99.0763 535.637 99.2892C535.637 99.5021 535.552 99.7063 535.402 99.8568C535.251 100.007 535.047 100.092 534.834 100.092Z" fill="#231F20"/>
<path d="M477.52 125.137V122.568L489.413 115.408L491.435 118.619L482.495 123.82L491.435 129.054L489.413 132.265L477.52 125.137Z" fill="#0D1950"/>
<path d="M493.056 135.058L507.164 110.977L509.828 112.582L495.752 136.535L493.056 135.058Z" fill="#0D1950"/>
<path d="M511.449 129.086L520.389 123.852L511.449 118.651L513.472 115.44L525.381 122.6V125.169L513.472 132.329L511.449 129.086Z" fill="#0D1950"/>
<path d="M208.522 43.3883H110.039V107.942H208.522V43.3883Z" fill="white"/>
<path d="M208.522 108.745H110.039C109.826 108.745 109.622 108.661 109.471 108.51C109.321 108.36 109.236 108.155 109.236 107.942V43.4365C109.24 43.2249 109.326 43.0231 109.476 42.8734C109.626 42.7238 109.827 42.6379 110.039 42.6338H208.522C208.734 42.6338 208.939 42.7184 209.089 42.8689C209.24 43.0194 209.324 43.2236 209.324 43.4365V107.942C209.324 108.048 209.303 108.152 209.263 108.25C209.223 108.347 209.164 108.436 209.089 108.51C209.015 108.585 208.926 108.644 208.829 108.684C208.731 108.724 208.627 108.745 208.522 108.745ZM110.841 107.14H207.719V44.1911H110.841V107.14Z" fill="#231F20"/>
<path d="M208.522 50.5806H110.039C109.826 50.5806 109.622 50.4961 109.471 50.3455C109.321 50.195 109.236 49.9908 109.236 49.7779C109.236 49.565 109.321 49.3609 109.471 49.2103C109.622 49.0598 109.826 48.9752 110.039 48.9752H208.522C208.734 48.9752 208.939 49.0598 209.089 49.2103C209.24 49.3609 209.324 49.565 209.324 49.7779C209.324 49.9908 209.24 50.195 209.089 50.3455C208.939 50.4961 208.734 50.5806 208.522 50.5806Z" fill="#231F20"/>
<path d="M130.711 55.7501H118.674C118.461 55.7501 118.257 55.6655 118.106 55.515C117.956 55.3644 117.871 55.1603 117.871 54.9474C117.871 54.7345 117.956 54.5303 118.106 54.3798C118.257 54.2292 118.461 54.1447 118.674 54.1447H130.711C130.924 54.1447 131.128 54.2292 131.279 54.3798C131.429 54.5303 131.514 54.7345 131.514 54.9474C131.51 55.159 131.424 55.3608 131.274 55.5104C131.124 55.6601 130.923 55.746 130.711 55.7501Z" fill="#0D1950"/>
<path d="M161.046 55.7501H136.971C136.759 55.746 136.557 55.6601 136.408 55.5104C136.258 55.3608 136.172 55.159 136.168 54.9474C136.168 54.7345 136.253 54.5303 136.403 54.3798C136.554 54.2292 136.758 54.1447 136.971 54.1447H161.046C161.259 54.1447 161.463 54.2292 161.613 54.3798C161.764 54.5303 161.848 54.7345 161.848 54.9474C161.848 55.1603 161.764 55.3644 161.613 55.515C161.463 55.6655 161.259 55.7501 161.046 55.7501Z" fill="#0D1950"/>
<path d="M168.268 63.119H144.193C143.98 63.119 143.776 63.0344 143.626 62.8839C143.475 62.7333 143.391 62.5292 143.391 62.3163C143.395 62.1047 143.481 61.9029 143.63 61.7532C143.78 61.6036 143.982 61.5177 144.193 61.5135H168.268C168.481 61.5135 168.685 61.5981 168.836 61.7487C168.986 61.8992 169.071 62.1034 169.071 62.3163C169.071 62.5292 168.986 62.7333 168.836 62.8839C168.685 63.0344 168.481 63.119 168.268 63.119Z" fill="#0D1950"/>
<path d="M133.536 63.119H121.498C121.286 63.119 121.082 63.0344 120.931 62.8839C120.781 62.7333 120.696 62.5292 120.696 62.3163C120.696 62.1034 120.781 61.8992 120.931 61.7487C121.082 61.5981 121.286 61.5135 121.498 61.5135H133.536C133.748 61.5177 133.949 61.6036 134.099 61.7532C134.249 61.9029 134.334 62.1047 134.338 62.3163C134.338 62.5292 134.254 62.7333 134.103 62.8839C133.953 63.0344 133.749 63.119 133.536 63.119Z" fill="#0D1950"/>
<path d="M133.985 70.5039H124.355C124.143 70.5039 123.938 70.4194 123.788 70.2688C123.637 70.1183 123.553 69.9141 123.553 69.7012C123.553 69.4883 123.637 69.2841 123.788 69.1336C123.938 68.9831 124.143 68.8985 124.355 68.8985H133.985C134.198 68.8985 134.402 68.9831 134.553 69.1336C134.703 69.2841 134.788 69.4883 134.788 69.7012C134.788 69.9141 134.703 70.1183 134.553 70.2688C134.402 70.4194 134.198 70.5039 133.985 70.5039Z" fill="#0D1950"/>
<path d="M172.57 70.5039H142.508C142.296 70.4998 142.095 70.4139 141.945 70.2643C141.795 70.1146 141.71 69.9128 141.705 69.7012C141.705 69.4883 141.79 69.2841 141.94 69.1336C142.091 68.9831 142.295 68.8985 142.508 68.8985H172.57C172.782 68.8985 172.987 68.9831 173.137 69.1336C173.288 69.2841 173.372 69.4883 173.372 69.7012C173.368 69.9128 173.282 70.1146 173.132 70.2643C172.983 70.4139 172.781 70.4998 172.57 70.5039Z" fill="#0D1950"/>
<path d="M139.17 77.8728H127.148C126.935 77.8728 126.731 77.7882 126.581 77.6377C126.43 77.4872 126.346 77.283 126.346 77.0701C126.346 76.8572 126.43 76.653 126.581 76.5025C126.731 76.352 126.935 76.2674 127.148 76.2674H139.17C139.382 76.2674 139.587 76.352 139.737 76.5025C139.888 76.653 139.972 76.8572 139.972 77.0701C139.972 77.283 139.888 77.4872 139.737 77.6377C139.587 77.7882 139.382 77.8728 139.17 77.8728Z" fill="#0D1950"/>
<path d="M178.781 77.8728H143.054C142.841 77.8728 142.637 77.7882 142.486 77.6377C142.336 77.4872 142.251 77.283 142.251 77.0701C142.251 76.8572 142.336 76.653 142.486 76.5025C142.637 76.352 142.841 76.2674 143.054 76.2674H178.781C178.992 76.2715 179.194 76.3574 179.344 76.507C179.493 76.6567 179.579 76.8585 179.583 77.0701C179.583 77.283 179.499 77.4872 179.348 77.6377C179.198 77.7882 178.994 77.8728 178.781 77.8728Z" fill="#0D1950"/>
<path d="M135.992 85.2578H123.954C123.741 85.2578 123.537 85.1732 123.387 85.0227C123.236 84.8721 123.152 84.6679 123.152 84.4551C123.152 84.2422 123.236 84.038 123.387 83.8875C123.537 83.7369 123.741 83.6523 123.954 83.6523H135.992C136.205 83.6523 136.409 83.7369 136.559 83.8875C136.71 84.038 136.794 84.2422 136.794 84.4551C136.794 84.6679 136.71 84.8721 136.559 85.0227C136.409 85.1732 136.205 85.2578 135.992 85.2578Z" fill="#0D1950"/>
<path d="M159.97 85.2578H140.598C140.385 85.2578 140.181 85.1732 140.031 85.0227C139.88 84.8721 139.796 84.6679 139.796 84.4551C139.796 84.2422 139.88 84.038 140.031 83.8875C140.181 83.7369 140.385 83.6523 140.598 83.6523H159.97C160.183 83.6523 160.387 83.7369 160.538 83.8875C160.688 84.038 160.773 84.2422 160.773 84.4551C160.773 84.6679 160.688 84.8721 160.538 85.0227C160.387 85.1732 160.183 85.2578 159.97 85.2578Z" fill="#0D1950"/>
<path d="M186.742 85.2578H167.369C167.157 85.2578 166.952 85.1732 166.802 85.0227C166.651 84.8721 166.567 84.6679 166.567 84.4551C166.567 84.2422 166.651 84.038 166.802 83.8875C166.952 83.7369 167.157 83.6523 167.369 83.6523H186.742C186.955 83.6523 187.159 83.7369 187.309 83.8875C187.46 84.038 187.544 84.2422 187.544 84.4551C187.544 84.6679 187.46 84.8721 187.309 85.0227C187.159 85.1732 186.955 85.2578 186.742 85.2578Z" fill="#D1D3D4"/>
<path d="M128.095 92.6428H123.954C123.741 92.6428 123.537 92.5582 123.387 92.4077C123.236 92.2571 123.152 92.053 123.152 91.8401C123.152 91.6272 123.236 91.423 123.387 91.2725C123.537 91.1219 123.741 91.0374 123.954 91.0374H128.095C128.308 91.0374 128.512 91.1219 128.663 91.2725C128.813 91.423 128.898 91.6272 128.898 91.8401C128.898 92.053 128.813 92.2571 128.663 92.4077C128.512 92.5582 128.308 92.6428 128.095 92.6428Z" fill="#0D1950"/>
<path d="M159.97 92.6428H135.157C134.946 92.6387 134.744 92.5528 134.594 92.4031C134.445 92.2535 134.359 92.0517 134.355 91.8401C134.355 91.6272 134.439 91.423 134.59 91.2725C134.74 91.1219 134.944 91.0374 135.157 91.0374H159.97C160.183 91.0374 160.387 91.1219 160.538 91.2725C160.688 91.423 160.773 91.6272 160.773 91.8401C160.773 92.053 160.688 92.2571 160.538 92.4077C160.387 92.5582 160.183 92.6428 159.97 92.6428Z" fill="#0D1950"/>
<path d="M172.955 92.6428H166.037C165.824 92.6428 165.62 92.5582 165.47 92.4077C165.319 92.2571 165.235 92.053 165.235 91.8401C165.235 91.6272 165.319 91.423 165.47 91.2725C165.62 91.1219 165.824 91.0374 166.037 91.0374H172.955C173.168 91.0374 173.372 91.1219 173.522 91.2725C173.673 91.423 173.757 91.6272 173.757 91.8401C173.753 92.0517 173.667 92.2535 173.518 92.4031C173.368 92.5528 173.166 92.6387 172.955 92.6428Z" fill="#D1D3D4"/>
<path d="M130.47 100.012H123.954C123.741 100.012 123.537 99.9271 123.387 99.7766C123.236 99.626 123.152 99.4219 123.152 99.209C123.152 98.9961 123.236 98.7919 123.387 98.6414C123.537 98.4908 123.741 98.4062 123.954 98.4062H130.47C130.683 98.4062 130.887 98.4908 131.038 98.6414C131.188 98.7919 131.273 98.9961 131.273 99.209C131.273 99.4219 131.188 99.626 131.038 99.7766C130.887 99.9271 130.683 100.012 130.47 100.012Z" fill="#0D1950"/>
<path d="M166.037 100.012H136.602C136.389 100.012 136.185 99.9271 136.034 99.7766C135.884 99.626 135.799 99.4219 135.799 99.209C135.799 98.9961 135.884 98.7919 136.034 98.6414C136.185 98.4908 136.389 98.4062 136.602 98.4062H166.037C166.25 98.4062 166.454 98.4908 166.605 98.6414C166.755 98.7919 166.84 98.9961 166.84 99.209C166.84 99.4219 166.755 99.626 166.605 99.7766C166.454 99.9271 166.25 100.012 166.037 100.012Z" fill="#0D1950"/>
<path d="M184.19 100.012H172.152C171.939 100.012 171.735 99.9271 171.585 99.7766C171.434 99.626 171.35 99.4219 171.35 99.209C171.35 98.9961 171.434 98.7919 171.585 98.6414C171.735 98.4908 171.939 98.4062 172.152 98.4062H184.19C184.403 98.4062 184.607 98.4908 184.757 98.6414C184.908 98.7919 184.992 98.9961 184.992 99.209C184.992 99.4219 184.908 99.626 184.757 99.7766C184.607 99.9271 184.403 100.012 184.19 100.012Z" fill="#D1D3D4"/>
<path d="M199.903 77.8728H183.628C183.415 77.8728 183.211 77.7882 183.061 77.6377C182.91 77.4872 182.826 77.283 182.826 77.0701C182.83 76.8585 182.916 76.6567 183.065 76.507C183.215 76.3574 183.416 76.2715 183.628 76.2674H199.903C200.116 76.2674 200.32 76.352 200.47 76.5025C200.621 76.653 200.705 76.8572 200.705 77.0701C200.705 77.283 200.621 77.4872 200.47 77.6377C200.32 77.7882 200.116 77.8728 199.903 77.8728Z" fill="#D1D3D4"/>
<path d="M175.619 55.7822C167.418 55.7822 167.257 55.7822 167.177 55.7822C166.973 55.729 166.797 55.5991 166.687 55.4197C166.576 55.2403 166.539 55.0251 166.583 54.8189C166.626 54.6244 166.74 54.4532 166.904 54.34C167.068 54.2267 167.269 54.1799 167.466 54.2089C168.364 54.2089 184.142 54.2089 194.59 54.2089C194.695 54.2067 194.799 54.2255 194.896 54.2641C194.993 54.3027 195.082 54.3603 195.157 54.4335C195.231 54.5068 195.291 54.5942 195.331 54.6907C195.372 54.7873 195.393 54.8909 195.393 54.9955C195.393 55.2099 195.309 55.4158 195.159 55.5689C195.009 55.722 194.804 55.8101 194.59 55.8143L175.619 55.7822Z" fill="#D1D3D4"/>
</svg>
