<svg width="406" height="307" viewBox="0 0 406 307" fill="none" xmlns="http://www.w3.org/2000/svg">
<path d="M306.286 49.9793C304.663 49.8975 303.039 50.1178 301.496 50.6289C299.212 51.6439 296.989 56.9929 295.406 65.387C294.02 72.6568 293.424 80.0552 293.629 87.4531C293.651 88.1083 293.828 88.749 294.146 89.3225C294.463 89.896 294.912 90.3858 295.456 90.7518C302.561 95.8268 326.668 89.6252 329.225 88.9451C330.443 86.6106 341.548 64.7577 336.077 58.8808C331.266 53.6739 315.127 49.9793 306.286 49.9793Z" fill="white"/>
<path d="M304.926 93.736C300.755 93.736 297.06 93.1574 294.847 91.5537C294.177 91.1026 293.623 90.4999 293.23 89.7945C292.837 89.089 292.615 88.3008 292.584 87.4937C291.985 76.0445 295.162 52.192 301.079 49.6545C306.997 47.117 330.514 51.38 336.848 58.1602C343.182 64.9404 330.586 88.6102 330.048 89.6252C330.014 89.689 329.968 89.7454 329.912 89.7908C329.857 89.8361 329.792 89.8696 329.723 89.8891C328.941 90.0718 315.411 93.736 304.926 93.736ZM306.286 49.9793C304.663 49.8976 303.039 50.1178 301.496 50.6289C299.212 51.6439 296.989 56.993 295.406 65.387C294.02 72.6569 293.424 80.0552 293.629 87.4531C293.651 88.1083 293.828 88.749 294.146 89.3225C294.463 89.896 294.912 90.3859 295.456 90.7519C302.561 95.8269 326.668 89.6252 329.225 88.9452C330.443 86.6107 341.547 64.7577 336.077 58.8809C331.266 53.6739 315.127 49.9793 306.286 49.9793Z" fill="#231F20"/>
<path d="M238.129 225.747C246.438 222.083 253.6 216.237 258.852 208.829C264.105 201.421 267.252 192.728 267.96 183.675L251.162 165.628L228.07 210.217" fill="white"/>
<path d="M238.129 226.275C238.009 226.27 237.894 226.225 237.803 226.146C237.712 226.067 237.65 225.959 237.629 225.841C237.608 225.722 237.628 225.6 237.685 225.494C237.743 225.389 237.835 225.306 237.946 225.26C246.105 221.613 253.141 215.852 258.326 208.573C263.51 201.293 266.654 192.761 267.432 183.858L251.294 166.522L228.548 210.451C228.476 210.559 228.367 210.636 228.242 210.669C228.116 210.702 227.983 210.687 227.868 210.628C227.753 210.569 227.663 210.47 227.616 210.349C227.569 210.229 227.568 210.095 227.614 209.974L250.705 165.385C250.743 165.31 250.799 165.246 250.868 165.198C250.937 165.15 251.017 165.12 251.101 165.111C251.184 165.097 251.268 165.104 251.348 165.131C251.428 165.157 251.499 165.203 251.558 165.263L268.356 183.32C268.406 183.374 268.445 183.438 268.469 183.508C268.494 183.578 268.503 183.652 268.498 183.726C267.736 192.866 264.533 201.633 259.222 209.111C253.912 216.589 246.69 222.503 238.312 226.234C238.255 226.262 238.192 226.276 238.129 226.275Z" fill="#231F20"/>
<path d="M290.199 253.314L341.01 252.33L340.309 188.344L265.697 191.034L255.313 253.314H290.199Z" fill="#231F20"/>
<path d="M290.199 253.822H255.313C255.239 253.822 255.166 253.806 255.1 253.774C255.033 253.742 254.974 253.696 254.927 253.639C254.878 253.585 254.843 253.52 254.823 253.449C254.804 253.379 254.801 253.305 254.816 253.233L265.199 190.953C265.216 190.837 265.273 190.731 265.36 190.653C265.447 190.575 265.559 190.53 265.676 190.526L340.289 187.837C340.424 187.838 340.554 187.889 340.654 187.979C340.706 188.025 340.747 188.081 340.775 188.144C340.803 188.207 340.817 188.275 340.817 188.344L341.517 252.289C341.518 252.356 341.507 252.422 341.482 252.484C341.458 252.546 341.422 252.603 341.376 252.651C341.329 252.699 341.274 252.738 341.213 252.764C341.152 252.791 341.086 252.805 341.02 252.807L290.209 253.822H290.199ZM255.912 252.807H290.199L340.502 251.792L339.812 188.862L266.123 191.521L255.912 252.807Z" fill="#231F20"/>
<path d="M350.804 117.355C346.257 111.174 335.376 107.915 328.048 106.748C320.994 105.632 313.929 106.748 306.845 106.139C300.357 105.76 293.85 106.397 287.56 108.027C263.92 114.564 241.946 148.79 241.946 148.79L266.042 150.058C266.042 150.058 262.54 175.261 252.491 230.487C294.35 231.979 343.07 236.14 343.07 236.14C343.07 236.14 343.283 224.58 343.811 213.201C347.587 209.679 347.455 204.066 348.145 200.808C349.038 196.616 347.232 151.073 347.232 151.073L352.723 149.043C352.723 149.043 352.794 120.014 350.804 117.355Z" fill="#ED1E79"/>
<path d="M294.502 116.715L276.141 237.49L298.065 239.693L323.003 116.462L294.502 116.715Z" fill="#231F20"/>
<path d="M298.065 240.2H298.014L276.08 237.998C275.941 237.982 275.814 237.913 275.725 237.805C275.683 237.751 275.654 237.688 275.638 237.622C275.622 237.556 275.621 237.486 275.633 237.419L293.995 116.634C294.014 116.516 294.074 116.408 294.165 116.33C294.256 116.252 294.372 116.209 294.492 116.208L322.983 115.954C323.059 115.952 323.134 115.967 323.203 115.999C323.271 116.031 323.332 116.078 323.379 116.137C323.428 116.195 323.464 116.264 323.484 116.337C323.503 116.411 323.505 116.488 323.491 116.563L298.562 239.784C298.541 239.901 298.48 240.006 298.389 240.082C298.298 240.158 298.183 240.2 298.065 240.2ZM276.75 237.044L297.689 239.145L322.374 116.969L294.969 117.213L276.75 237.044Z" fill="#231F20"/>
<path d="M297.76 101.572L294.604 116.715C294.604 116.715 297.963 126.774 308.144 125.708C311.152 125.368 314.047 124.362 316.617 122.762C319.188 121.163 321.369 119.01 323.003 116.462L326.617 88.6304C326.617 88.6304 319.827 83.7482 324.11 68.168C315.58 70.5489 306.566 70.591 298.014 68.2898C298.014 68.2898 291.224 84.9053 291.396 92.6498C291.569 100.394 297.76 101.572 297.76 101.572Z" fill="white"/>
<path d="M306.672 126.317C297.375 126.317 294.147 116.979 294.106 116.878C294.081 116.788 294.081 116.693 294.106 116.604L297.151 101.957C295.588 101.47 291.061 99.4808 290.879 92.7209C290.716 84.9054 297.253 68.7771 297.537 68.097C297.585 67.9785 297.674 67.8814 297.788 67.8235C297.902 67.7656 298.032 67.751 298.156 67.7824C306.611 70.035 315.513 69.9964 323.947 67.6707C324.037 67.6401 324.134 67.6344 324.227 67.654C324.32 67.6737 324.405 67.718 324.475 67.7824C324.544 67.8474 324.594 67.9301 324.619 68.0213C324.644 68.1126 324.643 68.209 324.617 68.3C320.486 83.3626 326.871 88.1636 326.932 88.2042C327.01 88.2585 327.072 88.3341 327.11 88.4221C327.148 88.5101 327.16 88.6069 327.145 88.7015L323.531 116.533C323.521 116.601 323.497 116.667 323.46 116.726C321.8 119.352 319.569 121.571 316.933 123.216C314.297 124.861 311.324 125.89 308.235 126.226C307.716 126.287 307.195 126.318 306.672 126.317ZM295.152 116.675C295.588 117.873 298.948 126.135 308.093 125.191C310.998 124.848 313.792 123.873 316.28 122.335C318.769 120.797 320.89 118.734 322.496 116.289L326.059 88.8842C324.841 87.8692 319.918 82.51 323.359 68.9598C315.143 71.0265 306.544 71.0265 298.329 68.9598C297.314 71.5988 291.772 85.8189 291.914 92.7311C292.066 99.9883 297.608 101.054 297.852 101.105C297.919 101.115 297.984 101.14 298.041 101.177C298.099 101.213 298.149 101.261 298.187 101.318C298.227 101.377 298.255 101.443 298.269 101.513C298.283 101.582 298.282 101.654 298.268 101.724L295.152 116.675Z" fill="#231F20"/>
<path d="M320.902 87.3718C321.419 86.0599 322.349 84.9519 323.552 84.2151C324.698 83.5842 325.944 83.1551 327.236 82.9464C327.93 82.7561 328.658 82.7215 329.368 82.8449C329.849 82.9961 330.3 83.2334 330.697 83.5452C331.683 84.215 332.402 85.2103 332.727 86.3568C332.871 87.3108 332.784 88.2854 332.473 89.1988C332.219 90.212 331.826 91.1854 331.306 92.0915C330.775 92.9896 330.07 93.7728 329.233 94.3955C328.396 95.0182 327.443 95.4678 326.43 95.7182C325.417 95.9686 324.364 96.0147 323.333 95.8539C322.302 95.693 321.314 95.3284 320.425 94.7813" fill="white"/>
<path d="M324.577 96.456C323.023 96.4585 321.5 96.0337 320.172 95.2279C320.054 95.1545 319.97 95.0378 319.938 94.9029C319.905 94.7681 319.927 94.6259 319.999 94.5072C320.034 94.4479 320.081 94.3963 320.137 94.3554C320.193 94.3145 320.256 94.2852 320.323 94.2691C320.39 94.253 320.46 94.2505 320.528 94.2618C320.596 94.2731 320.661 94.2978 320.72 94.3347C322.402 95.3455 324.413 95.6587 326.323 95.2076C328.233 94.7306 329.875 93.515 330.89 91.8276C331.384 90.959 331.756 90.0266 331.996 89.0567C332.282 88.2291 332.366 87.3451 332.24 86.4786C331.939 85.4542 331.289 84.5674 330.403 83.9715C330.059 83.6945 329.667 83.4844 329.246 83.3524C328.616 83.2517 327.973 83.2863 327.358 83.4539C326.108 83.6542 324.9 84.0625 323.785 84.6617C322.68 85.3396 321.825 86.3584 321.349 87.5646C321.298 87.6992 321.195 87.808 321.064 87.867C320.933 87.926 320.783 87.9304 320.649 87.8793C320.514 87.8281 320.405 87.7256 320.346 87.5943C320.287 87.4629 320.283 87.3135 320.334 87.1789C320.898 85.7648 321.901 84.5693 323.196 83.7685C324.423 83.1064 325.756 82.6633 327.135 82.4592C327.905 82.2469 328.715 82.2156 329.499 82.3678C330.05 82.5308 330.564 82.7998 331.012 83.1595C332.111 83.8938 332.907 85.0004 333.255 86.2756C333.413 87.2964 333.326 88.34 333.001 89.3206C332.734 90.3859 332.325 91.4101 331.783 92.3656C330.626 94.2918 328.755 95.682 326.576 96.2327C325.921 96.3876 325.25 96.4625 324.577 96.456Z" fill="#231F20"/>
<path d="M296.542 109.144C298.334 109.594 300.202 109.655 302.019 109.323C303.837 108.99 305.562 108.271 307.078 107.215C311.991 103.612 311.94 101.125 311.94 101.125C311.94 101.125 304.419 104.028 298.126 101.866L296.542 109.144Z" fill="#231F20"/>
<path d="M299.76 110.047C298.627 110.056 297.497 109.916 296.4 109.631C296.279 109.595 296.175 109.514 296.111 109.405C296.047 109.295 296.027 109.166 296.055 109.042L297.639 101.744C297.652 101.674 297.681 101.607 297.723 101.55C297.765 101.492 297.819 101.444 297.882 101.409C297.946 101.379 298.015 101.364 298.085 101.364C298.155 101.364 298.225 101.379 298.288 101.409C304.327 103.439 311.686 100.709 311.757 100.678C311.828 100.641 311.906 100.622 311.986 100.622C312.065 100.622 312.144 100.641 312.214 100.678C312.283 100.722 312.339 100.781 312.378 100.852C312.417 100.924 312.438 101.003 312.437 101.084C312.437 101.196 312.437 103.876 307.362 107.591C305.156 109.202 302.492 110.063 299.76 110.047ZM297.141 108.768C298.797 109.114 300.506 109.119 302.164 108.782C303.822 108.445 305.394 107.774 306.784 106.809C309.778 104.606 310.844 102.861 311.219 101.907C309.088 102.587 303.536 104.018 298.501 102.516L297.141 108.768Z" fill="#231F20"/>
<path d="M306.845 78.917C306.845 78.917 300.399 85.7073 301.394 87.2501C302.389 88.7929 305.951 88.5493 305.951 88.5493" fill="white"/>
<path d="M305.2 89.0262C303.993 89.0262 301.81 88.8334 300.968 87.524C299.872 85.8391 304.449 80.6931 306.469 78.5717C306.516 78.5242 306.572 78.4864 306.634 78.4607C306.696 78.4349 306.762 78.4216 306.829 78.4216C306.896 78.4216 306.963 78.4349 307.025 78.4607C307.086 78.4864 307.143 78.5242 307.19 78.5717C307.237 78.6181 307.275 78.6733 307.3 78.7343C307.326 78.7953 307.339 78.8608 307.339 78.927C307.339 78.9932 307.326 79.0587 307.3 79.1197C307.275 79.1807 307.237 79.2359 307.19 79.2822C303.901 82.7535 301.384 86.3872 301.8 86.9962C302.47 88.0112 305.048 88.0823 305.86 88.0112C305.993 87.9999 306.125 88.0415 306.228 88.127C306.331 88.2126 306.395 88.3351 306.408 88.468C306.414 88.5347 306.406 88.6018 306.386 88.6655C306.365 88.7292 306.332 88.7882 306.289 88.8392C306.245 88.8901 306.192 88.932 306.133 88.9623C306.073 88.9927 306.008 89.011 305.941 89.0161C305.901 89.0059 305.596 89.0262 305.2 89.0262Z" fill="#231F20"/>
<path d="M316.768 80.6632C317.143 79.7323 316.911 78.7622 316.25 78.4965C315.59 78.2307 314.751 78.7698 314.376 79.7007C314.002 80.6316 314.233 81.6017 314.894 81.8674C315.554 82.1332 316.393 81.594 316.768 80.6632Z" fill="#231F20"/>
<path d="M303.396 78.4754C303.77 77.5446 303.538 76.5745 302.878 76.3087C302.217 76.0429 301.378 76.5821 301.004 77.513C300.629 78.4439 300.861 79.4139 301.521 79.6797C302.182 79.9455 303.021 79.4063 303.396 78.4754Z" fill="#231F20"/>
<path d="M305.941 97.5929C305.421 97.592 304.903 97.5273 304.399 97.4001C297.375 95.705 297.537 87.5038 297.537 87.4226C297.545 87.2889 297.604 87.1634 297.703 87.0726C297.801 86.9817 297.931 86.9326 298.065 86.9354C298.131 86.9367 298.196 86.9512 298.257 86.9781C298.317 87.0049 298.372 87.0436 298.417 87.0918C298.463 87.14 298.498 87.1968 298.521 87.2588C298.544 87.3209 298.555 87.3869 298.552 87.4531C298.552 87.7576 298.42 94.9133 304.642 96.4155C310.864 97.9177 313.939 88.0824 313.97 87.9809C313.985 87.9122 314.015 87.8475 314.056 87.7908C314.098 87.7341 314.151 87.6866 314.212 87.6515C314.273 87.6164 314.34 87.5943 314.41 87.5867C314.48 87.5791 314.551 87.5861 314.618 87.6073C314.685 87.6284 314.747 87.6633 314.8 87.7097C314.853 87.7562 314.896 87.813 314.925 87.8768C314.955 87.9406 314.971 88.0098 314.973 88.0802C314.974 88.1505 314.961 88.2204 314.934 88.2854C314.802 88.6914 311.95 97.5929 305.941 97.5929Z" fill="#231F20"/>
<path d="M84.0927 121.029L122.033 163.548L175.118 182.112L168.338 196.139C168.338 196.139 133.878 190.932 120.308 189.41C106.737 187.887 89.5839 167.506 89.5839 167.506L84.0927 121.029Z" fill="white"/>
<path d="M168.338 196.637H168.267C167.922 196.637 133.655 191.419 120.247 189.907C106.636 188.374 89.8986 168.673 89.1982 167.831C89.13 167.758 89.0872 167.666 89.0764 167.567L83.5853 121.029C83.5765 120.923 83.5999 120.817 83.6525 120.725C83.705 120.632 83.7841 120.558 83.8796 120.512C83.9779 120.466 84.088 120.454 84.1939 120.476C84.2998 120.498 84.396 120.553 84.4683 120.633L122.328 163.05L175.291 181.574C175.357 181.598 175.417 181.636 175.468 181.685C175.518 181.734 175.558 181.793 175.585 181.858C175.615 181.923 175.63 181.994 175.63 182.066C175.63 182.138 175.615 182.209 175.585 182.274L168.795 196.342C168.755 196.43 168.691 196.505 168.61 196.557C168.529 196.609 168.434 196.637 168.338 196.637ZM90.0711 167.283C91.482 168.927 107.671 187.461 120.359 188.892C133.046 190.323 164.278 194.982 168.064 195.571L174.438 182.376L121.891 163.994C121.809 163.966 121.736 163.917 121.678 163.852L84.783 122.552L90.0711 167.283Z" fill="#231F20"/>
<path d="M102.515 99.9477C101.987 96.3851 100.556 93.0254 99.47 89.6049C96.7295 81.3123 96.3337 72.7559 93.4612 64.4938C89.7768 53.8667 82.7022 46.1324 70.3294 46.5689C67.838 46.5705 65.4029 47.3098 63.331 48.6934C61.2592 50.0771 59.6434 52.0431 58.6873 54.3438C52.8308 51.1161 45.0254 57.6831 44.7514 63.6919C44.3454 72.5529 44.9138 80.1146 41.0568 88.5087C38.1336 94.8829 33.6067 100.851 33.2311 107.855C32.8556 114.858 36.8242 121.405 42.5082 125.272C48.1922 129.139 55.3581 130.428 62.2094 129.921C69.0606 129.413 75.6886 127.221 82.0526 124.602C85.1845 123.391 88.1898 121.874 91.0252 120.075C97.4908 115.751 103.753 108.19 102.515 99.9477Z" fill="white"/>
<path d="M59.3877 130.53C53.3115 130.665 47.3338 128.979 42.224 125.688C36.134 121.516 32.3582 114.523 32.7236 107.834C32.9977 102.668 35.4946 98.0293 37.9103 93.543C38.8339 91.8277 39.788 90.0616 40.6 88.2955C43.7262 81.4442 43.8988 75.3542 44.0916 68.2492C44.0916 66.7572 44.1728 65.2042 44.2439 63.6716C44.4063 60.18 47.0148 56.3433 50.6079 54.3336C51.7649 53.5978 53.0826 53.1526 54.4487 53.036C55.8148 52.9193 57.1889 53.1347 58.4539 53.6637C59.4945 51.4014 61.161 49.4843 63.2564 48.1389C65.3518 46.7936 67.7885 46.0762 70.2786 46.0715C81.4436 45.7061 89.6245 51.9889 93.918 64.3415C95.2721 68.5745 96.3202 72.8994 97.0543 77.2827C97.7444 81.4012 98.7039 85.4699 99.9268 89.4627C100.211 90.3052 100.505 91.1578 100.81 92.0002C101.803 94.5555 102.551 97.1997 103.043 99.8969C104.301 108.474 97.8054 116.137 91.2993 120.512C88.4316 122.337 85.3883 123.87 82.215 125.089C76.866 127.292 69.7711 129.89 62.2195 130.448C61.2857 130.499 60.3316 130.53 59.3877 130.53ZM55.3277 53.9986C53.8365 54.0313 52.3789 54.4472 51.0951 55.2065C47.7964 57.0538 45.3908 60.5555 45.2487 63.7122C45.1777 65.2651 45.1371 66.7572 45.0965 68.2695C44.9036 75.1817 44.7311 81.698 41.5135 88.7218C40.6914 90.5082 39.7271 92.2946 38.7933 94.0201C36.4385 98.4049 33.9924 102.952 33.7183 107.885C33.3834 114.219 36.9359 120.877 42.7823 124.856C47.9182 128.337 54.7897 129.931 62.1586 129.413C69.5275 128.895 76.5716 126.307 81.8496 124.135C84.951 122.937 87.9259 121.434 90.7309 119.649C96.9731 115.477 103.226 108.129 102.028 100.019C101.541 97.3874 100.807 94.808 99.8354 92.3149C99.5411 91.4724 99.2366 90.6198 98.9524 89.7571C97.7156 85.7309 96.7425 81.6283 96.0393 77.4756C95.3406 73.1368 94.3228 68.8554 92.9943 64.6663C88.7719 52.6081 81.2 46.6906 70.3192 47.0763C67.9278 47.0825 65.5916 47.7961 63.6048 49.1272C61.6181 50.4583 60.0695 52.3475 59.1542 54.5569C59.1253 54.6183 59.0844 54.6733 59.0338 54.7187C58.9832 54.764 58.9241 54.7987 58.8599 54.8208C58.7964 54.8506 58.727 54.8661 58.6569 54.8661C58.5867 54.8661 58.5174 54.8506 58.4539 54.8208C57.4986 54.2993 56.4261 54.0303 55.3378 54.0392L55.3277 53.9986Z" fill="#231F20"/>
<path d="M102.708 127.403C102.282 125.719 101.825 124.054 101.317 122.399C99.9775 117.964 98.3839 111.529 95.2273 108.007C90.0812 102.302 78.5001 102.12 71.4662 102.079C60.5752 102.018 49.4406 104.576 40.5391 110.839C26.8366 120.481 24.2991 134.478 25.8723 150.089C27.679 167.547 29.9323 184.964 32.3785 202.351C32.6221 204.137 35.5555 230.7 36.875 230.71C36.9663 230.71 127.21 230.781 124.327 232.913C120.267 218.814 117.222 204.493 113.954 190.283C113.264 187.238 112.036 184.477 111.285 181.513C110.199 177.23 110.696 172.53 110.27 168.146C109.387 157.996 107.225 148.008 105.113 138.061C104.372 134.488 103.601 130.925 102.708 127.403Z" fill="#ED1E79"/>
<path d="M128.286 253.649L117.943 208.258L34.4085 215.14L33.3427 253.649H128.286Z" fill="#231F20"/>
<path d="M128.286 254.157H33.3428C33.2056 254.156 33.0742 254.102 32.9774 254.004C32.8848 253.905 32.834 253.774 32.8353 253.639L33.8503 215.13C33.8546 215.004 33.9043 214.885 33.9902 214.793C34.0761 214.702 34.1923 214.645 34.3172 214.633L117.852 207.751C117.973 207.747 118.092 207.783 118.19 207.855C118.287 207.927 118.358 208.03 118.39 208.147L128.732 253.537C128.747 253.612 128.746 253.688 128.728 253.762C128.711 253.835 128.677 253.904 128.631 253.964C128.546 254.071 128.422 254.141 128.286 254.157ZM33.8909 253.142H127.667L117.517 208.806L34.8754 215.607L33.8909 253.142Z" fill="#231F20"/>
<path d="M78.7335 140.314C79.0118 140.428 79.3065 140.497 79.6064 140.517C81.5045 140.659 82.9965 138.893 83.7781 137.158C85.5239 133.29 85.5239 128.885 85.2194 124.663C85.1612 122.169 84.6272 119.709 83.6461 117.416C82.7129 115.636 81.4605 114.043 79.9515 112.716C77.2415 110.209 73.9529 108.108 70.2887 107.641C66.6246 107.174 61.2654 109.164 60.1387 113.183C58.9613 117.527 63.5288 121.902 65.7415 125.099C68.9357 129.72 72.428 134.128 76.196 138.294C76.8766 139.152 77.7446 139.843 78.7335 140.314Z" fill="#231F20"/>
<path d="M79.8298 141.025H79.5659C79.2189 140.991 78.8778 140.912 78.5509 140.791C77.4971 140.292 76.5704 139.56 75.8408 138.65C72.0652 134.479 68.5597 130.072 65.3457 125.455C64.9194 124.836 64.3916 124.156 63.8232 123.425C61.5293 120.491 58.667 116.827 59.682 113.112C60.8087 108.951 66.107 106.687 70.3497 107.195C73.6687 107.581 77.0182 109.326 80.2967 112.371C81.856 113.734 83.1469 115.376 84.1029 117.213C85.1101 119.568 85.6612 122.093 85.7269 124.653C86.0213 128.713 86.072 133.331 84.2349 137.381C83.839 138.284 82.3774 141.025 79.8298 141.025ZM78.9163 139.827C79.1493 139.923 79.3959 139.981 79.6471 140C81.2406 140.142 82.6109 138.498 83.3112 136.955C85.0469 133.108 84.9961 128.611 84.7119 124.714C84.6536 122.271 84.1372 119.861 83.1894 117.609C82.2893 115.883 81.074 114.341 79.6065 113.062C76.4904 110.169 73.3338 108.514 70.2279 108.149C66.4825 107.713 61.6308 109.722 60.6564 113.326C59.7835 116.553 62.4631 119.994 64.6251 122.745C65.1935 123.476 65.7314 124.166 66.1882 124.775C69.3708 129.371 72.8495 133.755 76.6021 137.899C77.2136 138.712 78.0059 139.372 78.9163 139.827Z" fill="#231F20"/>
<path d="M265.25 59.429H122.561V211.76H265.25V59.429Z" fill="white"/>
<path d="M265.24 212.257H122.561C122.427 212.257 122.298 212.204 122.202 212.109C122.107 212.014 122.054 211.885 122.054 211.75V59.4289C122.054 59.2943 122.107 59.1652 122.202 59.07C122.298 58.9749 122.427 58.9214 122.561 58.9214H265.24C265.374 58.9214 265.503 58.9749 265.599 59.07C265.694 59.1652 265.747 59.2943 265.747 59.4289V211.75C265.747 211.885 265.694 212.014 265.599 212.109C265.503 212.204 265.374 212.257 265.24 212.257ZM123.069 211.242H264.732V59.9364H123.069V211.242Z" fill="#231F20"/>
<path d="M256.024 71.1421H131.767V182.965H256.024V71.1421Z" fill="white"/>
<path d="M256.034 183.472H131.767C131.633 183.472 131.504 183.419 131.408 183.323C131.313 183.228 131.26 183.099 131.26 182.965V71.142C131.26 71.0074 131.313 70.8783 131.408 70.7832C131.504 70.688 131.633 70.6345 131.767 70.6345H256.034C256.168 70.6345 256.297 70.688 256.393 70.7832C256.488 70.8783 256.541 71.0074 256.541 71.142V182.944C256.544 183.013 256.533 183.081 256.509 183.145C256.484 183.209 256.447 183.267 256.4 183.316C256.353 183.366 256.296 183.405 256.233 183.432C256.17 183.458 256.102 183.472 256.034 183.472ZM132.275 182.457H255.526V71.6495H132.275V182.457Z" fill="#D1D3D4"/>
<path d="M242.128 110.199C240.342 112.168 238.637 114.259 236.769 116.096C231.887 121.07 226.934 125.972 222.011 130.905C221.838 131.078 221.706 131.311 221.503 131.402C220.62 131.788 219.473 132.641 218.885 132.346C218.487 132.038 218.161 131.647 217.929 131.2C217.698 130.753 217.567 130.261 217.545 129.758C217.403 125.952 217.494 122.146 217.494 118.076C215.891 118.076 214.378 118.015 212.866 118.076C207.151 118.35 201.65 119.486 196.677 122.46C193.656 124.136 191.124 126.571 189.332 129.524C187.539 132.477 186.548 135.846 186.456 139.299C186.508 141.192 186.812 143.069 187.359 144.882C187.572 145.836 188.11 146.912 186.912 147.287C186.469 147.289 186.032 147.178 185.644 146.965C185.255 146.752 184.927 146.444 184.689 146.069C183.145 143.002 181.907 139.789 180.995 136.477C177.574 121.009 186.07 106.829 201.427 101.967C205.853 100.552 210.472 99.8298 215.119 99.8258H217.484C217.484 96.8519 217.484 94.02 217.484 91.1882C217.454 89.8294 217.546 88.4706 217.758 87.1282C218.063 85.5854 219.037 85.22 220.407 85.9812C220.961 86.3286 221.467 86.7485 221.909 87.2297C228.101 93.4212 234.286 99.6228 240.464 105.835C241.072 106.546 241.625 107.303 242.118 108.098L242.128 110.199Z" fill="#ED1E79"/>
<path d="M164.856 165.994C161.381 165.332 158.219 163.549 155.853 160.919C153.584 158.298 152.341 154.945 152.352 151.479C152.352 138.01 152.27 124.551 152.352 111.082C152.342 109.186 152.709 107.307 153.43 105.553C154.152 103.8 155.214 102.206 156.556 100.866C157.897 99.5257 159.491 98.4646 161.245 97.7442C162.999 97.0238 164.878 96.6585 166.775 96.6692C169.282 96.6083 171.779 96.6083 174.286 96.6692C176.316 96.6692 177.595 97.8771 177.574 99.6432C177.554 101.409 176.306 102.414 174.326 102.434C171.88 102.434 169.444 102.434 166.998 102.434C165.833 102.397 164.672 102.597 163.586 103.021C162.5 103.445 161.511 104.084 160.679 104.901C159.847 105.718 159.189 106.695 158.745 107.773C158.301 108.851 158.081 110.008 158.096 111.174C158.056 124.707 158.056 138.24 158.096 151.774C158.096 152.91 158.322 154.035 158.76 155.083C159.197 156.132 159.839 157.083 160.647 157.882C161.455 158.68 162.414 159.311 163.468 159.736C164.521 160.162 165.649 160.374 166.785 160.36C180.132 160.36 203.142 160.36 216.52 160.36C217.7 160.413 218.879 160.221 219.982 159.797C221.085 159.372 222.088 158.725 222.93 157.895C223.771 157.065 224.432 156.071 224.871 154.974C225.31 153.877 225.518 152.701 225.482 151.52C225.553 147.287 225.482 143.055 225.482 138.822C225.482 136.792 226.355 135.716 228.01 135.493C229.39 135.3 231.055 136.254 231.055 137.635C231.055 143.288 231.471 149.003 230.791 154.575C230.04 160.665 225.31 164.725 219.21 165.872C218.983 165.937 218.762 166.022 218.55 166.126L164.856 165.994Z" fill="#ED1E79"/>
<path d="M255.11 194.241H149.885C149.75 194.241 149.621 194.188 149.526 194.093C149.431 193.997 149.378 193.868 149.378 193.734C149.378 193.599 149.431 193.47 149.526 193.375C149.621 193.28 149.75 193.226 149.885 193.226H255.11C255.245 193.226 255.374 193.28 255.469 193.375C255.564 193.47 255.618 193.599 255.618 193.734C255.618 193.868 255.564 193.997 255.469 194.093C255.374 194.188 255.245 194.241 255.11 194.241Z" fill="#D1D3D4"/>
<path d="M228.954 202.148H149.885C149.75 202.148 149.621 202.095 149.526 201.999C149.431 201.904 149.378 201.775 149.378 201.641C149.378 201.506 149.431 201.377 149.526 201.282C149.621 201.187 149.75 201.133 149.885 201.133H228.954C229.088 201.133 229.217 201.187 229.312 201.282C229.408 201.377 229.461 201.506 229.461 201.641C229.458 201.774 229.404 201.902 229.31 201.997C229.215 202.091 229.087 202.145 228.954 202.148Z" fill="#D1D3D4"/>
<path d="M137.624 201.63C140.853 201.63 143.47 199.013 143.47 195.784C143.47 192.555 140.853 189.938 137.624 189.938C134.395 189.938 131.777 192.555 131.777 195.784C131.777 199.013 134.395 201.63 137.624 201.63Z" fill="white"/>
<path d="M137.624 202.148C136.365 202.15 135.133 201.778 134.085 201.08C133.037 200.382 132.22 199.389 131.737 198.226C131.254 197.064 131.126 195.784 131.371 194.549C131.615 193.313 132.22 192.179 133.11 191.288C134 190.396 135.134 189.789 136.368 189.543C137.603 189.297 138.883 189.422 140.047 189.903C141.21 190.385 142.205 191.2 142.904 192.247C143.604 193.294 143.978 194.525 143.978 195.784C143.978 197.47 143.309 199.087 142.117 200.28C140.926 201.474 139.31 202.145 137.624 202.148ZM137.624 190.445C136.565 190.443 135.529 190.755 134.648 191.342C133.767 191.929 133.08 192.765 132.674 193.742C132.268 194.72 132.161 195.797 132.367 196.835C132.573 197.874 133.083 198.828 133.831 199.576C134.58 200.325 135.534 200.835 136.573 201.041C137.611 201.247 138.688 201.14 139.665 200.734C140.643 200.328 141.479 199.641 142.065 198.76C142.652 197.878 142.965 196.843 142.963 195.784C142.96 194.369 142.397 193.012 141.396 192.012C140.395 191.011 139.039 190.448 137.624 190.445Z" fill="#D1D3D4"/>
<path d="M89.32 69.1425C89.32 69.1425 94.395 80.9672 92.9233 90.2951C92.5682 92.8956 91.4634 95.3363 89.7438 97.3191C88.0242 99.3019 85.7643 100.741 83.2402 101.46L84.2552 117.751C84.2552 117.751 84.8743 126.074 74.5822 125.455C71.6019 125.267 68.7184 124.324 66.2038 122.713C63.6892 121.102 61.6263 118.878 60.2098 116.249L57.1547 86.3975C57.1547 86.3975 68.3197 78.988 66.584 68.3C66.584 68.3 80.7636 74.0551 89.32 69.1425Z" fill="white"/>
<path d="M75.6987 126.013H74.6025C71.5367 125.803 68.5734 124.824 65.9866 123.165C63.3999 121.506 61.2734 119.221 59.8038 116.523C59.7763 116.469 59.7591 116.41 59.7531 116.35L56.6472 86.4482C56.6383 86.3559 56.6543 86.263 56.6936 86.1791C56.7329 86.0952 56.7939 86.0234 56.8705 85.9711C56.9821 85.9001 67.7107 78.6124 66.0867 68.3812C66.0711 68.2925 66.0799 68.2014 66.1121 68.1174C66.1443 68.0334 66.1986 67.9597 66.2694 67.9041C66.34 67.8483 66.4243 67.8123 66.5135 67.7998C66.6027 67.7873 66.6936 67.7988 66.7769 67.8331C66.9088 67.8331 80.8245 73.4359 89.046 68.6958C89.1118 68.6682 89.1826 68.6539 89.254 68.6539C89.3255 68.6539 89.3962 68.6682 89.4621 68.6958C89.5304 68.7184 89.593 68.7554 89.6455 68.8045C89.6981 68.8536 89.7394 68.9134 89.7666 68.98C89.9798 69.4672 94.9431 81.0484 93.4206 90.4168C93.0511 93.0418 91.9511 95.51 90.2461 97.5399C88.5412 99.5697 86.2999 101.079 83.7781 101.896L84.7931 117.781C84.837 118.849 84.6694 119.916 84.3002 120.919C83.9309 121.922 83.3672 122.843 82.6413 123.628C81.0579 125.201 78.7234 126.013 75.6987 126.013ZM60.7579 116.127C62.1502 118.647 64.1531 120.777 66.5826 122.321C69.0122 123.866 71.7908 124.776 74.6634 124.967C77.9216 125.16 80.3677 124.46 81.9207 122.877C83.1848 121.495 83.8587 119.673 83.7984 117.802L82.7834 101.562C82.7757 101.441 82.8113 101.321 82.8839 101.225C82.9564 101.128 83.0612 101.06 83.1793 101.034C85.613 100.342 87.7908 98.953 89.4432 97.0372C91.0956 95.1214 92.1503 92.7633 92.4767 90.2544C93.7657 82.2664 90.0407 72.2585 89.0967 69.8935C81.5248 73.8216 70.3395 70.2488 67.2438 69.112C68.1877 78.6327 59.3674 85.5042 57.7434 86.6816L60.7579 116.127Z" fill="#231F20"/>
<path d="M62.656 83.921C62.656 83.921 56.84 72.9387 51.6838 80.4294C46.5276 87.9201 55.2566 95.2078 60.2403 94.2029" fill="white"/>
<path d="M59.2456 94.8219C56.3934 94.8219 52.983 92.7919 51.1256 89.9195C50.1189 88.4815 49.595 86.7609 49.6297 85.0059C49.6644 83.2509 50.2557 81.5523 51.3184 80.1552C52.6887 78.1252 54.2518 77.2117 55.9671 77.3233C59.8952 77.5568 63.0721 83.4133 63.1533 83.6874C63.1974 83.8035 63.1974 83.9317 63.1533 84.0478C63.1092 84.1639 63.0241 84.2598 62.914 84.3174C62.8039 84.3749 62.6766 84.3901 62.5561 84.36C62.4356 84.3299 62.3303 84.2567 62.2601 84.1543C62.2601 84.1543 59.2151 78.5413 55.825 78.3383C54.4717 78.2571 53.2232 79.0556 52.0797 80.7337C51.1403 81.9675 50.6166 83.4674 50.5838 85.0177C50.5509 86.568 51.0107 88.0888 51.897 89.3612C53.8153 92.2844 57.5099 94.2434 60.1185 93.7156C60.2515 93.6916 60.3887 93.7207 60.5006 93.7966C60.6125 93.8724 60.6903 93.9891 60.7173 94.1216C60.7306 94.1863 60.7308 94.2529 60.718 94.3177C60.7052 94.3825 60.6797 94.4441 60.6428 94.4989C60.606 94.5537 60.5586 94.6006 60.5034 94.6369C60.4482 94.6732 60.3864 94.6981 60.3215 94.7103C59.9673 94.7823 59.607 94.8197 59.2456 94.8219Z" fill="#231F20"/>
<path d="M85.057 90.224C84.2294 90.2232 83.4036 90.145 82.5906 89.9905C82.525 89.9797 82.4623 89.9556 82.4064 89.9197C82.3505 89.8838 82.3026 89.8368 82.2655 89.7817C82.2284 89.7265 82.203 89.6644 82.1908 89.5991C82.1787 89.5338 82.18 89.4666 82.1947 89.4018C82.2069 89.3356 82.2321 89.2725 82.2689 89.2161C82.3057 89.1597 82.3533 89.1112 82.4091 89.0734C82.4648 89.0356 82.5275 89.0093 82.5935 88.996C82.6595 88.9827 82.7275 88.9826 82.7936 88.9958C82.7936 88.9958 86.0822 89.6353 87.6351 88.6913C87.8584 87.4226 84.7322 83.1697 82.4586 80.5713C82.4145 80.5217 82.3807 80.4638 82.3594 80.4009C82.338 80.3381 82.3294 80.2716 82.3342 80.2054C82.3389 80.1392 82.3568 80.0746 82.3869 80.0154C82.417 79.9562 82.4586 79.9037 82.5094 79.8608C82.6059 79.7672 82.7352 79.7148 82.8697 79.7148C83.0042 79.7148 83.1334 79.7672 83.23 79.8608C84.245 80.9773 89.0054 86.6816 88.6704 88.7725C88.6473 88.9343 88.589 89.0891 88.4996 89.2259C88.4101 89.3627 88.2917 89.4782 88.1528 89.5642C87.1954 90.0487 86.1287 90.276 85.057 90.224Z" fill="#231F20"/>
<path d="M83.23 101.48C83.23 101.48 74.6025 103.145 69.5275 102.201C69.5275 102.201 75.8103 114.665 84.0826 114.056L83.23 101.48Z" fill="#231F20"/>
<path d="M83.4939 114.594C75.313 114.594 69.2839 102.932 69.0809 102.414C69.0293 102.334 69.0019 102.241 69.0019 102.145C69.0019 102.05 69.0293 101.956 69.0809 101.876C69.149 101.802 69.2374 101.751 69.3349 101.727C69.4325 101.704 69.5348 101.71 69.629 101.744C74.5517 102.668 83.0574 101.054 83.1488 101.034C83.2198 101.023 83.2923 101.026 83.3621 101.043C83.4318 101.061 83.4973 101.092 83.5548 101.135C83.6099 101.18 83.6553 101.236 83.6885 101.298C83.7216 101.361 83.7417 101.43 83.7476 101.501L84.6002 114.077C84.6086 114.21 84.5644 114.34 84.477 114.441C84.3897 114.542 84.2662 114.604 84.1333 114.614C83.9236 114.601 83.7104 114.594 83.4939 114.594ZM70.4714 102.851C72.065 105.561 77.14 113.579 83.504 113.579L82.7225 102.089C80.9056 102.414 74.8664 103.368 70.4714 102.851Z" fill="#231F20"/>
<path d="M77.8114 80.8647C78.5127 80.7805 78.9614 79.7151 78.8136 78.4851C78.6659 77.255 77.9776 76.3262 77.2763 76.4105C76.575 76.4947 76.1263 77.5601 76.2741 78.7901C76.4218 80.0201 77.1101 80.949 77.8114 80.8647Z" fill="#231F20"/>
<path d="M88.9399 80.4631C89.6411 80.3789 90.0899 79.3135 89.9421 78.0834C89.7943 76.8534 89.1061 75.9246 88.4048 76.0088C87.7035 76.0931 87.2548 77.1585 87.4026 78.3885C87.5503 79.6185 88.2386 80.5474 88.9399 80.4631Z" fill="#231F20"/>
<path d="M79.9211 95.1061C79.1825 95.1008 78.4532 94.9418 77.7794 94.6392C75.3028 93.5633 73.7195 90.5792 73.0597 85.697C73.0409 85.5624 73.0763 85.4259 73.1581 85.3174C73.24 85.2089 73.3616 85.1373 73.4962 85.1185C73.6307 85.0996 73.7673 85.135 73.8758 85.2169C73.9843 85.2987 74.0559 85.4203 74.0747 85.5549C74.6837 90.0311 76.1047 92.7716 78.1956 93.6749C80.7635 94.8117 83.6563 92.8325 83.6867 92.8122C83.7412 92.77 83.8036 92.7393 83.8703 92.722C83.9369 92.7047 84.0064 92.7012 84.0745 92.7116C84.1426 92.722 84.2078 92.7462 84.2662 92.7827C84.3247 92.8191 84.3751 92.8671 84.4144 92.9236C84.4537 92.9802 84.4811 93.0441 84.4949 93.1116C84.5087 93.179 84.5086 93.2486 84.4947 93.3161C84.4807 93.3835 84.4532 93.4474 84.4137 93.5038C84.3743 93.5603 84.3238 93.6082 84.2653 93.6445C82.9801 94.5238 81.4764 95.0297 79.9211 95.1061Z" fill="#231F20"/>
<path d="M216.286 212.278C216.118 211.154 216.01 210.023 215.962 208.888C215.885 206.529 216.253 204.177 217.048 201.955C217.29 200.966 217.833 200.077 218.601 199.408C218.997 199.096 219.495 198.944 219.998 198.979C220.501 199.015 220.972 199.236 221.321 199.6C221.516 200.003 221.626 200.442 221.644 200.889C221.661 201.336 221.586 201.782 221.422 202.199C220.893 204.556 220.773 206.987 221.067 209.385C221.453 206.157 221.879 202.808 223.635 200.088C224 199.451 224.52 198.917 225.147 198.535C225.462 198.347 225.821 198.248 226.188 198.248C226.554 198.248 226.913 198.347 227.228 198.535C228.131 199.194 228.06 200.565 227.949 201.641C227.663 204.481 227.707 207.346 228.081 210.177C227.878 207.687 228.059 205.181 228.619 202.747C228.984 201.153 229.705 199.397 231.258 198.89C231.584 198.776 231.935 198.755 232.273 198.829C232.621 198.947 232.93 199.158 233.168 199.439C233.406 199.72 233.563 200.06 233.623 200.423C233.739 201.149 233.739 201.889 233.623 202.615C233.33 205.473 233.418 208.357 233.886 211.192C233.521 208.706 233.614 206.174 234.161 203.721C234.304 202.739 234.695 201.81 235.297 201.021C235.604 200.63 236.025 200.345 236.502 200.205C236.979 200.065 237.487 200.077 237.957 200.24C238.295 200.42 238.588 200.675 238.812 200.987C239.035 201.299 239.184 201.658 239.246 202.036C239.364 202.795 239.392 203.565 239.327 204.33C239.257 207.224 239.793 210.101 240.9 212.775C241.814 214.998 243.001 217.464 242.788 219.951C242.601 221.245 242.066 222.464 241.24 223.478C240.414 224.492 239.328 225.262 238.099 225.706C235.622 226.563 232.952 226.69 230.405 226.072C222.011 224.407 215.079 220.408 212.135 212.379" fill="white"/>
<path d="M233.957 227.005C232.74 226.999 231.527 226.873 230.334 226.63C220.671 224.711 214.388 219.992 211.648 212.602C211.599 212.468 211.606 212.32 211.667 212.19C211.728 212.061 211.838 211.961 211.973 211.912C212.107 211.864 212.256 211.871 212.385 211.932C212.514 211.993 212.614 212.102 212.663 212.237C215.261 219.261 221.29 223.757 230.567 225.594C233.014 226.2 235.584 226.083 237.967 225.26C239.104 224.85 240.109 224.14 240.876 223.206C241.642 222.271 242.142 221.146 242.321 219.951C242.504 217.85 241.621 215.749 240.768 213.729L240.474 213.008C239.345 210.265 238.795 207.317 238.86 204.351V203.995C238.913 203.392 238.889 202.785 238.789 202.189C238.738 201.889 238.62 201.605 238.444 201.358C238.268 201.11 238.039 200.905 237.774 200.757C237.41 200.65 237.023 200.654 236.661 200.768C236.3 200.882 235.98 201.101 235.744 201.397C235.202 202.124 234.853 202.976 234.729 203.873C234.187 206.261 234.094 208.729 234.455 211.151C234.475 211.288 234.441 211.428 234.359 211.54C234.278 211.652 234.155 211.727 234.018 211.75C233.893 211.766 233.766 211.736 233.661 211.665C233.556 211.594 233.481 211.487 233.45 211.364C232.972 208.483 232.883 205.55 233.186 202.645V202.473C233.283 201.857 233.283 201.231 233.186 200.615C233.142 200.342 233.024 200.087 232.845 199.876C232.666 199.665 232.433 199.506 232.171 199.418C231.917 199.365 231.654 199.383 231.41 199.468C230.344 199.813 229.573 200.991 229.116 202.94C228.569 205.321 228.394 207.772 228.598 210.207C228.581 210.323 228.526 210.429 228.442 210.51C228.358 210.591 228.25 210.642 228.134 210.655C228.018 210.667 227.901 210.641 227.801 210.581C227.702 210.52 227.625 210.428 227.583 210.319C227.204 207.448 227.16 204.542 227.451 201.661C227.553 200.646 227.604 199.529 226.944 199.042C226.713 198.905 226.45 198.833 226.183 198.833C225.915 198.833 225.652 198.905 225.421 199.042C224.87 199.375 224.412 199.843 224.092 200.402C222.366 203.082 221.97 206.492 221.615 209.537C221.598 209.663 221.536 209.778 221.441 209.862C221.346 209.946 221.224 209.993 221.097 209.994C220.971 209.993 220.849 209.946 220.754 209.862C220.659 209.778 220.597 209.663 220.58 209.537C220.276 207.082 220.396 204.593 220.935 202.178C221.08 201.835 221.155 201.465 221.155 201.092C221.155 200.719 221.08 200.35 220.935 200.006C220.852 199.894 220.748 199.8 220.627 199.731C220.507 199.661 220.373 199.616 220.235 199.6C219.784 199.534 219.325 199.647 218.956 199.915C218.276 200.522 217.797 201.322 217.586 202.209C216.802 204.363 216.441 206.648 216.52 208.938C216.52 209.294 216.571 209.608 216.591 209.903C216.626 210.702 216.711 211.499 216.845 212.288C216.838 212.407 216.791 212.521 216.711 212.611C216.632 212.7 216.524 212.76 216.406 212.78C216.288 212.8 216.167 212.779 216.062 212.721C215.957 212.663 215.875 212.571 215.83 212.46C215.691 211.638 215.603 210.807 215.566 209.974C215.566 209.679 215.566 209.365 215.495 209.02C215.41 206.602 215.789 204.19 216.611 201.915C216.886 200.821 217.492 199.839 218.347 199.103C218.934 198.682 219.66 198.5 220.377 198.595C220.651 198.634 220.916 198.726 221.154 198.868C221.393 199.009 221.601 199.196 221.767 199.418C222.016 199.882 222.162 200.394 222.196 200.919C222.229 201.445 222.149 201.971 221.96 202.463C221.956 202.517 221.956 202.571 221.96 202.625C222.288 201.693 222.721 200.801 223.249 199.966C223.666 199.254 224.256 198.661 224.965 198.24C225.366 198.005 225.825 197.887 226.289 197.9C226.754 197.912 227.206 198.055 227.593 198.311C228.608 199.083 228.608 200.504 228.608 201.488C228.788 200.839 229.115 200.241 229.564 199.739C230.013 199.237 230.572 198.846 231.197 198.595C231.627 198.442 232.092 198.418 232.536 198.524C232.987 198.667 233.389 198.933 233.698 199.292C234.006 199.65 234.208 200.087 234.282 200.554C234.375 201.019 234.402 201.494 234.363 201.965C234.539 201.598 234.765 201.256 235.033 200.95C235.411 200.471 235.931 200.124 236.518 199.959C237.106 199.795 237.731 199.822 238.302 200.037C238.713 200.253 239.07 200.56 239.344 200.934C239.618 201.309 239.804 201.741 239.885 202.199C240.005 202.868 240.042 203.55 239.997 204.229V204.584C239.941 207.404 240.463 210.205 241.529 212.816L241.824 213.526C242.686 215.556 243.661 217.88 243.458 220.245C243.27 221.638 242.703 222.952 241.819 224.044C240.934 225.136 239.767 225.964 238.444 226.437C237 226.918 235.476 227.111 233.957 227.005Z" fill="#231F20"/>
<path d="M322.476 155.6L320.933 178.884C320.933 178.884 273.228 141.329 265.24 139.715V146.282C265.24 146.282 251.974 144.658 250.918 147.297C249.863 149.936 251.659 159.965 255.11 161.995C257.14 163.223 274.283 163.324 274.283 163.324C274.283 163.324 276.709 169.272 300.359 191.064C324.008 212.856 346.257 224.508 347.648 204.097C349.038 183.685 350.804 149.287 350.804 149.287" fill="white"/>
<path d="M338.898 215.17C330.504 215.17 316.68 206.787 300.004 191.419C279.206 172.246 274.771 165.314 273.959 163.822C271.127 163.822 256.876 163.619 254.846 162.421C251.05 160.178 249.294 149.906 250.431 147.074C251.568 144.242 261.515 145.288 264.722 145.643V139.665C264.723 139.587 264.741 139.511 264.774 139.441C264.807 139.37 264.855 139.308 264.915 139.259C264.976 139.211 265.046 139.176 265.121 139.157C265.197 139.138 265.275 139.134 265.351 139.147C272.893 140.669 314.071 172.764 320.476 177.808L321.948 155.539C321.932 155.46 321.934 155.377 321.955 155.299C321.976 155.22 322.015 155.147 322.069 155.086C322.122 155.025 322.189 154.977 322.264 154.946C322.34 154.915 322.421 154.902 322.502 154.908C322.583 154.914 322.662 154.938 322.732 154.979C322.802 155.02 322.862 155.077 322.906 155.145C322.951 155.213 322.979 155.29 322.989 155.371C322.999 155.452 322.99 155.534 322.963 155.61L321.461 178.884C321.456 178.979 321.423 179.071 321.367 179.149C321.312 179.226 321.235 179.286 321.146 179.321C321.059 179.361 320.963 179.377 320.868 179.366C320.773 179.355 320.683 179.319 320.608 179.26C320.151 178.894 275.156 143.522 265.798 140.365V146.242C265.799 146.316 265.784 146.39 265.754 146.458C265.724 146.526 265.681 146.588 265.626 146.638C265.57 146.689 265.504 146.727 265.432 146.75C265.36 146.772 265.284 146.779 265.209 146.77C259.87 146.11 252.014 145.897 251.436 147.47C250.472 149.876 252.227 159.65 255.404 161.528C256.836 162.37 267.493 162.736 274.314 162.786C274.418 162.785 274.521 162.815 274.608 162.873C274.695 162.931 274.762 163.014 274.801 163.111C274.801 163.162 277.613 169.333 300.744 190.658C319.725 208.126 334.747 216.439 342.055 213.587C345.1 212.379 346.795 209.162 347.13 204.036C348.5 183.868 350.266 149.561 350.287 149.226C350.289 149.157 350.306 149.089 350.335 149.027C350.364 148.964 350.405 148.908 350.456 148.862C350.507 148.816 350.567 148.78 350.632 148.757C350.697 148.734 350.766 148.724 350.835 148.729C350.904 148.731 350.971 148.747 351.034 148.777C351.096 148.806 351.152 148.847 351.199 148.898C351.245 148.949 351.281 149.009 351.304 149.074C351.327 149.139 351.336 149.208 351.332 149.277C351.332 149.622 349.546 183.939 348.175 204.087C347.79 209.649 345.861 213.222 342.42 214.531C341.298 214.968 340.103 215.185 338.898 215.17Z" fill="#231F20"/>
<path d="M332.372 187.887C332.26 187.882 332.151 187.847 332.057 187.786L320.618 179.26C320.508 179.174 320.437 179.048 320.418 178.91C320.399 178.772 320.434 178.631 320.517 178.519C320.601 178.41 320.725 178.338 320.861 178.319C320.998 178.3 321.137 178.335 321.247 178.417L332.687 186.943C332.773 187.01 332.836 187.103 332.867 187.207C332.899 187.311 332.897 187.423 332.863 187.527C332.828 187.63 332.763 187.72 332.675 187.785C332.587 187.85 332.481 187.885 332.372 187.887Z" fill="#231F20"/>
<path d="M56.3731 136.802C56.3731 136.802 75.9423 173.139 76.4701 174.56C76.6528 175.037 116.796 153.54 118.268 150.606C117.786 147.313 118.109 143.952 119.212 140.812C119.861 139.096 121.059 138.883 122.48 137.675C122.297 139.819 122.257 141.972 122.358 144.121C125.052 141.273 127.964 138.639 131.067 136.244C131.39 135.903 131.793 135.648 132.24 135.502C132.687 135.357 133.163 135.326 133.625 135.412C134.046 135.624 134.398 135.951 134.64 136.356C138.801 142.212 135.33 149.246 132.346 154.727C126.723 165.04 118.298 171.444 109.346 178.651C103.384 183.416 97.1813 187.871 90.7613 191.998C85.7901 195.361 80.5043 198.233 74.9781 200.575C71.6692 201.894 67.1017 203.62 63.5898 201.976C50.8515 196.068 36.2457 165.882 32.2567 152.596" fill="white"/>
<path d="M66.9088 203.153C65.7062 203.171 64.5144 202.925 63.4172 202.432C56.2006 199.093 49.0042 188.557 44.2439 180.305C39.1584 171.575 34.9948 162.34 31.8203 152.748C31.798 152.626 31.8214 152.499 31.8861 152.393C31.9509 152.287 32.0524 152.208 32.1714 152.172C32.2904 152.135 32.4186 152.144 32.5316 152.196C32.6447 152.248 32.7347 152.34 32.7845 152.454C36.8445 166.116 51.562 195.825 63.8435 201.519C67.0306 202.99 71.1921 201.519 74.836 200.108C80.3256 197.774 85.5772 194.915 90.5177 191.572C96.9267 187.454 103.12 183.009 109.072 178.255L110.615 177.006C118.887 170.379 126.692 164.116 131.93 154.484C135.086 148.698 138.121 142.08 134.254 136.65C134.06 136.322 133.774 136.058 133.432 135.889C132.792 135.635 131.991 136.163 131.402 136.64C128.326 139.027 125.435 141.643 122.754 144.466C122.687 144.536 122.601 144.586 122.506 144.609C122.411 144.632 122.312 144.627 122.22 144.595C122.127 144.563 122.047 144.505 121.987 144.428C121.927 144.351 121.89 144.258 121.881 144.161C121.8 143.227 121.81 140.507 121.881 138.761L121.526 139.005C120.69 139.436 120.04 140.158 119.699 141.035C118.637 144.09 118.32 147.354 118.775 150.556C118.81 150.658 118.81 150.768 118.775 150.87C117.923 152.575 106.727 159.051 97.4603 164.177C92.1823 167.11 77.4547 175.119 76.4904 175.119C76.3892 175.111 76.292 175.076 76.2096 175.017C76.1271 174.958 76.0627 174.877 76.0235 174.784C75.6175 173.687 62.7169 149.642 55.957 137.087C55.8924 136.968 55.8775 136.829 55.9155 136.699C55.9536 136.57 56.0415 136.461 56.16 136.396C56.2784 136.332 56.4177 136.317 56.5471 136.355C56.6765 136.393 56.7856 136.481 56.8502 136.599C57.6114 138.02 74.6837 169.739 76.7746 173.992C81.2 172.226 115.568 153.327 117.74 150.464C117.282 147.145 117.63 143.765 118.755 140.609C119.178 139.548 119.961 138.671 120.968 138.132C121.387 137.865 121.79 137.574 122.176 137.259C122.254 137.191 122.352 137.148 122.455 137.137C122.559 137.127 122.663 137.148 122.754 137.198C122.843 137.25 122.915 137.326 122.96 137.418C123.005 137.511 123.022 137.614 123.008 137.716C122.855 139.43 122.797 141.151 122.835 142.872C125.314 140.323 127.966 137.949 130.773 135.767C131.605 135.128 132.711 134.437 133.818 134.864C134.346 135.108 134.794 135.499 135.107 135.99C139.654 142.385 135.391 150.2 132.843 154.9C127.504 164.705 119.648 171.028 111.264 177.727L109.711 178.976C103.74 183.756 97.523 188.221 91.0861 192.353C86.0881 195.733 80.7753 198.623 75.2217 200.981C72.6059 202.204 69.7888 202.94 66.9088 203.153Z" fill="#231F20"/>
<path d="M56.3731 137.269C56.2845 137.269 56.1976 137.245 56.1211 137.201C56.0445 137.156 55.9809 137.092 55.9366 137.016L46.1114 120.258C46.0428 120.141 46.0235 120.001 46.0577 119.87C46.092 119.739 46.177 119.626 46.2941 119.558C46.4112 119.489 46.5508 119.47 46.6822 119.504C46.8135 119.538 46.9258 119.623 46.9945 119.74L56.84 136.549C56.8743 136.606 56.8969 136.669 56.9063 136.735C56.9156 136.801 56.9117 136.868 56.8947 136.932C56.8776 136.997 56.8478 137.057 56.8071 137.11C56.7663 137.162 56.7154 137.206 56.6573 137.239C56.5683 137.279 56.4686 137.29 56.3731 137.269Z" fill="#231F20"/>
<path d="M322.476 156.128C322.407 156.122 322.341 156.102 322.281 156.07C322.221 156.038 322.167 155.994 322.124 155.941C322.08 155.888 322.048 155.827 322.028 155.762C322.008 155.696 322.002 155.628 322.009 155.56L324.171 132.001C324.186 131.865 324.254 131.74 324.36 131.653C324.466 131.565 324.602 131.523 324.739 131.535C324.809 131.538 324.877 131.556 324.939 131.587C325.001 131.618 325.056 131.662 325.101 131.715C325.146 131.768 325.179 131.83 325.199 131.897C325.219 131.964 325.225 132.034 325.216 132.103L323.044 155.651C323.039 155.72 323.02 155.787 322.989 155.849C322.957 155.91 322.914 155.965 322.861 156.009C322.808 156.054 322.746 156.087 322.68 156.108C322.614 156.128 322.544 156.135 322.476 156.128Z" fill="#231F20"/>
</svg>
