<svg width="406" height="307" viewBox="0 0 406 307" fill="none" xmlns="http://www.w3.org/2000/svg">
<path d="M42.7213 243.55H374.139V243.844C374.139 247.613 372.642 251.227 369.977 253.892C367.312 256.557 363.698 258.054 359.929 258.054H56.9313C53.1626 258.054 49.5482 256.557 46.8834 253.892C44.2185 251.227 42.7213 247.613 42.7213 243.844V243.58V243.55Z" fill="#231F20"/>
<path d="M359.919 258.47H56.9314C53.0493 258.468 49.3265 256.927 46.5777 254.186C43.8289 251.445 42.278 247.726 42.2646 243.844V243.58C42.2673 243.461 42.3165 243.347 42.4019 243.264C42.4873 243.18 42.602 243.134 42.7214 243.134H374.129C374.248 243.134 374.363 243.18 374.448 243.264C374.534 243.347 374.583 243.461 374.586 243.58V243.844C374.572 247.726 373.021 251.445 370.273 254.186C367.524 256.927 363.801 258.468 359.919 258.47ZM43.168 243.996C43.2186 247.614 44.6907 251.066 47.2661 253.608C49.8415 256.149 53.3133 257.575 56.9314 257.577H359.919C363.537 257.575 367.009 256.149 369.584 253.608C372.16 251.066 373.632 247.614 373.682 243.996H43.168Z" fill="#231F20"/>
<path d="M80.8955 51.8671H335.965C337.313 51.8697 338.648 52.1381 339.893 52.6569C341.137 53.1757 342.268 53.9347 343.219 54.8906C344.17 55.8464 344.923 56.9803 345.436 58.2275C345.949 59.4747 346.21 60.8107 346.206 62.1592V243.55H70.644V62.1592C70.64 60.8099 70.9021 59.4731 71.4154 58.2252C71.9287 56.9773 72.683 55.843 73.6352 54.887C74.5874 53.931 75.7188 53.1722 76.9646 52.654C78.2104 52.1358 79.5462 51.8684 80.8955 51.8671Z" fill="#231F20"/>
<path d="M346.206 243.996H70.644C70.585 243.998 70.5263 243.987 70.4715 243.965C70.4167 243.943 70.3669 243.91 70.3251 243.869C70.2834 243.827 70.2505 243.777 70.2286 243.722C70.2066 243.667 70.196 243.609 70.1974 243.55V62.1591C70.1947 60.7516 70.4693 59.3572 71.0055 58.0558C71.5417 56.7544 72.329 55.5713 73.3224 54.5741C74.3158 53.5769 75.4959 52.7852 76.7953 52.2441C78.0947 51.703 79.4879 51.4231 80.8955 51.4204H335.965C337.373 51.4231 338.766 51.703 340.065 52.2441C341.365 52.7852 342.545 53.5769 343.538 54.5741C344.532 55.5713 345.319 56.7544 345.855 58.0558C346.391 59.3572 346.666 60.7516 346.663 62.1591V243.55C346.663 243.609 346.651 243.668 346.628 243.723C346.605 243.778 346.571 243.828 346.529 243.869C346.486 243.911 346.436 243.943 346.38 243.965C346.325 243.987 346.266 243.998 346.206 243.996ZM71.1413 243.103H345.76V62.1591C345.765 59.5551 344.737 57.0554 342.9 55.2093C341.063 53.3632 338.569 52.3217 335.965 52.3136H80.8955C79.6018 52.3109 78.3203 52.5638 77.1246 53.0576C75.9289 53.5514 74.8425 54.2766 73.9277 55.1913C73.0129 56.1061 72.2878 57.1925 71.794 58.3882C71.3002 59.584 71.0473 60.8654 71.05 62.1591L71.1413 243.103Z" fill="#231F20"/>
<path d="M335.914 58.1904H80.9361V238.86H335.914V58.1904Z" fill="white"/>
<path d="M335.965 239.368H80.9361C80.8015 239.368 80.6724 239.315 80.5772 239.219C80.4821 239.124 80.4286 238.995 80.4286 238.86V58.1905C80.4286 58.0559 80.4821 57.9268 80.5772 57.8316C80.6724 57.7365 80.8015 57.683 80.9361 57.683H335.965C336.1 57.683 336.229 57.7365 336.324 57.8316C336.419 57.9268 336.473 58.0559 336.473 58.1905V238.86C336.473 238.995 336.419 239.124 336.324 239.219C336.229 239.315 336.1 239.368 335.965 239.368ZM81.4944 238.353H335.407V58.698H81.4436L81.4944 238.353Z" fill="#231F20"/>
<path d="M101.064 215.353H98.5159L99.9166 212.095L101.064 215.353Z" fill="#ED1E79"/>
<path d="M151.083 215.353H148.535L149.682 212.095L149.692 212.115L151.083 215.353Z" fill="#ED1E79"/>
<path d="M149.692 212.095L149.063 215.333H100.485C100.147 214.279 99.9694 213.181 99.9572 212.075C100.576 211.06 116.938 204.696 116.938 204.696L117.882 204.625L119.557 204.523C122.886 204.31 128.56 204.016 131.412 204.137C131.94 204.137 132.465 204.205 132.975 204.34C133.236 204.426 133.491 204.531 133.736 204.655C137.208 206.127 149.235 211.841 149.723 212.075L149.692 212.095Z" fill="#ED1E79"/>
<path d="M131.321 204.645H119.496V215.343H131.321V204.645Z" fill="#231F20"/>
<path d="M131.321 215.861H119.496C119.361 215.861 119.232 215.807 119.137 215.712C119.042 215.617 118.988 215.488 118.988 215.353V204.645C118.988 204.51 119.042 204.381 119.137 204.286C119.232 204.191 119.361 204.137 119.496 204.137H131.321C131.454 204.14 131.582 204.194 131.677 204.289C131.771 204.383 131.826 204.511 131.828 204.645V215.353C131.826 215.487 131.771 215.614 131.677 215.709C131.582 215.804 131.454 215.858 131.321 215.861ZM120.003 214.846H130.813V205.152H120.003V214.846Z" fill="#231F20"/>
<path d="M135.371 187.278C135.492 186.943 135.604 186.588 135.695 186.263C137.512 179.574 134.833 170.967 126.946 170.429C125.149 170.361 123.369 170.801 121.81 171.699C120.252 172.596 118.978 173.915 118.136 175.504C115.872 179.442 116.502 184.477 116.918 188.821C116.918 189.106 117.003 189.386 117.161 189.623C117.618 190.151 118.491 189.805 119.08 189.795C119.922 189.795 120.795 189.917 121.638 189.968C123.099 190.039 124.561 190.09 126.022 190.069C128.132 190.163 130.246 190.098 132.346 189.877C133.239 189.734 133.858 189.734 134.447 189.014C134.85 188.491 135.162 187.904 135.371 187.278Z" fill="white"/>
<path d="M129.169 190.546H127.89C127.281 190.546 126.662 190.546 126.053 190.546C124.754 190.546 123.343 190.546 121.627 190.445L120.612 190.364C120.105 190.364 119.597 190.272 119.08 190.272C118.93 190.281 118.781 190.298 118.633 190.323C118.39 190.437 118.122 190.486 117.854 190.465C117.586 190.445 117.328 190.356 117.105 190.207C116.882 190.058 116.7 189.855 116.579 189.615C116.457 189.376 116.399 189.109 116.41 188.841L116.349 188.242C115.933 183.969 115.456 179.107 117.699 175.22C118.59 173.553 119.933 172.171 121.575 171.234C123.216 170.297 125.088 169.842 126.977 169.922C128.438 169.99 129.864 170.391 131.146 171.095C132.429 171.799 133.533 172.786 134.376 173.982C135.537 175.8 136.299 177.844 136.61 179.979C136.922 182.114 136.776 184.29 136.183 186.365C136.092 186.734 135.977 187.097 135.837 187.451C135.607 188.114 135.264 188.732 134.822 189.278C134.564 189.584 134.245 189.832 133.885 190.007C133.525 190.182 133.132 190.279 132.732 190.293L132.417 190.343C131.341 190.496 130.255 190.564 129.169 190.546ZM126.591 189.531H127.89C129.351 189.594 130.815 189.53 132.265 189.339H132.589C132.864 189.345 133.137 189.292 133.389 189.184C133.641 189.075 133.867 188.913 134.051 188.709C134.411 188.242 134.695 187.722 134.893 187.167C135.015 186.842 135.117 186.497 135.208 186.152C135.761 184.221 135.899 182.195 135.612 180.208C135.325 178.22 134.62 176.316 133.544 174.621C132.793 173.544 131.805 172.653 130.656 172.018C129.507 171.383 128.227 171.02 126.916 170.957C125.214 170.885 123.527 171.296 122.05 172.144C120.574 172.992 119.368 174.242 118.572 175.748C116.542 179.371 116.958 184.04 117.364 188.161L117.425 188.76C117.425 188.943 117.466 189.124 117.547 189.288C117.689 189.45 118.024 189.41 118.491 189.288C118.682 189.254 118.876 189.234 119.07 189.227C119.608 189.227 120.166 189.278 120.704 189.318L121.658 189.4C123.353 189.481 124.703 189.521 126.022 189.501L126.591 189.531Z" fill="#231F20"/>
<path d="M119.922 188.09C119.506 184.761 114.035 183.756 114.177 187.664C114.17 189.022 114.645 190.338 115.517 191.379C115.956 191.893 116.538 192.264 117.189 192.445C117.84 192.626 118.53 192.608 119.171 192.394" fill="white"/>
<path d="M118.126 193.094C117.562 193.089 117.005 192.966 116.491 192.733C115.978 192.501 115.518 192.164 115.142 191.744C114.185 190.608 113.664 189.169 113.67 187.684C113.616 187.317 113.639 186.943 113.738 186.586C113.836 186.228 114.009 185.896 114.244 185.609C114.479 185.322 114.772 185.088 115.103 184.921C115.434 184.754 115.796 184.658 116.167 184.639C117.171 184.575 118.163 184.887 118.951 185.513C119.739 186.14 120.266 187.036 120.43 188.029C120.442 188.163 120.402 188.296 120.319 188.402C120.236 188.508 120.116 188.578 119.983 188.598C119.916 188.606 119.849 188.601 119.784 188.583C119.719 188.565 119.658 188.535 119.606 188.493C119.553 188.452 119.509 188.4 119.476 188.341C119.443 188.283 119.422 188.218 119.415 188.151C119.282 187.42 118.887 186.763 118.304 186.303C117.721 185.843 116.99 185.613 116.248 185.654C115.639 185.705 114.624 186.03 114.685 187.684C114.679 188.921 115.106 190.12 115.893 191.074C116.262 191.497 116.747 191.804 117.287 191.957C117.828 192.11 118.401 192.103 118.938 191.937C119.058 191.9 119.188 191.91 119.303 191.964C119.417 192.018 119.506 192.112 119.555 192.229C119.603 192.345 119.606 192.476 119.563 192.594C119.52 192.713 119.435 192.812 119.323 192.871C118.942 193.02 118.535 193.096 118.126 193.094Z" fill="#231F20"/>
<path d="M131.828 188.09C132.244 184.761 137.705 183.756 137.573 187.664C137.58 189.022 137.106 190.338 136.233 191.379C135.795 191.893 135.213 192.264 134.561 192.445C133.91 192.626 133.22 192.608 132.579 192.394" fill="white"/>
<path d="M133.625 193.094C133.201 193.098 132.78 193.019 132.386 192.861C132.324 192.836 132.268 192.8 132.22 192.753C132.173 192.706 132.135 192.65 132.11 192.589C132.084 192.527 132.071 192.461 132.072 192.395C132.072 192.328 132.086 192.262 132.112 192.201C132.137 192.139 132.174 192.082 132.22 192.035C132.267 191.987 132.323 191.95 132.384 191.924C132.446 191.899 132.512 191.886 132.578 191.886C132.645 191.887 132.711 191.9 132.772 191.927C133.309 192.092 133.882 192.098 134.422 191.945C134.962 191.792 135.447 191.486 135.817 191.064C136.604 190.11 137.031 188.911 137.025 187.674C137.086 186.05 136.071 185.725 135.462 185.644C134.72 185.602 133.989 185.833 133.406 186.293C132.823 186.753 132.428 187.41 132.295 188.141C132.288 188.208 132.267 188.272 132.234 188.331C132.201 188.39 132.157 188.442 132.104 188.483C132.051 188.525 131.991 188.555 131.926 188.573C131.861 188.591 131.793 188.596 131.727 188.588C131.593 188.57 131.471 188.5 131.388 188.394C131.304 188.288 131.266 188.153 131.28 188.019C131.444 187.026 131.971 186.13 132.759 185.503C133.546 184.877 134.539 184.565 135.543 184.629C135.913 184.648 136.276 184.744 136.607 184.911C136.938 185.078 137.231 185.312 137.466 185.599C137.701 185.885 137.873 186.218 137.972 186.576C138.071 186.933 138.094 187.307 138.04 187.674C138.046 189.159 137.525 190.598 136.568 191.734C136.197 192.151 135.745 192.487 135.238 192.721C134.732 192.955 134.182 193.082 133.625 193.094Z" fill="#231F20"/>
<path d="M119.496 204.645C121.664 205.578 123.997 206.068 126.357 206.086C130.691 206.238 131.432 205.071 131.432 205.071L131.321 202.747L131.087 197.357L130.854 192.282L120.958 191.947L120.491 196.007L120.338 197.337L119.496 204.645Z" fill="white"/>
<path d="M127.108 206.604H126.347C123.903 206.588 121.486 206.081 119.242 205.112C119.152 205.063 119.079 204.989 119.032 204.899C118.985 204.808 118.966 204.705 118.978 204.604L120.42 191.917C120.435 191.788 120.497 191.67 120.595 191.586C120.693 191.501 120.818 191.456 120.947 191.46L130.844 191.805C130.971 191.81 131.092 191.863 131.183 191.953C131.273 192.044 131.326 192.165 131.331 192.292L131.909 205.051C131.909 205.151 131.881 205.249 131.828 205.335C131.717 205.548 130.854 206.604 127.108 206.604ZM120.003 204.34C122.026 205.119 124.17 205.538 126.337 205.579C129.453 205.69 130.549 205.091 130.864 204.858L130.326 192.8L121.353 192.485L120.003 204.34Z" fill="#231F20"/>
<path d="M120.328 197.388C121.113 198.626 122.199 199.646 123.485 200.351C125.576 201.61 128.712 203.051 131.311 202.737L131.077 197.347C129.173 197.519 127.254 197.465 125.363 197.185C123.687 197.065 122.039 196.685 120.481 196.058L120.328 197.388Z" fill="#231F20"/>
<path d="M130.58 203.295C127.829 203.295 124.845 201.762 123.221 200.788C121.862 200.039 120.716 198.956 119.892 197.641C119.833 197.551 119.808 197.444 119.821 197.337L119.973 196.007C119.982 195.928 120.01 195.852 120.053 195.786C120.097 195.719 120.156 195.664 120.225 195.624C120.295 195.585 120.372 195.562 120.452 195.558C120.531 195.554 120.611 195.569 120.683 195.601C122.201 196.197 123.798 196.563 125.424 196.687C127.278 196.964 129.159 197.016 131.026 196.839C131.095 196.834 131.164 196.842 131.23 196.864C131.296 196.886 131.356 196.92 131.408 196.965C131.46 197.011 131.503 197.066 131.533 197.128C131.563 197.19 131.581 197.258 131.585 197.327L131.818 202.716C131.827 202.845 131.785 202.972 131.701 203.071C131.618 203.169 131.5 203.231 131.371 203.244C131.109 203.277 130.844 203.293 130.58 203.295ZM120.856 197.276C121.596 198.376 122.588 199.284 123.749 199.925C125.007 200.676 128.103 202.361 130.783 202.27L130.59 197.905C128.825 198.017 127.052 197.946 125.302 197.692C123.807 197.561 122.332 197.258 120.907 196.789L120.856 197.276Z" fill="#231F20"/>
<path d="M134.538 179.117L134.122 191.125C134.111 191.642 134.043 192.156 133.919 192.658C133.505 194.355 132.519 195.857 131.127 196.913C129.735 197.968 128.022 198.512 126.276 198.453H125.393C123.752 198.401 122.172 197.818 120.891 196.791C119.609 195.765 118.696 194.35 118.288 192.759C118.112 192.056 118.033 191.332 118.055 190.607L118.471 178.6C118.471 178.6 120.349 181.066 125.728 181.016C128.769 181.039 131.777 180.391 134.538 179.117Z" fill="white"/>
<path d="M126.54 198.961H126.256H125.373C123.23 198.881 121.205 197.957 119.741 196.39C118.276 194.823 117.492 192.741 117.557 190.597L117.973 178.58C117.98 178.475 118.017 178.375 118.08 178.292C118.143 178.209 118.23 178.147 118.329 178.113C118.429 178.083 118.537 178.085 118.636 178.117C118.736 178.15 118.823 178.212 118.887 178.295C118.887 178.295 120.765 180.539 125.728 180.508C128.683 180.531 131.608 179.919 134.305 178.712C134.382 178.667 134.469 178.644 134.559 178.644C134.648 178.644 134.735 178.667 134.812 178.712C134.888 178.761 134.949 178.829 134.99 178.909C135.031 178.989 135.05 179.078 135.046 179.168L134.63 191.176C134.609 191.723 134.538 192.266 134.416 192.8C133.979 194.558 132.966 196.12 131.539 197.237C130.112 198.353 128.352 198.96 126.54 198.961ZM118.958 179.676L118.572 190.587C118.545 191.271 118.62 191.955 118.796 192.617C119.179 194.096 120.028 195.413 121.219 196.371C122.409 197.329 123.876 197.878 125.403 197.936H126.296C127.921 197.982 129.512 197.471 130.805 196.486C132.098 195.502 133.014 194.104 133.401 192.526C133.516 192.06 133.581 191.584 133.594 191.105L133.98 179.94C131.35 180.979 128.546 181.51 125.718 181.503C123.326 181.642 120.954 181.001 118.958 179.676Z" fill="#231F20"/>
<path d="M126.175 185.847C126.175 185.847 128.672 191.348 127.565 191.45C126.632 191.414 125.72 191.167 124.896 190.729" fill="white"/>
<path d="M127.372 191.968C126.424 191.896 125.501 191.626 124.662 191.176C124.599 191.147 124.542 191.106 124.495 191.055C124.448 191.003 124.412 190.943 124.39 190.877C124.367 190.811 124.359 190.741 124.364 190.672C124.37 190.603 124.39 190.535 124.422 190.474C124.455 190.412 124.5 190.358 124.555 190.315C124.609 190.272 124.672 190.24 124.739 190.222C124.807 190.205 124.877 190.201 124.946 190.211C125.014 190.221 125.08 190.246 125.139 190.283C125.827 190.647 126.578 190.875 127.352 190.953C127.048 189.251 126.497 187.603 125.718 186.06C125.663 185.938 125.659 185.798 125.706 185.673C125.754 185.547 125.849 185.446 125.972 185.39C126.032 185.362 126.098 185.346 126.165 185.343C126.231 185.34 126.298 185.351 126.361 185.375C126.423 185.398 126.48 185.435 126.528 185.481C126.577 185.527 126.615 185.583 126.642 185.644C127.464 187.451 128.763 190.638 128.215 191.572C128.154 191.68 128.068 191.772 127.963 191.839C127.859 191.906 127.74 191.947 127.616 191.957L127.372 191.968Z" fill="#231F20"/>
<path d="M127.555 195.124C125.861 195.083 124.205 194.611 122.744 193.754C122.635 193.684 122.556 193.575 122.525 193.449C122.493 193.323 122.511 193.19 122.575 193.077C122.638 192.964 122.743 192.879 122.867 192.841C122.991 192.803 123.125 192.813 123.241 192.871C126.987 194.901 129.331 193.886 129.412 193.784C129.472 193.755 129.538 193.738 129.604 193.733C129.671 193.729 129.738 193.738 129.801 193.76C129.864 193.782 129.922 193.815 129.972 193.86C130.023 193.904 130.063 193.958 130.093 194.018C130.15 194.138 130.159 194.276 130.117 194.403C130.076 194.529 129.987 194.635 129.869 194.698C129.137 195.004 128.348 195.149 127.555 195.124Z" fill="#231F20"/>
<path d="M122.947 186.192C123.233 186.192 123.465 185.665 123.465 185.015C123.465 184.364 123.233 183.837 122.947 183.837C122.661 183.837 122.429 184.364 122.429 185.015C122.429 185.665 122.661 186.192 122.947 186.192Z" fill="#231F20"/>
<path d="M129.91 186.192C130.196 186.192 130.427 185.665 130.427 185.015C130.427 184.364 130.196 183.837 129.91 183.837C129.624 183.837 129.392 184.364 129.392 185.015C129.392 185.665 129.624 186.192 129.91 186.192Z" fill="#231F20"/>
<path d="M311.453 208.319C311.456 208.339 311.456 208.36 311.453 208.38L310.113 215.394H263.748C263.922 213.68 264.231 211.984 264.671 210.319C265.23 209.425 281.825 202.584 281.825 202.584H282.353H282.718L283.733 202.513C283.733 202.513 283.733 202.513 283.794 202.513C284.129 202.513 284.484 202.513 284.88 202.442C285.743 202.442 286.727 202.341 287.763 202.3C289.173 202.229 290.666 202.178 291.995 202.158C292.939 202.158 293.792 202.158 294.482 202.158H295.142H295.436C295.687 202.167 295.936 202.208 296.177 202.28L296.319 202.331L296.573 202.432C299.425 203.376 311.453 208.319 311.453 208.319Z" fill="#ED1E79"/>
<path d="M283.368 199.062L295.659 199.103L295.446 203.792H286.758L282.546 201.772L283.368 199.062Z" fill="#231F20"/>
<path d="M295.446 204.259H286.758C286.688 204.278 286.614 204.278 286.545 204.259L282.322 202.229C282.214 202.175 282.128 202.084 282.08 201.972C282.032 201.861 282.024 201.736 282.058 201.62L282.88 198.91C282.91 198.804 282.973 198.71 283.062 198.644C283.15 198.578 283.257 198.543 283.368 198.545H295.659C295.797 198.545 295.928 198.6 296.025 198.697C296.12 198.798 296.171 198.933 296.167 199.072L295.954 203.772C295.946 203.902 295.89 204.025 295.795 204.115C295.701 204.205 295.577 204.257 295.446 204.259ZM286.88 203.244H295L295.172 199.57H283.784L283.195 201.508L286.88 203.244Z" fill="#231F20"/>
<path d="M298.857 187.136C299.426 185.537 299.791 183.873 299.943 182.183C300.135 181.016 300.633 179.138 300.105 177.991C299.532 177.187 298.759 176.546 297.862 176.133C297.517 173.21 294.817 171.424 292.015 171.272C290.346 171.259 288.688 171.552 287.123 172.134C285.57 172.642 283.906 173.302 283.063 174.712C282.916 175.031 282.735 175.334 282.525 175.616C282.24 175.885 281.919 176.114 281.571 176.296C279.399 177.717 279.632 179.656 279.907 181.878C280.181 184.101 281.013 186.588 281.246 188.912C283.977 189.075 286.737 189.308 289.498 189.268C291.721 189.237 297.689 189.714 298.857 187.136Z" fill="white"/>
<path d="M291.772 189.795H289.529C287.275 189.795 285.002 189.684 282.799 189.542L281.246 189.44C281.127 189.43 281.014 189.379 280.928 189.296C280.841 189.213 280.785 189.102 280.769 188.983C280.625 187.769 280.401 186.565 280.099 185.38C279.822 184.252 279.602 183.11 279.44 181.96C279.166 179.767 278.881 177.483 281.328 175.87L281.581 175.717C281.799 175.598 282 175.452 282.18 175.281C282.3 175.118 282.405 174.945 282.495 174.763C282.546 174.662 282.596 174.56 282.657 174.459C283.54 172.926 285.245 172.205 286.961 171.657C288.582 171.046 290.303 170.743 292.036 170.764C294.807 170.916 297.811 172.693 298.329 175.839C299.236 176.284 300.007 176.964 300.562 177.808C301.069 178.894 300.785 180.427 300.562 181.655C300.562 181.878 300.481 182.092 300.45 182.295C300.42 182.498 300.359 182.883 300.308 183.188C300.159 184.624 299.818 186.034 299.293 187.38C298.319 189.552 294.594 189.795 291.772 189.795ZM289.742 188.78H290.554C292.98 188.78 297.476 188.872 298.349 186.933C298.829 185.678 299.136 184.363 299.263 183.025C299.313 182.711 299.354 182.406 299.405 182.112C299.455 181.817 299.476 181.686 299.516 181.452C299.823 180.398 299.854 179.284 299.608 178.214C299.084 177.506 298.384 176.946 297.578 176.59C297.507 176.551 297.446 176.495 297.401 176.428C297.355 176.361 297.325 176.285 297.314 176.205C296.989 173.484 294.37 171.921 291.944 171.789C290.336 171.776 288.739 172.061 287.235 172.632C285.712 173.119 284.19 173.738 283.489 174.976C283.489 175.068 283.398 175.149 283.358 175.24C283.237 175.501 283.08 175.744 282.891 175.961C282.654 176.215 282.376 176.428 282.068 176.59L281.845 176.732C279.927 177.981 280.14 179.676 280.404 181.807C280.565 182.921 280.781 184.025 281.053 185.116C281.297 186.202 281.551 187.309 281.693 188.425L282.83 188.496C285.012 188.638 287.265 188.78 289.478 188.75L289.742 188.78Z" fill="#231F20"/>
<path d="M284.2 187.542C283.824 184.497 278.902 183.634 279.023 187.156C279.017 188.381 279.445 189.567 280.231 190.506C280.629 190.964 281.155 191.293 281.741 191.45C282.327 191.607 282.946 191.586 283.52 191.389" fill="white"/>
<path d="M282.596 192.079C282.082 192.072 281.575 191.958 281.107 191.745C280.638 191.532 280.219 191.224 279.876 190.841C279.01 189.816 278.536 188.518 278.536 187.177C278.486 186.84 278.507 186.497 278.598 186.168C278.689 185.84 278.848 185.535 279.064 185.272C279.28 185.009 279.549 184.794 279.853 184.642C280.157 184.489 280.49 184.402 280.83 184.385C281.74 184.322 282.641 184.598 283.36 185.16C284.078 185.723 284.562 186.532 284.718 187.43C284.728 187.497 284.724 187.564 284.707 187.629C284.691 187.694 284.661 187.754 284.62 187.808C284.58 187.861 284.529 187.905 284.47 187.938C284.412 187.971 284.348 187.991 284.281 187.999C284.148 188.016 284.013 187.98 283.907 187.898C283.8 187.816 283.73 187.696 283.713 187.562C283.599 186.914 283.251 186.33 282.734 185.922C282.218 185.514 281.569 185.31 280.911 185.35C280.384 185.35 279.501 185.675 279.551 187.096C279.54 188.204 279.917 189.281 280.617 190.141C280.948 190.52 281.383 190.795 281.868 190.93C282.353 191.065 282.868 191.055 283.347 190.902C283.409 190.876 283.476 190.864 283.543 190.864C283.61 190.864 283.676 190.878 283.738 190.904C283.799 190.93 283.855 190.967 283.903 191.015C283.95 191.063 283.987 191.119 284.012 191.181C284.038 191.243 284.05 191.309 284.05 191.376C284.05 191.443 284.036 191.509 284.01 191.571C283.984 191.633 283.947 191.689 283.899 191.736C283.851 191.783 283.795 191.82 283.733 191.846C283.373 191.996 282.987 192.075 282.596 192.079Z" fill="#231F20"/>
<path d="M294.939 187.542C295.314 184.497 300.237 183.634 300.115 187.156C300.121 188.381 299.693 189.567 298.907 190.506C298.51 190.964 297.984 191.293 297.398 191.45C296.812 191.607 296.193 191.586 295.619 191.389" fill="white"/>
<path d="M296.563 192.079C296.174 192.081 295.788 192.009 295.426 191.866C295.301 191.815 295.201 191.716 295.149 191.591C295.096 191.467 295.096 191.326 295.147 191.201C295.198 191.076 295.297 190.976 295.421 190.924C295.546 190.872 295.686 190.871 295.812 190.922C296.291 191.076 296.806 191.086 297.291 190.95C297.776 190.815 298.211 190.541 298.542 190.161C299.242 189.301 299.619 188.224 299.608 187.116C299.658 185.695 298.775 185.411 298.248 185.37C297.59 185.33 296.941 185.534 296.425 185.942C295.908 186.35 295.56 186.934 295.446 187.583C295.428 187.716 295.359 187.837 295.252 187.918C295.146 188 295.011 188.036 294.878 188.019C294.811 188.012 294.747 187.991 294.689 187.958C294.63 187.925 294.579 187.881 294.539 187.828C294.498 187.775 294.468 187.714 294.452 187.649C294.435 187.584 294.431 187.517 294.441 187.451C294.597 186.552 295.081 185.743 295.799 185.181C296.518 184.618 297.419 184.342 298.329 184.406C298.669 184.422 299.002 184.509 299.306 184.662C299.61 184.815 299.879 185.029 300.095 185.292C300.311 185.555 300.47 185.861 300.561 186.189C300.652 186.517 300.673 186.86 300.623 187.197C300.628 188.539 300.152 189.839 299.283 190.861C298.938 191.24 298.518 191.544 298.05 191.754C297.582 191.964 297.076 192.074 296.563 192.079Z" fill="#231F20"/>
<path d="M283.835 202.452C285.788 203.292 287.89 203.733 290.016 203.752C293.914 203.884 294.573 202.828 294.573 202.828L294.482 200.737L294.269 195.875L294.056 191.338L285.144 191.024L284.718 194.718L284.586 195.916L283.835 202.452Z" fill="white"/>
<path d="M290.676 204.259H289.996C287.794 204.241 285.619 203.779 283.601 202.899C283.509 202.853 283.434 202.779 283.387 202.688C283.339 202.597 283.322 202.493 283.337 202.391L284.636 190.963C284.661 190.84 284.727 190.729 284.823 190.648C284.919 190.567 285.039 190.52 285.164 190.516L294.076 190.831C294.203 190.833 294.324 190.884 294.414 190.973C294.505 191.061 294.558 191.181 294.563 191.308L295.081 202.797C295.083 202.9 295.058 203.001 295.01 203.092C294.878 203.295 294.096 204.259 290.676 204.259ZM284.383 202.128C286.189 202.821 288.102 203.196 290.036 203.234C292.756 203.325 293.761 202.818 294.096 202.605L293.619 191.815L285.631 191.541L284.383 202.128Z" fill="#231F20"/>
<path d="M284.586 195.916C285.298 197.027 286.274 197.944 287.428 198.585C289.305 199.712 292.137 201.011 294.482 200.737L294.269 195.875C292.554 196.029 290.827 195.982 289.123 195.733C287.611 195.624 286.125 195.282 284.718 194.718L284.586 195.916Z" fill="#231F20"/>
<path d="M293.822 201.275C291.45 201.087 289.162 200.313 287.164 199.022C285.923 198.346 284.875 197.364 284.119 196.17C284.06 196.076 284.035 195.965 284.048 195.855L284.18 194.657C284.189 194.578 284.217 194.501 284.261 194.435C284.305 194.368 284.364 194.312 284.433 194.272C284.506 194.236 284.586 194.218 284.667 194.218C284.748 194.218 284.828 194.236 284.9 194.272C286.256 194.83 287.691 195.172 289.153 195.287C290.816 195.535 292.503 195.583 294.177 195.429C294.247 195.422 294.316 195.429 294.383 195.45C294.449 195.471 294.51 195.505 294.563 195.55C294.617 195.595 294.661 195.651 294.693 195.714C294.724 195.777 294.742 195.846 294.746 195.916L294.959 200.768C294.965 200.896 294.922 201.021 294.839 201.119C294.757 201.217 294.64 201.28 294.512 201.295C294.282 201.303 294.052 201.296 293.822 201.275ZM285.113 195.804C285.775 196.779 286.659 197.583 287.692 198.149C288.818 198.829 291.559 200.301 293.954 200.26L293.782 196.423C292.206 196.518 290.625 196.453 289.062 196.23C287.73 196.116 286.416 195.85 285.144 195.439L285.113 195.804Z" fill="#231F20"/>
<path d="M297.395 179.453L297.019 190.272C297.006 190.734 296.945 191.194 296.837 191.643C296.465 193.172 295.577 194.526 294.324 195.478C293.071 196.43 291.528 196.922 289.955 196.87H289.153C288.253 196.837 287.369 196.627 286.55 196.253C285.731 195.878 284.994 195.345 284.382 194.685C283.769 194.025 283.292 193.251 282.979 192.407C282.666 191.563 282.522 190.665 282.556 189.765L282.931 178.955C282.931 178.955 284.626 181.178 289.468 181.127C292.201 181.155 294.907 180.584 297.395 179.453Z" fill="white"/>
<path d="M290.178 197.377H289.925H289.123C288.157 197.347 287.207 197.127 286.327 196.728C285.447 196.33 284.654 195.762 283.994 195.057C283.333 194.351 282.819 193.523 282.48 192.618C282.141 191.713 281.984 190.751 282.018 189.785L282.393 178.965C282.395 178.86 282.43 178.757 282.493 178.672C282.557 178.588 282.644 178.525 282.745 178.492C282.846 178.46 282.954 178.46 283.055 178.492C283.155 178.524 283.243 178.586 283.307 178.671C283.307 178.671 284.91 180.701 289.295 180.701H289.427C292.081 180.719 294.708 180.169 297.131 179.087C297.208 179.043 297.296 179.019 297.385 179.019C297.474 179.019 297.561 179.043 297.639 179.087C297.714 179.136 297.775 179.204 297.816 179.284C297.857 179.365 297.876 179.454 297.872 179.544L297.497 190.364C297.449 192.273 296.653 194.088 295.28 195.417C293.908 196.746 292.068 197.483 290.158 197.469L290.178 197.377ZM283.398 180.051L283.053 189.785C283.035 190.387 283.099 190.988 283.246 191.572C283.591 192.895 284.353 194.072 285.418 194.929C286.484 195.786 287.797 196.278 289.163 196.332H289.965C291.42 196.384 292.849 195.932 294.009 195.051C295.169 194.171 295.988 192.916 296.329 191.5C296.432 191.082 296.49 190.653 296.502 190.222L296.847 180.214C294.493 181.137 291.986 181.609 289.458 181.604C287.326 181.719 285.211 181.177 283.398 180.051Z" fill="#231F20"/>
<path d="M289.854 185.522C289.854 185.522 292.097 190.475 291.102 190.597C290.265 190.561 289.447 190.339 288.707 189.948" fill="white"/>
<path d="M290.929 191.064C290.068 190.994 289.23 190.753 288.463 190.354C288.343 190.29 288.253 190.182 288.213 190.053C288.174 189.923 288.187 189.783 288.25 189.663C288.313 189.544 288.421 189.454 288.551 189.414C288.68 189.374 288.82 189.387 288.94 189.45C289.536 189.77 290.187 189.973 290.858 190.049C290.569 188.545 290.077 187.087 289.397 185.715C289.368 185.655 289.351 185.59 289.348 185.524C289.345 185.458 289.354 185.391 289.377 185.329C289.4 185.266 289.435 185.209 289.48 185.16C289.525 185.112 289.58 185.072 289.64 185.045C289.764 184.99 289.905 184.985 290.032 185.033C290.16 185.08 290.263 185.176 290.32 185.299C291.061 186.943 292.239 189.826 291.731 190.689C291.672 190.792 291.588 190.879 291.487 190.943C291.387 191.007 291.272 191.045 291.153 191.054L290.929 191.064Z" fill="#231F20"/>
<path d="M291.305 193.926C289.994 193.892 288.703 193.595 287.509 193.053C287.447 193.027 287.392 192.989 287.345 192.941C287.299 192.893 287.262 192.836 287.238 192.773C287.213 192.711 287.201 192.645 287.202 192.578C287.204 192.511 287.218 192.445 287.245 192.384C287.269 192.322 287.306 192.265 287.353 192.218C287.4 192.171 287.456 192.134 287.518 192.109C287.58 192.084 287.646 192.072 287.712 192.074C287.779 192.076 287.844 192.092 287.905 192.12C291.082 193.48 292.777 192.668 292.787 192.658C292.907 192.597 293.046 192.587 293.173 192.629C293.3 192.671 293.406 192.761 293.467 192.881C293.498 192.939 293.518 193.004 293.524 193.07C293.531 193.136 293.524 193.203 293.504 193.266C293.484 193.329 293.452 193.388 293.409 193.439C293.366 193.489 293.313 193.531 293.254 193.561C292.64 193.828 291.974 193.953 291.305 193.926Z" fill="#231F20"/>
<path d="M286.951 185.827C287.208 185.827 287.418 185.354 287.418 184.771C287.418 184.188 287.208 183.715 286.951 183.715C286.693 183.715 286.484 184.188 286.484 184.771C286.484 185.354 286.693 185.827 286.951 185.827Z" fill="#231F20"/>
<path d="M293.223 185.827C293.481 185.827 293.69 185.354 293.69 184.771C293.69 184.188 293.481 183.715 293.223 183.715C292.965 183.715 292.756 184.188 292.756 184.771C292.756 185.354 292.965 185.827 293.223 185.827Z" fill="#231F20"/>
<path d="M296.786 201.509L296.654 202.331L294.624 215.353H285.357L282.403 202.473L282.18 201.458L282.637 201.59L283.936 201.965L284.951 202.249L290.026 203.691L294.553 202.189L295.203 201.975L295.517 201.864L296.786 201.509Z" fill="#231F20"/>
<path d="M294.573 215.86H285.306C285.19 215.863 285.077 215.825 284.986 215.752C284.895 215.68 284.833 215.578 284.809 215.465L281.632 201.62C281.614 201.535 281.617 201.447 281.642 201.363C281.667 201.28 281.712 201.204 281.774 201.143C281.838 201.08 281.918 201.035 282.006 201.013C282.094 200.992 282.185 200.994 282.272 201.021L290.006 203.224L295.081 201.549H295.152L296.674 201.042C296.757 201.017 296.845 201.013 296.93 201.032C297.015 201.05 297.094 201.089 297.159 201.146C297.225 201.202 297.275 201.274 297.306 201.355C297.337 201.437 297.346 201.524 297.334 201.61L297.192 202.432L295.071 215.424C295.054 215.544 294.994 215.654 294.903 215.734C294.812 215.815 294.695 215.859 294.573 215.86ZM285.702 214.845H294.137L296.167 202.249L295.395 202.513H295.304L290.229 204.208C290.125 204.249 290.009 204.249 289.904 204.208L282.881 202.178L285.702 214.845Z" fill="#231F20"/>
<path d="M295.659 199.103C295.487 199.103 289.965 203.752 289.965 203.752L293.376 207.73L296.796 201.498L295.659 199.103Z" fill="white"/>
<path d="M293.335 208.238C293.263 208.237 293.192 208.219 293.127 208.188C293.062 208.156 293.005 208.111 292.959 208.055L289.539 204.076C289.495 204.027 289.461 203.969 289.44 203.906C289.419 203.843 289.412 203.777 289.417 203.711C289.429 203.573 289.495 203.446 289.6 203.356C295.264 198.595 295.385 198.595 295.619 198.595C295.715 198.595 295.81 198.622 295.891 198.675C295.972 198.727 296.036 198.802 296.076 198.89L297.212 201.285C297.247 201.358 297.266 201.438 297.266 201.519C297.266 201.6 297.247 201.679 297.212 201.752L293.792 207.974C293.752 208.045 293.697 208.105 293.63 208.151C293.563 208.197 293.486 208.227 293.406 208.238H293.335ZM290.645 203.802L293.244 206.847L296.187 201.498L295.416 199.874C294.523 200.605 292.32 202.442 290.686 203.802H290.645Z" fill="#231F20"/>
<path d="M283.368 199.062C283.55 199.062 290.016 203.752 290.016 203.752L286.068 207.73L282.17 201.498L283.368 199.062Z" fill="white"/>
<path d="M286.068 208.238C285.992 208.227 285.92 208.201 285.855 208.161C285.791 208.121 285.735 208.067 285.692 208.004L281.744 201.772C281.701 201.696 281.679 201.611 281.679 201.524C281.679 201.437 281.701 201.351 281.744 201.275L282.982 198.829C283.027 198.747 283.093 198.678 283.173 198.63C283.254 198.582 283.345 198.556 283.439 198.555C283.642 198.555 283.784 198.555 290.391 203.335C290.45 203.38 290.498 203.436 290.533 203.5C290.568 203.564 290.589 203.635 290.595 203.707C290.601 203.78 290.591 203.854 290.567 203.922C290.542 203.991 290.503 204.054 290.452 204.107L286.504 208.086C286.449 208.144 286.381 208.189 286.305 208.216C286.229 208.242 286.147 208.25 286.068 208.238ZM282.708 201.478L286.159 206.918L289.204 203.813C287.235 202.392 284.555 200.473 283.53 199.753L282.708 201.478Z" fill="#231F20"/>
<path d="M316.071 215.353H309.575C310.59 211.75 311.361 208.786 311.483 208.339C311.486 208.319 311.486 208.299 311.483 208.278C311.483 208.278 312.062 207.791 312.813 208.959C312.975 209.263 314.325 211.76 316.071 215.353Z" fill="#ED1E79"/>
<path d="M231.105 215.353H181.604C182.071 211.293 183.187 207.68 185.786 206.918C185.786 206.918 196.342 202.625 198.29 201.843L198.443 201.793C199.488 201.616 200.552 201.564 201.609 201.64C205.02 201.691 209.922 202.026 210.45 202.067L210.623 202.128C211.161 202.3 212.835 202.848 214.804 203.599C215.271 203.762 215.748 203.955 216.246 204.158C216.246 204.158 219.017 204.817 222.102 205.903C225.188 206.989 228.578 208.502 229.786 210.187C230.324 210.836 230.75 212.724 231.105 215.353Z" fill="#ED1E79"/>
<path d="M193.124 197.59C192.396 197.162 191.829 196.505 191.51 195.723C191.457 195.115 191.558 194.504 191.805 193.947C193.835 187.857 193.429 180.904 196.88 175.474C197.299 174.725 197.899 174.093 198.625 173.636C198.987 173.41 199.406 173.289 199.833 173.289C200.26 173.289 200.679 173.41 201.041 173.636C204.086 168.47 211.567 172.155 213.688 176.316C215.931 180.721 217.251 185.776 218.915 190.425C219.541 191.824 219.84 193.348 219.788 194.88C219.747 195.645 219.452 196.375 218.95 196.954C218.448 197.532 217.768 197.928 217.017 198.078L216.215 196.677C216.387 196.896 216.468 197.172 216.444 197.449C216.419 197.726 216.291 197.983 216.083 198.169C215.649 198.52 215.132 198.754 214.581 198.849C209.212 200.209 203.416 201.285 198.219 199.438C197.417 199.154 196.474 198.423 196.798 197.651C196.301 199.103 194.494 198.555 193.124 197.59Z" fill="white"/>
<path d="M204.35 200.96C202.2 200.985 200.061 200.642 198.027 199.945C197.409 199.737 196.866 199.352 196.463 198.839L196.189 198.961C194.921 199.377 193.297 198.342 192.83 198.017C192.444 197.743 191.175 196.789 190.993 195.814C190.916 195.147 191.018 194.471 191.287 193.855C192.013 191.464 192.556 189.021 192.911 186.547C193.571 182.64 194.261 178.6 196.423 175.179C196.884 174.354 197.543 173.657 198.341 173.149C198.716 172.928 199.136 172.794 199.57 172.757C200.004 172.72 200.441 172.781 200.848 172.936C201.37 172.16 202.086 171.533 202.924 171.118C203.763 170.703 204.695 170.515 205.629 170.571C207.384 170.739 209.073 171.326 210.553 172.284C212.034 173.241 213.262 174.541 214.135 176.073C215.661 179.287 216.944 182.612 217.971 186.02C218.438 187.451 218.895 188.862 219.392 190.242C220.047 191.716 220.356 193.32 220.296 194.931C220.227 195.812 219.872 196.647 219.286 197.308C218.7 197.969 217.914 198.421 217.048 198.595C216.955 198.605 216.862 198.59 216.778 198.551C216.694 198.511 216.622 198.449 216.571 198.372L216.428 198.524C215.934 198.949 215.335 199.233 214.693 199.347C211.324 200.306 207.851 200.848 204.35 200.96ZM197.245 197.915C197.22 197.991 197.22 198.073 197.245 198.149C197.508 198.54 197.899 198.827 198.351 198.961C203.365 200.737 209.039 199.722 214.419 198.362C214.876 198.292 215.306 198.103 215.667 197.814C215.802 197.678 215.882 197.497 215.89 197.306C215.895 197.286 215.895 197.266 215.89 197.246L215.728 196.951C215.665 196.843 215.644 196.715 215.668 196.591C215.692 196.468 215.761 196.358 215.86 196.281C215.953 196.197 216.074 196.151 216.2 196.151C216.326 196.151 216.447 196.197 216.54 196.281C216.702 196.424 216.818 196.611 216.875 196.819L217.261 197.479C217.808 197.265 218.284 196.901 218.634 196.429C218.985 195.957 219.194 195.396 219.24 194.81C219.277 193.357 218.989 191.914 218.398 190.587C217.9 189.197 217.383 187.776 216.966 186.344C215.957 182.985 214.695 179.708 213.191 176.54C212.412 175.167 211.315 174.003 209.992 173.144C208.669 172.286 207.158 171.758 205.588 171.607C204.754 171.551 203.922 171.736 203.19 172.139C202.458 172.542 201.857 173.146 201.457 173.88C201.424 173.946 201.375 174.002 201.315 174.044C201.254 174.087 201.185 174.114 201.112 174.124C201.04 174.139 200.966 174.139 200.894 174.123C200.822 174.107 200.755 174.076 200.696 174.032C200.418 173.861 200.099 173.77 199.772 173.77C199.446 173.77 199.126 173.861 198.849 174.032C198.204 174.449 197.671 175.017 197.296 175.687C195.266 178.935 194.606 182.69 193.936 186.669C193.579 189.171 193.029 191.641 192.292 194.058C192.081 194.533 191.987 195.052 192.018 195.571C192.318 196.212 192.807 196.746 193.418 197.103C193.75 197.392 194.134 197.612 194.55 197.751C194.967 197.89 195.406 197.946 195.844 197.915C195.937 197.885 196.021 197.834 196.089 197.765C196.158 197.696 196.21 197.612 196.24 197.52C196.238 197.486 196.238 197.452 196.24 197.418C196.29 197.29 196.389 197.187 196.514 197.132C196.64 197.077 196.782 197.074 196.91 197.124C197.036 197.174 197.138 197.27 197.197 197.392C197.255 197.514 197.265 197.654 197.225 197.783L197.245 197.915Z" fill="#231F20"/>
<path d="M210.105 215.353H203.132C201.173 211.222 201.609 202.767 201.68 201.671C201.683 201.634 201.683 201.596 201.68 201.559L201.579 200.25L201.315 196.636V196.109L201.376 195.347L201.701 191.358L210.085 191.44L210.379 196.332V196.636L210.572 199.783L210.673 201.498V201.559V202.158L210.765 203.823C210.765 203.823 213.069 211.364 210.105 215.353Z" fill="white"/>
<path d="M210.105 215.871H203.132C203.033 215.871 202.935 215.844 202.851 215.792C202.767 215.74 202.699 215.665 202.655 215.576C200.625 211.283 201.102 202.615 201.163 201.64L200.797 196.677L200.889 195.307L201.214 191.308C201.224 191.176 201.284 191.053 201.383 190.964C201.481 190.875 201.609 190.828 201.741 190.831L210.135 190.922C210.268 190.922 210.395 190.972 210.491 191.063C210.587 191.153 210.645 191.277 210.653 191.409L210.947 196.302V196.413L211.364 203.731C211.597 204.523 213.556 211.669 210.521 215.668C210.472 215.732 210.409 215.783 210.337 215.818C210.265 215.854 210.185 215.872 210.105 215.871ZM203.467 214.856H209.841C212.44 211.08 210.369 204.076 210.349 203.995C210.339 203.955 210.339 203.913 210.349 203.873L209.922 196.474C209.922 196.474 209.922 196.373 209.922 196.362L209.669 191.988L202.249 191.917L201.873 196.708L202.249 201.549C202.256 201.63 202.256 201.712 202.249 201.793C202.097 202.635 201.66 210.674 203.416 214.825L203.467 214.856Z" fill="#231F20"/>
<path d="M201.264 196.636C201.924 197.785 202.863 198.749 203.995 199.438C205.781 200.605 208.319 201.64 210.511 201.285L210.369 196.332C208.762 196.55 207.134 196.55 205.527 196.332C204.092 196.236 202.684 195.893 201.366 195.317L201.264 196.636Z" fill="#231F20"/>
<path d="M209.577 201.864C207.478 201.728 205.454 201.026 203.721 199.834C202.513 199.1 201.514 198.069 200.818 196.839C200.792 196.75 200.792 196.655 200.818 196.565L200.909 195.276C200.918 195.194 200.945 195.114 200.989 195.044C201.033 194.974 201.093 194.914 201.163 194.87C201.237 194.833 201.318 194.813 201.401 194.813C201.484 194.813 201.566 194.833 201.64 194.87C202.91 195.407 204.263 195.719 205.639 195.794C207.198 196.008 208.779 196.008 210.338 195.794C210.409 195.784 210.48 195.789 210.548 195.808C210.616 195.827 210.68 195.86 210.734 195.906C210.791 195.95 210.837 196.007 210.869 196.072C210.901 196.137 210.917 196.209 210.917 196.281L211.069 201.224C211.073 201.348 211.032 201.468 210.954 201.564C210.875 201.659 210.765 201.722 210.643 201.742C210.292 201.816 209.935 201.857 209.577 201.864ZM201.782 196.525C202.397 197.543 203.251 198.396 204.269 199.012C205.94 200.203 207.941 200.842 209.993 200.839L209.872 196.91C208.405 197.049 206.926 197.018 205.466 196.819C204.223 196.726 202.996 196.481 201.812 196.088L201.782 196.525Z" fill="#231F20"/>
<path d="M205.537 197.509H206.4C207.368 197.521 208.329 197.342 209.228 196.982C210.127 196.622 210.946 196.089 211.638 195.412C212.33 194.735 212.881 193.928 213.261 193.037C213.641 192.147 213.841 191.19 213.85 190.222C213.77 187.954 213.557 185.694 213.211 183.452C213.211 183.452 209.811 182.234 207.121 181.229C202.635 179.534 201.427 177.108 201.427 177.108C201.298 178.716 200.957 180.3 200.412 181.818C199.826 182.89 199.146 183.909 198.382 184.863C198.382 184.863 198.25 188.496 198.23 190.019C198.215 190.991 198.392 191.957 198.752 192.86C199.112 193.764 199.647 194.588 200.326 195.284C201.005 195.98 201.815 196.535 202.71 196.917C203.604 197.299 204.565 197.5 205.537 197.509Z" fill="white"/>
<path d="M206.481 198.047H205.527C203.432 198.021 201.433 197.163 199.97 195.663C198.506 194.164 197.698 192.144 197.722 190.049C197.722 188.527 197.864 184.883 197.864 184.883C197.875 184.773 197.913 184.669 197.976 184.578C198.711 183.651 199.36 182.659 199.914 181.614C200.45 180.153 200.791 178.628 200.929 177.077C200.94 176.963 200.987 176.854 201.064 176.769C201.141 176.683 201.243 176.624 201.356 176.6C201.468 176.58 201.585 176.596 201.687 176.647C201.79 176.699 201.873 176.782 201.924 176.885C201.924 176.885 203.132 179.158 207.334 180.742C210.003 181.757 213.424 182.975 213.424 182.975C213.514 183.005 213.594 183.061 213.655 183.134C213.716 183.207 213.756 183.296 213.769 183.391C214.119 185.656 214.336 187.941 214.419 190.232C214.392 192.317 213.543 194.308 212.057 195.772C210.571 197.235 208.567 198.053 206.481 198.047ZM198.94 185.086C198.94 185.817 198.808 188.74 198.798 190.059C198.787 190.959 198.954 191.852 199.288 192.687C199.623 193.523 200.118 194.284 200.747 194.928C201.376 195.571 202.125 196.085 202.952 196.439C203.779 196.793 204.668 196.981 205.568 196.992H206.512C208.314 196.986 210.042 196.272 211.322 195.004C212.602 193.735 213.332 192.014 213.353 190.211C213.284 188.08 213.087 185.955 212.764 183.847C211.881 183.523 209.181 182.548 206.979 181.716C205.032 181.048 203.269 179.932 201.833 178.458C201.651 179.679 201.338 180.877 200.899 182.031C200.341 183.107 199.686 184.13 198.94 185.086Z" fill="#231F20"/>
<path d="M206.441 190.374C206.01 190.378 205.579 190.351 205.152 190.293C205.084 190.284 205.018 190.262 204.958 190.227C204.899 190.193 204.847 190.147 204.805 190.092C204.763 190.037 204.733 189.975 204.716 189.908C204.699 189.841 204.695 189.772 204.705 189.704C204.725 189.567 204.798 189.444 204.908 189.36C205.018 189.277 205.157 189.24 205.294 189.257C205.912 189.317 206.534 189.317 207.151 189.257C207.005 187.592 206.594 185.961 205.933 184.426C205.909 184.361 205.898 184.291 205.901 184.222C205.903 184.152 205.92 184.084 205.949 184.02C205.978 183.957 206.02 183.9 206.071 183.853C206.122 183.806 206.183 183.77 206.248 183.746C206.379 183.7 206.522 183.707 206.647 183.766C206.773 183.825 206.87 183.931 206.918 184.061C207.446 185.492 208.623 188.912 208.014 189.897C207.952 190.004 207.865 190.095 207.761 190.162C207.657 190.229 207.538 190.27 207.415 190.283C207.093 190.333 206.767 190.363 206.441 190.374Z" fill="#231F20"/>
<path d="M203.177 185.546C203.185 184.857 202.964 184.296 202.683 184.293C202.403 184.289 202.17 184.846 202.162 185.535C202.155 186.225 202.376 186.786 202.656 186.789C202.936 186.792 203.17 186.236 203.177 185.546Z" fill="#231F20"/>
<path d="M209.899 185.383C209.907 184.693 209.686 184.132 209.406 184.129C209.125 184.126 208.892 184.682 208.884 185.372C208.877 186.061 209.098 186.622 209.378 186.626C209.658 186.629 209.892 186.072 209.899 185.383Z" fill="#231F20"/>
<path d="M214.886 203.63C214.759 207.591 214.177 211.525 213.15 215.353H207.973C209.07 213.323 210.278 209.385 210.501 202.097C210.501 201.925 210.501 201.742 210.501 201.559C210.555 201.53 210.613 201.51 210.673 201.498C212.267 200.798 214.632 202.026 214.855 202.879C214.894 203.127 214.904 203.379 214.886 203.63Z" fill="white"/>
<path d="M213.15 215.871H207.973C207.883 215.871 207.795 215.848 207.716 215.803C207.638 215.759 207.573 215.694 207.527 215.617C207.482 215.54 207.459 215.452 207.459 215.363C207.459 215.274 207.482 215.187 207.527 215.109C208.542 213.211 209.76 209.415 209.993 202.087C209.993 201.904 209.993 201.732 209.993 201.559C209.993 201.469 210.016 201.381 210.061 201.302C210.105 201.224 210.17 201.158 210.247 201.113C210.328 201.061 210.417 201.023 210.511 201.001C211.053 200.816 211.628 200.744 212.199 200.791C212.77 200.839 213.325 201.003 213.83 201.275C214.226 201.468 215.18 201.996 215.373 202.737C215.404 203.037 215.404 203.34 215.373 203.64C215.235 207.651 214.636 211.632 213.586 215.505C213.557 215.602 213.501 215.688 213.423 215.753C213.345 215.818 213.25 215.859 213.15 215.871ZM208.816 214.856H212.754C213.705 211.205 214.253 207.461 214.388 203.691C214.407 203.485 214.407 203.277 214.388 203.072C214.139 202.715 213.784 202.445 213.373 202.3C212.656 201.914 211.82 201.809 211.029 202.006C211.024 202.077 211.024 202.148 211.029 202.219C210.795 208.786 209.76 212.643 208.796 214.825L208.816 214.856Z" fill="#231F20"/>
<path d="M204.198 215.353H199.031C197.903 211.29 197.32 207.095 197.296 202.879C197.499 202.428 197.86 202.067 198.311 201.864C198.801 201.551 199.358 201.359 199.937 201.304C200.516 201.25 201.1 201.334 201.64 201.549V201.661C201.843 209.233 203.091 213.252 204.198 215.353Z" fill="white"/>
<path d="M204.198 215.871H199.031C198.919 215.87 198.81 215.835 198.719 215.769C198.628 215.704 198.56 215.612 198.524 215.505C197.083 210.715 196.565 203.589 196.798 202.737C197.036 202.168 197.472 201.706 198.026 201.437C198.592 201.086 199.233 200.874 199.897 200.819C200.56 200.764 201.227 200.868 201.843 201.123C201.928 201.166 201.999 201.231 202.049 201.311C202.099 201.392 202.126 201.485 202.127 201.58V201.691C202.33 209.273 203.599 213.181 204.624 215.13C204.663 215.21 204.682 215.298 204.678 215.388C204.674 215.477 204.647 215.563 204.601 215.639C204.554 215.715 204.489 215.778 204.411 215.822C204.334 215.866 204.246 215.89 204.157 215.891L204.198 215.871ZM199.417 214.856H203.365C202.35 212.643 201.335 208.766 201.122 201.945C200.251 201.742 199.336 201.892 198.575 202.361C198.037 202.676 197.864 202.94 197.844 203.011C197.878 206.999 198.407 210.967 199.417 214.825V214.856Z" fill="#231F20"/>
<path d="M205.71 193.267C204.137 193.271 202.609 192.741 201.376 191.765C201.266 191.681 201.193 191.557 201.174 191.42C201.155 191.283 201.191 191.144 201.275 191.034C201.358 190.923 201.482 190.851 201.619 190.832C201.756 190.813 201.895 190.849 202.005 190.932C205.69 193.754 209.618 191.125 209.78 191.013C209.836 190.965 209.902 190.93 209.972 190.909C210.043 190.888 210.118 190.882 210.191 190.891C210.264 190.9 210.334 190.925 210.397 190.963C210.461 191.002 210.515 191.053 210.557 191.113C210.599 191.174 210.628 191.243 210.642 191.315C210.656 191.388 210.654 191.462 210.637 191.534C210.621 191.606 210.589 191.674 210.544 191.733C210.5 191.792 210.444 191.84 210.379 191.876C208.977 192.754 207.364 193.234 205.71 193.267Z" fill="#231F20"/>
<path d="M273.989 149.51C274.761 148.069 276.019 147.196 276.618 145.653C277.306 143.578 277.515 141.375 277.227 139.208C276.973 136.214 276.405 133.168 277.125 130.266C277.318 129.494 277.816 128.601 278.597 128.662C279.135 128.662 279.521 129.2 279.805 129.677C280.863 131.402 281.528 133.339 281.754 135.351C284.799 134.275 287.844 130.753 290.381 128.753C293.602 126.263 296.864 123.837 300.166 121.476C300.673 121.11 301.384 120.755 301.861 121.141C302.018 121.28 302.128 121.464 302.176 121.669C302.734 123.353 301.252 124.977 299.882 126.104C297.721 127.858 295.468 129.494 293.132 131.007C294.563 130.083 296.918 137.097 296.999 137.888C297.314 141.197 295.933 143.207 293.873 145.572C290.828 149.074 285.753 161.812 285.753 161.812C285.976 161.254 280.455 156.26 279.957 155.722L273.989 149.51Z" fill="white"/>
<path d="M285.733 162.329C285.673 162.344 285.61 162.344 285.55 162.329C285.455 162.293 285.374 162.229 285.316 162.146C285.258 162.063 285.226 161.964 285.225 161.863C283.749 160.128 282.155 158.497 280.455 156.98C280.008 156.554 279.673 156.239 279.572 156.128L273.624 149.896C273.55 149.819 273.502 149.72 273.488 149.614C273.473 149.509 273.492 149.401 273.542 149.307C273.901 148.675 274.327 148.083 274.811 147.541C275.362 146.939 275.814 146.254 276.151 145.511C276.8 143.505 276.994 141.379 276.719 139.289C276.669 138.7 276.608 138.112 276.547 137.523C276.146 135.09 276.177 132.606 276.638 130.184C276.892 129.169 277.542 128.093 278.668 128.154C279.014 128.218 279.339 128.362 279.618 128.576C279.896 128.789 280.121 129.066 280.272 129.383C281.249 130.979 281.904 132.751 282.2 134.6C284.161 133.511 285.952 132.144 287.519 130.54C288.412 129.707 289.265 128.936 290.097 128.296C293.284 125.83 296.583 123.374 299.902 120.999C301.09 120.146 301.81 120.359 302.216 120.694C302.442 120.896 302.607 121.156 302.693 121.445C303.201 123.008 302.379 124.683 300.227 126.439C298.349 127.972 296.38 129.423 294.35 130.773C295.913 132.214 297.476 137.178 297.527 137.777C297.872 141.39 296.268 143.572 294.279 145.897C291.305 149.307 286.23 161.883 286.23 162.005C286.19 162.103 286.122 162.187 286.033 162.245C285.944 162.304 285.839 162.333 285.733 162.329ZM274.618 149.449L280.302 155.407C280.404 155.519 280.719 155.813 281.155 156.219C282.728 157.638 284.226 159.139 285.641 160.716C286.89 157.671 290.879 148.231 293.487 145.237C295.375 143.075 296.796 141.177 296.532 137.939C296.4 136.579 294.218 131.463 293.487 131.433C293.374 131.505 293.237 131.53 293.106 131.501C292.974 131.473 292.86 131.394 292.787 131.281C292.75 131.225 292.724 131.162 292.711 131.097C292.699 131.031 292.7 130.963 292.714 130.898C292.728 130.833 292.756 130.771 292.794 130.716C292.833 130.662 292.882 130.615 292.939 130.58C295.26 129.081 297.496 127.454 299.638 125.708C301.425 124.247 302.145 122.947 301.78 121.821C301.752 121.713 301.696 121.615 301.617 121.537C301.455 121.394 301.039 121.537 300.542 121.882C297.243 124.247 293.954 126.693 290.767 129.159C289.975 129.768 289.133 130.54 288.25 131.352C286.22 133.168 284.19 135.056 282.008 135.828C281.935 135.855 281.857 135.864 281.78 135.856C281.703 135.848 281.629 135.823 281.563 135.781C281.497 135.74 281.442 135.685 281.401 135.619C281.36 135.553 281.335 135.479 281.328 135.401C281.108 133.466 280.467 131.602 279.45 129.941C279.155 129.454 278.892 129.21 278.638 129.19C278.222 129.19 277.856 129.799 277.704 130.408C277.279 132.714 277.255 135.076 277.633 137.391C277.694 137.99 277.765 138.589 277.806 139.187C278.1 141.433 277.885 143.716 277.176 145.866C276.8 146.705 276.293 147.479 275.674 148.16C275.292 148.564 274.939 148.995 274.618 149.449Z" fill="#231F20"/>
<path d="M180.396 164.573C184.852 149.967 188.516 138.315 188.516 138.315C188.82 138.416 193.967 140.101 202.015 138.741C203.539 138.49 205.048 138.151 206.532 137.726L206.766 137.665C206.766 137.665 209.283 149.591 212.358 164.573H180.396Z" fill="#231F20"/>
<path d="M249.091 164.573H206.045C206.41 150.251 206.624 138.893 206.624 138.893L202.046 138.751L188.506 138.284C188.506 138.284 188.506 147.998 188.567 164.542H159.893C157.538 156.341 155.752 150.231 157.741 148.048C161.71 143.664 181.715 137.553 181.715 137.553C183.934 137.059 186.203 136.827 188.475 136.863C194.048 136.721 201.478 137.025 206.512 137.289C209.851 137.452 212.135 137.614 212.135 137.614C212.135 137.614 228.527 137.614 231.978 143.542L249.091 164.573Z" fill="#ED1E79"/>
<path d="M288.625 158.675C288.625 158.675 287.783 160.98 286.372 164.573H263.829L273.786 147.937L274.618 148.546L287.428 157.803L288.625 158.675Z" fill="#ED1E79"/>
<path d="M166.886 113.609C166.925 115.62 167.084 117.627 167.363 119.618C167.633 121.634 167.101 123.675 165.881 125.302C165.073 126.099 164.073 126.674 162.978 126.973C161.883 127.271 160.73 127.283 159.629 127.007C157.45 126.433 155.389 125.482 153.539 124.196C153.554 125.894 154.003 127.561 154.844 129.037C155.684 130.513 156.887 131.75 158.34 132.631C163.313 135.767 173.027 135.31 178.335 133.24C180.386 132.496 182.242 131.298 183.764 129.735C185.287 128.172 186.436 126.286 187.125 124.216C188.313 120.156 187.278 115.802 185.633 111.925C183.816 107.621 180.355 103.673 175.29 103.733C170.733 103.774 167.099 109.59 166.886 113.609Z" fill="white"/>
<path d="M168.388 135.391C164.471 135.391 160.603 134.681 158.025 133.057C156.492 132.132 155.221 130.831 154.333 129.276C153.444 127.722 152.968 125.966 152.95 124.176C152.95 124.087 152.975 124 153.022 123.925C153.068 123.85 153.135 123.789 153.214 123.749C153.291 123.705 153.379 123.681 153.468 123.681C153.557 123.681 153.645 123.705 153.722 123.749C155.538 125.002 157.557 125.933 159.69 126.5C161.507 126.865 163.973 126.652 165.465 124.957C166.48 123.77 166.968 121.983 166.815 119.639C166.815 118.908 166.673 118.167 166.582 117.446C166.388 116.163 166.307 114.866 166.338 113.569C166.562 109.509 170.215 103.267 175.209 103.216C179.807 103.216 183.715 106.261 186.019 111.711C188.049 116.543 188.577 120.846 187.531 124.358C186.819 126.508 185.626 128.467 184.043 130.087C182.46 131.706 180.529 132.944 178.396 133.706C175.184 134.849 171.797 135.419 168.388 135.391ZM154.026 125.089C154.2 126.538 154.698 127.929 155.484 129.159C156.269 130.389 157.322 131.427 158.563 132.194C163.151 135.087 172.662 134.874 178.112 132.752C180.094 132.044 181.887 130.893 183.358 129.387C184.828 127.882 185.936 126.061 186.598 124.064C187.613 120.745 187.085 116.715 185.126 112.107C184.111 109.732 181.167 104.221 175.362 104.221H175.26C170.987 104.221 167.597 109.864 167.394 113.609C167.36 114.846 167.441 116.083 167.637 117.304C167.729 118.045 167.82 118.806 167.871 119.557C168.033 122.186 167.495 124.226 166.267 125.647C164.491 127.677 161.618 127.931 159.528 127.515C157.567 127.032 155.705 126.211 154.026 125.089Z" fill="#231F20"/>
<path d="M174.407 110.788C173.559 110.413 172.799 109.864 172.177 109.177C171.554 108.49 171.083 107.68 170.794 106.799C170.516 105.913 170.464 104.973 170.641 104.062C170.818 103.151 171.22 102.298 171.809 101.582C172.176 101.141 172.642 100.793 173.169 100.567C173.693 100.367 174.255 100.288 174.813 100.333C176.06 100.417 177.252 100.873 178.237 101.642C179.221 102.411 179.952 103.458 180.335 104.647C181.533 108.636 178.579 112.686 174.407 110.788Z" fill="#231F20"/>
<path d="M176.468 111.772C175.682 111.761 174.907 111.585 174.194 111.255C173.281 110.847 172.464 110.252 171.794 109.509C171.125 108.766 170.618 107.891 170.307 106.941C170.006 105.973 169.951 104.945 170.148 103.951C170.345 102.957 170.787 102.027 171.433 101.247C171.845 100.741 172.375 100.343 172.976 100.09C173.566 99.8576 174.202 99.7639 174.834 99.8156C176.185 99.9094 177.477 100.405 178.544 101.239C179.611 102.073 180.404 103.207 180.822 104.495C181.182 105.567 181.231 106.718 180.965 107.817C180.7 108.916 180.129 109.917 179.32 110.707C178.533 111.402 177.518 111.781 176.468 111.772ZM174.58 110.331C175.216 110.686 175.945 110.839 176.67 110.77C177.395 110.701 178.082 110.413 178.64 109.945C179.304 109.285 179.768 108.451 179.98 107.539C180.192 106.627 180.143 105.674 179.838 104.789C179.487 103.696 178.816 102.733 177.91 102.027C177.005 101.321 175.908 100.904 174.763 100.831C174.281 100.797 173.797 100.863 173.342 101.023C172.89 101.224 172.49 101.526 172.174 101.906C171.641 102.559 171.278 103.333 171.118 104.161C170.959 104.988 171.008 105.843 171.261 106.647C171.526 107.46 171.959 108.209 172.533 108.843C173.107 109.478 173.808 109.985 174.59 110.331H174.58Z" fill="#231F20"/>
<path d="M187.775 76.3692L187.684 76.4301C187.125 76.8259 185.146 79.1401 184.639 79.1604C164.004 79.7694 172.296 108.595 182.741 116.715C186.902 119.963 194.159 122.704 199.427 121.455C203.325 120.522 206.908 117.264 207.06 113.254C211.12 112.929 215.495 112.473 218.499 109.732C220.249 107.995 221.498 105.817 222.112 103.429C223.903 97.6535 223.353 91.4055 220.58 86.032C215.616 76.8158 202.421 71.1419 192.373 74.0753C190.729 74.5926 189.177 75.3669 187.775 76.3692Z" fill="white"/>
<path d="M196.656 122.318C191.505 122.087 186.547 120.288 182.446 117.162C175.25 111.549 169.14 96.527 172.296 86.9961C173.494 83.3218 176.62 78.8761 184.669 78.663C185.239 78.1868 185.778 77.6749 186.283 77.1303C186.637 76.7325 187.024 76.3658 187.44 76.0341L187.531 75.9631C188.983 74.9432 190.586 74.1588 192.282 73.6387C202.503 70.6546 215.962 76.3589 221.077 85.8187C223.921 91.3085 224.486 97.6978 222.65 103.602C222.02 106.083 220.721 108.344 218.895 110.138C215.759 112.99 211.12 113.467 207.588 113.752C207.172 118.004 203.315 121.09 199.59 121.983C198.628 122.206 197.644 122.319 196.656 122.318ZM198.108 73.8519C196.227 73.8414 194.354 74.0977 192.545 74.6131C190.954 75.1004 189.45 75.837 188.09 76.7954L188.008 76.8563C187.652 77.176 187.313 77.5148 186.993 77.8713C185.633 79.2618 185.136 79.6983 184.689 79.7084C178.701 79.881 174.854 82.4489 173.25 87.3412C170.205 96.4762 176.153 110.981 183.096 116.391C187.156 119.557 194.261 122.257 199.336 121.039C202.817 120.217 206.441 117.294 206.583 113.315C206.59 113.191 206.64 113.074 206.726 112.985C206.812 112.896 206.927 112.84 207.05 112.828C211.333 112.483 215.413 111.965 218.215 109.438C219.903 107.762 221.1 105.656 221.676 103.348C223.441 97.7024 222.905 91.5883 220.184 86.3364C216.195 78.866 206.755 73.8519 198.108 73.8519Z" fill="#231F20"/>
<path d="M210.805 107.895C211.871 101.693 222.194 100.282 221.605 107.601C221.499 110.142 220.5 112.565 218.783 114.442C217.91 115.355 216.785 115.989 215.551 116.264C214.317 116.539 213.029 116.441 211.851 115.985" fill="white"/>
<path d="M214.053 116.969C213.22 116.978 212.395 116.801 211.638 116.451C211.57 116.429 211.507 116.392 211.454 116.344C211.402 116.295 211.36 116.236 211.331 116.171C211.303 116.105 211.289 116.034 211.29 115.962C211.291 115.891 211.307 115.82 211.337 115.755C211.368 115.69 211.411 115.632 211.465 115.586C211.52 115.539 211.583 115.504 211.652 115.483C211.721 115.463 211.793 115.457 211.864 115.467C211.935 115.476 212.003 115.5 212.064 115.538C213.149 115.956 214.334 116.042 215.467 115.783C216.601 115.525 217.632 114.934 218.428 114.087C220.053 112.294 220.998 109.988 221.097 107.57C221.3 105.073 220.154 103.51 217.961 103.216C216.458 103.057 214.949 103.457 213.722 104.338C212.494 105.22 211.633 106.522 211.303 107.997C211.28 108.131 211.204 108.251 211.093 108.33C210.982 108.409 210.844 108.441 210.709 108.418C210.574 108.395 210.454 108.319 210.375 108.208C210.296 108.097 210.265 107.959 210.288 107.824C210.649 106.086 211.647 104.547 213.085 103.508C214.524 102.469 216.3 102.007 218.063 102.211C220.204 102.475 222.386 104.048 222.123 107.651C221.988 110.294 220.937 112.806 219.149 114.756C217.808 116.137 215.977 116.932 214.053 116.969Z" fill="#231F20"/>
<path d="M185.106 107.611C184.182 101.389 173.88 99.7445 174.316 107.073C174.363 109.617 175.308 112.062 176.986 113.975C177.837 114.912 178.947 115.575 180.177 115.879C181.406 116.183 182.698 116.113 183.888 115.68" fill="white"/>
<path d="M181.797 116.604C180.826 116.589 179.868 116.381 178.979 115.99C178.09 115.6 177.288 115.035 176.62 114.33C174.864 112.326 173.869 109.767 173.809 107.103C173.595 103.5 175.839 102.028 177.95 101.754C179.719 101.585 181.488 102.086 182.907 103.157C184.325 104.228 185.291 105.792 185.613 107.54C185.631 107.673 185.596 107.807 185.517 107.915C185.437 108.023 185.319 108.096 185.187 108.118C185.121 108.128 185.053 108.125 184.989 108.109C184.924 108.093 184.863 108.065 184.809 108.025C184.755 107.986 184.71 107.936 184.675 107.879C184.641 107.821 184.618 107.758 184.608 107.692C184.312 106.21 183.481 104.888 182.274 103.979C181.067 103.069 179.568 102.635 178.061 102.759C175.859 102.993 174.671 104.556 174.824 107.042C174.87 109.466 175.765 111.797 177.351 113.63C178.13 114.493 179.149 115.104 180.277 115.386C181.405 115.668 182.591 115.608 183.685 115.213C183.746 115.178 183.815 115.155 183.886 115.148C183.957 115.141 184.028 115.148 184.096 115.17C184.164 115.193 184.226 115.229 184.279 115.277C184.332 115.325 184.374 115.383 184.403 115.449C184.432 115.514 184.446 115.584 184.446 115.656C184.445 115.727 184.43 115.797 184.4 115.862C184.371 115.927 184.328 115.985 184.275 116.033C184.221 116.08 184.159 116.115 184.091 116.137C183.366 116.449 182.585 116.608 181.797 116.604Z" fill="#231F20"/>
<path d="M188.516 138.284C188.516 138.284 194.23 143.633 198.209 143.552C202.188 143.471 206.603 138.863 206.603 138.863L206.35 134.518L205.771 124.419L205.213 114.97L188.973 114.797L188.354 122.501L188.161 125.008L188.516 138.284Z" fill="white"/>
<path d="M198.108 144.09C193.987 144.09 188.404 138.903 188.171 138.68C188.121 138.635 188.08 138.58 188.052 138.519C188.025 138.458 188.01 138.392 188.008 138.325L187.694 125.089L188.506 114.827C188.516 114.7 188.574 114.581 188.668 114.495C188.762 114.408 188.885 114.36 189.013 114.361L205.253 114.533C205.381 114.535 205.503 114.586 205.595 114.674C205.688 114.763 205.743 114.883 205.751 115.01L207.141 138.903C207.146 138.974 207.136 139.045 207.112 139.112C207.087 139.178 207.049 139.239 206.999 139.289C206.816 139.482 202.381 144.029 198.25 144.131L198.108 144.09ZM188.973 138.081C189.896 138.913 194.697 143.075 198.108 143.075H198.199C201.508 142.994 205.304 139.482 206.086 138.7L204.736 115.508L189.511 115.335L188.739 125.079L188.973 138.081Z" fill="#231F20"/>
<path d="M188.201 125.089C189.477 127.305 191.288 129.165 193.469 130.499C196.93 132.752 202.117 135.3 206.349 134.559L205.771 124.46C202.669 124.876 199.525 124.876 196.423 124.46C193.657 124.305 190.939 123.666 188.394 122.572L188.201 125.089Z" fill="#231F20"/>
<path d="M204.857 135.178C200.503 135.178 195.783 132.56 193.185 130.875C190.927 129.5 189.058 127.572 187.755 125.272C187.705 125.19 187.683 125.093 187.694 124.998L187.887 122.501C187.892 122.418 187.918 122.337 187.963 122.266C188.007 122.195 188.068 122.136 188.14 122.095C188.214 122.055 188.296 122.034 188.379 122.034C188.462 122.034 188.544 122.055 188.617 122.095C191.115 123.151 193.776 123.769 196.484 123.922C199.538 124.339 202.635 124.339 205.69 123.922C205.76 123.912 205.831 123.917 205.899 123.936C205.968 123.955 206.031 123.988 206.086 124.034C206.141 124.078 206.186 124.134 206.219 124.197C206.252 124.259 206.273 124.328 206.278 124.399L206.857 134.498C206.866 134.625 206.828 134.751 206.749 134.85C206.67 134.95 206.556 135.016 206.431 135.036C205.911 135.125 205.385 135.173 204.857 135.178ZM188.719 124.927C189.951 127.006 191.676 128.749 193.743 130.002C195.915 131.413 201.335 134.569 205.822 134.062L205.294 124.977C202.327 125.312 199.33 125.275 196.372 124.866C193.796 124.701 191.258 124.157 188.841 123.252L188.719 124.927Z" fill="#231F20"/>
<path d="M196.443 126.723H198.108C199.979 126.747 201.836 126.402 203.574 125.706C205.311 125.01 206.894 123.978 208.231 122.669C209.568 121.36 210.634 119.8 211.366 118.078C212.099 116.356 212.485 114.506 212.5 112.635L212.653 99.1558C212.653 99.1558 204.695 97.2172 199.539 95.2684C190.881 91.9899 188.546 87.3108 188.546 87.3108C188.278 90.4323 187.595 93.5043 186.516 96.4458C185.415 98.5265 184.138 100.51 182.7 102.373C182.7 102.373 182.446 109.397 182.416 112.331C182.392 114.197 182.735 116.049 183.427 117.783C184.119 119.516 185.146 121.096 186.448 122.432C187.751 123.769 189.304 124.836 191.019 125.572C192.734 126.308 194.577 126.699 196.443 126.723Z" fill="white"/>
<path d="M198.26 127.251H198.098H196.433C192.523 127.205 188.792 125.609 186.058 122.813C183.325 120.017 181.814 116.25 181.858 112.341C181.858 109.438 182.142 102.444 182.142 102.373C182.146 102.267 182.181 102.165 182.243 102.079C183.679 100.251 184.952 98.3018 186.049 96.2529C187.113 93.377 187.796 90.3741 188.079 87.3209C188.088 87.2097 188.132 87.1042 188.205 87.0201C188.278 86.936 188.377 86.8777 188.485 86.854C188.596 86.8347 188.709 86.8508 188.809 86.9001C188.91 86.9493 188.992 87.0292 189.044 87.1281C189.044 87.1281 191.419 91.6854 199.752 94.8319C204.827 96.7503 212.734 98.6788 212.805 98.6991C212.917 98.7261 213.016 98.7897 213.088 98.8798C213.16 98.9699 213.199 99.0813 213.201 99.1964L213.048 112.686C212.995 116.571 211.413 120.278 208.645 123.005C205.876 125.731 202.145 127.257 198.26 127.251ZM183.147 102.556C183.147 103.571 182.903 109.661 182.873 112.331C182.851 114.134 183.186 115.925 183.857 117.599C184.528 119.274 185.523 120.799 186.784 122.089C188.045 123.379 189.549 124.407 191.208 125.115C192.867 125.823 194.649 126.197 196.453 126.216H198.108H198.26C201.874 126.211 205.341 124.783 207.911 122.242C210.481 119.7 211.948 116.249 211.993 112.635L212.135 99.572C210.47 99.1558 203.832 97.4506 199.356 95.7657C193.266 93.4414 190.221 90.437 188.902 88.7825C188.569 91.4678 187.922 94.1046 186.973 96.6386C185.879 98.7228 184.599 100.703 183.147 102.556Z" fill="#231F20"/>
<path d="M197.631 116.685C196.827 116.688 196.023 116.64 195.225 116.543C195.158 116.534 195.094 116.512 195.036 116.479C194.978 116.445 194.927 116.401 194.886 116.347C194.803 116.24 194.766 116.104 194.784 115.969C194.801 115.835 194.871 115.713 194.979 115.63C195.086 115.547 195.222 115.51 195.357 115.528C196.689 115.674 198.034 115.674 199.366 115.528C199.996 115.091 198.95 110.453 197.143 105.55C197.119 105.488 197.108 105.422 197.109 105.356C197.111 105.289 197.126 105.224 197.153 105.163C197.181 105.103 197.22 105.048 197.269 105.003C197.318 104.958 197.375 104.923 197.438 104.901C197.5 104.876 197.567 104.865 197.634 104.866C197.702 104.868 197.768 104.883 197.829 104.91C197.891 104.937 197.946 104.977 197.992 105.026C198.038 105.075 198.074 105.132 198.098 105.195C198.646 106.687 201.356 114.239 200.259 116.025C200.18 116.168 200.068 116.289 199.932 116.38C199.796 116.47 199.64 116.526 199.478 116.543C198.865 116.624 198.249 116.672 197.631 116.685Z" fill="#231F20"/>
<path d="M191.898 103.623C191.913 102.289 191.484 101.202 190.94 101.196C190.396 101.19 189.944 102.267 189.929 103.601C189.914 104.935 190.343 106.021 190.887 106.027C191.431 106.033 191.883 104.957 191.898 103.623Z" fill="#231F20"/>
<path d="M204.88 103.316C204.895 101.981 204.466 100.895 203.922 100.889C203.379 100.883 202.926 101.96 202.911 103.294C202.897 104.628 203.326 105.714 203.869 105.72C204.413 105.726 204.866 104.65 204.88 103.316Z" fill="#231F20"/>
<path d="M197.641 120.014C197.336 120.014 197.032 120.014 196.727 120.014C193.345 119.568 190.274 117.806 188.181 115.112C188.141 115.058 188.112 114.998 188.095 114.933C188.079 114.869 188.075 114.801 188.085 114.735C188.094 114.669 188.116 114.606 188.15 114.549C188.184 114.491 188.229 114.441 188.282 114.401C188.392 114.324 188.528 114.293 188.66 114.313C188.793 114.334 188.912 114.406 188.993 114.513C188.993 114.513 192.038 118.573 196.829 118.999C200.117 119.293 203.477 117.832 206.816 114.655C206.863 114.603 206.92 114.561 206.984 114.532C207.047 114.503 207.116 114.488 207.186 114.487C207.256 114.486 207.325 114.499 207.389 114.526C207.454 114.553 207.512 114.593 207.56 114.643C207.608 114.693 207.646 114.753 207.67 114.819C207.694 114.884 207.704 114.954 207.7 115.024C207.696 115.094 207.678 115.162 207.646 115.224C207.615 115.286 207.571 115.341 207.517 115.386C204.259 118.471 200.97 120.014 197.641 120.014Z" fill="#231F20"/>
<path d="M186.242 83.1189C188.374 88.6506 191.185 94.2027 195.946 97.745C198.379 99.4492 201.032 100.815 203.832 101.805C207.994 103.419 212.064 103.622 215.596 106.535C218.933 109.276 221.322 112.998 222.427 117.172C223.668 113.875 224.16 110.342 223.866 106.831C223.573 103.32 222.503 99.9182 220.732 96.8721C217.393 91.2287 211.881 87.2702 206.441 83.6162C203.467 81.5862 200.229 79.5562 196.646 79.6577" fill="white"/>
<path d="M222.427 117.629C222.319 117.624 222.216 117.585 222.132 117.517C222.048 117.45 221.988 117.357 221.96 117.253C220.886 113.179 218.556 109.546 215.302 106.87C212.998 104.972 210.45 104.261 207.74 103.51C206.421 103.145 205.06 102.759 203.68 102.231C200.842 101.239 198.149 99.8739 195.672 98.1713C190.505 94.3244 187.684 88.2141 185.796 83.3218C185.772 83.2592 185.76 83.1924 185.762 83.1254C185.764 83.0583 185.779 82.9923 185.806 82.931C185.834 82.8697 185.873 82.8144 185.921 82.7683C185.97 82.7222 186.027 82.6861 186.09 82.6621C186.153 82.6381 186.22 82.6267 186.287 82.6285C186.354 82.6303 186.42 82.6453 186.481 82.6726C186.542 82.7 186.597 82.7391 186.644 82.7878C186.69 82.8365 186.726 82.8938 186.75 82.9564C188.577 87.7269 191.317 93.6647 196.281 97.3593C198.668 99.0127 201.27 100.331 204.015 101.277C205.345 101.795 206.684 102.17 207.984 102.536C210.795 103.317 213.454 104.058 215.921 106.088C218.913 108.561 221.173 111.804 222.458 115.467C223.353 112.417 223.62 109.216 223.241 106.06C222.863 102.904 221.847 99.8573 220.255 97.1055C216.997 91.5941 211.485 87.6153 206.116 84.0222C203.071 81.9414 200.026 80.1144 196.616 80.1449C196.548 80.1507 196.48 80.1421 196.416 80.1194C196.352 80.0968 196.293 80.0607 196.244 80.0136C196.195 79.9665 196.157 79.9095 196.131 79.8464C196.106 79.7832 196.095 79.7154 196.098 79.6475C196.098 79.5137 196.15 79.385 196.242 79.2885C196.335 79.192 196.462 79.1351 196.595 79.1299C200.249 79.1299 203.457 81.0076 206.684 83.1899C212.145 86.854 217.758 90.9039 221.128 96.6082C222.924 99.7188 224.011 103.188 224.309 106.768C224.607 110.348 224.11 113.949 222.853 117.314C222.82 117.402 222.762 117.479 222.687 117.535C222.611 117.59 222.521 117.623 222.427 117.629Z" fill="#231F20"/>
<path d="M163.598 164.573H137.634C147.886 155.752 157.741 148.079 157.741 148.079L163.598 164.573Z" fill="#ED1E79"/>
<path d="M231.268 165.08H231.156C231.091 165.067 231.029 165.041 230.974 165.003C230.92 164.966 230.873 164.918 230.837 164.862C230.801 164.806 230.777 164.744 230.765 164.678C230.754 164.613 230.756 164.546 230.77 164.481C231.288 162.086 231.785 160.096 232.262 158.544C232.273 158.472 232.299 158.403 232.339 158.342C232.378 158.281 232.43 158.23 232.491 158.191C232.553 158.152 232.621 158.126 232.693 158.116C232.765 158.106 232.838 158.111 232.908 158.132C232.977 158.152 233.042 158.187 233.097 158.235C233.152 158.282 233.196 158.341 233.226 158.407C233.256 158.473 233.272 158.545 233.272 158.617C233.272 158.69 233.257 158.762 233.227 158.828C232.77 160.36 232.273 162.329 231.755 164.694C231.73 164.804 231.668 164.903 231.579 164.973C231.49 165.043 231.381 165.081 231.268 165.08Z" fill="#231F20"/>
<path d="M282.231 134.711C282.231 134.711 287.661 136.071 286.078 143.187L282.231 134.711Z" fill="white"/>
<path d="M286.078 143.694H285.966C285.901 143.681 285.839 143.655 285.784 143.617C285.73 143.58 285.683 143.532 285.647 143.476C285.611 143.42 285.587 143.358 285.575 143.292C285.564 143.227 285.565 143.16 285.58 143.095C287.032 136.569 282.312 135.28 282.109 135.219C282.045 135.203 281.984 135.175 281.931 135.136C281.878 135.097 281.833 135.048 281.798 134.991C281.764 134.934 281.742 134.871 281.733 134.806C281.723 134.741 281.727 134.674 281.744 134.61C281.777 134.481 281.859 134.37 281.973 134.3C282.086 134.23 282.222 134.206 282.353 134.234C282.414 134.234 288.24 135.797 286.575 143.308C286.546 143.418 286.482 143.516 286.392 143.586C286.302 143.655 286.191 143.693 286.078 143.694Z" fill="#231F20"/>
<path d="M193.916 229.299C196.085 229.299 197.844 227.541 197.844 225.371C197.844 223.202 196.085 221.443 193.916 221.443C191.746 221.443 189.988 223.202 189.988 225.371C189.988 227.541 191.746 229.299 193.916 229.299Z" fill="#ED1E79"/>
<path d="M208.43 229.299C210.6 229.299 212.358 227.541 212.358 225.371C212.358 223.202 210.6 221.443 208.43 221.443C206.261 221.443 204.502 223.202 204.502 225.371C204.502 227.541 206.261 229.299 208.43 229.299Z" fill="#ED1E79"/>
<path d="M222.935 229.299C225.104 229.299 226.863 227.541 226.863 225.371C226.863 223.202 225.104 221.443 222.935 221.443C220.765 221.443 219.007 223.202 219.007 225.371C219.007 227.541 220.765 229.299 222.935 229.299Z" fill="#ED1E79"/>
<path d="M329.053 165.08H87.7975C87.6629 165.08 87.5338 165.027 87.4387 164.932C87.3435 164.836 87.29 164.707 87.29 164.573V67.7924C87.2926 67.6586 87.3469 67.531 87.4415 67.4364C87.5361 67.3418 87.6637 67.2875 87.7975 67.2849H329.053C329.187 67.2875 329.314 67.3418 329.409 67.4364C329.503 67.531 329.558 67.6586 329.56 67.7924V164.573C329.56 164.707 329.507 164.836 329.412 164.932C329.317 165.027 329.187 165.08 329.053 165.08ZM88.305 164.065H328.545V68.2999H88.305V164.065Z" fill="#231F20"/>
<path d="M166.084 215.861H87.7975C87.6637 215.858 87.5361 215.804 87.4415 215.709C87.3469 215.614 87.2926 215.487 87.29 215.353V169.16C87.2926 169.027 87.3469 168.899 87.4415 168.804C87.5361 168.71 87.6637 168.656 87.7975 168.653H166.084C166.218 168.656 166.346 168.71 166.44 168.804C166.535 168.899 166.589 169.027 166.592 169.16V215.353C166.589 215.487 166.535 215.614 166.44 215.709C166.346 215.804 166.218 215.858 166.084 215.861ZM88.305 214.846H165.577V169.668H88.305V214.846Z" fill="#231F20"/>
<path d="M247.558 215.861H169.292C169.157 215.861 169.028 215.807 168.933 215.712C168.838 215.617 168.784 215.488 168.784 215.353V169.16C168.784 169.026 168.838 168.897 168.933 168.802C169.028 168.706 169.157 168.653 169.292 168.653H247.558C247.693 168.653 247.822 168.706 247.917 168.802C248.013 168.897 248.066 169.026 248.066 169.16V215.353C248.066 215.42 248.053 215.486 248.027 215.547C248.002 215.609 247.964 215.665 247.917 215.712C247.87 215.759 247.814 215.796 247.753 215.822C247.691 215.847 247.625 215.861 247.558 215.861ZM169.799 214.846H247.051V169.668H169.799V214.846Z" fill="#231F20"/>
<path d="M329.053 215.861H250.776C250.641 215.861 250.512 215.807 250.417 215.712C250.322 215.617 250.269 215.488 250.269 215.353V169.16C250.269 169.026 250.322 168.897 250.417 168.802C250.512 168.706 250.641 168.653 250.776 168.653H329.053C329.187 168.653 329.317 168.706 329.412 168.802C329.507 168.897 329.56 169.026 329.56 169.16V215.353C329.56 215.42 329.547 215.486 329.522 215.547C329.496 215.609 329.459 215.665 329.412 215.712C329.365 215.759 329.309 215.796 329.247 215.822C329.185 215.847 329.119 215.861 329.053 215.861ZM251.284 214.846H328.545V169.668H251.284V214.846Z" fill="#231F20"/>
<path d="M160.796 171.789H147.581C146.706 171.789 145.998 172.496 145.998 173.368C145.998 174.239 146.706 174.946 147.581 174.946H160.796C161.671 174.946 162.38 174.239 162.38 173.368C162.38 172.496 161.671 171.789 160.796 171.789Z" fill="#D1D3D4"/>
<path d="M316.568 75.4049H277.004C275.339 75.4049 273.989 76.7523 273.989 78.4144C273.989 80.0765 275.339 81.4239 277.004 81.4239H316.568C318.233 81.4239 319.583 80.0765 319.583 78.4144C319.583 76.7523 318.233 75.4049 316.568 75.4049Z" fill="#D1D3D4"/>
<path d="M235.734 248.544H181.117L176.346 243.55H240.504L235.734 248.544Z" fill="#939598"/>
</svg>
