<svg width="406" height="307" viewBox="0 0 406 307" fill="none" xmlns="http://www.w3.org/2000/svg">
<path d="M361.848 236.059H44.1525C44.0287 236.059 43.9099 236.01 43.8224 235.922C43.7348 235.835 43.6856 235.716 43.6856 235.592C43.6882 235.469 43.7382 235.352 43.8252 235.265C43.9122 235.178 44.0295 235.128 44.1525 235.125H361.848C361.971 235.128 362.088 235.178 362.175 235.265C362.262 235.352 362.312 235.469 362.314 235.592C362.314 235.716 362.265 235.835 362.178 235.922C362.09 236.01 361.971 236.059 361.848 236.059Z" fill="#D1D3D4"/>
<path d="M338.716 46.4165H73.3845C70.3743 46.4165 67.934 48.8568 67.934 51.8671V209.791C67.934 212.801 70.3743 215.241 73.3845 215.241H338.716C341.726 215.241 344.166 212.801 344.166 209.791V51.8671C344.166 48.8568 341.726 46.4165 338.716 46.4165Z" fill="white"/>
<path d="M338.706 215.749H73.3845C71.8034 215.746 70.288 215.116 69.1709 213.997C68.0538 212.878 67.4265 211.362 67.4265 209.781V51.8671C67.4291 50.2887 68.0581 48.7758 69.1751 47.6607C70.2922 46.5455 71.8061 45.9192 73.3845 45.9192H338.706C340.286 45.9192 341.801 46.5469 342.918 47.6643C344.036 48.7816 344.664 50.2971 344.664 51.8772V209.781C344.664 211.362 344.036 212.878 342.919 213.997C341.802 215.116 340.287 215.746 338.706 215.749ZM73.3845 46.9342C72.0735 46.9342 70.8162 47.455 69.8892 48.382C68.9622 49.309 68.4415 50.5663 68.4415 51.8772V209.781C68.4414 211.093 68.9619 212.351 69.8886 213.28C70.8153 214.208 72.0726 214.731 73.3845 214.734H338.706C340.017 214.731 341.275 214.208 342.201 213.28C343.128 212.351 343.649 211.093 343.649 209.781V51.8671C343.646 50.5579 343.124 49.3032 342.197 48.3784C341.27 47.4536 340.015 46.9342 338.706 46.9342H73.3845Z" fill="#231F20"/>
<path d="M190.566 167.384H83.8695C83.7456 167.384 83.6269 167.335 83.5393 167.247C83.4518 167.16 83.4026 167.041 83.4026 166.917C83.4051 166.794 83.4552 166.677 83.5422 166.59C83.6292 166.503 83.7464 166.453 83.8695 166.45H190.566C190.689 166.453 190.807 166.503 190.894 166.59C190.981 166.677 191.031 166.794 191.033 166.917C191.033 166.979 191.021 167.039 190.998 167.096C190.974 167.153 190.94 167.204 190.896 167.247C190.853 167.291 190.802 167.325 190.745 167.349C190.688 167.372 190.628 167.384 190.566 167.384Z" fill="#D1D3D4"/>
<path d="M141.41 206.634C141.286 206.634 141.167 206.585 141.08 206.498C140.992 206.41 140.943 206.291 140.943 206.167V166.704C140.943 166.58 140.992 166.462 141.08 166.374C141.167 166.287 141.286 166.237 141.41 166.237C141.533 166.24 141.65 166.29 141.737 166.377C141.824 166.464 141.874 166.581 141.877 166.704V206.147C141.878 206.21 141.867 206.272 141.844 206.33C141.822 206.389 141.788 206.442 141.744 206.487C141.701 206.533 141.649 206.569 141.592 206.594C141.534 206.619 141.472 206.633 141.41 206.634Z" fill="#D1D3D4"/>
<path d="M325.45 141.096H202.756C202.633 141.096 202.514 141.047 202.426 140.959C202.339 140.871 202.29 140.753 202.29 140.629C202.288 140.567 202.299 140.506 202.322 140.449C202.345 140.391 202.38 140.339 202.423 140.296C202.467 140.252 202.519 140.218 202.576 140.195C202.633 140.172 202.695 140.161 202.756 140.162H325.45C325.511 140.161 325.573 140.172 325.63 140.195C325.687 140.218 325.739 140.252 325.783 140.296C325.826 140.339 325.861 140.391 325.884 140.449C325.907 140.506 325.918 140.567 325.917 140.629C325.917 140.753 325.867 140.871 325.78 140.959C325.692 141.047 325.573 141.096 325.45 141.096Z" fill="#D1D3D4"/>
<path d="M325.45 153.093H202.756C202.695 153.094 202.633 153.083 202.576 153.06C202.519 153.037 202.467 153.003 202.423 152.959C202.38 152.916 202.345 152.864 202.322 152.806C202.299 152.749 202.288 152.688 202.29 152.626C202.29 152.502 202.339 152.383 202.426 152.296C202.514 152.208 202.633 152.159 202.756 152.159H325.45C325.573 152.159 325.692 152.208 325.78 152.296C325.867 152.383 325.917 152.502 325.917 152.626C325.918 152.688 325.907 152.749 325.884 152.806C325.861 152.864 325.826 152.916 325.783 152.959C325.739 153.003 325.687 153.037 325.63 153.06C325.573 153.083 325.511 153.094 325.45 153.093Z" fill="#D1D3D4"/>
<path d="M325.45 165.101H202.756C202.633 165.101 202.514 165.051 202.426 164.964C202.339 164.876 202.29 164.757 202.29 164.634C202.29 164.51 202.339 164.391 202.426 164.304C202.514 164.216 202.633 164.167 202.756 164.167H325.45C325.511 164.167 325.572 164.179 325.628 164.202C325.685 164.226 325.736 164.26 325.78 164.304C325.823 164.347 325.857 164.398 325.881 164.455C325.904 164.512 325.917 164.572 325.917 164.634C325.917 164.695 325.904 164.756 325.881 164.812C325.857 164.869 325.823 164.92 325.78 164.964C325.736 165.007 325.685 165.042 325.628 165.065C325.572 165.088 325.511 165.101 325.45 165.101Z" fill="#D1D3D4"/>
<path d="M325.45 177.108H202.756C202.643 177.091 202.54 177.034 202.465 176.948C202.39 176.861 202.349 176.75 202.349 176.636C202.349 176.521 202.39 176.411 202.465 176.324C202.54 176.237 202.643 176.181 202.756 176.164H325.45C325.563 176.181 325.666 176.237 325.741 176.324C325.816 176.411 325.857 176.521 325.857 176.636C325.857 176.75 325.816 176.861 325.741 176.948C325.666 177.034 325.563 177.091 325.45 177.108Z" fill="#D1D3D4"/>
<path d="M325.45 189.105H202.756C202.633 189.105 202.514 189.056 202.426 188.968C202.339 188.881 202.29 188.762 202.29 188.638C202.29 188.514 202.339 188.396 202.426 188.308C202.514 188.221 202.633 188.171 202.756 188.171H325.45C325.511 188.171 325.572 188.183 325.628 188.207C325.685 188.23 325.736 188.265 325.78 188.308C325.823 188.351 325.857 188.403 325.881 188.46C325.904 188.516 325.917 188.577 325.917 188.638C325.917 188.7 325.904 188.76 325.881 188.817C325.857 188.874 325.823 188.925 325.78 188.968C325.736 189.012 325.685 189.046 325.628 189.07C325.572 189.093 325.511 189.105 325.45 189.105Z" fill="#D1D3D4"/>
<path d="M331.743 124.896H189.988C189.864 124.896 189.745 124.847 189.658 124.76C189.57 124.672 189.521 124.553 189.521 124.429C189.523 124.306 189.573 124.189 189.66 124.102C189.747 124.015 189.865 123.965 189.988 123.963H331.743C331.866 123.965 331.983 124.015 332.07 124.102C332.157 124.189 332.207 124.306 332.21 124.429C332.21 124.553 332.16 124.672 332.073 124.76C331.985 124.847 331.866 124.896 331.743 124.896Z" fill="#D1D3D4"/>
<path d="M249.03 80.4191H204.482C203.316 80.4191 202.371 81.3643 202.371 82.5303V111.458C202.371 112.624 203.316 113.569 204.482 113.569H249.03C250.196 113.569 251.141 112.624 251.141 111.458V82.5303C251.141 81.3643 250.196 80.4191 249.03 80.4191Z" fill="#ED1E79"/>
<path d="M190.373 205.68C190.312 205.682 190.25 205.67 190.193 205.648C190.136 205.625 190.084 205.59 190.04 205.547C189.997 205.503 189.962 205.451 189.939 205.394C189.916 205.336 189.905 205.275 189.907 205.213V70.8476C189.907 70.7238 189.956 70.6051 190.043 70.5175C190.131 70.4299 190.25 70.3807 190.373 70.3807C190.496 70.3833 190.614 70.4334 190.701 70.5204C190.788 70.6074 190.838 70.7246 190.84 70.8476V205.213C190.84 205.275 190.828 205.335 190.805 205.392C190.781 205.449 190.747 205.5 190.704 205.544C190.66 205.587 190.609 205.621 190.552 205.645C190.495 205.668 190.435 205.68 190.373 205.68Z" fill="#D1D3D4"/>
<path d="M332.687 70.9796H78.9366C78.8127 70.9796 78.694 70.9304 78.6064 70.8428C78.5189 70.7553 78.4697 70.6365 78.4697 70.5127C78.4723 70.3897 78.5223 70.2724 78.6093 70.1854C78.6963 70.0984 78.8135 70.0484 78.9366 70.0458H332.687C332.811 70.0457 332.931 70.0946 333.02 70.1819C333.11 70.2692 333.161 70.3879 333.164 70.5127C333.164 70.5749 333.151 70.6364 333.127 70.6937C333.103 70.7511 333.068 70.803 333.023 70.8465C332.979 70.89 332.926 70.9241 332.868 70.947C332.811 70.9699 332.749 70.9809 332.687 70.9796Z" fill="#D1D3D4"/>
<path d="M327.459 206.979H84.6307C83.0496 206.979 81.5331 206.352 80.4141 205.235C79.2952 204.118 78.6652 202.602 78.6625 201.021V60.6367C78.6652 59.0546 79.2948 57.5381 80.4135 56.4195C81.5322 55.3008 83.0487 54.6711 84.6307 54.6685H327.459C329.041 54.6711 330.558 55.3008 331.676 56.4195C332.795 57.5381 333.425 59.0546 333.428 60.6367V201.021C333.425 202.602 332.795 204.118 331.676 205.235C330.557 206.352 329.04 206.979 327.459 206.979ZM84.6307 55.6835C83.3179 55.6861 82.0595 56.2089 81.1312 57.1372C80.2029 58.0655 79.6802 59.3238 79.6775 60.6367V201.021C79.6802 202.333 80.2032 203.59 81.1318 204.517C82.0605 205.444 83.3188 205.964 84.6307 205.964H327.459C328.771 205.964 330.03 205.444 330.958 204.517C331.887 203.59 332.41 202.333 332.413 201.021V60.6367C332.41 59.3238 331.887 58.0655 330.959 57.1372C330.03 56.2089 328.772 55.6861 327.459 55.6835H84.6307Z" fill="#231F20"/>
<path d="M234.161 215.292L205.03 215.221L175.91 215.292C175.91 215.292 173.342 241.682 156.625 252.979H253.466C236.728 241.713 234.161 215.292 234.161 215.292Z" fill="white"/>
<path d="M253.456 253.487H156.604C156.497 253.487 156.393 253.452 156.307 253.388C156.221 253.324 156.158 253.234 156.127 253.131C156.092 253.028 156.093 252.915 156.13 252.812C156.167 252.709 156.238 252.621 156.33 252.563C172.662 241.56 175.372 215.505 175.402 215.241C175.415 215.116 175.474 214.999 175.568 214.915C175.661 214.83 175.783 214.784 175.91 214.785L205.03 214.714L234.16 214.785C234.286 214.786 234.407 214.833 234.5 214.918C234.594 215.002 234.653 215.117 234.668 215.241C234.668 215.505 237.409 241.56 253.74 252.563C253.829 252.625 253.896 252.713 253.933 252.815C253.969 252.916 253.973 253.027 253.943 253.131C253.91 253.235 253.845 253.325 253.758 253.389C253.67 253.453 253.564 253.487 253.456 253.487ZM158.198 252.472H251.872C237.459 241.621 234.14 219.271 233.714 215.8L205.03 215.729L176.356 215.8C175.92 219.271 172.611 241.621 158.198 252.472Z" fill="#231F20"/>
<path d="M260.794 252.979H149.276C146.552 252.979 144.343 255.188 144.343 257.912V258.095C144.343 260.819 146.552 263.028 149.276 263.028H260.794C263.518 263.028 265.727 260.819 265.727 258.095V257.912C265.727 255.188 263.518 252.979 260.794 252.979Z" fill="white"/>
<path d="M260.794 263.545H149.276C147.834 263.543 146.452 262.969 145.432 261.949C144.412 260.929 143.838 259.547 143.836 258.105V257.912C143.838 256.47 144.412 255.088 145.432 254.068C146.452 253.048 147.834 252.474 149.276 252.472H260.794C262.236 252.474 263.618 253.048 264.638 254.068C265.658 255.088 266.232 256.47 266.234 257.912V258.105C266.232 259.547 265.658 260.929 264.638 261.949C263.618 262.969 262.236 263.543 260.794 263.545ZM149.276 253.487C148.103 253.489 146.979 253.956 146.15 254.786C145.32 255.615 144.853 256.739 144.851 257.912V258.105C144.853 259.278 145.32 260.402 146.15 261.231C146.979 262.061 148.103 262.528 149.276 262.53H260.794C261.967 262.528 263.091 262.061 263.92 261.231C264.75 260.402 265.217 259.278 265.219 258.105V257.912C265.217 256.739 264.75 255.615 263.92 254.786C263.091 253.956 261.967 253.489 260.794 253.487H149.276Z" fill="#231F20"/>
<path d="M95.075 66.7368C96.8296 66.7368 98.252 65.3145 98.252 63.5599C98.252 61.8053 96.8296 60.3829 95.075 60.3829C93.3205 60.3829 91.8981 61.8053 91.8981 63.5599C91.8981 65.3145 93.3205 66.7368 95.075 66.7368Z" fill="#ED1E79"/>
<path d="M107.489 66.7368C109.243 66.7368 110.665 65.3145 110.665 63.5599C110.665 61.8053 109.243 60.3829 107.489 60.3829C105.734 60.3829 104.312 61.8053 104.312 63.5599C104.312 65.3145 105.734 66.7368 107.489 66.7368Z" fill="#231F20"/>
<path d="M119.912 66.7368C121.667 66.7368 123.089 65.3145 123.089 63.5599C123.089 61.8053 121.667 60.3829 119.912 60.3829C118.158 60.3829 116.735 61.8053 116.735 63.5599C116.735 65.3145 118.158 66.7368 119.912 66.7368Z" fill="#231F20"/>
<path d="M100.881 229.056L109.163 259.455C109.163 259.455 123.698 262.835 123.373 263.769C123.048 264.702 100.485 267.758 100.485 267.758L90.8932 232.679" fill="white"/>
<path d="M100.485 268.265C100.374 268.264 100.266 268.227 100.178 268.159C100.09 268.092 100.027 267.997 99.9978 267.889L90.406 232.77C90.3877 232.706 90.3824 232.639 90.3904 232.573C90.3984 232.507 90.4196 232.443 90.4527 232.386C90.4858 232.328 90.5302 232.278 90.5832 232.237C90.6362 232.197 90.6968 232.168 90.7613 232.151C90.8905 232.117 91.028 232.135 91.1439 232.202C91.2598 232.268 91.3448 232.378 91.3804 232.507L100.861 267.189C108.311 266.174 119.608 264.479 122.429 263.667C118.048 262.164 113.581 260.924 109.052 259.952C108.963 259.932 108.881 259.888 108.815 259.826C108.749 259.763 108.701 259.684 108.676 259.597L100.394 229.147C100.359 229.012 100.379 228.869 100.449 228.749C100.519 228.63 100.635 228.542 100.769 228.507C100.904 228.472 101.047 228.492 101.167 228.563C101.287 228.633 101.374 228.748 101.409 228.883L109.62 259.069C114.817 260.287 123.262 262.398 123.83 263.464C123.902 263.623 123.92 263.801 123.881 263.972C123.759 264.337 123.465 265.21 100.536 268.295L100.485 268.265Z" fill="#231F20"/>
<path d="M75.11 218.936L72.7248 265.017C72.7248 265.017 95.4303 269.94 95.5115 269.351C95.5927 268.762 83.3315 260.003 83.3315 260.003L86.8942 227.259" fill="white"/>
<path d="M95.3085 269.869C94.192 269.869 89.9899 269.29 72.5725 265.514C72.4535 265.488 72.3476 265.421 72.2734 265.324C72.1991 265.228 72.1613 265.108 72.1665 264.987L74.5517 218.916C74.5585 218.781 74.6184 218.655 74.7183 218.564C74.8183 218.474 74.95 218.427 75.0846 218.434C75.2192 218.44 75.3456 218.5 75.436 218.6C75.5265 218.7 75.5735 218.832 75.5667 218.967L73.2018 264.641C80.2256 266.164 90.7308 268.336 94.2123 268.823C92.1823 267.088 86.5896 263.048 82.9356 260.45C82.8637 260.396 82.807 260.325 82.7714 260.243C82.7357 260.161 82.7224 260.071 82.7326 259.983L86.275 227.208C86.2813 227.142 86.3008 227.077 86.3324 227.017C86.364 226.958 86.4069 226.906 86.4589 226.863C86.5108 226.821 86.5706 226.789 86.6348 226.77C86.6991 226.751 86.7665 226.745 86.8332 226.752C86.969 226.767 87.0931 226.835 87.1787 226.942C87.2642 227.048 87.3042 227.184 87.29 227.32L83.7578 259.8C96.09 268.57 96.0088 269.087 95.9378 269.463C95.9104 269.605 95.8308 269.732 95.7145 269.818C95.7145 269.818 95.6231 269.869 95.3085 269.869Z" fill="#231F20"/>
<path d="M113.964 259.181L110.919 263.85L98.9422 265.261L100.12 269.849C100.12 269.849 126.51 266.55 127.068 264.144C127.626 261.739 113.964 259.181 113.964 259.181Z" fill="#231F20"/>
<path d="M70.5628 266.073L71.253 261.363L85.1179 265.159L87.8178 261.596C87.8178 261.596 97.9678 268.965 96.5874 270.549C95.207 272.132 80.185 269.27 70.5628 266.073Z" fill="#231F20"/>
<path d="M65.9141 106.423C67.2592 106.026 68.7033 106.134 69.9741 106.728C70.7796 104.831 72.04 103.162 73.6438 101.868C75.2477 100.573 77.1457 99.6944 79.17 99.3081C80.5794 99.0777 82.0049 98.959 83.433 98.9529C85.5645 98.9529 87.8584 99.0848 89.523 100.394C90.4789 101.251 91.1757 102.358 91.5345 103.591C91.8933 104.823 91.8997 106.131 91.553 107.367C90.3147 112.442 86.478 113.691 82.9965 116.563C81.3075 118.047 79.9534 119.874 79.0241 121.921C78.0949 123.969 77.6118 126.19 77.6069 128.439C77.6069 138.447 80.7737 149.51 69.8015 155.519C62.8082 159.335 53.3281 156.382 48.6388 149.936C47.5837 148.54 46.8051 146.956 46.3449 145.267C45.1979 140.71 47.1873 135.939 49.6842 131.961C52.1811 127.982 54.7592 124.379 56.8501 120.298C58.6568 116.746 58.8801 112.463 61.4988 109.275C62.6358 107.886 64.1801 106.888 65.9141 106.423Z" fill="white"/>
<path d="M62.9808 157.721C60.1228 157.695 57.3102 157.004 54.7648 155.704C52.2195 154.404 50.0111 152.53 48.314 150.231C47.222 148.782 46.416 147.139 45.9389 145.389C44.9239 141.421 46.0506 136.934 49.3392 131.687C50.0598 130.54 50.8008 129.413 51.5316 128.286C53.3291 125.637 54.9825 122.892 56.4848 120.065C57.151 118.643 57.7009 117.17 58.1291 115.66C58.702 113.248 59.736 110.97 61.1741 108.951C62.3537 107.488 63.9558 106.425 65.7619 105.906C67.0745 105.519 68.4767 105.566 69.761 106.038C70.6394 104.17 71.9518 102.54 73.5886 101.282C75.2253 100.025 77.1391 99.1779 79.17 98.8108C80.6065 98.5769 82.0589 98.4547 83.5142 98.4454C85.666 98.4454 88.102 98.5672 89.9493 99.9882C90.9922 100.9 91.7561 102.088 92.1529 103.415C92.5498 104.742 92.5635 106.155 92.1925 107.489C91.1775 111.549 88.7009 113.244 86.1025 115.061C85.2499 115.65 84.3668 116.259 83.5142 116.949C81.8815 118.383 80.5728 120.149 79.675 122.128C78.7773 124.107 78.311 126.255 78.3073 128.429C78.3073 130.245 78.4189 132.133 78.5204 133.96C78.9975 142.283 79.5354 150.901 70.238 155.955C68.0092 157.154 65.5109 157.762 62.9808 157.721ZM66.0258 106.911C64.4304 107.368 63.0135 108.303 61.9658 109.59C60.6081 111.507 59.6328 113.668 59.0933 115.954C58.6551 117.522 58.0846 119.05 57.3881 120.522C55.872 123.381 54.2015 126.156 52.3842 128.835C51.6534 129.961 50.9124 131.088 50.2019 132.225C47.0656 137.229 45.9998 141.451 46.9235 145.146C47.3699 146.768 48.1208 148.29 49.1362 149.632C53.9168 156.209 63.1229 158.645 69.6493 155.072C78.3377 150.312 77.8911 142.395 77.4039 134.011C77.3024 132.174 77.1908 130.276 77.1908 128.439C77.1942 126.114 77.694 123.816 78.6567 121.7C79.6194 119.584 81.0229 117.698 82.7733 116.167C83.6563 115.447 84.5495 114.828 85.4224 114.229C88.0208 112.442 90.264 110.899 91.147 107.256C91.6647 105.155 91.279 102.343 89.2794 100.79C87.6859 99.5619 85.4427 99.43 83.4838 99.4604C82.0823 99.4607 80.6834 99.5795 79.302 99.8157C77.3619 100.183 75.5425 101.023 74.0055 102.263C72.4685 103.502 71.2615 105.102 70.4918 106.921C70.4307 107.043 70.3255 107.137 70.1974 107.185C70.0694 107.23 69.9296 107.23 69.8016 107.185C68.6265 106.633 67.2888 106.535 66.0461 106.911H66.0258Z" fill="#231F20"/>
<path d="M99.0843 139.725C96.831 140.588 93.1263 141.39 92.162 138.264C92.0133 137.708 91.9652 137.131 92.0199 136.559C92.1112 135.716 92.2639 134.882 92.4767 134.062C93.081 131.767 93.8754 129.526 94.8517 127.363C95.0852 126.815 95.5521 126.155 96.1205 126.348C96.6889 126.541 96.6686 127.139 96.6585 127.647C96.6585 129.058 96.425 130.489 96.4555 131.9C99.4396 131.139 101.317 127.982 104.159 127.302C104.961 127.119 105.936 127.058 106.027 128.094C106.128 129.372 103.814 130.377 103.043 131.037C103.908 130.294 104.902 129.716 105.976 129.332C106.276 129.201 106.604 129.149 106.93 129.18C107.095 129.202 107.247 129.278 107.364 129.395C107.481 129.513 107.557 129.665 107.58 129.829C107.571 129.963 107.537 130.094 107.477 130.214C107.418 130.334 107.336 130.441 107.235 130.53C106.793 131.029 106.303 131.485 105.773 131.89C106.295 131.267 107.009 130.835 107.803 130.661C108 130.591 108.215 130.584 108.416 130.64C108.618 130.697 108.797 130.814 108.93 130.976C109.265 131.514 108.625 132.123 108.077 132.438C108.512 132.045 109.045 131.779 109.62 131.666C109.907 131.618 110.202 131.681 110.444 131.844C110.685 132.006 110.856 132.255 110.919 132.539C110.908 132.766 110.848 132.988 110.743 133.19C110.638 133.391 110.49 133.567 110.31 133.706C107.407 136.599 102.86 138.284 99.0843 139.725Z" fill="white"/>
<path d="M95.4811 141.004C94.7823 141.025 94.0881 140.886 93.4511 140.598C93.0153 140.383 92.6305 140.076 92.3225 139.7C92.0145 139.324 91.7902 138.886 91.6647 138.416C91.4878 137.8 91.4293 137.156 91.4921 136.518C91.5841 135.648 91.7402 134.787 91.959 133.94C92.5775 131.602 93.3924 129.32 94.395 127.119C94.8416 126.104 95.5623 125.576 96.2931 125.83C96.7092 125.972 97.2066 126.399 97.1761 127.617C97.1761 128.226 97.1761 128.835 97.0746 129.444C96.9731 130.053 96.9934 130.591 96.9731 131.159C98.0846 130.64 99.1111 129.955 100.018 129.129C101.154 128.062 102.513 127.261 103.997 126.784C104.313 126.674 104.649 126.631 104.982 126.657C105.316 126.683 105.641 126.778 105.936 126.937C106.102 127.065 106.238 127.23 106.333 127.417C106.428 127.605 106.479 127.812 106.484 128.023C106.501 128.235 106.477 128.449 106.413 128.652C106.601 128.621 106.793 128.621 106.981 128.652C107.247 128.705 107.49 128.842 107.673 129.043C107.855 129.244 107.969 129.498 107.996 129.768C108.007 129.876 108.007 129.985 107.996 130.093C108.254 130.054 108.517 130.088 108.756 130.192C108.995 130.297 109.199 130.466 109.346 130.682C109.432 130.817 109.488 130.969 109.508 131.128C109.989 131.081 110.47 131.223 110.848 131.524C110.993 131.639 111.113 131.782 111.202 131.944C111.291 132.106 111.347 132.284 111.366 132.468C111.363 132.769 111.293 133.065 111.161 133.335C111.029 133.606 110.839 133.843 110.605 134.031C107.722 136.873 103.439 138.518 99.673 139.969L99.1655 140.172C97.9922 140.653 96.747 140.934 95.4811 141.004ZM95.9175 126.794C95.7551 126.794 95.5014 127.109 95.3187 127.525C94.3477 129.688 93.56 131.929 92.9639 134.224C92.7578 135.021 92.6119 135.832 92.5274 136.65C92.4797 137.161 92.5209 137.676 92.6492 138.173C92.7366 138.507 92.8939 138.82 93.1108 139.089C93.3278 139.359 93.5994 139.579 93.9078 139.736C95.3999 140.456 97.6735 139.736 98.9016 139.299L99.4091 139.106C103.083 137.685 107.255 136.061 109.996 133.392C110.199 133.189 110.473 132.884 110.452 132.641C110.44 132.541 110.389 132.45 110.31 132.387C110.141 132.26 109.932 132.199 109.722 132.215C109.421 132.264 109.136 132.382 108.889 132.56C108.729 132.699 108.556 132.821 108.372 132.925C108.258 132.988 108.126 133.006 108 132.976C107.874 132.946 107.764 132.87 107.692 132.763C107.622 132.655 107.596 132.525 107.619 132.399C107.641 132.273 107.711 132.16 107.813 132.083L108.27 131.748C108.397 131.651 108.496 131.521 108.554 131.372C108.493 131.2 108.25 131.149 107.935 131.21C107.6 131.28 107.277 131.403 106.981 131.575C106.694 131.848 106.393 132.106 106.078 132.346C105.979 132.428 105.853 132.469 105.725 132.462C105.597 132.454 105.477 132.399 105.388 132.306C105.3 132.214 105.249 132.091 105.247 131.963C105.245 131.835 105.292 131.711 105.377 131.616C105.67 131.282 106.013 130.994 106.392 130.763C106.565 130.601 106.727 130.428 106.89 130.245C107.052 130.063 107.103 129.961 107.103 129.9C107.103 129.839 107.001 129.758 106.869 129.738C106.633 129.723 106.396 129.765 106.179 129.86C105.804 129.994 105.437 130.153 105.083 130.337C104.789 130.55 104.484 130.743 104.2 130.925C103.925 131.092 103.661 131.275 103.408 131.474C103.359 131.521 103.3 131.558 103.236 131.582C103.172 131.606 103.104 131.618 103.035 131.615C102.967 131.612 102.9 131.595 102.838 131.566C102.776 131.536 102.721 131.494 102.676 131.443C102.63 131.391 102.596 131.331 102.575 131.266C102.553 131.201 102.545 131.132 102.551 131.064C102.557 130.996 102.576 130.93 102.609 130.869C102.641 130.809 102.685 130.755 102.738 130.712C103.285 130.244 103.88 129.835 104.515 129.494C105.083 129.078 105.53 128.611 105.53 128.195C105.53 127.941 105.418 127.87 105.387 127.85C105.357 127.83 105.012 127.688 104.291 127.85C102.955 128.298 101.732 129.032 100.708 130.002C99.5472 131.098 98.162 131.929 96.6483 132.438C96.5742 132.458 96.4964 132.462 96.4207 132.448C96.3451 132.433 96.2737 132.402 96.2119 132.357C96.1518 132.309 96.1025 132.249 96.0675 132.181C96.0325 132.112 96.0125 132.037 96.0089 131.961C96.0089 131.118 96.0089 130.276 96.1104 129.454C96.1611 128.865 96.2017 128.276 96.2119 127.688C96.222 127.099 96.1205 126.916 96.0089 126.886L95.9175 126.794Z" fill="#231F20"/>
<path d="M96.5976 132.032C97.2786 132.855 97.6588 133.886 97.6754 134.954C97.692 136.022 97.344 137.065 96.6889 137.909H96.9833" fill="white"/>
<path d="M96.6889 138.416C96.594 138.415 96.5013 138.388 96.4207 138.338C96.3402 138.288 96.2749 138.217 96.2321 138.132C96.1896 138.044 96.1728 137.946 96.1835 137.849C96.1943 137.752 96.2323 137.66 96.2931 137.584C96.8729 136.834 97.1807 135.909 97.1659 134.961C97.1512 134.013 96.8148 133.098 96.2119 132.367C96.1244 132.264 96.0811 132.132 96.0916 131.997C96.102 131.863 96.1654 131.739 96.2677 131.651C96.37 131.564 96.5028 131.52 96.637 131.531C96.7712 131.541 96.8958 131.605 96.9833 131.707C97.675 132.534 98.0917 133.557 98.1754 134.632C98.2591 135.707 98.0056 136.781 97.4502 137.706C97.4547 137.756 97.4547 137.807 97.4502 137.858C97.4543 137.925 97.4452 137.991 97.4234 138.055C97.4017 138.118 97.3676 138.176 97.3233 138.226C97.279 138.276 97.2252 138.317 97.1651 138.346C97.105 138.375 97.0398 138.392 96.9731 138.396H96.6787L96.6889 138.416Z" fill="#231F20"/>
<path d="M168.104 98.8818H100.597C98.7243 98.8818 97.2065 100.4 97.2065 102.272V130.743C97.2065 132.615 98.7243 134.133 100.597 134.133H168.104C169.977 134.133 171.494 132.615 171.494 130.743V102.272C171.494 100.4 169.977 98.8818 168.104 98.8818Z" fill="white"/>
<path d="M168.104 134.64H100.597C100.085 134.64 99.578 134.54 99.1051 134.344C98.6322 134.148 98.2025 133.861 97.8406 133.499C97.4787 133.137 97.1916 132.707 96.9957 132.234C96.7999 131.761 96.699 131.255 96.699 130.743V102.323C96.699 101.289 97.1097 100.298 97.8406 99.5668C98.5716 98.8358 99.5629 98.4252 100.597 98.4252H168.104C169.138 98.4252 170.129 98.8358 170.86 99.5668C171.591 100.298 172.002 101.289 172.002 102.323V130.794C171.989 131.818 171.572 132.797 170.843 133.517C170.113 134.237 169.129 134.64 168.104 134.64ZM100.597 99.3894C99.8321 99.3894 99.0989 99.6931 98.5583 100.234C98.0177 100.774 97.714 101.508 97.714 102.272V130.743C97.714 131.507 98.0177 132.24 98.5583 132.781C99.0989 133.322 99.8321 133.625 100.597 133.625H168.104C168.869 133.625 169.602 133.322 170.143 132.781C170.683 132.24 170.987 131.507 170.987 130.743V102.323C170.987 101.558 170.683 100.825 170.143 100.284C169.602 99.7439 168.869 99.4402 168.104 99.4402L100.597 99.3894Z" fill="#231F20"/>
<path d="M114.33 125.942C119.537 125.942 123.759 121.72 123.759 116.512C123.759 111.305 119.537 107.083 114.33 107.083C109.122 107.083 104.9 111.305 104.9 116.512C104.9 121.72 109.122 125.942 114.33 125.942Z" fill="#231F20"/>
<path d="M163.354 112.016H133.401C133.267 112.016 133.138 111.963 133.043 111.867C132.947 111.772 132.894 111.643 132.894 111.508C132.894 111.374 132.947 111.245 133.043 111.15C133.138 111.054 133.267 111.001 133.401 111.001H163.354C163.489 111.001 163.618 111.054 163.713 111.15C163.808 111.245 163.862 111.374 163.862 111.508C163.862 111.643 163.808 111.772 163.713 111.867C163.618 111.963 163.489 112.016 163.354 112.016Z" fill="#231F20"/>
<path d="M163.354 117.02H133.401C133.267 117.02 133.138 116.966 133.043 116.871C132.947 116.776 132.894 116.647 132.894 116.512C132.894 116.378 132.947 116.249 133.043 116.154C133.138 116.058 133.267 116.005 133.401 116.005H163.354C163.489 116.005 163.618 116.058 163.713 116.154C163.808 116.249 163.862 116.378 163.862 116.512C163.862 116.647 163.808 116.776 163.713 116.871C163.618 116.966 163.489 117.02 163.354 117.02Z" fill="#231F20"/>
<path d="M152.95 122.044H133.401C133.267 122.044 133.138 121.991 133.043 121.896C132.947 121.8 132.894 121.671 132.894 121.537C132.894 121.402 132.947 121.273 133.043 121.178C133.138 121.083 133.267 121.029 133.401 121.029H152.95C153.085 121.029 153.214 121.083 153.309 121.178C153.404 121.273 153.458 121.402 153.458 121.537C153.458 121.671 153.404 121.8 153.309 121.896C153.214 121.991 153.085 122.044 152.95 122.044Z" fill="#231F20"/>
<path d="M98.455 139.36C98.455 139.36 110.513 147.399 115.203 144.983C119.892 142.567 129.544 134.001 129.544 134.001C129.544 134.001 131.828 128.368 133.838 128.763C135.848 129.159 133.97 134.529 133.97 134.529C133.97 134.529 145.896 132.499 145.764 133.727C145.632 134.955 139.329 137.878 136.518 138.416C133.706 138.954 123.546 155.042 116.725 156.92C109.904 158.797 103.053 154.636 95.6739 150.078" fill="white"/>
<path d="M113.213 157.894C107.336 157.894 101.51 154.291 95.3998 150.515C95.3421 150.481 95.2918 150.435 95.2521 150.381C95.2124 150.327 95.1842 150.265 95.169 150.2C95.1538 150.134 95.152 150.066 95.1638 150C95.1756 149.934 95.2006 149.871 95.2374 149.815C95.2707 149.757 95.3154 149.707 95.3687 149.668C95.422 149.628 95.4829 149.6 95.5475 149.584C95.6121 149.569 95.6792 149.567 95.7446 149.579C95.8099 149.591 95.8722 149.616 95.9276 149.652C103.104 154.078 109.874 158.27 116.573 156.432C120.511 155.346 125.708 149.236 129.9 144.334C133.249 140.395 135.208 138.162 136.457 137.919C139.217 137.391 144.201 134.945 145.145 133.859C143.795 133.636 138.69 134.224 134.082 135.006C133.995 135.02 133.907 135.011 133.825 134.981C133.744 134.95 133.671 134.9 133.615 134.833C133.556 134.766 133.517 134.684 133.501 134.597C133.485 134.51 133.493 134.419 133.523 134.336C134.01 132.925 134.599 130.367 134.092 129.484C134.063 129.419 134.018 129.363 133.961 129.32C133.904 129.277 133.837 129.25 133.767 129.241C132.681 129.017 130.905 132.042 130.052 134.153C130.02 134.225 129.975 134.29 129.92 134.346C129.514 134.701 120.166 142.994 115.466 145.41C110.574 147.927 98.6986 140.081 98.2114 139.746C98.1129 139.666 98.0476 139.553 98.0282 139.428C98.0089 139.303 98.0369 139.176 98.1067 139.07C98.1766 138.965 98.2832 138.889 98.4059 138.858C98.5285 138.828 98.6582 138.844 98.7696 138.903C102.058 141.096 111.386 146.374 115.01 144.506C119.364 142.273 128.205 134.529 129.159 133.666C129.666 132.448 131.747 127.799 133.98 128.236C134.195 128.276 134.398 128.365 134.573 128.495C134.749 128.625 134.893 128.793 134.995 128.987C135.675 130.174 135.127 132.59 134.751 133.869C138.943 133.179 145.206 132.326 146.109 133.179C146.185 133.254 146.243 133.345 146.28 133.444C146.317 133.544 146.331 133.651 146.322 133.757C146.13 135.442 139.126 138.416 136.66 138.883C135.705 139.066 133.158 142.06 130.691 144.973C126.418 149.977 121.11 156.219 116.867 157.387C115.678 157.721 114.448 157.891 113.213 157.894Z" fill="#231F20"/>
<path d="M93.8672 167.557C94.8822 174.57 95.0954 177.331 105.093 234.729C105.093 234.729 81.7481 240.221 72.7349 241.834C66.6449 229.279 63.8943 217.982 59.7429 204.696C57.0532 196.078 55.013 184.538 58.8802 176.387C59.4993 175.088 65.4675 162.431 65.4675 162.431C65.4675 162.431 93.9078 167.811 93.8672 167.557Z" fill="#231F20"/>
<path d="M73.486 135.665C73.8413 128.002 72.2985 112.463 72.2985 112.463C72.2985 112.463 82.0628 113.021 85.3412 108.332C89.4012 111.478 90.1929 120.349 89.4012 123.008C87.9498 128.246 81.1493 127.068 81.1493 127.068L82.012 136.65L73.486 135.665Z" fill="white"/>
<path d="M82.0628 137.178L73.4759 136.163C73.3485 136.148 73.2316 136.085 73.1488 135.987C73.0659 135.889 73.0232 135.763 73.0293 135.635C73.3845 128.104 71.862 112.666 71.8417 112.513C71.8362 112.44 71.846 112.365 71.8704 112.296C71.8949 112.226 71.9335 112.162 71.9838 112.107C72.0357 112.056 72.0976 112.016 72.1658 111.99C72.2339 111.964 72.3067 111.952 72.3797 111.955C72.471 111.955 81.9004 112.442 84.9758 108.037C85.0151 107.98 85.0656 107.932 85.1243 107.895C85.183 107.858 85.2486 107.834 85.3171 107.823C85.3855 107.813 85.4554 107.817 85.5224 107.834C85.5894 107.852 85.6521 107.883 85.7066 107.926C89.9189 111.224 90.7816 120.329 90.0001 123.151C88.711 127.759 83.6259 127.809 81.809 127.667L82.621 136.64C82.6304 136.715 82.6214 136.791 82.5949 136.862C82.5684 136.932 82.5251 136.996 82.4688 137.046C82.4147 137.096 82.3504 137.134 82.2803 137.157C82.2102 137.179 82.136 137.187 82.0628 137.178ZM74.0138 135.239L81.5045 136.122L80.6925 127.119C80.6827 127.04 80.6924 126.96 80.7207 126.886C80.749 126.812 80.7951 126.745 80.8549 126.693C80.9117 126.641 80.9798 126.603 81.0537 126.582C81.1277 126.561 81.2056 126.557 81.2812 126.571C81.5451 126.571 87.6554 127.586 88.9648 122.846C89.5941 120.593 88.9648 112.371 85.4224 109.042C82.2455 112.848 74.9984 113.001 72.8567 112.97C73.1308 115.812 74.2574 128.327 74.0138 135.239Z" fill="#231F20"/>
<path d="M81.2 127.119C79.6629 126.932 78.2063 126.329 76.9878 125.373C76.9878 125.373 78.8452 130.022 81.7075 130.712L81.2 127.119Z" fill="#231F20"/>
<path d="M81.7075 131.179H81.5959C78.5509 130.428 76.6427 125.759 76.5209 125.556C76.4818 125.457 76.4776 125.348 76.509 125.247C76.5404 125.145 76.6054 125.057 76.6934 124.998C76.7841 124.94 76.8915 124.915 76.9983 124.926C77.1052 124.937 77.2052 124.984 77.2821 125.059C78.5407 126.328 81.1899 126.662 81.2102 126.673C81.3125 126.683 81.4083 126.728 81.482 126.8C81.5557 126.872 81.603 126.966 81.6162 127.068L82.1237 130.662C82.1371 130.736 82.131 130.812 82.1061 130.883C82.0812 130.954 82.0383 131.018 81.9816 131.068C81.9044 131.133 81.8084 131.172 81.7075 131.179ZM78.155 126.693C78.8275 128.037 79.8518 129.173 81.1188 129.982L80.7636 127.495C79.8629 127.342 78.986 127.072 78.155 126.693Z" fill="#231F20"/>
<path d="M88.5587 131.717L110.889 143.897L105.499 159.498C105.499 159.498 77.4749 144.669 77.2821 140.649C77.0892 136.63 88.5587 131.717 88.5587 131.717Z" fill="#ED1E79"/>
<path d="M94.2123 170.307C95.5988 162.443 95.7119 154.406 94.5473 146.506C93.6947 141.349 94.0296 137.726 92.3143 134.935C86.5795 125.566 64.2292 128.357 60.9812 134.864C57.7332 141.37 63.7928 165.121 63.7928 165.121L94.2123 170.307Z" fill="#ED1E79"/>
<path d="M73.892 117.913C73.7674 117.311 73.4801 116.754 73.0614 116.303C72.6428 115.852 72.1086 115.524 71.5169 115.355C71.2498 115.273 70.9686 115.247 70.6909 115.278C70.4132 115.31 70.145 115.398 69.9031 115.538C69.615 115.783 69.396 116.1 69.2678 116.456C69.1396 116.812 69.1067 117.195 69.1723 117.568C69.2582 118.733 69.7844 119.822 70.644 120.613C71.501 121.4 72.6271 121.829 73.7905 121.811" fill="white"/>
<path d="M73.7296 122.257C72.46 122.259 71.2359 121.784 70.2989 120.928C69.3503 120.05 68.7669 118.847 68.6647 117.558C68.5962 117.104 68.6483 116.64 68.8158 116.212C68.9833 115.785 69.2602 115.409 69.6188 115.122C69.9191 114.936 70.2559 114.817 70.6062 114.774C70.9565 114.73 71.3121 114.762 71.6488 114.868C72.3311 115.061 72.9474 115.438 73.4306 115.957C73.9138 116.476 74.2454 117.117 74.3893 117.812C74.4133 117.945 74.3842 118.082 74.3083 118.194C74.2325 118.306 74.1158 118.383 73.9833 118.41C73.8515 118.434 73.7156 118.405 73.6053 118.329C73.4951 118.253 73.4193 118.136 73.3946 118.004C73.2833 117.495 73.0355 117.026 72.6779 116.647C72.3203 116.268 71.8664 115.993 71.3646 115.853C71.1709 115.784 70.9647 115.757 70.7599 115.775C70.5551 115.792 70.3563 115.854 70.1771 115.954C69.9758 116.148 69.8238 116.388 69.7337 116.653C69.6437 116.918 69.6182 117.2 69.6594 117.477C69.7324 118.509 70.1972 119.475 70.9586 120.177C71.7268 120.863 72.7304 121.227 73.76 121.192C73.8938 121.194 74.0214 121.248 74.116 121.343C74.2106 121.438 74.2649 121.565 74.2675 121.699C74.2675 121.834 74.2141 121.963 74.1189 122.058C74.0237 122.153 73.8946 122.207 73.76 122.207L73.7296 122.257Z" fill="#231F20"/>
<path d="M85.9133 114.159C86.1595 114.082 86.2426 113.647 86.099 113.187C85.9554 112.726 85.6394 112.416 85.3933 112.492C85.1471 112.569 85.064 113.005 85.2076 113.465C85.3512 113.925 85.6671 114.236 85.9133 114.159Z" fill="#231F20"/>
<path d="M87.7265 123.384C87.1197 123.774 86.4551 124.065 85.7574 124.247C85.3028 124.418 84.8105 124.465 84.3319 124.381C83.8534 124.297 83.4062 124.086 83.0372 123.77C82.7738 123.446 82.5771 123.074 82.4586 122.673" fill="white"/>
<path d="M84.6814 124.906C84.3061 124.928 83.9305 124.868 83.5802 124.732C83.2299 124.595 82.9131 124.385 82.6514 124.115C82.3417 123.742 82.1104 123.31 81.9714 122.846C81.9471 122.784 81.9355 122.718 81.9372 122.652C81.9389 122.585 81.9539 122.52 81.9813 122.459C82.0088 122.398 82.0481 122.344 82.0969 122.299C82.1458 122.254 82.2032 122.219 82.2657 122.196C82.3284 122.172 82.3952 122.16 82.4624 122.162C82.5296 122.163 82.5958 122.178 82.6572 122.206C82.7185 122.233 82.7739 122.272 82.8199 122.321C82.866 122.37 82.9019 122.428 82.9255 122.491C83.0222 122.833 83.1842 123.154 83.4025 123.435C84.0217 124.115 85.26 123.861 85.6254 123.76C86.2679 123.585 86.8804 123.315 87.4422 122.958C87.5554 122.885 87.6926 122.86 87.8239 122.889C87.9552 122.918 88.0698 122.997 88.1426 123.11C88.1798 123.165 88.2055 123.228 88.218 123.294C88.2306 123.359 88.2297 123.427 88.2155 123.492C88.2012 123.558 88.174 123.62 88.1353 123.674C88.0966 123.729 88.0473 123.775 87.9903 123.81C87.3385 124.228 86.6265 124.543 85.8791 124.744C85.4884 124.849 85.0859 124.903 84.6814 124.906Z" fill="#231F20"/>
<path d="M87.7874 114.219C87.7874 114.219 91.7053 118.685 90.741 119.649C89.7768 120.613 87.5133 120.136 87.5133 120.136" fill="white"/>
<path d="M88.7618 120.765C88.3054 120.762 87.8502 120.718 87.4017 120.633C87.3362 120.619 87.2742 120.592 87.2194 120.553C87.1645 120.515 87.1178 120.466 87.0819 120.409C87.046 120.353 87.0217 120.289 87.0104 120.223C86.9991 120.157 87.001 120.09 87.016 120.024C87.0292 119.959 87.0553 119.898 87.0927 119.843C87.1302 119.788 87.1782 119.741 87.2341 119.705C87.2899 119.669 87.3523 119.645 87.4177 119.633C87.4831 119.622 87.5501 119.624 87.6148 119.639C88.1731 119.75 89.7565 119.923 90.3858 119.294C90.5989 118.847 89.1779 116.584 87.4017 114.554C87.308 114.457 87.2557 114.328 87.2557 114.193C87.2557 114.059 87.308 113.929 87.4017 113.833C87.448 113.786 87.5032 113.748 87.5642 113.722C87.6252 113.697 87.6907 113.684 87.7569 113.684C87.8231 113.684 87.8886 113.697 87.9496 113.722C88.0106 113.748 88.0659 113.786 88.1122 113.833C89.6956 115.629 92.1722 118.827 91.0557 119.923C90.4239 120.482 89.605 120.782 88.7618 120.765Z" fill="#231F20"/>
<path d="M105.458 160.046C105.374 160.045 105.29 160.024 105.215 159.985C105.063 159.904 89.6549 151.672 84.0318 148.617C83.9734 148.586 83.9217 148.544 83.8798 148.493C83.8379 148.442 83.8066 148.383 83.7877 148.319C83.7688 148.256 83.7627 148.19 83.7698 148.124C83.7768 148.058 83.7969 147.995 83.8288 147.937C83.8598 147.877 83.9024 147.824 83.954 147.781C84.0055 147.738 84.0652 147.706 84.1294 147.686C84.1936 147.666 84.2611 147.659 84.328 147.666C84.3949 147.672 84.4598 147.692 84.519 147.724C90.132 150.769 105.54 159 105.692 159.092C105.751 159.122 105.804 159.163 105.847 159.214C105.89 159.265 105.922 159.323 105.942 159.387C105.962 159.45 105.969 159.517 105.963 159.583C105.956 159.649 105.937 159.713 105.905 159.772C105.863 159.854 105.799 159.923 105.72 159.971C105.641 160.019 105.551 160.045 105.458 160.046Z" fill="#231F20"/>
<path d="M297.395 167.039L299.273 166.988C300.083 166.955 300.886 167.159 301.582 167.575C302.278 167.992 302.837 168.603 303.191 169.333L339.822 270.539C340.309 271.879 339.335 273.005 337.65 273.056L335.782 273.107C334.971 273.137 334.168 272.932 333.471 272.516C332.774 272.1 332.213 271.491 331.854 270.762L295.253 169.546C294.776 168.206 295.741 167.08 297.395 167.039Z" fill="white"/>
<path d="M335.701 273.614C334.803 273.63 333.92 273.385 333.158 272.91C332.396 272.434 331.788 271.748 331.408 270.935L294.776 169.749C294.646 169.419 294.598 169.061 294.635 168.708C294.672 168.355 294.794 168.016 294.989 167.719C295.274 167.35 295.643 167.054 296.065 166.854C296.486 166.655 296.949 166.558 297.415 166.572L299.283 166.521C300.198 166.49 301.104 166.725 301.888 167.199C302.672 167.674 303.301 168.365 303.698 169.191L340.329 270.407C340.46 270.737 340.509 271.094 340.472 271.448C340.435 271.801 340.313 272.141 340.116 272.437C339.833 272.805 339.466 273.101 339.046 273.3C338.626 273.5 338.165 273.597 337.701 273.584L335.823 273.634L335.701 273.614ZM297.446 167.547C297.141 167.529 296.836 167.584 296.556 167.705C296.276 167.827 296.028 168.013 295.832 168.247C295.724 168.412 295.659 168.601 295.641 168.798C295.623 168.994 295.654 169.192 295.73 169.374L332.362 270.589C332.683 271.217 333.176 271.741 333.784 272.1C334.391 272.46 335.087 272.64 335.792 272.619L337.67 272.569C337.975 272.579 338.279 272.521 338.558 272.398C338.838 272.275 339.086 272.09 339.284 271.858C339.39 271.692 339.454 271.503 339.47 271.306C339.486 271.11 339.453 270.913 339.375 270.732L302.744 169.516C302.428 168.883 301.936 168.355 301.328 167.995C300.719 167.635 300.02 167.458 299.313 167.486L297.446 167.536V167.547Z" fill="#D1D3D4"/>
<path d="M299.425 174.987L265.402 175.565C264.788 175.586 264.181 175.43 263.654 175.115C263.126 174.8 262.701 174.339 262.428 173.789C262.063 172.774 262.804 171.921 264.073 171.891L298.095 171.312C298.71 171.289 299.318 171.444 299.846 171.759C300.374 172.075 300.799 172.536 301.069 173.089C301.455 174.104 300.724 174.956 299.425 174.987Z" fill="white"/>
<path d="M265.341 176.073C264.636 176.082 263.943 175.888 263.345 175.514C262.747 175.139 262.27 174.6 261.972 173.961C261.864 173.69 261.824 173.397 261.856 173.106C261.888 172.816 261.99 172.538 262.154 172.297C262.38 172.002 262.673 171.766 263.008 171.607C263.343 171.448 263.712 171.371 264.083 171.383L298.106 170.764C298.827 170.731 299.542 170.914 300.159 171.29C300.776 171.667 301.266 172.219 301.567 172.875C301.674 173.144 301.715 173.436 301.685 173.724C301.655 174.012 301.555 174.289 301.394 174.53C301.17 174.827 300.878 175.066 300.542 175.227C300.207 175.387 299.838 175.465 299.466 175.454L265.443 176.032L265.341 176.073ZM298.197 171.779H298.136L264.103 172.358C263.893 172.345 263.682 172.381 263.488 172.464C263.294 172.547 263.122 172.674 262.987 172.835C262.918 172.945 262.877 173.069 262.866 173.198C262.856 173.327 262.876 173.456 262.926 173.576C263.158 174.029 263.517 174.406 263.957 174.661C264.398 174.917 264.903 175.04 265.412 175.017L299.435 174.439C299.646 174.452 299.856 174.415 300.05 174.333C300.244 174.25 300.416 174.123 300.552 173.961C300.623 173.853 300.665 173.728 300.676 173.599C300.686 173.469 300.665 173.339 300.613 173.221C300.384 172.779 300.037 172.41 299.61 172.156C299.183 171.901 298.694 171.771 298.197 171.779Z" fill="#D1D3D4"/>
<path d="M304.561 189.105L270.538 189.684C269.924 189.707 269.316 189.552 268.788 189.237C268.26 188.921 267.835 188.46 267.564 187.908C267.199 186.893 267.93 186.04 269.208 186.009L303.231 185.431C303.845 185.41 304.452 185.566 304.98 185.881C305.507 186.196 305.933 186.657 306.205 187.207C306.53 188.222 305.83 189.034 304.561 189.105Z" fill="white"/>
<path d="M270.447 190.191C269.743 190.2 269.051 190.006 268.455 189.631C267.859 189.257 267.384 188.718 267.087 188.08C266.98 187.811 266.939 187.52 266.969 187.231C266.999 186.943 267.099 186.667 267.26 186.426C267.485 186.128 267.779 185.888 268.116 185.728C268.454 185.567 268.825 185.489 269.198 185.502L303.221 184.923C303.941 184.898 304.653 185.085 305.268 185.46C305.883 185.835 306.375 186.383 306.682 187.035C306.789 187.306 306.829 187.598 306.799 187.888C306.769 188.178 306.67 188.456 306.51 188.699C306.281 188.993 305.987 189.229 305.65 189.388C305.313 189.547 304.943 189.624 304.571 189.613L270.548 190.191H270.447ZM303.312 185.989H303.241L269.219 186.568C269.008 186.554 268.797 186.59 268.603 186.672C268.409 186.755 268.238 186.883 268.102 187.045C268.031 187.153 267.989 187.278 267.978 187.408C267.967 187.537 267.989 187.667 268.041 187.786C268.273 188.24 268.631 188.617 269.072 188.873C269.513 189.129 270.019 189.252 270.528 189.227L304.551 188.648C304.761 188.662 304.972 188.627 305.166 188.544C305.36 188.461 305.532 188.333 305.667 188.171C305.736 188.062 305.777 187.937 305.788 187.808C305.798 187.679 305.778 187.55 305.728 187.43C305.498 186.991 305.15 186.623 304.724 186.369C304.297 186.114 303.809 185.983 303.312 185.989Z" fill="#D1D3D4"/>
<path d="M309.666 203.244L275.644 203.813C275.03 203.837 274.423 203.683 273.895 203.37C273.367 203.056 272.942 202.597 272.67 202.046C272.304 201.031 273.045 200.179 274.314 200.138L308.337 199.57C308.952 199.544 309.561 199.698 310.089 200.014C310.617 200.329 311.042 200.792 311.311 201.346C311.676 202.351 310.945 203.244 309.666 203.244Z" fill="white"/>
<path d="M275.562 204.32C274.857 204.33 274.164 204.136 273.566 203.761C272.968 203.387 272.491 202.848 272.193 202.209C272.084 201.938 272.044 201.644 272.075 201.354C272.107 201.063 272.21 200.785 272.375 200.544C272.602 200.25 272.894 200.013 273.229 199.852C273.564 199.692 273.932 199.612 274.304 199.621L308.327 199.052C309.048 199.02 309.762 199.204 310.379 199.58C310.995 199.956 311.486 200.507 311.788 201.163C311.895 201.433 311.936 201.724 311.906 202.012C311.876 202.3 311.776 202.577 311.615 202.818C311.389 203.113 311.097 203.351 310.762 203.511C310.427 203.672 310.058 203.751 309.687 203.742L275.664 204.31L275.562 204.32ZM308.418 200.067H308.357L274.324 200.636C274.114 200.627 273.905 200.665 273.712 200.748C273.519 200.83 273.346 200.955 273.208 201.113C273.138 201.224 273.097 201.351 273.089 201.482C273.08 201.613 273.103 201.744 273.157 201.864C273.386 202.317 273.743 202.693 274.182 202.947C274.622 203.201 275.126 203.322 275.633 203.295L309.656 202.727C309.866 202.737 310.076 202.7 310.27 202.617C310.463 202.535 310.635 202.409 310.773 202.249C310.844 202.141 310.886 202.016 310.897 201.887C310.908 201.757 310.886 201.627 310.834 201.509C310.605 201.067 310.258 200.699 309.831 200.444C309.404 200.189 308.915 200.059 308.418 200.067Z" fill="#D1D3D4"/>
<path d="M314.782 217.353L280.759 217.931C280.145 217.955 279.537 217.799 279.009 217.484C278.481 217.169 278.056 216.707 277.785 216.155C277.42 215.14 278.151 214.287 279.429 214.257L313.452 213.678C314.067 213.656 314.674 213.812 315.202 214.127C315.729 214.442 316.155 214.903 316.426 215.455C316.792 216.439 316.051 217.322 314.782 217.353Z" fill="white"/>
<path d="M280.668 218.469C279.964 218.478 279.272 218.284 278.676 217.909C278.08 217.535 277.605 216.996 277.308 216.358C277.201 216.087 277.161 215.794 277.191 215.505C277.221 215.215 277.321 214.937 277.481 214.693C277.709 214.399 278.003 214.162 278.34 214.003C278.677 213.845 279.047 213.768 279.419 213.78L313.442 213.201C314.163 213.171 314.877 213.355 315.493 213.731C316.11 214.107 316.6 214.657 316.903 215.313C317.011 215.582 317.051 215.873 317.021 216.161C316.991 216.449 316.892 216.726 316.731 216.967C316.505 217.264 316.211 217.503 315.873 217.664C315.536 217.824 315.165 217.902 314.792 217.891L280.769 218.469H280.668ZM313.533 214.216H313.462L279.44 214.795C279.229 214.781 279.018 214.817 278.824 214.9C278.63 214.983 278.459 215.11 278.323 215.272C278.252 215.381 278.21 215.505 278.199 215.635C278.188 215.764 278.21 215.894 278.262 216.013C278.495 216.466 278.853 216.843 279.294 217.098C279.735 217.354 280.24 217.477 280.749 217.454L314.772 216.876C314.982 216.89 315.193 216.854 315.387 216.771C315.581 216.688 315.753 216.56 315.888 216.399C315.957 216.289 315.998 216.164 316.009 216.036C316.019 215.907 315.999 215.777 315.949 215.658C315.724 215.211 315.378 214.837 314.951 214.577C314.524 214.317 314.033 214.181 313.533 214.186V214.216Z" fill="#D1D3D4"/>
<path d="M319.887 231.481L285.865 232.05C285.251 232.074 284.644 231.919 284.118 231.603C283.592 231.288 283.169 230.826 282.901 230.274C282.525 229.259 283.266 228.416 284.535 228.376L318.558 227.807C319.172 227.78 319.78 227.933 320.308 228.247C320.836 228.56 321.262 229.021 321.532 229.573C321.897 230.588 321.166 231.441 319.887 231.481Z" fill="white"/>
<path d="M285.783 232.557C285.079 232.568 284.387 232.374 283.791 231.999C283.195 231.624 282.72 231.085 282.424 230.446C282.312 230.178 282.269 229.886 282.299 229.597C282.329 229.308 282.431 229.031 282.596 228.792C282.821 228.495 283.113 228.257 283.449 228.096C283.784 227.935 284.153 227.857 284.525 227.868L318.548 227.3C319.268 227.267 319.982 227.449 320.598 227.823C321.214 228.198 321.705 228.747 322.009 229.401C322.116 229.672 322.157 229.964 322.127 230.254C322.097 230.544 321.997 230.822 321.836 231.065C321.609 231.359 321.316 231.595 320.981 231.755C320.646 231.916 320.279 231.996 319.908 231.989L285.885 232.557H285.783ZM318.639 228.304H318.578L284.545 228.873C284.335 228.864 284.126 228.903 283.933 228.985C283.74 229.068 283.567 229.192 283.429 229.35C283.362 229.461 283.322 229.585 283.314 229.714C283.305 229.843 283.327 229.972 283.378 230.091C283.608 230.544 283.964 230.921 284.403 231.177C284.843 231.433 285.347 231.556 285.854 231.532L319.877 230.964C320.087 230.975 320.297 230.937 320.491 230.855C320.684 230.772 320.856 230.646 320.994 230.487C321.065 230.376 321.107 230.25 321.118 230.119C321.129 229.988 321.107 229.856 321.055 229.736C320.825 229.296 320.477 228.93 320.05 228.677C319.623 228.424 319.135 228.295 318.639 228.304Z" fill="#D1D3D4"/>
<path d="M325.003 245.6L290.98 246.179C290.366 246.202 289.758 246.047 289.23 245.731C288.702 245.416 288.277 244.954 288.006 244.402C287.641 243.387 288.372 242.535 289.651 242.504L323.673 241.926C324.288 241.904 324.895 242.059 325.423 242.375C325.95 242.69 326.376 243.151 326.647 243.702C327.013 244.717 326.272 245.57 325.003 245.6Z" fill="white"/>
<path d="M290.889 246.686C290.185 246.695 289.494 246.501 288.898 246.126C288.301 245.752 287.826 245.213 287.529 244.575C287.422 244.304 287.381 244.011 287.411 243.722C287.441 243.432 287.541 243.153 287.702 242.91C287.93 242.616 288.224 242.379 288.561 242.22C288.898 242.062 289.268 241.985 289.64 241.997L323.663 241.418C324.384 241.391 325.097 241.576 325.712 241.952C326.328 242.327 326.819 242.876 327.124 243.53C327.232 243.799 327.272 244.09 327.242 244.378C327.212 244.666 327.113 244.943 326.952 245.184C326.726 245.481 326.432 245.72 326.094 245.881C325.757 246.041 325.386 246.119 325.013 246.108L290.99 246.686H290.889ZM323.785 242.433H323.714L289.691 243.012C289.481 242.998 289.27 243.034 289.076 243.117C288.882 243.2 288.71 243.327 288.575 243.489C288.504 243.598 288.461 243.722 288.45 243.852C288.44 243.981 288.462 244.111 288.514 244.23C288.746 244.684 289.104 245.061 289.545 245.317C289.986 245.573 290.491 245.696 291.001 245.671L325.023 245.093C325.234 245.105 325.444 245.068 325.638 244.986C325.831 244.903 326.003 244.776 326.14 244.616C326.208 244.506 326.249 244.381 326.26 244.253C326.271 244.124 326.25 243.994 326.201 243.875C325.971 243.434 325.624 243.066 325.197 242.812C324.771 242.557 324.282 242.426 323.785 242.433Z" fill="#D1D3D4"/>
<path d="M330.108 259.719L296.096 260.297C295.481 260.321 294.873 260.165 294.345 259.85C293.818 259.535 293.393 259.073 293.122 258.521C292.746 257.506 293.487 256.653 294.756 256.623L328.779 256.044C329.393 256.021 330.001 256.176 330.529 256.492C331.057 256.807 331.482 257.269 331.753 257.821C332.118 258.836 331.387 259.688 330.108 259.719Z" fill="white"/>
<path d="M296.004 260.805C295.3 260.815 294.608 260.621 294.012 260.247C293.416 259.872 292.941 259.333 292.645 258.694C292.535 258.425 292.493 258.133 292.523 257.845C292.553 257.556 292.654 257.279 292.817 257.039C293.041 256.742 293.333 256.502 293.668 256.341C294.004 256.181 294.374 256.103 294.746 256.116L328.769 255.537C329.49 255.508 330.203 255.693 330.819 256.069C331.435 256.444 331.926 256.994 332.23 257.648C332.337 257.919 332.378 258.212 332.348 258.502C332.318 258.792 332.218 259.07 332.057 259.313C331.831 259.607 331.538 259.843 331.203 260.002C330.868 260.161 330.5 260.237 330.129 260.226L296.106 260.805H296.004ZM328.86 256.552H328.799L294.766 257.131C294.556 257.117 294.345 257.154 294.151 257.236C293.957 257.319 293.786 257.446 293.65 257.608C293.583 257.718 293.543 257.843 293.535 257.972C293.526 258.101 293.548 258.23 293.599 258.349C293.828 258.803 294.184 259.18 294.624 259.436C295.063 259.692 295.568 259.815 296.075 259.79L330.098 259.211C330.309 259.227 330.52 259.192 330.715 259.109C330.909 259.026 331.08 258.897 331.215 258.734C331.286 258.626 331.328 258.501 331.339 258.372C331.35 258.242 331.328 258.112 331.276 257.993C331.047 257.552 330.7 257.183 330.273 256.929C329.846 256.674 329.357 256.544 328.86 256.552Z" fill="#D1D3D4"/>
<path d="M260.764 167.719L262.631 167.658C263.443 167.628 264.245 167.833 264.942 168.249C265.639 168.665 266.201 169.274 266.559 170.003L303.191 271.219C303.668 272.559 302.703 273.685 301.019 273.726H299.141C298.331 273.76 297.53 273.558 296.834 273.143C296.138 272.728 295.578 272.12 295.223 271.391L258.592 170.176C258.104 168.856 259.079 167.719 260.764 167.719Z" fill="white"/>
<path d="M299.039 274.294C298.142 274.311 297.26 274.068 296.498 273.594C295.736 273.12 295.128 272.436 294.746 271.625L258.114 170.368C257.984 170.038 257.935 169.681 257.972 169.327C258.009 168.974 258.131 168.634 258.328 168.338C258.612 167.971 258.979 167.677 259.399 167.479C259.819 167.282 260.279 167.186 260.743 167.202L262.621 167.151C263.539 167.109 264.448 167.34 265.234 167.815C266.02 168.29 266.647 168.988 267.036 169.82L303.668 271.036C303.798 271.367 303.846 271.724 303.809 272.077C303.772 272.43 303.65 272.77 303.455 273.066C303.169 273.435 302.801 273.732 302.379 273.931C301.958 274.13 301.495 274.227 301.029 274.213H299.161L299.039 274.294ZM260.774 168.237C260.47 168.22 260.167 168.274 259.888 168.396C259.61 168.517 259.364 168.703 259.17 168.937C259.06 169.101 258.993 169.291 258.975 169.488C258.957 169.684 258.99 169.883 259.069 170.064L295.7 271.249C296.017 271.881 296.509 272.408 297.117 272.768C297.725 273.128 298.424 273.306 299.131 273.279H300.998C301.303 273.297 301.608 273.243 301.889 273.121C302.169 273 302.417 272.814 302.612 272.579C302.72 272.414 302.785 272.225 302.803 272.028C302.821 271.832 302.79 271.634 302.714 271.452L266.082 170.236C265.767 169.603 265.276 169.074 264.667 168.714C264.058 168.354 263.358 168.177 262.652 168.206L260.774 168.237Z" fill="#D1D3D4"/>
<path d="M286.342 108.21C279.044 112.442 270.599 115.751 262.032 114.087C254.765 112.686 248.208 107.834 245.63 100.81C245.112 99.4299 244.788 97.9785 244.239 96.5981C244.016 96.05 243.671 95.441 243.082 95.3902C242.128 95.309 241.803 96.6285 241.915 97.5725C242.006 98.3337 242.098 99.0341 242.118 99.7852C242.118 100.303 242.118 101.653 242.575 102.038L236.079 95.7455C235.779 95.4033 235.394 95.1475 234.962 95.0045C234.746 94.9401 234.512 94.9623 234.312 95.0665C234.111 95.1706 233.959 95.3485 233.886 95.5628C233.871 95.75 233.897 95.9384 233.964 96.114C234.031 96.2897 234.136 96.4481 234.272 96.5778L236.86 99.9171C235.714 98.9306 234.518 98.0024 233.277 97.136C231.613 95.9891 231.095 97.674 232.08 98.9427L234.709 102.323C233.84 101.432 232.904 100.611 231.907 99.8664C231.613 99.6431 231.217 99.4299 230.892 99.6329C230.799 99.7139 230.732 99.8214 230.702 99.941C230.671 100.061 230.677 100.187 230.72 100.303C230.807 100.537 230.946 100.748 231.126 100.922L233.572 103.713C233.146 103.287 231.034 101.298 230.466 102.384C230.141 103.003 231.349 103.987 231.714 104.353C234.1 106.687 236.515 108.92 238.982 111.123C245.61 117.05 253.192 122.541 262.134 124.561C271.929 126.784 282.688 124.257 290.94 118.603" fill="white"/>
<path d="M269.411 125.82C266.916 125.827 264.427 125.554 261.992 125.008C252.106 122.765 243.915 116.198 238.647 111.458C235.916 109.012 233.572 106.789 231.379 104.667L231.207 104.515C230.588 103.937 229.563 102.982 230.029 102.099C230.101 101.945 230.21 101.812 230.346 101.71C230.483 101.609 230.643 101.544 230.811 101.521H231.014L230.75 101.227C230.529 100.996 230.356 100.724 230.243 100.425C230.169 100.205 230.165 99.9675 230.233 99.7456C230.3 99.5237 230.435 99.3282 230.618 99.1864C230.754 99.0921 230.912 99.0327 231.076 99.0132C231.241 98.9938 231.408 99.0149 231.562 99.0747C231.265 98.733 231.09 98.3015 231.066 97.849C231.042 97.3965 231.17 96.9491 231.43 96.5778C231.613 96.385 232.303 95.8267 233.552 96.6895L233.937 96.9635L233.856 96.862C233.686 96.6794 233.555 96.4631 233.473 96.2272C233.391 95.9913 233.359 95.7408 233.379 95.4918C233.411 95.3358 233.474 95.1879 233.565 95.0571C233.656 94.9262 233.772 94.8151 233.907 94.7305C234.076 94.6202 234.266 94.5453 234.464 94.5104C234.663 94.4755 234.867 94.4813 235.064 94.5275C235.584 94.6923 236.05 94.9938 236.414 95.4004L241.631 100.475V99.8563C241.61 99.2586 241.56 98.6624 241.479 98.0699L241.428 97.6842C241.366 97.2734 241.39 96.8544 241.496 96.4529C241.603 96.0514 241.79 95.676 242.047 95.3497C242.186 95.2017 242.357 95.0874 242.547 95.0153C242.737 94.9432 242.941 94.9153 243.143 94.9335C243.813 94.9944 244.351 95.5121 244.727 96.4662C245.031 97.2173 245.265 97.9988 245.498 98.7499C245.732 99.501 245.894 100.049 246.127 100.689C248.574 107.225 254.735 112.189 262.205 113.64C269.219 115.01 277.054 113.102 286.159 107.824C286.216 107.782 286.282 107.753 286.351 107.738C286.421 107.723 286.493 107.723 286.562 107.738C286.632 107.753 286.697 107.782 286.755 107.823C286.812 107.865 286.861 107.918 286.896 107.979C286.932 108.041 286.954 108.109 286.962 108.18C286.97 108.25 286.962 108.322 286.941 108.389C286.919 108.457 286.884 108.519 286.836 108.572C286.789 108.625 286.731 108.668 286.666 108.697C277.339 114.107 269.28 116.046 262.012 114.635C254.197 113.122 247.741 107.905 245.173 101.044C244.93 100.384 244.727 99.7142 244.524 99.0138C244.321 98.3135 244.067 97.5218 243.783 96.8113C243.63 96.4154 243.377 95.9485 243.052 95.9181C242.999 95.9128 242.946 95.9202 242.896 95.9396C242.847 95.959 242.803 95.9899 242.768 96.0297C242.471 96.4742 242.355 97.015 242.443 97.5421V97.9176C242.514 98.5469 242.585 99.1458 242.605 99.7852C242.605 101.318 242.849 101.633 242.9 101.693C242.948 101.739 242.987 101.794 243.013 101.855C243.04 101.916 243.053 101.982 243.053 102.049C243.053 102.115 243.04 102.181 243.013 102.242C242.987 102.303 242.948 102.358 242.9 102.404C242.853 102.451 242.798 102.489 242.737 102.514C242.676 102.54 242.611 102.553 242.544 102.553C242.478 102.553 242.413 102.54 242.352 102.514C242.291 102.489 242.235 102.451 242.189 102.404L235.693 96.1211C235.456 95.8482 235.156 95.6359 234.82 95.5019C234.687 95.4791 234.551 95.5043 234.435 95.573C234.415 95.5834 234.397 95.5978 234.383 95.6153C234.369 95.6327 234.359 95.6529 234.353 95.6745C234.353 95.8166 234.536 96.0906 234.638 96.2226L237.236 99.5721C237.307 99.6719 237.339 99.7939 237.327 99.9157C237.315 100.038 237.26 100.151 237.171 100.235C237.082 100.319 236.965 100.368 236.843 100.373C236.721 100.378 236.601 100.339 236.505 100.262C235.37 99.2834 234.185 98.3652 232.953 97.5116C232.537 97.2274 232.242 97.1767 232.151 97.268C232.059 97.3594 231.988 97.9988 232.445 98.5875L235.074 101.967C235.156 102.07 235.196 102.199 235.184 102.33C235.173 102.46 235.112 102.582 235.013 102.668C234.918 102.756 234.793 102.804 234.663 102.804C234.533 102.804 234.408 102.756 234.313 102.668C233.463 101.797 232.546 100.992 231.572 100.262C231.457 100.158 231.318 100.085 231.166 100.049C231.166 100.049 231.166 100.049 231.166 100.151C231.238 100.309 231.338 100.453 231.461 100.577L233.917 103.368C234.007 103.463 234.057 103.588 234.057 103.718C234.057 103.849 234.007 103.974 233.917 104.069C233.821 104.159 233.694 104.21 233.562 104.21C233.43 104.21 233.302 104.159 233.206 104.069C232.191 103.054 231.258 102.526 230.953 102.576C230.892 102.708 230.953 103.003 231.877 103.815L232.059 103.997C234.211 106.109 236.586 108.311 239.307 110.747C244.524 115.416 252.583 121.912 262.235 124.064C271.563 126.185 282.18 123.983 290.655 118.187C290.71 118.145 290.772 118.114 290.839 118.097C290.906 118.08 290.975 118.076 291.043 118.087C291.111 118.097 291.176 118.121 291.235 118.158C291.293 118.194 291.344 118.242 291.383 118.299C291.422 118.355 291.45 118.419 291.464 118.487C291.477 118.554 291.477 118.624 291.463 118.691C291.449 118.759 291.422 118.822 291.382 118.879C291.343 118.935 291.292 118.983 291.234 119.019C284.802 123.415 277.202 125.783 269.411 125.82Z" fill="#231F20"/>
<path d="M320.232 219.657L321.146 226.346C321.146 226.346 302.531 228.274 303.252 226.67C304.615 224.346 306.113 222.102 307.738 219.951" fill="white"/>
<path d="M307.18 227.807C304.876 227.807 303.191 227.635 302.856 227.158C302.782 227.058 302.737 226.94 302.724 226.817C302.712 226.694 302.733 226.57 302.785 226.457C304.165 224.1 305.683 221.825 307.332 219.647C307.414 219.541 307.534 219.472 307.667 219.453C307.799 219.434 307.934 219.467 308.042 219.545C308.15 219.626 308.221 219.746 308.24 219.879C308.259 220.013 308.225 220.148 308.144 220.256C308.144 220.306 304.764 224.833 303.84 226.61C305.383 227.076 313.239 226.61 320.578 225.899L319.725 219.718C319.707 219.583 319.744 219.447 319.827 219.339C319.91 219.232 320.032 219.162 320.167 219.144C320.301 219.127 320.437 219.163 320.545 219.246C320.652 219.329 320.722 219.451 320.74 219.586L321.664 226.275C321.673 226.342 321.669 226.411 321.652 226.478C321.634 226.544 321.604 226.606 321.562 226.66C321.473 226.768 321.346 226.837 321.207 226.853C317.106 227.279 311.189 227.807 307.18 227.807Z" fill="#231F20"/>
<path d="M294.147 193.998C294.147 193.998 298.034 198.88 297.324 199.773C296.613 200.666 276.009 201.681 276.892 199.539C277.775 197.398 283.297 192.84 283.297 192.84" fill="white"/>
<path d="M285.002 201.326C281.277 201.326 277.897 201.092 276.882 200.483C276.669 200.392 276.501 200.22 276.414 200.006C276.326 199.791 276.327 199.551 276.415 199.336C277.339 197.103 282.728 192.637 282.962 192.445C283.066 192.36 283.199 192.321 283.332 192.334C283.465 192.347 283.587 192.413 283.672 192.516C283.715 192.567 283.748 192.627 283.768 192.692C283.788 192.756 283.794 192.824 283.788 192.891C283.781 192.958 283.761 193.023 283.729 193.082C283.697 193.142 283.654 193.194 283.601 193.236C282.129 194.444 278.211 197.915 277.399 199.621C278.983 200.778 295.01 200.22 296.898 199.438C296.898 198.799 295.497 196.525 293.741 194.312C293.698 194.261 293.666 194.202 293.646 194.139C293.626 194.075 293.62 194.008 293.626 193.942C293.633 193.876 293.653 193.811 293.685 193.753C293.717 193.695 293.76 193.643 293.812 193.602C293.919 193.518 294.054 193.48 294.189 193.495C294.324 193.51 294.447 193.578 294.533 193.683C296.421 196.058 298.501 199.093 297.71 200.088C297.172 200.778 290.655 201.326 285.002 201.326Z" fill="#231F20"/>
<path d="M286.92 141.725C286.92 141.725 263.667 156.158 263.961 163.964C264.154 169.262 280.424 195.875 280.424 195.875L296.025 195.013C296.025 195.013 281.815 173.302 284.951 170.125C288.087 166.948 305.515 158.188 305.515 158.188L305.83 220.601C305.83 220.601 321.755 219.484 321.755 218.581C321.755 217.678 325.196 144.374 325.196 144.374L286.92 141.725Z" fill="#231F20"/>
<path d="M320.649 74.6437C320.576 73.6745 320.171 72.76 319.502 72.0555C319.154 71.7244 318.7 71.5274 318.22 71.4996C317.741 71.4717 317.267 71.6147 316.883 71.9032C317.005 70.1777 315.442 68.8582 313.919 67.9955C312.02 66.9516 309.963 66.2247 307.829 65.8437C306.42 65.6143 304.994 65.4956 303.566 65.4884C301.425 65.4884 299.141 65.6204 297.476 66.9297C296.516 67.7835 295.817 68.8907 295.458 70.1241C295.099 71.3575 295.095 72.6672 295.446 73.9028C296.176 76.3771 297.582 78.5986 299.506 80.3176C301.678 82.5987 304.375 84.3132 307.362 85.3114C309.14 85.8111 310.976 86.0705 312.823 86.0828C315.777 86.1843 317.056 84.7937 318.568 82.5404C320.246 80.2712 320.991 77.4452 320.649 74.6437Z" fill="white"/>
<path d="M313.026 86.6004H312.732C310.841 86.5828 308.96 86.3166 307.139 85.8087C304.059 84.8049 301.271 83.0626 299.019 80.7337C297.024 78.9501 295.569 76.6436 294.817 74.0753C294.445 72.7417 294.457 71.33 294.852 70.0029C295.247 68.6758 296.009 67.4874 297.05 66.5745C298.897 65.1535 301.343 64.9911 303.495 65.0317C304.947 65.0354 306.397 65.1576 307.829 65.3971C310.031 65.7792 312.154 66.5235 314.112 67.5996C315.208 68.1985 316.924 69.3962 317.279 71.1217C317.716 71.0041 318.175 70.9982 318.615 71.1047C319.055 71.2111 319.461 71.4263 319.796 71.7307C320.554 72.5143 321.017 73.5367 321.105 74.6234C321.501 77.3741 320.781 79.9928 318.852 82.8652C317.472 84.9561 316.122 86.6004 313.026 86.6004ZM303.049 65.9858C301.177 65.8405 299.309 66.3109 297.73 67.3256C295.7 68.8785 295.345 71.6901 295.852 73.781C296.565 76.1651 297.924 78.3049 299.78 79.9623C301.896 82.1841 304.523 83.8534 307.433 84.8242C309.168 85.3135 310.96 85.5662 312.762 85.5753C315.32 85.6666 316.477 84.6212 318.06 82.2562C319.708 80.1084 320.458 77.4046 320.151 74.7148C320.091 73.8581 319.732 73.0498 319.136 72.431C318.885 72.1828 318.554 72.0306 318.201 72.001C317.849 71.9713 317.498 72.066 317.208 72.2686C317.137 72.3414 317.044 72.3895 316.944 72.406C316.843 72.4224 316.74 72.4063 316.65 72.36C316.557 72.3187 316.478 72.2498 316.426 72.1627C316.373 72.0755 316.349 71.9743 316.355 71.8728C316.467 70.2386 314.711 69.0206 313.655 68.4421C311.796 67.415 309.779 66.7049 307.687 66.341C306.305 66.1137 304.906 65.9983 303.505 65.9959L303.049 65.9858Z" fill="#231F20"/>
<path d="M313.513 102.201C313.158 94.5377 314.711 78.998 314.711 78.998C314.711 78.998 304.947 79.5563 301.658 74.8568C297.598 78.0135 296.816 86.8846 297.547 89.5337C299.009 94.7813 305.809 93.5937 305.809 93.5937L304.936 103.175L313.513 102.201Z" fill="white"/>
<path d="M304.936 103.713C304.804 103.712 304.678 103.661 304.581 103.571C304.529 103.517 304.489 103.454 304.463 103.384C304.437 103.314 304.425 103.24 304.429 103.165L305.251 94.1925C303.434 94.3346 298.339 94.2839 297.06 89.6758C296.278 86.8643 297.141 77.7597 301.343 74.4508C301.457 74.3672 301.599 74.3308 301.739 74.3493C301.807 74.3593 301.872 74.3835 301.929 74.4202C301.987 74.4569 302.036 74.5054 302.074 74.5625C305.119 78.9676 314.579 78.4804 314.68 78.4804C314.754 78.4735 314.828 78.4837 314.896 78.5101C314.965 78.5365 315.026 78.5784 315.076 78.6326C315.127 78.6862 315.165 78.7505 315.188 78.8207C315.211 78.891 315.218 78.9654 315.208 79.0386C315.208 79.1908 313.676 94.629 314.021 102.16C314.029 102.289 313.987 102.416 313.904 102.514C313.821 102.613 313.702 102.675 313.574 102.688L304.997 103.703L304.936 103.713ZM305.809 93.1167C305.937 93.1167 306.06 93.1637 306.154 93.2486C306.21 93.3023 306.253 93.3672 306.281 93.439C306.309 93.5108 306.321 93.5878 306.317 93.6648L305.505 102.627L312.995 101.744C312.752 94.8624 313.879 82.3475 314.142 79.5258C312.021 79.5258 304.764 79.404 301.587 75.5977C298.014 78.9168 297.415 87.1484 298.034 89.4017C299.354 94.1316 305.464 93.1674 305.728 93.1268L305.809 93.1167Z" fill="#231F20"/>
<path d="M305.809 93.6242C305.809 93.6242 308.621 93.269 310.011 91.8784C310.011 91.8784 308.154 96.5271 305.292 97.2173L305.809 93.6242Z" fill="#231F20"/>
<path d="M305.292 97.6842C305.235 97.6851 305.179 97.6747 305.127 97.6538C305.075 97.6329 305.027 97.6018 304.987 97.5624C304.931 97.5121 304.888 97.4489 304.861 97.3782C304.835 97.3075 304.826 97.2314 304.835 97.1564L305.353 93.5532C305.367 93.4545 305.414 93.3633 305.486 93.2937C305.557 93.224 305.649 93.1797 305.748 93.1675C305.748 93.1675 308.428 92.8122 309.687 91.5536C309.764 91.4787 309.864 91.4319 309.97 91.4209C310.077 91.4098 310.185 91.4351 310.275 91.4927C310.363 91.5523 310.428 91.64 310.46 91.7415C310.491 91.843 310.487 91.9522 310.448 92.051C310.367 92.254 308.469 96.923 305.373 97.6639L305.292 97.6842ZM306.225 94.0302L305.86 96.517C307.13 95.7095 308.158 94.573 308.834 93.2284C308.001 93.6032 307.125 93.8726 306.225 94.0302Z" fill="#231F20"/>
<path d="M299.729 97.2477L277.45 109.428L282.84 125.089C282.84 125.089 310.864 110.26 311.047 106.251C311.229 102.241 299.729 97.2477 299.729 97.2477Z" fill="#ED1E79"/>
<path d="M286.342 142.151C286.342 142.151 287.407 126.206 289.387 114.056C290.239 108.89 289.914 105.276 291.63 102.485C297.365 93.1065 319.715 95.9079 322.963 102.414C326.211 108.92 325.196 144.374 325.196 144.374L286.342 142.151Z" fill="#ED1E79"/>
<path d="M313.117 84.4892C313.242 83.8875 313.529 83.3317 313.948 82.8823C314.367 82.433 314.901 82.1075 315.492 81.9415C315.757 81.8563 316.037 81.8285 316.314 81.86C316.59 81.8915 316.857 81.9816 317.096 82.1242C317.378 82.3637 317.594 82.6713 317.724 83.0176C317.853 83.364 317.892 83.7378 317.837 84.1035C317.752 85.2647 317.226 86.3495 316.368 87.1362C315.509 87.9229 314.383 88.3521 313.219 88.336" fill="white"/>
<path d="M313.28 88.7928H313.209C313.142 88.7914 313.076 88.777 313.015 88.7503C312.954 88.7235 312.899 88.685 312.853 88.637C312.807 88.5889 312.77 88.5322 312.746 88.4701C312.722 88.408 312.71 88.3418 312.711 88.2751C312.711 88.2081 312.725 88.1417 312.751 88.08C312.777 88.0183 312.816 87.9625 312.864 87.9161C312.912 87.8696 312.97 87.8334 313.032 87.8096C313.095 87.7859 313.162 87.775 313.229 87.7778C314.257 87.8211 315.26 87.4562 316.02 86.7628C316.785 86.063 317.254 85.097 317.33 84.0629C317.368 83.7863 317.342 83.5045 317.252 83.2401C317.162 82.9757 317.011 82.736 316.812 82.5404C316.632 82.4404 316.434 82.3796 316.229 82.3621C316.024 82.3446 315.818 82.3708 315.624 82.4389C315.122 82.5776 314.667 82.8516 314.309 83.231C313.951 83.6104 313.704 84.0807 313.594 84.5907C313.567 84.7211 313.491 84.836 313.381 84.9117C313.272 84.9873 313.137 85.0177 313.006 84.9967C312.873 84.9696 312.757 84.8919 312.681 84.7799C312.605 84.668 312.576 84.5309 312.6 84.3978C312.742 83.7026 313.072 83.0599 313.556 82.5406C314.039 82.0213 314.657 81.6454 315.34 81.4543C315.677 81.3455 316.033 81.3118 316.383 81.3557C316.734 81.3995 317.071 81.5198 317.37 81.7081C317.728 81.993 318.004 82.3676 318.169 82.7937C318.335 83.2198 318.385 83.6822 318.314 84.1339C318.222 85.4156 317.646 86.6144 316.704 87.4885C315.763 88.3626 314.524 88.8468 313.239 88.8435L313.28 88.7928Z" fill="#231F20"/>
<path d="M301.783 79.992C301.927 79.5318 301.843 79.0965 301.597 79.0196C301.351 78.9428 301.035 79.2537 300.892 79.7139C300.748 80.1741 300.831 80.6094 301.077 80.6862C301.323 80.763 301.639 80.4522 301.783 79.992Z" fill="#231F20"/>
<path d="M299.273 89.9195C299.882 90.3053 300.546 90.5962 301.242 90.7822C301.698 90.9537 302.192 90.9998 302.672 90.9159C303.152 90.832 303.601 90.6212 303.972 90.3052C304.228 89.9766 304.424 89.6055 304.551 89.209" fill="white"/>
<path d="M302.328 91.4419C301.917 91.4403 301.507 91.3857 301.11 91.2795C300.364 91.074 299.653 90.7594 298.999 90.3457C298.886 90.2729 298.806 90.1583 298.778 90.027C298.749 89.8957 298.774 89.7585 298.846 89.6453C298.882 89.5884 298.928 89.5391 298.982 89.5004C299.037 89.4617 299.099 89.4344 299.164 89.4202C299.23 89.406 299.297 89.4051 299.363 89.4177C299.429 89.4302 299.491 89.4558 299.547 89.4931C300.112 89.8504 300.728 90.1207 301.374 90.2949C301.739 90.3863 302.978 90.6502 303.597 89.9701C303.807 89.6845 303.969 89.3654 304.074 89.0262C304.122 88.9016 304.217 88.8008 304.338 88.7457C304.46 88.6906 304.598 88.6856 304.723 88.7318C304.85 88.7777 304.953 88.8718 305.01 88.9936C305.067 89.1154 305.074 89.2549 305.028 89.3814C304.885 89.8441 304.654 90.2748 304.348 90.6502C304.085 90.9162 303.77 91.1241 303.422 91.2605C303.074 91.3969 302.701 91.4587 302.328 91.4419Z" fill="#231F20"/>
<path d="M299.222 80.754C299.222 80.754 295.304 85.22 296.258 86.1843C297.212 87.1485 299.496 86.6613 299.496 86.6613" fill="white"/>
<path d="M298.248 87.3007C297.397 87.3584 296.557 87.0857 295.903 86.5395C294.776 85.4128 297.263 82.2156 298.836 80.4495C298.933 80.3558 299.062 80.3035 299.197 80.3035C299.331 80.3035 299.46 80.3558 299.557 80.4495C299.604 80.4966 299.642 80.5528 299.668 80.6146C299.694 80.6765 299.707 80.7428 299.707 80.8098C299.707 80.8768 299.694 80.9431 299.668 81.005C299.642 81.0668 299.604 81.1229 299.557 81.1701C297.781 83.2001 296.37 85.4636 296.593 85.9203C297.212 86.5293 298.796 86.3669 299.354 86.2553C299.489 86.2283 299.628 86.256 299.742 86.3321C299.857 86.4083 299.936 86.5267 299.963 86.6613C299.99 86.7959 299.962 86.9356 299.886 87.0498C299.81 87.1641 299.692 87.2433 299.557 87.2703C299.123 87.3259 298.684 87.3361 298.248 87.3007Z" fill="#231F20"/>
<path d="M282.84 125.566C282.748 125.568 282.658 125.544 282.579 125.497C282.501 125.451 282.436 125.383 282.393 125.302C282.331 125.183 282.317 125.045 282.355 124.916C282.393 124.787 282.48 124.678 282.596 124.612C282.749 124.531 298.166 116.299 303.779 113.254C303.837 113.222 303.901 113.202 303.966 113.195C304.032 113.188 304.099 113.194 304.162 113.213C304.225 113.232 304.284 113.263 304.335 113.305C304.386 113.347 304.428 113.399 304.459 113.457C304.493 113.516 304.514 113.58 304.522 113.647C304.53 113.714 304.524 113.781 304.506 113.846C304.487 113.91 304.455 113.97 304.412 114.022C304.369 114.074 304.316 114.117 304.256 114.148C298.643 117.193 283.236 125.424 283.073 125.505C283.002 125.546 282.922 125.567 282.84 125.566Z" fill="#231F20"/>
<path d="M146.739 202.635C146.67 202.634 146.603 202.618 146.542 202.588C146.48 202.559 146.426 202.516 146.383 202.463C146.344 202.415 146.314 202.361 146.296 202.302C146.277 202.243 146.271 202.181 146.276 202.12C146.282 202.059 146.3 201.999 146.329 201.945C146.357 201.89 146.397 201.842 146.444 201.803L185.745 169.607C185.841 169.53 185.964 169.493 186.087 169.504C186.21 169.516 186.324 169.574 186.405 169.668C186.444 169.716 186.473 169.771 186.49 169.83C186.508 169.889 186.513 169.951 186.507 170.013C186.5 170.074 186.482 170.133 186.452 170.188C186.422 170.242 186.382 170.289 186.334 170.328L147.094 202.524C146.995 202.606 146.867 202.646 146.739 202.635Z" fill="#D1D3D4"/>
<path d="M185.989 202.635C185.881 202.633 185.776 202.594 185.694 202.524L146.444 170.328C146.397 170.289 146.357 170.24 146.329 170.186C146.3 170.131 146.282 170.072 146.276 170.011C146.271 169.949 146.277 169.887 146.296 169.829C146.314 169.77 146.344 169.715 146.383 169.668C146.464 169.574 146.578 169.516 146.701 169.504C146.824 169.493 146.947 169.53 147.043 169.607L186.283 201.803C186.331 201.841 186.371 201.889 186.401 201.943C186.431 201.997 186.449 202.057 186.456 202.118C186.463 202.179 186.457 202.241 186.44 202.301C186.422 202.36 186.393 202.415 186.354 202.463C186.309 202.516 186.253 202.559 186.19 202.589C186.127 202.618 186.058 202.634 185.989 202.635Z" fill="#D1D3D4"/>
<path d="M305.515 158.686C305.4 158.692 305.287 158.658 305.195 158.59C305.102 158.522 305.036 158.424 305.007 158.313C304.979 158.202 304.989 158.085 305.037 157.98C305.086 157.876 305.168 157.792 305.271 157.742C305.332 157.742 310.62 154.89 311.96 152.342C311.991 152.284 312.033 152.232 312.084 152.19C312.135 152.148 312.194 152.117 312.258 152.098C312.321 152.079 312.387 152.073 312.453 152.08C312.519 152.087 312.582 152.107 312.64 152.139C312.7 152.169 312.752 152.211 312.795 152.261C312.838 152.312 312.871 152.371 312.89 152.434C312.91 152.497 312.917 152.564 312.911 152.63C312.905 152.696 312.885 152.761 312.853 152.819C311.372 155.641 305.972 158.513 305.748 158.635C305.674 158.666 305.595 158.683 305.515 158.686Z" fill="white"/>
<path d="M75.6784 216.673C75.5869 216.674 75.4968 216.65 75.418 216.604C75.3392 216.557 75.2748 216.49 75.2318 216.409C73.2729 212.775 67.0509 204.554 66.99 204.472C66.9395 204.421 66.9006 204.359 66.8758 204.292C66.851 204.224 66.8408 204.152 66.8461 204.08C66.8513 204.008 66.8718 203.938 66.9061 203.875C66.9405 203.812 66.9879 203.756 67.0453 203.713C67.1027 203.669 67.1686 203.638 67.2389 203.622C67.3091 203.606 67.382 203.605 67.4526 203.619C67.5232 203.634 67.59 203.663 67.6485 203.705C67.707 203.747 67.7559 203.801 67.7919 203.863C68.0456 204.198 74.1255 212.227 76.125 215.932C76.1566 215.99 76.1761 216.054 76.1824 216.12C76.1888 216.187 76.1818 216.253 76.1619 216.317C76.1421 216.38 76.1097 216.439 76.0668 216.49C76.0238 216.54 75.9711 216.582 75.9119 216.612C75.8407 216.652 75.7602 216.673 75.6784 216.673Z" fill="white"/>
</svg>
